<?xml version="1.0" standalone="no"?>
<!DOCTYPE svg PUBLIC "-//W3C//DTD SVG 1.1//EN" "http://www.w3.org/Graphics/SVG/1.1/DTD/svg11.dtd">
<svg xmlns="http://www.w3.org/2000/svg" xmlns:xlink="http://www.w3.org/1999/xlink" version="1.1" id="Contours" x="0px" y="0px" width="1265.137451171875" height="1514.3372802734375" viewBox="-0.000000 0.000000 1265.137451 1514.337280" enable-background="new 0 0 1265.137451 1265.137451" xml:space="preserve" stroke="black" fill="none" stroke-linecap="round" stroke-linejoin="round"><path class="selected" fill="#000000" opacity="1.000000" stroke="none" d=" M1246.507405 9.729365 C1227.892032 8.867254 1208.797644 7.898348 1191.705069 0.474117 C1216.179113 0.001548 1240.660431 -0.094237 1265.137423 0.186808 C1259.892088 0.852839 1257.402247 7.445129 1252.425803 9.231788 C1250.549781 9.905328 1248.498540 9.821578 1246.507405 9.729365 z"/><path class="selected" fill="#000000" opacity="1.000000" stroke="none" d=" M1117.284204 0.506179 C1114.659757 1.435192 1111.725043 1.461468 1109.084382 0.579597 C1111.721428 0.011176 1114.447797 -0.140813 1117.131684 0.130978 z"/><path class="selected" fill="#000000" opacity="1.000000" stroke="none" d=" M1106.284204 0.506179 C1103.659757 1.435192 1100.725043 1.461468 1098.084382 0.579597 C1100.721428 0.011176 1103.447797 -0.140813 1106.131684 0.130978 z"/><path class="selected" fill="#000000" opacity="1.000000" stroke="none" d=" M178.022310 927.789003 C185.387282 931.975846 189.190427 940.484324 190.997787 948.761154 C193.162003 958.672213 193.151817 968.911677 193.131982 979.056254 C193.086861 1002.133869 192.988135 1025.592842 186.364292 1047.699470 C183.757247 1056.400310 182.597927 1065.458263 181.448580 1074.468273 C175.471740 1121.322165 169.494899 1168.176057 163.518059 1215.029949 C158.028574 1258.063350 152.528367 1301.457415 155.872344 1344.710460 C156.464967 1352.375798 147.786967 1357.827523 140.098759 1357.819252 C132.410550 1357.810980 125.166476 1354.362531 117.578861 1353.122887 C105.959602 1351.224563 93.559296 1354.852179 84.795151 1362.713512 C80.423906 1352.078316 82.624355 1340.036450 84.563482 1328.702652 C90.114401 1296.258709 92.964223 1263.418413 95.504581 1230.601211 C97.505600 1204.751382 99.318219 1178.887383 101.130818 1153.023659 C101.746281 1144.241701 102.361744 1135.459743 102.977207 1126.677786 C105.374607 1092.469620 107.786085 1058.153700 114.459986 1024.517333 C118.792719 1002.680422 124.914219 981.198696 132.743020 960.358036 C136.480702 950.408136 140.837140 940.267462 148.683726 933.097952 C156.530311 925.928442 168.782237 922.536209 178.022307 927.789008 M107.508229 1285.889048 C106.335329 1297.994801 105.036859 1310.510819 99.019798 1321.080583 C97.429238 1323.874611 98.949205 1327.610192 101.517155 1329.544645 C104.085104 1331.479097 107.393149 1332.062975 110.564673 1332.590144 C116.687073 1333.607806 122.809474 1334.625468 128.931874 1335.643131 C132.498087 1336.235905 137.594927 1335.699651 137.787713 1332.089653 C140.501899 1281.264548 145.099881 1230.540070 151.569047 1180.055341 C152.907036 1169.613807 154.325008 1159.182709 155.742963 1148.751733 C157.312638 1137.204660 158.882313 1125.657586 160.451987 1114.110512 C163.115368 1094.517757 165.780054 1074.916754 169.340573 1055.467015 C175.187332 1023.528440 176.790814 990.815750 174.095653 958.458476 C173.543074 951.824393 169.660722 942.945498 163.322272 944.980304 C160.871027 945.767216 159.281197 948.078368 157.922328 950.264988 C141.589957 976.546162 131.418163 1006.628906 128.449861 1037.428834 C127.819001 1043.974810 127.489820 1050.643255 125.339683 1056.858132 C123.815803 1061.262834 124.007670 1066.047786 124.137420 1070.706839 C125.078077 1104.482592 121.815704 1138.218470 118.557236 1171.849835 C114.874234 1209.862906 111.191231 1247.875977 107.508229 1285.889048 M134.719504 968.359881 C132.062982 969.241039 131.350826 973.401229 133.562998 975.115827 C135.583040 973.327477 136.343671 970.251066 135.389754 967.727412 M115.703412 1136.256883 C113.547217 1137.059472 114.292753 1141.064143 116.593316 1141.037033 C117.745588 1139.466556 117.382594 1136.995323 115.827373 1135.822541 M162.599237 1177.104599 C163.916975 1177.577271 164.441724 1175.296859 163.689730 1174.116030 C162.356899 1173.878437 160.699473 1174.312412 160.281860 1175.600238 C159.864247 1176.888064 161.932524 1178.246721 162.605242 1177.071840 M184.733801 1030.883003 C186.040107 1033.027363 190.154562 1030.667140 188.962941 1028.456992 C187.438167 1028.166388 185.777357 1029.194392 185.357419 1030.688728 M115.089753 1170.586868 C115.323235 1169.737042 115.166077 1168.788100 114.671088 1168.058918 C113.326766 1167.990759 112.065702 1169.238698 112.119792 1170.583659 C112.964429 1171.282245 114.285769 1171.325016 115.173813 1170.682515 z"/><path class="selected" fill="#000000" opacity="1.000000" stroke="none" d=" M62.476801 1117.365824 C59.463012 1180.592089 56.194307 1245.078599 33.497444 1304.167480 C52.507302 1335.359112 74.457576 1364.757808 98.962357 1391.846705 C121.559654 1416.826969 146.754897 1440.457105 161.402638 1470.790175 C163.696336 1475.540048 165.559544 1481.669513 162.143607 1485.688682 C156.514903 1492.311378 146.191523 1484.874400 141.063051 1477.857192 C129.594868 1462.165453 118.126684 1446.473715 106.658501 1430.781976 C65.191868 1392.988039 30.140914 1348.172549 3.450358 1298.821991 C1.451152 1295.125480 -0.563537 1291.051990 0.144961 1286.909642 C0.853459 1282.767293 5.711226 1279.207154 9.307478 1281.381550 C13.884895 1284.149187 20.157922 1281.970464 23.649223 1277.917888 C27.140524 1273.865311 28.512191 1268.451811 29.703458 1263.237078 C39.313601 1221.168956 44.138649 1178.009652 44.055768 1134.857887 C44.023704 1118.164170 43.260332 1101.481471 42.497119 1084.805179 C41.047509 1053.131030 39.597899 1021.456881 38.148288 989.782731 C27.730163 972.336982 31.914524 950.342384 34.169015 930.148108 C40.587369 872.656622 28.459749 814.135057 36.432601 756.838462 C45.380623 754.702466 49.603875 767.459485 49.673013 776.658658 C49.871855 803.119637 50.070705 829.580613 50.269555 856.041590 C54.743522 875.901152 54.400986 896.828131 49.279458 916.530632 C48.710237 918.720425 50.357942 920.784151 51.621556 922.660980 C52.885170 924.537809 53.715550 927.379857 51.969901 928.819271 C50.224251 930.258686 47.717607 926.157936 49.978655 926.075054 C57.740200 943.886838 59.683260 964.179113 55.442846 983.140128 C52.023596 998.429305 53.613184 1014.338649 55.219354 1029.922949 C55.809154 1035.645637 56.398953 1041.368326 56.988753 1047.091014 C58.657475 1063.282245 60.326198 1079.473476 61.994920 1095.664707 C58.954583 1095.641897 55.914246 1095.619088 52.873909 1095.596279 C61.372298 1097.354779 62.890004 1108.697249 62.476801 1117.365824 M45.874496 1059.658427 C47.213776 1062.535873 51.272828 1063.721391 53.950285 1062.017105 C52.572515 1058.335983 49.036489 1055.556985 45.134020 1055.088313 C45.528928 1056.572090 45.923837 1058.055867 46.318745 1059.539644 M46.636306 864.013432 C47.728119 864.407719 49.367101 863.730761 49.102427 862.600510 C47.694294 860.872520 45.715953 859.617239 43.552787 859.079197 C41.411696 861.651188 41.458807 865.783107 43.657985 868.305611 C44.510970 866.824822 45.363955 865.344033 46.216940 863.863244 M45.468249 772.812563 C46.382388 771.153748 45.408319 768.766476 43.594642 768.220679 C41.722371 770.360526 40.462882 773.030599 40.002287 775.836345 C42.100696 775.814257 44.125335 774.454825 44.940057 772.520908 M46.079514 881.671691 C47.093474 882.267830 48.589309 881.725404 48.985493 880.617913 C48.184970 879.552618 46.098943 880.290029 46.145767 881.621754 M51.141943 1030.585391 C50.140586 1030.992834 50.555444 1032.864984 51.635185 1032.811268 C53.036308 1032.906099 52.401457 1030.008102 51.168299 1030.680012 z"/><path class="selected" fill="#000000" opacity="1.000000" stroke="none" d=" M103.655462 815.167932 C105.331520 805.738119 107.007577 796.308307 108.683634 786.878494 C109.577759 781.847980 110.717941 776.379488 114.660892 773.130077 C118.242147 770.178743 123.254106 769.821195 127.894166 769.896100 C135.206470 770.014144 142.728803 770.947470 149.104527 774.529909 C155.480251 778.112349 160.502272 784.819337 160.342816 792.130855 C159.914836 811.754907 157.726938 831.340242 153.813962 850.574980 C153.479259 852.220257 153.078680 853.964036 151.883204 855.142933 C150.398810 856.606740 148.117629 856.801612 146.035839 856.912536 C137.583590 857.362895 129.131341 857.813255 120.679093 858.263614 C116.428597 858.490093 111.987934 858.683106 108.109036 856.930349 C103.162431 854.695128 99.960208 849.484973 99.232889 844.105743 C98.505570 838.726513 99.983964 833.236949 102.418709 828.385442 C103.219340 826.790093 104.149668 825.003460 103.579739 823.311913 C102.703195 820.710343 103.175045 817.870836 103.655457 815.167931 M119.821115 833.683254 C119.985452 835.947161 122.932773 836.858239 125.167621 836.461078 C127.402470 836.063917 129.627589 834.957152 131.837787 835.474169 C135.426815 836.313725 138.998669 833.352009 140.257631 829.887764 C141.516592 826.423519 141.098364 822.611313 140.851904 818.933646 C140.605444 815.255979 140.608754 811.328304 142.548247 808.193923 C144.862191 804.454398 145.051107 799.492900 143.028225 795.588245 C141.005344 791.683590 136.843385 788.976146 132.453938 788.709442 C129.516152 788.530941 125.907144 790.184112 125.983193 793.126333 C126.196040 801.361027 124.579994 809.638015 121.285283 817.187873 C119.054293 822.300203 119.417275 828.119969 119.821114 833.683253 z"/><path class="selected" fill="#000000" opacity="1.000000" stroke="none" d=" M175.608686 233.682651 C173.809850 237.181721 172.011015 240.680791 170.212179 244.179861 C166.899554 243.108010 166.846061 238.341929 168.245550 235.153861 C169.645039 231.965793 171.878917 228.650417 170.895274 225.310537 C173.208890 224.694199 175.779367 226.953988 175.464510 229.327500 C176.407818 227.197851 179.704583 226.974096 181.375284 228.597054 C183.045985 230.220013 183.216174 232.935128 182.406679 235.119151 C181.597184 237.303173 179.990476 239.081782 178.420100 240.802001 C177.258808 242.074100 175.748510 243.466212 174.067149 243.092233 C174.580994 239.955703 175.094840 236.819177 175.608686 233.682651 z"/><path class="selected" fill="#000000" opacity="1.000000" stroke="none" d=" M183.403860 219.626378 C183.653439 217.314853 184.935160 215.134213 186.833334 213.791689 C187.488648 217.774923 186.234123 222.029392 183.522479 225.019803 C181.032437 224.513757 180.712543 220.244614 183.099366 219.373137 z"/><path class="selected" fill="#000000" opacity="1.000000" stroke="none" d=" M443.063194 1164.590924 C442.896910 1162.437958 444.677758 1160.321764 446.827481 1160.117797 C447.286837 1163.060033 446.037501 1166.207733 443.685460 1168.034117 C442.317335 1167.583223 441.951120 1165.439329 443.091996 1164.559855 z"/><path class="selected" fill="#000000" opacity="1.000000" stroke="none" d=" M176.543906 163.149375 C175.824698 161.808883 177.138737 159.905135 178.647157 160.102236 C179.111205 160.839136 179.286014 161.753007 179.126691 162.609150 C178.403821 163.087191 177.484141 163.257050 176.638205 163.068758 z"/><path class="selected" fill="#000000" opacity="1.000000" stroke="none" d=" M284.698540 912.900913 C287.403178 896.148014 290.449625 878.591904 300.972826 865.278868 C303.689107 861.842465 306.842193 858.780211 309.985118 855.729135 C314.644253 851.206158 319.888545 846.412711 326.369721 846.013692 C334.314610 845.524559 341.036462 851.856344 345.379378 858.527145 C352.364428 869.256315 356.033470 882.112267 355.763483 894.911997 C355.128799 925.001506 356.987662 955.143237 361.314762 984.926749 C362.160068 990.745003 362.977807 997.165504 359.757782 1002.084657 C356.920977 1006.418372 351.049191 1008.490488 346.120743 1006.897080 C341.192295 1005.303672 337.644938 1000.186271 337.882119 995.012076 C338.031495 991.753370 339.512381 988.566223 339.045450 985.337686 C338.578519 982.109150 334.451712 979.210706 332.140760 981.513090 C323.090145 990.530149 306.150918 983.263185 295.791343 990.739827 C291.942740 993.517413 287.970960 998.435602 283.634579 996.506217 C282.187844 995.862521 281.167235 994.537871 280.335271 993.190568 C273.850118 982.688347 275.596008 969.283237 277.563250 957.097844 C279.941684 942.365533 282.320112 927.633223 284.698540 912.900913 M335.723702 891.778116 C335.693605 885.585494 332.462150 879.918806 329.325048 874.579511 C328.203679 872.670959 326.929085 870.629292 324.856179 869.852698 C322.783273 869.076105 319.856612 870.505224 320.108700 872.704426 C320.514913 876.248202 315.885068 877.848000 313.440038 880.445148 C309.713525 884.403508 311.112491 891.301617 307.595297 895.447078 C305.378196 898.060215 304.608429 901.568560 303.911167 904.923831 C299.842940 924.500395 295.774713 944.076959 291.706486 963.653523 C291.275706 965.726463 294.243267 966.617859 296.358759 966.532161 C308.227301 966.051364 320.037368 964.143134 331.453391 960.861690 C334.521333 959.979836 337.951652 958.640447 339.029168 955.635635 C339.573282 954.118279 339.391405 952.449731 339.209595 950.848053 C336.983842 931.240121 335.819612 911.511737 335.723702 891.778116 z"/><path class="selected" fill="#000000" opacity="1.000000" stroke="none" d=" M843.132356 898.435708 C845.693189 909.379323 842.846545 920.747884 841.180216 931.862916 C839.513887 942.977948 839.349391 955.352613 846.204054 964.259586 C850.162467 969.403160 847.163560 976.774107 844.077314 982.483789 C840.975908 988.221516 837.500317 994.323811 831.596857 997.096787 C825.693397 999.869763 816.876980 997.046692 816.215700 990.558014 C815.539817 983.926053 806.399764 982.819809 799.777344 983.583532 C780.505200 985.806082 761.233057 988.028629 741.960915 990.251175 C735.562003 990.989125 727.233377 990.605917 725.095154 984.529846 C724.392648 982.533573 724.604113 980.346745 724.824349 978.241960 C727.346656 954.136452 729.868962 930.030944 732.391269 905.925435 C733.367225 896.598283 734.345619 887.254881 736.189125 878.059787 C738.553532 866.266529 742.333035 854.777742 747.094853 843.732541 C754.210011 827.228686 764.094709 811.092544 779.328695 801.556905 C794.562680 792.021266 816.112433 790.849837 829.606524 802.720483 C842.091623 813.703528 844.606782 832.166384 843.701416 848.770157 C842.796051 865.373931 839.343607 882.244649 843.132356 898.435708 M749.205418 898.824659 C746.228168 920.936998 745.288306 943.323227 746.401620 965.607303 C767.929882 968.072489 789.869293 966.907806 811.015557 962.177188 C813.923831 961.526580 816.998485 960.705154 819.003309 958.500153 C821.315461 955.957134 821.630401 952.234063 821.828297 948.802762 C823.516271 919.534838 825.204248 890.266914 826.892226 860.998990 C827.414343 851.945983 827.912460 842.673359 825.302445 833.989042 C822.692429 825.304726 816.300459 817.181943 807.471506 815.113341 C797.873682 812.864595 788.050408 818.154039 780.771258 824.801524 C760.544870 843.272720 752.860477 871.678160 749.205419 898.824658 M761.056583 978.067379 C760.861918 975.363172 756.475361 974.332310 755.096589 976.666752 C756.493275 978.070295 758.710567 978.589221 760.585041 977.951247 z"/><path class="selected" fill="#000000" opacity="1.000000" stroke="none" d=" M485.926631 1030.607906 C482.655661 1033.314503 477.358528 1031.837621 474.646430 1028.571211 C471.934331 1025.304801 471.183895 1020.871697 470.738872 1016.649510 C470.015196 1009.783558 469.836075 1002.860284 470.203745 995.966098 C470.619239 988.175154 471.730469 980.438287 472.979999 972.736981 C477.170083 946.911969 482.931792 921.342048 490.222647 896.215737 C493.445065 885.110388 499.376495 872.052314 510.904946 871.153668 C518.280558 870.578736 525.137592 875.773303 528.765975 882.220398 C532.394358 888.667493 533.447721 896.200227 534.435745 903.531939 C538.065639 930.467859 541.695533 957.403779 545.325427 984.339698 C545.802506 987.879902 545.707069 992.475435 542.388118 993.796501 C525.458729 1000.535030 509.765092 1010.364239 496.312751 1022.654337 C494.407238 1021.113843 491.479751 1022.577738 490.040236 1024.560640 C488.600721 1026.543542 487.814465 1029.045797 485.926629 1030.607904 M498.544172 991.727262 C505.072350 984.951531 517.427200 984.878748 521.766087 976.529993 C525.842781 968.685742 519.883050 959.130911 521.379836 950.418199 C521.731626 948.370444 522.496314 946.400970 522.716388 944.334906 C523.139413 940.363514 521.531611 936.498785 520.211719 932.729331 C517.260768 924.301770 515.624040 915.415465 515.378736 906.489563 C515.336237 904.943114 515.289885 903.263679 514.313144 902.063975 C513.336403 900.864272 511.045297 900.714585 510.466321 902.149193 C506.506059 911.962097 501.601477 921.393636 495.842383 930.271110 C494.671146 932.076536 492.351799 932.698301 490.227704 933.044107 C488.103609 933.389913 485.805301 933.671669 484.224563 935.132021 C482.643824 936.592373 482.504807 939.724692 484.492853 940.548728 C486.427280 941.350538 488.314891 939.496652 490.070830 938.355782 C491.826769 937.214911 495.197381 937.757995 494.733470 939.799978 C493.006805 947.400185 492.414799 955.257148 492.983114 963.030278 C493.775742 973.871420 492.633906 984.851186 489.627525 995.297252 C490.761799 996.749128 493.096445 996.611106 494.653800 995.626642 C496.211155 994.642178 497.265845 993.054065 498.544172 991.727263 z"/><path class="selected" fill="#000000" opacity="1.000000" stroke="none" d=" M615.346725 834.977115 C622.055529 838.465911 624.373283 846.853382 625.184091 854.371515 C628.577352 885.835157 617.658376 918.062944 624.361707 948.990930 C625.307448 953.354414 626.606991 957.731467 626.348140 962.188755 C626.089289 966.646043 623.858825 971.337800 619.716396 973.003544 C601.554594 980.306720 583.392794 987.609897 565.230993 994.913074 C562.050820 996.191879 558.447391 997.472893 555.303485 996.107356 C550.136306 993.863019 550.110427 986.362396 552.466215 981.245068 C554.822002 976.127740 558.747143 971.382907 558.755450 965.749373 C558.790262 942.145431 558.825072 918.541489 558.859882 894.937547 C558.868716 888.946546 558.886864 882.879552 560.394940 877.081459 C564.226823 862.349039 576.832183 851.808128 588.895441 842.523446 C596.592520 836.599269 606.729372 830.495814 615.346725 834.977117 M574.142633 955.587184 C574.214217 959.059047 574.989970 963.456366 578.373659 964.237135 C586.585755 961.239012 594.797849 958.240891 603.009943 955.242769 C604.839136 954.574957 607.050565 952.591457 605.720738 951.168966 C600.944927 946.060386 601.746623 938.074429 602.708805 931.147659 C605.949110 907.820658 607.508220 884.260295 607.370044 860.709723 C607.359568 858.924077 607.277773 856.969667 606.094988 855.631886 C603.391811 852.574477 598.473937 855.464414 595.578200 858.340110 C591.634465 862.256552 587.690730 866.172993 583.746995 870.089435 C579.167502 874.637234 574.364853 879.591391 573.166296 885.933132 C572.753411 888.117766 572.797751 890.359651 572.843582 892.582487 C572.987710 899.572755 573.131837 906.563024 573.275965 913.553292 C573.564854 927.564589 573.853744 941.575887 574.142633 955.587184 z"/><path class="selected" fill="#000000" opacity="1.000000" stroke="none" d=" M436.132557 451.785789 C437.049459 453.360916 437.722254 455.077828 438.119602 456.856549 C435.830668 457.331587 434.035611 453.806093 435.766227 452.234513 z"/><path class="selected" fill="#000000" opacity="1.000000" stroke="none" d=" M902.297718 323.586628 C905.327137 354.306794 944.119257 375.192299 971.432468 360.808469 C968.439930 372.859555 961.869537 383.998591 952.770093 392.447500 C970.315377 386.851277 988.124585 407.397454 984.583772 425.470014 C981.042960 443.542575 962.884838 455.761504 944.681028 458.550070 C987.623212 457.023552 1030.950425 471.512136 1064.336443 498.562741 C1111.605535 536.861935 1158.874627 575.161129 1206.143719 613.460323 C1205.326209 601.415835 1204.508700 589.371347 1203.691190 577.326860 C1212.275237 571.383987 1220.236588 585.790735 1220.872685 596.211818 C1227.974532 712.560415 1227.769470 829.354540 1220.259106 945.677481 C1218.992851 965.289651 1213.547373 989.738528 1194.318395 993.798951 C1089.814872 1015.866086 989.221982 1056.326295 898.543244 1112.764856 C901.611410 1087.091044 870.044087 1072.974340 844.833531 1067.230985 C792.027663 1055.200992 739.221796 1043.170998 686.415928 1031.141005 C665.952314 1026.479077 644.822967 1021.794558 624.156247 1025.452399 C607.085054 1028.473863 591.558358 1036.988065 576.385055 1045.374111 C550.199316 1059.846558 524.013578 1074.319004 497.827839 1088.791450 C472.282869 1102.909754 442.504921 1127.044607 452.066623 1154.620790 C449.745391 1147.117087 436.982889 1149.683041 434.410804 1157.104500 C431.838718 1164.525959 435.733052 1172.482572 439.515033 1179.366634 C445.981982 1178.647019 452.448933 1177.927405 458.915884 1177.207790 C454.961173 1237.203140 426.330857 1295.236354 433.123934 1354.976926 C434.448524 1366.625809 436.698001 1379.853819 429.218675 1388.882147 C421.739349 1397.910475 401.694563 1391.092864 406.555557 1380.424136 C334.391410 1409.346909 259.767797 1439.914311 206.641914 1496.675489 C200.074206 1503.692613 193.300426 1511.435821 183.993043 1513.833201 C174.685661 1516.230582 162.607718 1509.808716 163.495008 1500.238579 C178.689318 1485.462679 181.225502 1462.344639 182.870896 1441.214415 C198.693174 1238.023956 214.515454 1034.833498 230.337733 831.643039 C232.455528 804.446222 234.283999 775.672074 222.014916 751.307725 C214.637102 736.656618 202.732689 724.873110 191.036943 713.371084 C154.998918 677.929966 118.960893 642.488849 82.922868 607.047732 C56.265611 650.445659 44.380095 702.737852 49.659599 753.394700 C40.620253 752.750477 36.879225 741.601529 35.910947 732.591133 C23.747570 619.402804 96.035099 516.199728 124.784876 406.049851 C137.300174 358.099613 141.619058 308.076272 157.440192 261.112992 C160.051572 253.361400 167.476124 243.991137 174.342416 248.436417 C155.672541 356.780141 124.441811 462.954098 81.475916 564.151224 C79.164535 569.595196 83.779216 575.318722 88.021782 579.439396 C132.944668 623.071414 177.867535 666.703444 222.790403 710.335474 C238.690519 642.308771 233.794613 571.366651 228.807931 501.684667 C220.732171 388.837100 212.656412 275.989532 204.580652 163.141965 C203.821072 183.630351 193.035365 203.511743 176.274317 215.319291 C195.928578 161.190635 204.036765 102.901127 199.901622 45.463319 C222.532931 52.215383 242.741254 16.902888 225.454771 0.811150 C235.671015 0.756646 245.887258 0.702142 256.103501 0.647638 C286.460706 111.236637 323.869240 219.889493 368.026475 325.727223 C375.280756 343.114557 388.722089 363.777262 407.119835 359.719323 C546.996646 328.867085 686.873457 298.014847 826.750268 267.162608 C842.114538 263.773754 863.806327 264.124172 867.082930 279.512772 C871.143479 298.583217 884.593753 315.417206 902.297718 323.586627 M315.119059 1172.387269 C320.100487 1172.108806 323.721268 1176.860712 326.378457 1181.083449 C359.318741 1233.431390 393.658323 1292.796645 381.089582 1353.355672 C379.256657 1362.187118 391.967193 1368.216543 399.907805 1363.938607 C407.848416 1359.660672 411.148870 1350.099524 413.025485 1341.277258 C418.052461 1317.644633 417.728339 1292.792812 411.280461 1269.507703 C395.690285 1213.207177 347.653235 1172.868186 302.139297 1136.244639 C270.603732 1169.301146 250.118518 1212.724162 244.660836 1258.083155 C237.415627 1318.298348 255.826625 1380.826241 239.680367 1439.287005 C235.940222 1440.098349 232.200076 1440.909693 228.459931 1441.721037 C227.647852 1429.514178 227.667387 1417.269028 227.687271 1405.035203 C227.767993 1355.369931 227.848714 1305.704660 227.929436 1256.039388 C229.898353 1258.251026 231.867270 1260.462664 233.836186 1262.674302 C225.809959 1236.361666 238.151771 1208.599139 250.199985 1183.868273 C257.141747 1169.619208 264.415103 1154.935340 276.525464 1144.709732 C279.973851 1131.433120 287.543150 1119.257782 297.923474 1110.290693 C299.396258 1109.018422 301.003304 1107.770799 302.911088 1107.385927 C306.988629 1106.563334 310.643063 1109.830628 313.521211 1112.833838 C348.601669 1149.438688 383.682130 1186.043532 418.762591 1222.648376 C420.970319 1190.236670 423.178048 1157.824965 425.385777 1125.413260 C426.004890 1116.324055 423.770399 1103.842569 414.663184 1103.606853 C405.583424 1103.371848 399.229760 1117.041920 390.633722 1114.108424 C384.376648 1111.973124 384.465485 1102.178429 389.324497 1097.695074 C394.183509 1093.211719 401.317368 1092.532377 407.890999 1091.826795 C414.464630 1091.121214 421.673657 1089.804131 425.794375 1084.634011 C429.305375 1080.228882 429.634565 1074.165690 429.812141 1068.535349 C432.171986 993.712512 434.531833 918.889675 436.891679 844.066838 C437.127949 836.575490 427.936186 833.220849 421.015167 830.344112 C414.094147 827.467376 407.522481 817.890169 413.629160 813.544529 C428.926263 815.721787 444.989747 804.971144 448.809806 789.999538 C452.651721 774.942268 456.493637 759.884998 460.335553 744.827727 C452.856057 750.836157 439.550546 745.103167 438.780364 735.540170 C438.010181 725.977173 450.226703 718.188695 458.571369 722.922682 C458.525209 695.510990 458.479049 668.099298 458.432889 640.687607 C458.412994 628.873365 444.847739 620.843740 433.102673 622.120509 C421.357607 623.397278 411.403756 630.995961 402.124535 638.308469 C360.441953 671.156516 318.759371 704.004560 277.076788 736.852605 C270.516557 742.022409 263.780642 747.395807 259.766507 754.720438 C255.617920 762.290404 254.795016 771.175766 254.055171 779.776218 C245.011290 884.908264 235.967409 990.040308 226.923528 1095.172353 C219.607562 1180.217982 212.291595 1265.263610 204.975629 1350.309238 C201.566540 1389.938734 198.157486 1429.827157 201.917571 1469.424892 C219.724253 1459.599465 237.530936 1449.774039 255.337618 1439.948613 C261.112453 1436.762157 267.774682 1431.879730 266.713869 1425.369977 C261.740731 1394.851954 260.356521 1363.749614 262.616569 1332.911746 C266.469167 1280.343883 281.000441 1228.581254 305.069280 1181.688677 C307.256692 1177.427007 310.336264 1172.654628 315.119058 1172.387266 M660.261373 1012.168071 C667.158306 1007.105558 678.369170 1009.871911 682.119396 1017.561678 C724.859945 1026.586364 767.600493 1035.611050 810.341042 1044.635736 C831.202787 1049.040702 852.683226 1053.705321 870.213590 1065.842144 C878.098926 1065.707651 885.984261 1065.573158 893.869597 1065.438665 C896.946382 1065.386187 900.296675 1065.235009 902.633090 1063.232380 C904.810548 1061.365998 905.548148 1058.360955 906.155222 1055.558069 C914.029422 1019.202574 919.845339 982.401382 923.565841 945.389452 C929.435438 886.998104 930.083757 828.222730 930.727085 769.540639 C930.931317 750.911361 931.135548 732.282084 931.339780 713.652807 C931.576983 692.016037 928.842373 665.488973 909.010355 656.834660 C899.313662 652.603209 886.697510 653.525086 879.977737 645.353447 C871.967754 635.612837 858.590017 632.551209 846.224576 630.074279 C822.330029 625.287945 798.435482 620.501610 774.540934 615.715276 C762.301984 613.263683 749.449649 610.836126 737.524153 614.521877 C745.910740 646.747372 758.930674 677.660205 774.716862 706.979373 C782.430991 721.306570 790.960922 738.469154 783.494105 752.926781 C778.243106 763.094030 766.651075 768.129700 755.659627 771.313097 C732.552965 778.005363 708.075253 779.924379 684.207982 776.914799 C672.280680 782.929040 670.529725 798.936271 670.341733 812.292778 C669.506243 871.653117 668.670752 931.013455 667.835262 990.373794 C667.731594 997.739209 656.028500 999.513922 651.039447 994.094565 C646.050394 988.675208 646.126060 980.452558 646.493802 973.095599 C649.790434 907.143936 652.884893 841.182168 655.777122 775.211534 C617.916233 786.404041 580.055343 797.596548 542.194454 808.789055 C533.606394 811.327874 525.001338 813.870858 516.204639 815.549681 C497.758126 819.070141 477.660134 819.110000 462.244401 829.834860 C464.328004 831.100316 466.411606 832.365771 468.495208 833.631227 C468.432639 837.999236 468.293555 842.630997 465.909604 846.291625 C463.525653 849.952254 458.024976 851.933132 454.670386 849.134893 C456.830600 847.085083 458.990814 845.035273 461.151028 842.985463 C457.231647 839.403247 449.599485 842.936462 449.794881 848.242651 C458.609988 849.784771 464.888117 859.831956 462.409816 868.430925 C459.729535 864.958418 452.966062 866.993638 452.647199 871.368629 C458.071258 871.854560 459.417987 879.102490 459.241882 884.545424 C457.815873 928.619352 454.192262 972.622105 448.389008 1016.335568 C447.652095 1021.886421 449.114588 1029.957540 454.684738 1029.384449 C444.770925 1041.869236 446.723375 1059.932593 451.302733 1075.202935 C453.106110 1081.216479 456.865601 1088.303212 463.134334 1087.959902 C465.287508 1087.841982 467.265384 1086.795666 469.163680 1085.772664 C513.763411 1061.737611 558.363142 1037.702559 602.962873 1013.667507 C612.183986 1008.698196 621.658245 1003.643869 632.035432 1002.216646 C642.412619 1000.789423 654.050881 1003.732861 660.261373 1012.168071 M1006.608330 953.976786 C1004.513786 913.647147 1002.419242 873.317509 1000.324698 832.987870 C997.918713 786.661546 996.004102 737.870594 1017.028880 696.519949 C1020.665961 689.366692 1025.322026 682.195439 1032.525708 678.659283 C1038.344076 675.803151 1045.219569 675.692556 1051.530587 677.169700 C1074.577660 682.564050 1088.076333 706.066591 1097.305166 727.863270 C1122.197084 786.653058 1136.249985 850.011876 1138.548532 913.812844 C1139.254964 933.421317 1141.338648 952.980046 1144.779154 972.297245 C1137.239447 975.275005 1128.485754 970.007251 1124.687505 962.845720 C1120.889257 955.684188 1120.743959 947.222832 1120.538047 939.119017 C1118.650793 864.843873 1104.069651 790.218154 1071.544890 723.416220 C1075.012474 748.875798 1066.345197 775.720841 1048.644306 794.345897 C1056.604179 792.982428 1064.650048 797.697786 1069.412381 804.219965 C1074.174715 810.742143 1076.258756 818.799042 1077.937064 826.698531 C1085.254580 861.140735 1086.724104 896.817754 1082.263894 931.745079 C1081.111027 940.773031 1087.080797 948.971881 1089.887739 957.629484 C1092.694682 966.287088 1089.516411 978.913174 1080.416175 979.050004 C1070.636970 979.197044 1067.787152 965.841544 1068.169310 956.068704 C1068.897710 937.441445 1069.626111 918.814187 1070.354512 900.186928 C1071.389094 873.729756 1071.495744 844.465386 1054.165593 824.447438 C1037.725877 870.594004 1052.533140 921.390220 1051.502258 970.366819 C1051.347076 977.739420 1047.700127 987.697356 1040.493063 986.136087 C1034.984959 984.942865 1033.565215 977.864581 1033.295900 972.235154 C1030.749359 919.005392 1028.202817 865.775631 1025.656275 812.545870 C1025.422331 807.655804 1026.024411 801.449236 1030.656955 799.865880 C1032.950365 799.082017 1031.407614 795.608997 1029.590642 794.005007 C1024.896639 789.861231 1020.202637 785.717455 1015.508636 781.573679 C1014.288933 828.535127 1016.616542 875.588302 1022.465089 922.200101 C1023.864796 933.355492 1022.234796 944.638903 1021.916580 955.877261 C1021.286784 978.119578 1025.897063 1000.493387 1035.268577 1020.674864 C1081.626475 1000.505549 1130.109176 985.224067 1179.653895 975.165404 C1188.082590 973.454194 1194.559974 966.271819 1197.777582 958.295721 C1200.995190 950.319624 1201.501917 941.550134 1201.969736 932.962219 C1204.836884 880.328938 1207.704033 827.695658 1210.571182 775.062377 C1211.029333 766.651935 1211.487529 758.240427 1211.733840 749.821119 C1212.800516 713.360277 1209.876679 676.784062 1203.031332 640.955693 C1202.679590 639.114688 1201.997615 636.923871 1200.173699 636.492190 C1174.864001 630.501951 1162.935319 599.747548 1138.937232 589.719805 C1095.624407 571.621283 1068.880866 527.675069 1029.327179 502.395370 C1028.210104 501.681420 1026.936015 500.953261 1025.636679 501.216524 C1023.873752 501.573717 1022.990505 503.512301 1022.379422 505.204068 C1019.484182 513.219469 1016.588942 521.234869 1013.693701 529.250269 C1019.587160 527.767261 1026.000108 526.319023 1031.569711 528.750418 C1037.139314 531.181814 1040.388750 539.337344 1035.965395 543.504608 C1029.412931 549.677714 1017.827269 539.664015 1010.018866 544.144067 C1007.360365 545.669376 1005.842977 548.560065 1004.465919 551.298295 C1001.178507 557.835197 997.891095 564.372099 994.603683 570.909002 C992.727563 574.639599 990.797265 578.691173 991.468708 582.812623 C992.140150 586.934073 996.744754 590.600190 1000.461907 588.697571 C1004.919004 586.416209 1009.075493 593.934264 1006.212930 598.042309 C1003.350367 602.150355 997.664796 602.882964 992.665248 603.156487 C987.665699 603.430009 982.020520 603.923207 978.876877 607.820361 C975.225703 612.346701 971.435376 617.184765 970.652860 622.947273 C969.870344 628.709780 973.457955 635.483473 979.257296 635.915288 C985.247957 636.361348 986.876192 645.737527 982.399453 649.743246 C977.922714 653.748965 970.814357 653.012765 965.469188 650.271205 C961.996899 648.490253 957.548693 650.649708 955.465245 653.949379 C953.381796 657.249050 953.054643 661.322508 952.784203 665.215508 C950.823785 693.435975 948.863364 721.656440 946.902943 749.876905 C945.917266 764.065831 944.931252 778.262257 944.675579 792.483080 C944.105006 824.219099 947.173500 855.945474 946.369076 887.676427 C944.932786 944.331686 931.198165 999.957315 926.394567 1056.426835 C926.188179 1058.853056 926.057215 1061.508471 927.471514 1063.490618 C930.325797 1067.490909 936.545725 1065.712994 940.955158 1063.543624 C965.978383 1051.232592 991.001609 1038.921561 1016.024835 1026.610530 C1018.217142 1025.531949 1020.814155 1023.372632 1019.699224 1021.198586 C1009.199207 1000.724213 1007.801749 976.955603 1006.608330 953.976786 M237.527030 513.513546 C248.280798 521.562035 249.193466 537.062593 249.133367 550.494574 C249.026923 574.283692 248.920480 598.072810 248.814037 621.861928 C248.784344 628.498131 246.102340 637.604197 239.540718 636.611633 C248.226649 637.381276 250.890853 648.643885 251.277922 657.355253 C252.347217 681.420876 253.416513 705.486499 254.485809 729.552122 C272.692572 725.402180 286.543993 711.156210 300.231553 698.453495 C325.508010 674.995724 353.800299 654.791216 384.191110 638.495053 C381.357491 637.274104 383.042519 631.894175 386.066351 632.507817 C372.140007 631.742037 357.984273 636.648208 347.518734 645.867859 C342.494561 650.293920 334.735233 641.696301 337.304295 635.513079 C339.873357 629.329856 347.105199 626.786209 353.537503 624.926699 C377.246252 618.072755 400.955001 611.218812 424.663750 604.364868 C437.610539 600.622091 453.104709 593.869510 453.859562 580.413733 C454.131029 575.574665 452.266300 570.900542 450.434850 566.413219 C437.125290 533.802828 423.815730 501.192437 410.506171 468.582046 C399.465721 441.531310 388.334186 414.303640 372.515508 389.739371 C353.416151 360.080652 340.507046 326.934552 328.138413 293.897573 C299.795879 218.193842 273.601001 141.686070 249.595899 64.497281 C247.647780 94.470288 245.502558 125.243314 232.820361 152.470841 C230.324361 157.829529 227.369010 163.279114 227.410923 169.190442 C227.576956 192.605598 227.742988 216.020753 227.909019 239.435908 C227.943509 244.300001 225.304310 251.195517 220.776032 249.419205 C226.218998 250.235348 228.702469 258.362314 224.645429 262.081514 C232.469459 268.361967 231.108868 280.342223 229.985176 290.312017 C227.464195 312.679034 229.905636 335.274317 232.346316 357.650238 C234.027049 373.059032 235.707782 388.467826 237.388515 403.876620 C242.861712 412.795937 243.982792 424.253460 240.342299 434.064521 C241.276107 430.095063 234.013854 427.901602 232.594151 431.724302 C240.380944 433.019816 242.150647 443.283314 242.067515 451.176703 C241.891910 467.850042 241.716307 484.523381 241.540704 501.196719 C241.493475 505.681079 241.123926 510.835096 237.527038 513.513548 M692.437387 428.810677 C703.002381 425.753593 713.625204 422.900787 724.247237 420.048201 C740.488370 415.686585 756.729503 411.324969 772.970636 406.963353 C784.186665 403.951247 795.402993 400.939063 806.653016 398.056521 C813.403434 396.326892 820.165724 394.644006 826.927951 392.961137 C852.311635 386.644071 877.695320 380.327005 903.079005 374.009939 C894.604300 364.416118 886.129596 354.822298 877.654891 345.228477 C874.559976 341.724867 870.568806 337.884876 865.968149 338.714176 C841.970413 343.039956 818.130263 348.239886 794.510858 354.300193 C781.673680 357.593978 768.903190 361.141407 756.133702 364.688567 C747.806580 367.001709 739.479457 369.314851 731.152335 371.627993 C711.211230 377.167315 691.259479 382.709879 671.632295 389.275351 C652.052507 395.824970 632.825879 403.382548 613.684618 411.120620 C605.985415 414.233110 598.298310 417.375426 590.611228 420.517732 C580.592358 424.613221 570.573488 428.708711 560.554618 432.804200 C531.383252 444.728799 502.093503 456.711604 474.946639 472.718241 C464.639960 478.795379 452.986192 485.715219 441.487779 482.406783 C441.535769 486.018116 443.066788 489.587680 445.650235 492.111532 C447.099203 490.739985 449.621973 490.724893 451.087246 492.079005 C449.261575 499.640097 457.325614 506.607513 465.099600 506.868900 C472.873586 507.130287 480.007769 502.958359 486.792301 499.153977 C493.576832 495.349596 501.149149 491.669786 508.810448 493.014286 C532.635622 481.724395 557.082414 471.746465 582.003141 463.140773 C587.312376 461.307374 593.452794 459.605024 598.284802 462.468767 C607.074624 455.662923 617.905836 452.157744 628.495902 448.776766 C634.915099 446.727378 641.334296 444.677989 647.753494 442.628600 C662.605988 437.886803 677.460715 433.144324 692.437387 428.810677 M618.042420 666.602226 C624.759394 665.094330 631.476369 663.586434 638.193343 662.078538 C645.758283 660.380282 655.681058 659.692972 659.237265 666.582513 C662.310149 672.535697 657.508223 680.040420 651.310367 682.583961 C645.112512 685.127503 638.132830 684.287778 631.438351 684.028992 C601.161688 682.858598 572.008448 694.400950 543.914013 705.747704 C526.214533 712.896152 508.500363 720.051069 491.301287 728.331388 C481.264514 733.163490 471.410683 738.375565 461.767989 743.952702 C464.352552 745.565972 467.869998 745.536059 470.426751 743.879067 C472.007227 749.731134 474.560617 756.566722 480.472824 757.904780 C483.908087 758.682253 487.416414 757.256728 490.654179 755.870231 C530.337478 738.876776 570.633447 723.314081 611.437494 709.222540 C614.870587 708.036932 618.307954 706.861514 621.779210 705.792791 C637.239083 701.033040 653.264239 698.419963 669.230019 695.820585 C682.798166 693.611564 696.366313 691.402543 709.934461 689.193522 C695.196089 658.712658 677.892745 629.472529 658.267355 601.883641 C656.574947 599.504496 653.976267 597.924401 651.302404 596.751782 C635.604575 589.867521 617.521656 595.381572 601.306888 600.940005 C576.051235 609.597660 550.795581 618.255314 525.539928 626.912968 C520.517824 628.634549 514.406666 632.077343 515.361839 637.299701 C520.333274 637.695675 525.259300 638.658932 530.013698 640.164792 C539.317766 632.156283 550.786786 626.687658 562.866371 624.500078 C584.828670 620.522766 606.179807 613.188311 625.950072 602.829826 C630.961498 600.204126 637.470624 605.238889 637.680242 610.892627 C637.889859 616.546364 633.516888 621.526015 628.414666 623.970604 C623.312444 626.415193 617.534554 626.904821 611.933129 627.700265 C583.003337 631.808508 556.232188 644.840283 528.493951 654.027272 C519.537424 656.993701 510.450509 659.566417 501.268235 661.735500 C495.616817 663.070506 489.924487 664.253515 484.173198 665.055666 C481.756703 665.392703 480.975013 668.446435 480.751482 670.876059 C479.560433 683.821980 478.369383 696.767900 477.178333 709.713819 C477.076513 710.820533 477.535667 712.439093 478.604354 712.133984 C498.831969 706.359014 518.674188 699.234540 537.955354 690.823633 C554.106406 683.778156 570.816806 678.015392 587.877442 673.607454 C594.768534 671.827011 601.714497 670.267686 608.659042 668.708703 C611.786834 668.006544 614.914627 667.304385 618.042420 666.602226 M739.324806 359.342966 C739.430142 357.931693 739.535477 356.520421 739.640813 355.109149 C754.597432 352.316014 769.554051 349.522879 784.510669 346.729745 C787.745329 346.125675 791.062146 345.490795 793.866780 343.769765 C803.968064 337.571236 817.284905 336.992960 827.885487 342.292522 C826.767913 339.173494 823.997088 336.702062 820.771102 335.946860 C832.399529 332.519521 844.027957 329.092182 855.656384 325.664843 C857.039491 325.257189 858.545692 324.758689 859.300352 323.530009 C860.357666 321.808570 859.435850 319.598423 858.508882 317.803432 C854.120482 309.305698 849.732083 300.807963 845.343684 292.310228 C848.643314 297.061579 846.014315 304.054310 841.318215 307.432110 C836.622115 310.809910 830.580057 311.525238 824.827487 312.134189 C806.000904 314.127110 787.174323 316.120035 768.347742 318.112960 C759.208786 319.080382 749.899816 320.091728 741.489632 323.796486 C738.088871 325.294551 734.777467 327.247443 731.082051 327.638949 C694.261336 331.539868 657.802389 338.856460 622.332644 349.480932 C606.000735 354.372929 589.878413 359.964577 574.024717 366.235399 C564.345746 370.063850 554.768750 374.144531 545.203373 378.248562 C508.818880 393.859350 472.582818 409.816087 436.501737 426.115890 C432.311311 428.008935 427.960758 430.029891 425.092325 433.623688 C422.223892 437.217485 421.385683 442.881477 424.488076 446.275361 C427.502037 445.449123 430.696173 445.287041 433.778290 445.803942 C429.406231 455.639530 431.986024 468.128769 439.897286 475.427099 C440.180895 464.811375 452.029373 458.962477 462.016581 455.352809 C475.657078 450.422739 489.220320 445.278924 502.699651 439.923891 C515.776394 434.728798 528.853137 429.533704 541.929880 424.338610 C558.805689 417.634233 575.681498 410.929856 592.557308 404.225479 C599.653549 401.406303 606.749789 398.587128 613.846030 395.767952 C625.373489 391.188354 636.919876 386.602159 648.811934 383.075976 C653.695024 381.628062 658.725277 380.349913 663.812763 380.591782 C667.151368 380.750505 671.326477 381.175725 673.010117 378.288367 C674.735892 375.328749 678.251629 374.006160 681.509408 372.945730 C700.357149 366.810660 719.718813 362.255262 739.324806 359.342966 M339.984286 1245.541617 C332.514684 1233.378055 325.045081 1221.214492 317.575479 1209.050930 C316.515094 1207.324191 315.120330 1205.394130 313.094620 1205.343749 C310.554148 1205.280562 309.073564 1208.117566 308.208012 1210.506877 C305.439480 1218.149277 302.670945 1225.791672 299.902411 1233.434068 C296.952096 1241.578262 293.979072 1249.817583 293.030013 1258.427550 C292.480882 1263.409328 290.673929 1268.149743 289.115825 1272.913351 C281.045262 1297.587567 279.446010 1323.838918 277.908510 1349.753913 C277.257714 1360.723256 276.610743 1371.788026 278.245452 1382.654384 C280.162507 1395.397575 285.183319 1408.366008 281.737491 1420.783346 C280.726284 1424.427315 286.995399 1424.658849 290.301593 1422.823058 C313.882921 1409.729339 337.464248 1396.635620 361.045575 1383.541900 C362.937891 1382.491177 364.926777 1381.346087 365.970529 1379.449917 C366.922487 1377.720508 366.930194 1375.646093 366.901905 1373.672193 C366.545141 1348.779151 364.269118 1323.913849 360.100694 1299.369704 C358.129180 1287.761212 355.702542 1276.120530 350.949964 1265.347556 C347.901602 1258.437637 343.936491 1251.977420 339.984286 1245.541617 M788.469256 440.054751 C791.414380 432.413884 802.058201 432.565651 810.201789 433.425066 C836.604533 436.211431 863.730343 431.813666 887.900335 420.828214 C898.695857 415.921563 910.576572 413.419976 922.434050 413.556844 C920.356782 415.984632 918.279513 418.412417 916.202244 420.840203 C923.359581 421.873177 930.803124 420.839832 937.408422 417.896269 C939.768446 416.844556 942.351541 414.986571 942.151937 412.410533 C942.027482 410.804342 940.825533 409.517995 939.691508 408.373737 C930.308147 398.905708 918.655446 388.653371 905.518389 390.913627 C811.278789 407.127735 718.451796 431.543665 628.430413 463.795022 C575.367418 482.805545 523.317135 504.516823 471.409118 526.485872 C478.240373 530.757310 487.059566 529.083960 494.908790 527.267117 C511.195969 523.497159 527.483149 519.727201 543.770329 515.957242 C565.239584 510.987800 586.763401 506.002578 607.531409 498.632763 C626.179005 492.015405 645.008450 483.350761 664.747981 484.719418 C670.197116 485.097238 675.635078 484.071460 681.001015 483.050410 C697.387421 479.932341 713.773827 476.814273 730.160233 473.696205 C741.701822 471.500027 753.387274 469.257948 764.008127 464.235104 C774.628980 459.212260 784.243817 451.017284 788.469256 440.054751 M733.712841 714.966984 C732.098003 717.090917 730.350956 719.316122 727.853722 720.255599 C725.356489 721.195076 721.935552 720.191637 721.280848 717.605104 C719.666747 711.228297 713.405267 706.875569 706.956653 705.577736 C700.508039 704.279902 693.845063 705.462258 687.390730 706.731345 C628.476995 718.315298 571.000994 737.192231 516.691293 762.794429 C504.240831 768.663716 491.959086 774.883179 479.679313 781.101677 C476.027852 782.950783 472.376391 784.799889 468.724930 786.648995 C470.230896 792.288408 475.572933 796.280099 481.234519 797.700431 C486.896106 799.120764 492.862327 798.390361 498.605201 797.346180 C517.449500 793.919874 535.517235 787.241831 553.732771 781.322251 C611.282241 762.620158 671.222741 751.289369 731.627900 747.694033 C736.708393 747.391640 741.980850 747.093233 746.469622 744.694531 C750.958394 742.295829 754.413979 737.129198 753.121372 732.206596 C750.867093 723.621647 737.614795 722.939312 733.712843 714.966990 M787.253337 498.566275 C783.652296 508.555606 780.051254 518.544937 776.450213 528.534267 C775.551388 531.027619 774.651203 533.789219 775.609793 536.260210 C776.273042 537.969884 777.723511 539.232413 779.144467 540.391624 C807.811755 563.778278 844.804983 573.939957 877.062739 592.055866 C899.530032 604.673465 920.653306 621.555778 946.069410 625.798975 C952.623730 626.893212 957.269322 619.500813 958.896726 613.058142 C960.524131 606.615470 961.813380 598.947483 967.743721 595.949563 C938.608172 582.767728 909.472624 569.585892 880.337075 556.404057 C876.707763 554.762042 872.989322 553.058983 870.196199 550.218810 C868.010877 547.996673 866.470540 545.150297 864.019437 543.225300 C861.582937 541.311768 858.491479 540.496012 855.530328 539.585122 C842.198285 535.484004 829.749949 528.534834 819.262134 519.338732 C814.894729 515.509230 810.348405 511.056210 804.555600 510.628743 C797.197794 510.085791 790.307583 505.282203 787.253337 498.566276 M942.483818 518.379919 C939.380462 516.226056 935.845618 514.792014 932.343685 513.375536 C908.931929 503.905867 885.520176 494.436194 862.108422 484.966521 C847.807020 479.181837 833.144129 473.316643 817.727893 472.740159 C813.101839 472.567171 808.075290 473.026669 804.604226 476.089676 C801.133162 479.152683 800.508513 485.606198 804.445773 488.041003 C837.670116 508.586968 870.894459 529.132932 904.118802 549.678897 C908.978101 552.683892 913.845900 555.693640 918.961542 558.237848 C923.088724 560.290457 927.361873 562.032344 931.630358 563.772135 C943.280427 568.520585 954.930497 573.269034 966.580567 578.017483 C968.819169 578.929914 971.259320 579.857994 973.593546 579.229298 C977.252437 578.243816 978.866567 574.063077 979.945140 570.430539 C981.966461 563.622893 983.987784 556.815249 986.009107 550.007605 C987.565694 544.765150 987.826563 537.102918 982.488976 535.912763 C968.189225 532.724260 954.519906 526.733482 942.483818 518.379919 M742.481572 588.627328 C741.069813 590.822938 739.597715 593.275388 739.972626 595.858643 C740.347538 598.441898 743.681807 600.553560 745.644256 598.832352 C753.652342 591.808693 765.816597 597.798178 775.426966 602.391873 C787.731931 608.273568 801.306920 611.480782 814.943101 611.727918 C813.572070 613.411339 812.201039 615.094760 810.830008 616.778181 C817.393283 612.815686 826.326360 613.223184 832.501615 617.766770 C838.295517 622.029766 848.258719 617.725864 852.739601 623.352953 C855.172580 626.408286 859.356371 627.298966 863.181783 628.086794 C884.257406 632.427207 904.740383 639.635814 923.889052 649.451595 C927.770502 651.441263 932.013051 653.604168 936.282918 652.713845 C940.552784 651.823522 943.763025 646.058777 940.688657 642.964799 C940.043202 642.315228 939.219902 641.877493 938.407852 641.454258 C925.308517 634.626975 911.587303 628.993455 897.469709 624.646281 C881.257900 619.654242 867.408624 609.204731 853.069680 600.141736 C836.154644 589.450510 818.143884 580.493962 799.411150 573.457954 C788.075543 569.200304 776.739937 564.942654 765.404331 560.685004 C764.347836 560.288184 763.215007 559.885189 762.115082 560.137797 C760.660614 560.471829 759.711469 561.830858 758.904360 563.086099 C753.430097 571.599842 747.955835 580.113585 742.481572 588.627328 M586.363093 350.102536 C602.785330 340.473770 622.219028 337.750331 641.086476 335.216086 C638.637795 330.889942 632.374151 331.304435 627.505117 332.306465 C585.116713 341.029865 542.793337 350.069247 500.539694 359.423609 C470.364593 366.103951 440.197461 372.952108 410.583225 381.792964 C407.812830 382.620021 404.827392 383.622513 403.225883 386.029645 C401.406554 388.764175 401.971030 392.392032 402.788378 395.573157 C404.702603 403.023326 409.879354 411.646310 417.495451 410.567259 C435.851876 407.966517 453.819360 402.637253 470.625173 394.808666 C497.610211 382.238329 525.045031 370.633577 552.859492 360.024079 C557.155313 358.385488 561.707684 356.742860 566.245185 357.484575 C573.457244 358.663490 580.059014 353.798778 586.363096 350.102541 M665.194447 559.431352 C667.308494 560.750180 670.245323 559.462300 671.636189 557.394935 C673.027056 555.327570 673.313798 552.740291 673.708667 550.280091 C675.654778 538.155003 681.237138 526.637320 689.549119 517.597625 C695.565798 511.054180 704.932012 505.552348 713.010073 509.262070 C724.793527 514.673438 722.675499 533.541352 732.778859 541.668760 C733.609309 542.336796 734.567478 542.936666 735.632043 542.987851 C737.889646 543.096397 739.455039 540.842389 740.528022 538.853102 C748.112887 524.790915 754.456411 510.059463 759.460711 494.886057 C759.764015 493.966414 760.044664 492.891581 759.507299 492.085990 C758.846985 491.096080 757.405936 491.133968 756.225323 491.282599 C735.427306 493.900923 714.629290 496.519248 693.831273 499.137572 C689.986438 499.621609 685.928351 500.192235 682.896362 502.605552 C678.433036 506.158145 671.912171 502.897913 666.227421 503.373104 C663.673346 503.586600 661.259778 504.585706 658.894445 505.572661 C648.078616 510.085655 637.262786 514.598649 626.446957 519.111644 C627.507676 522.526435 632.508432 520.270499 635.805579 518.886754 C643.880465 515.497886 652.876882 522.612766 656.252580 530.693166 C659.628278 538.773567 659.681282 547.915767 662.869683 556.071889 C663.374452 557.363120 664.018180 558.697550 665.194446 559.431353 M978.933690 481.172875 C973.591521 475.552065 965.126403 474.572843 957.398494 473.931211 C955.684116 473.788869 953.167258 475.378490 954.529560 476.428958 C956.098039 475.432068 958.448796 477.458084 957.694297 479.156509 C949.069758 475.401851 939.424767 474.023482 930.093782 475.212112 C931.299876 473.367866 932.505970 471.523620 933.712063 469.679374 C916.219341 472.207132 898.042393 469.815948 881.798553 462.850132 C879.119078 461.701098 874.389838 461.996280 875.128494 464.816609 C876.419907 469.747439 871.966540 475.278890 866.873695 475.069759 C866.716107 477.604036 870.484541 478.477532 872.709223 477.253526 C874.933905 476.029520 876.504564 473.734090 878.887582 472.857375 C881.502481 471.895352 884.392914 472.875788 886.988206 473.889513 C902.357033 479.892604 917.185434 487.278487 931.235719 495.928773 C942.388258 502.795015 957.656461 502.475829 966.732796 511.917469 C973.151877 513.462164 979.386629 515.771365 985.263244 518.780699 C990.165968 521.291316 996.444434 518.389620 999.542745 513.835460 C1002.641056 509.281300 1003.360140 503.569959 1003.993152 498.098286 C1004.616170 492.712996 998.996379 488.718271 993.791463 487.202237 C988.586547 485.686203 982.668427 485.102411 978.933690 481.172875 M488.753109 556.141093 C487.537626 558.376597 488.101503 561.126178 488.779918 563.578652 C490.717739 570.583880 493.603249 577.756097 499.341149 582.217584 C501.860589 584.176568 502.939056 587.797909 501.901857 590.816090 C500.864658 593.834271 497.787949 596.027685 494.596525 596.024128 C493.148373 596.022513 491.658356 595.618906 490.278711 596.059044 C488.899066 596.499182 487.869524 598.383454 488.902256 599.398643 C489.292989 599.782740 489.857545 599.919592 490.394422 600.028978 C498.858369 601.753470 507.905299 600.460580 515.547416 596.434379 C516.844030 595.751267 517.358065 594.185588 517.703351 592.761289 C519.489340 585.394111 519.905511 577.697214 518.924299 570.180413 C518.295003 565.359551 521.494594 560.964504 524.518694 557.157727 C529.642198 550.708193 535.786318 543.706115 544.011930 543.274737 C545.848340 543.178429 547.717645 543.427386 549.511984 543.024864 C551.306323 542.622341 553.092904 541.314209 553.256015 539.482523 C548.607144 535.536061 541.587559 536.295465 535.844342 538.345344 C530.101125 540.395223 524.557951 543.540218 518.462915 543.732782 C509.577544 544.013503 501.352866 548.224059 493.473358 552.340122 C491.654700 553.290145 489.733224 554.338475 488.753108 556.141093 M611.920943 535.046715 C616.379042 531.411992 621.144611 528.154513 626.150031 525.320499 C626.073774 522.823408 623.058992 521.293397 620.604476 521.758835 C618.149960 522.224272 616.187631 523.998852 614.298443 525.633554 C612.409256 527.268257 610.266911 528.907990 607.770408 529.001532 C596.782284 529.413247 588.755020 539.904679 578.112032 542.667860 C573.989835 543.738083 568.395194 544.754997 568.079587 549.002146 C567.971840 550.452102 568.618679 551.839399 569.249822 553.149224 C572.661919 560.230427 576.074016 567.311631 579.486113 574.392834 C580.929877 577.389111 584.662255 578.704579 587.967908 578.337437 C591.273560 577.970294 594.263472 576.277850 597.147493 574.621180 C594.031886 570.953635 594.107226 565.376744 596.059130 560.978111 C598.011033 556.579478 601.512063 553.088202 604.935879 549.706577 C606.655041 548.008599 605.941108 545.155512 606.314786 542.768252 C606.818364 539.551084 609.397123 537.104406 611.920943 535.046715 M1033.163203 777.859202 C1034.869373 779.841205 1037.996229 780.050565 1040.400776 779.022210 C1042.805322 777.993856 1044.640098 775.993615 1046.332499 773.999841 C1049.069552 770.775388 1051.659422 767.389640 1053.588512 763.625710 C1056.934498 757.097211 1058.164344 749.679881 1058.559252 742.354516 C1058.922440 735.617535 1058.014311 727.727698 1052.300865 724.139473 C1048.528900 721.770554 1043.228658 722.175290 1039.860118 725.089465 C1036.491577 728.003641 1035.328417 733.190494 1037.129945 737.264065 C1038.818407 741.081982 1034.820419 744.745846 1032.435983 748.172481 C1027.381458 755.436261 1029.324515 765.268749 1031.470266 773.853997 C1031.825129 775.273821 1032.208414 776.750054 1033.163202 777.859202 M684.544979 587.935358 C682.273217 583.808007 678.954853 579.088928 674.258819 579.467339 C669.242676 579.871542 666.711699 586.326373 668.201670 591.133145 C669.691642 595.939918 673.697103 599.447931 677.221702 603.039905 C686.582179 612.579315 693.475234 624.210703 700.273595 635.717272 C704.677199 643.170594 709.080802 650.623915 713.484406 658.077237 C717.214422 664.390479 719.816855 671.292997 722.400370 678.155613 C724.814263 677.266842 725.607695 674.083286 724.912845 671.606596 C724.217996 669.129905 722.488930 667.101826 721.161840 664.898273 C719.164104 661.581157 718.059789 657.819145 716.839434 654.144238 C711.157955 637.035358 702.609272 621.042218 693.995078 605.205911 C690.859370 599.441237 687.709324 593.684362 684.544979 587.935358 M615.898598 571.296851 C616.333883 571.972309 617.344817 571.830250 618.116738 571.606970 C625.179649 569.563996 632.242561 567.521024 639.305472 565.478051 C641.372703 564.880098 643.899066 563.659929 643.718438 561.515550 C643.061136 553.712374 641.427430 545.991948 638.867491 538.591388 C637.757991 535.383919 633.341694 534.402933 630.271839 535.850287 C627.201984 537.297641 625.257150 540.363615 623.693092 543.375685 C619.387114 551.668165 616.673805 560.784051 615.744209 570.081498 C615.702757 570.496084 615.672901 570.946622 615.898598 571.296851 M557.450952 578.681676 C556.348323 574.415084 555.245694 570.148491 554.143066 565.881899 C549.509949 564.685718 544.501586 563.864643 540.023679 565.551347 C535.545773 567.238051 532.012556 572.255406 533.530451 576.793315 C534.011018 578.230024 534.956834 579.590718 534.835413 581.100796 C534.762655 582.005648 534.308245 582.831360 534.080095 583.709995 C533.068348 587.606345 536.943171 591.389499 540.941317 591.858547 C544.939463 592.327595 548.814341 590.520574 552.434632 588.760270 C554.581757 587.716267 556.918011 586.470540 557.740028 584.229029 C558.388005 582.462092 557.921853 580.503815 557.450952 578.681676 M1043.772225 698.203173 C1042.752762 697.643117 1041.650919 697.065124 1040.493849 697.184112 C1039.093513 697.328116 1038.013366 698.443599 1037.108636 699.522090 C1030.554879 707.334553 1026.310756 716.777522 1022.148971 726.086972 C1020.529451 729.709659 1019.059444 734.386719 1021.789795 737.266283 C1026.851403 733.093502 1028.377983 726.091768 1031.834733 720.516569 C1037.048635 712.107355 1047.252193 707.074556 1057.097842 708.055801 C1058.189338 708.164582 1059.621148 708.143523 1059.979187 707.106698 C1054.576866 704.138855 1049.174545 701.171014 1043.772225 698.203173 M697.094765 552.918378 C702.770544 554.228470 708.718003 554.349071 714.442226 553.270145 C711.412848 551.983525 711.501683 547.791990 711.194417 544.515083 C710.695737 539.196808 707.892135 534.410518 705.155793 529.823017 C704.440760 528.624258 703.568619 527.310523 702.197991 527.046565 C699.994740 526.622259 698.425941 529.073394 697.538983 531.134379 C696.027514 534.646515 694.516045 538.158649 693.004576 541.670783 C691.750026 544.585923 690.582675 548.240866 692.612269 550.680678 C693.700145 551.988427 695.437266 552.535791 697.094765 552.918378 M677.838658 324.144487 C679.044061 325.830615 680.801176 327.731052 682.800033 327.182785 C684.934232 326.597394 685.474362 323.678138 687.365927 322.529456 C689.529361 321.215676 692.228761 322.728360 694.421154 323.993223 C696.613547 325.258085 699.840310 326.102795 701.319939 324.049222 C694.425308 317.531093 683.078717 316.337523 674.978697 321.278336 C673.893580 321.940230 672.811327 322.767644 672.373527 323.960923 C671.935727 325.154203 672.443637 326.763467 673.672691 327.087524 C675.061349 326.106511 676.450003 325.125499 677.838658 324.144487 M923.388803 446.974092 C922.590022 443.930637 918.659816 442.658692 915.656000 443.595579 C912.652184 444.532467 910.403468 446.978027 908.305991 449.323503 C907.834576 449.850657 907.329710 450.486920 907.455026 451.182921 C907.607351 452.028915 908.570475 452.421661 909.394365 452.666838 C912.356210 453.548236 915.489771 454.436037 918.491454 453.701674 C921.493136 452.967311 924.173285 449.963068 923.388803 446.974093 M45.974074 715.334249 C44.949735 714.455687 43.925395 713.577124 42.901056 712.698562 C42.137146 712.043366 40.625679 711.602787 40.425031 712.588981 C40.070518 717.933097 43.590748 723.303476 48.632633 725.110303 C50.275675 724.020792 50.552733 721.599707 49.784875 719.783938 C49.017016 717.968170 47.470509 716.617722 45.974074 715.334249 M785.726205 1051.665106 C786.107772 1052.586188 786.691825 1053.573909 787.667578 1053.778584 C788.723610 1054.000097 789.697210 1053.207135 790.485647 1052.470498 C792.271250 1050.802203 794.185928 1048.861448 794.253401 1046.418698 C790.701720 1046.641808 787.079697 1045.290731 784.541783 1042.796095 C784.159073 1045.788166 784.571751 1048.878317 785.726208 1051.665105 M660.459222 326.390901 C658.288302 327.363858 656.117382 328.336815 653.946462 329.309771 C652.129054 330.124292 650.285584 330.954919 648.760990 332.236334 C655.359468 333.340359 662.422688 331.203689 667.302808 326.627312 C665.895428 324.572798 662.731757 325.372403 660.459221 326.390898 M708.384509 315.947471 C708.728056 316.541088 709.466357 316.759077 710.138819 316.893981 C714.272979 317.723341 718.644931 317.328643 722.563707 315.772265 C719.280303 313.292593 714.930012 312.279373 710.888864 313.053093 C709.414582 313.335358 707.632631 314.648291 708.384506 315.947469 M193.043055 193.426319 C194.575270 192.615206 195.366185 190.626224 194.809370 188.984412 C194.252554 187.342601 192.414868 186.245100 190.705346 186.533413 C188.775146 187.181533 187.620072 189.543186 188.293468 191.464715 C188.966864 193.386243 191.343473 194.510224 193.255998 193.811669 M770.533808 301.255599 C767.764531 299.936575 765.252820 303.445828 764.166779 306.314492 C767.383119 306.263168 770.591476 305.736355 773.655347 304.756466 C774.869331 303.071078 772.557080 300.362991 770.702263 301.297843 M45.179175 724.983907 C42.922064 724.801561 40.726268 726.788876 40.683285 729.052932 C40.640301 731.316988 42.759083 733.386215 45.021488 733.289673 C44.413854 731.443395 45.401947 729.215858 47.178422 728.427126 C46.910626 727.269602 46.132211 726.239992 45.091528 725.666793 M167.247672 267.799905 C169.012851 268.180077 169.886080 265.166309 168.438522 264.086975 C166.990964 263.007642 164.811295 263.766727 163.633886 265.135702 C162.597855 266.340296 162.110000 268.245748 163.087089 269.498624 C164.064178 270.751501 166.653626 270.188672 166.553257 268.603008 M720.625108 1029.282116 C717.783357 1029.074328 714.872145 1030.163978 712.865222 1032.186596 C713.955625 1033.928688 716.340362 1034.728328 718.260567 1033.995739 C720.180772 1033.263151 721.426874 1031.078289 721.079811 1029.052599 M945.439846 466.203324 C943.137834 464.155020 940.291186 462.724515 937.273830 462.099717 C936.982314 465.779203 942.019143 468.566279 944.981782 466.364830 M901.893013 461.860060 C899.465194 459.656775 895.425404 459.518270 892.852384 461.550101 C895.531415 463.634757 899.509255 463.869193 902.414610 462.113661 M196.640098 174.075934 C195.297442 173.679292 193.954785 173.282651 192.612129 172.886009 C191.455867 174.962337 192.454438 177.933928 194.629925 178.890657 C196.448960 178.130976 197.496957 175.889328 196.913376 174.006394 M153.282181 310.445824 C155.699402 312.578204 160.235731 309.426198 159.080403 306.417009 C156.450483 306.104478 153.742707 308.026538 153.170094 310.612324 M870.574071 449.928170 C871.696422 449.672585 872.287887 448.139909 871.628185 447.196623 C869.004244 446.531569 866.110269 447.015349 863.845300 448.497671 C865.619426 450.121095 868.292901 450.689892 870.574241 449.929291 M505.956968 631.338259 C504.115255 630.893130 502.180578 632.925635 502.715941 634.743170 C503.251304 636.560704 505.978844 637.219931 507.285194 635.847526 C508.591543 634.475121 507.798681 631.783388 505.956968 631.338259 M104.643013 482.980494 C102.599653 483.842767 104.137410 487.584824 106.317521 487.177451 C108.497631 486.770078 109.239378 483.612478 107.897206 481.846860 C107.253540 482.894112 105.857631 483.409478 104.687859 483.031741 M190.817760 1456.109521 C190.216479 1458.717577 194.268495 1460.815957 196.051514 1458.819876 C195.591451 1457.607071 195.077775 1456.322753 194.021057 1455.570487 C192.964340 1454.818221 191.194668 1454.934587 190.664846 1456.118582 M794.571029 296.222332 C792.596902 295.578471 789.863493 296.888433 790.108677 298.950378 C791.872115 299.532045 793.819795 299.539961 795.587904 298.972651 C796.675915 298.193047 795.967673 296.079232 794.629599 296.112498 M433.637411 1153.189933 C431.711420 1152.611696 430.775984 1156.253901 432.634483 1157.021875 C434.492982 1157.789848 436.567361 1155.545533 436.128739 1153.583031 C435.400409 1153.117908 434.486757 1152.952529 433.641597 1153.132834 M207.290350 66.697138 C206.635493 67.615409 207.488940 69.138484 208.614018 69.059378 C209.810260 68.243153 210.716691 67.010922 211.139687 65.625901 C210.404400 64.491917 208.958898 63.866195 207.628866 64.106152 C207.149985 64.828991 206.979897 65.749357 207.168803 66.595607 M789.189980 311.609308 C789.201636 309.999778 787.378887 308.667127 785.848721 309.166442 C784.318555 309.665757 783.632656 311.817015 784.591407 313.109888 C786.105325 312.611773 787.619247 312.113657 789.133169 311.615542 M972.370853 468.841028 C971.295653 466.553557 967.444509 466.437239 966.233215 468.655650 C967.414832 470.375398 970.223752 470.631126 971.696507 469.153035 M725.699138 686.122869 C724.446955 687.388611 726.852810 689.633195 728.285703 688.576367 C729.718595 687.519540 729.166531 685.004368 727.617234 684.127017 C726.956495 684.785184 726.295757 685.443356 725.635019 686.101527 M145.379155 338.390740 C143.931373 336.959620 140.944253 338.567623 141.341634 340.564186 C141.747451 341.429855 142.668383 342.028703 143.624250 342.048487 C144.764841 341.358801 145.389032 339.909556 145.106529 338.606940 M540.167633 435.569539 C541.432150 437.548514 544.811956 437.576015 546.108509 435.617879 C544.818690 433.646263 541.436527 433.639086 540.138349 435.605211 M456.139430 862.598353 C456.741427 863.389515 457.653918 863.937708 458.635115 864.097677 C459.449515 863.273163 460.263915 862.448648 461.078315 861.624133 C460.165528 859.490193 456.203779 860.272744 456.170908 862.593477 M109.710109 471.199062 C111.496583 469.915871 109.669608 466.414505 107.595202 467.145881 C107.060190 468.202925 106.907187 469.448343 107.170429 470.603456 C107.877306 471.091715 108.794082 471.264118 109.630036 471.065999 M241.036772 529.614724 C241.150792 530.636934 241.780962 531.588227 242.677746 532.091907 C244.005301 531.043645 244.709660 528.861259 243.484171 527.695310 C242.258683 526.529361 239.771513 528.699178 241.121498 529.718393 M612.226425 401.750869 C611.912699 402.296765 611.598972 402.842660 611.285246 403.388556 C611.628398 405.497589 614.853101 406.361306 616.204474 404.706141 C615.326895 403.489746 614.070248 402.550983 612.654891 402.054469 M332.628696 680.992445 C330.800358 680.988864 329.011977 682.080468 328.179394 683.708238 C329.867527 685.474431 333.496197 683.380641 332.811883 681.035229 M1018.687248 738.255225 C1017.559410 738.576267 1016.981026 740.101355 1017.612341 741.089549 C1019.299545 741.409693 1021.410301 740.187857 1021.166867 738.487888 C1020.333230 738.310748 1019.499593 738.133607 1018.665956 737.956467 M1065.866590 719.420667 C1066.632452 718.826545 1067.398314 718.232423 1068.164176 717.638301 C1067.325945 716.805666 1066.487715 715.973035 1065.649484 715.140403 C1064.095278 715.735238 1064.107747 718.420474 1065.667411 719.000850 M936.121888 824.619368 C937.376116 825.549639 939.438058 825.002121 940.065568 823.572183 C939.497496 822.783697 938.595485 822.244340 937.632046 822.117058 C936.838015 822.708287 936.294029 823.624867 936.155414 824.605081 M782.180627 608.501002 C781.179763 608.008584 780.240212 609.637934 780.824247 610.588254 C781.408282 611.538574 782.645738 611.803543 783.746922 611.981298 C784.227107 610.717456 783.377255 609.126340 782.059819 608.822652 M843.140183 466.387538 C842.322039 466.491903 842.398947 467.876793 843.142791 468.233093 C843.886634 468.589394 844.761908 468.260952 845.518556 467.932721 C846.422343 467.202547 846.411537 465.614932 845.497895 464.897130 C844.673597 465.407628 843.849298 465.918128 843.024999 466.428629 M210.891895 1171.721523 C209.866722 1171.102615 208.314568 1171.879838 208.195997 1173.071462 C208.077427 1174.263085 209.445991 1175.330929 210.573022 1174.926173 C211.369054 1174.193366 211.393381 1172.783558 210.623104 1172.023723 M144.645504 365.050480 C145.478307 365.293082 146.416938 365.141590 147.131132 364.649305 C146.275971 363.436574 145.021758 362.510239 143.611164 362.049531 C142.953719 363.047921 143.529705 364.611788 144.677675 364.945228 M99.750473 504.081286 C100.053525 505.059624 101.545354 505.380686 102.224037 504.613631 C101.989431 503.605149 101.587392 502.425663 100.585198 502.165498 C99.583004 501.905333 98.769696 503.744531 99.792155 503.907798 M206.860661 124.732110 C205.147752 123.851088 203.195652 126.753680 204.657595 128.007864 C205.703980 127.373273 206.485839 126.316453 206.786559 125.130198 M241.666113 623.186168 C240.109268 623.505344 241.071908 626.520052 242.525626 625.877912 C243.678702 625.204958 242.936009 622.997559 241.610656 623.158486 M191.667435 1447.049570 C192.596444 1447.318464 193.652743 1447.097228 194.395767 1446.478135 C193.864828 1445.683435 193.333887 1444.888736 192.802946 1444.094038 C191.642901 1444.503558 191.017131 1446.004721 191.542823 1447.116952 M692.054118 527.577406 C692.509974 526.975589 691.683107 526.092319 690.937023 526.207847 C690.190939 526.323375 689.670067 526.985069 689.227552 527.596762 C689.634493 528.763525 691.667171 528.737894 692.044565 527.561243 M229.962756 382.608003 C230.102789 383.997921 232.204522 384.658698 233.114715 383.598967 C233.674081 382.302313 231.342462 381.915361 230.058215 382.502649 M772.141911 355.599534 C771.785844 356.578276 773.484264 357.420861 774.048155 356.545221 C774.379124 355.629367 774.134731 354.532237 773.446320 353.843456 C772.939340 354.351103 772.432361 354.858751 771.925382 355.366398 M206.577857 113.968528 C207.700760 113.614934 208.283978 112.119642 207.697021 111.099141 C206.867756 110.981631 205.919583 111.337408 205.587829 112.106455 C205.256075 112.875501 205.861133 113.952721 206.695027 113.874531 M1022.292263 766.648004 C1021.594012 768.108549 1024.624721 769.192111 1025.010750 767.619937 C1024.614656 766.509740 1023.119398 765.961928 1022.099838 766.553477 M807.061662 439.676186 C806.464381 438.985052 805.189109 439.095842 804.719961 439.879622 C804.250812 440.663401 804.755658 441.839719 805.646977 442.039620 C806.451004 441.477781 806.997961 440.562114 807.111510 439.587829 M462.141911 471.599534 C461.785844 472.578276 463.484264 473.420861 464.048155 472.545221 C464.379124 471.629367 464.134731 470.532237 463.446320 469.843456 C462.939340 470.351103 462.432361 470.858751 461.925382 471.366398 M468.737472 755.224690 C467.607610 755.919037 468.244378 758.074088 469.570172 758.042844 C470.669030 757.246685 469.998040 755.116266 468.641262 755.093522 M849.054322 1062.576589 C849.509402 1061.974500 848.682381 1061.092234 847.936579 1061.207945 C847.190778 1061.323655 846.670166 1061.985134 846.227828 1062.596646 C846.634408 1063.763212 848.666560 1063.738102 849.044194 1062.561847 M392.139064 635.613862 C392.637951 634.262229 390.268141 633.881775 388.997560 634.561054 C389.052262 635.966630 391.213187 636.677210 392.091409 635.578410 M421.047068 1229.576522 C421.668806 1228.735264 419.919240 1227.892918 419.190782 1228.643666 C418.895205 1229.573748 419.145362 1230.656104 419.819085 1231.362157 C420.327381 1230.854414 420.835674 1230.346671 421.343968 1229.838928 M205.450006 1257.265305 C206.451668 1258.233755 208.464965 1256.900411 207.964191 1255.600239 C206.949758 1254.772989 205.129382 1255.922009 205.439767 1257.193655 M190.041820 196.643494 C189.673967 195.468462 187.644829 195.436311 187.239934 196.599098 C187.639141 197.765795 189.675415 197.736461 190.040849 196.558753 z"/></svg>