<?xml version="1.0" standalone="no"?>
<!DOCTYPE svg PUBLIC "-//W3C//DTD SVG 1.1//EN" "http://www.w3.org/Graphics/SVG/1.1/DTD/svg11.dtd">
<svg xmlns="http://www.w3.org/2000/svg" xmlns:xlink="http://www.w3.org/1999/xlink" version="1.1" id="Contours" x="0px" y="0px" width="1660.2572021484375" height="1929.9404296875" viewBox="-0.000013 -0.000007 1660.257202 1929.940430" enable-background="new 0 0 1660.257202 1660.257202" xml:space="preserve" stroke="black" fill="none" stroke-linecap="round" stroke-linejoin="round"><path class="selected" fill="#FFFFFF" opacity="1.000000" stroke="none" d=" M496.150656 1929.940424 C493.734464 1928.765798 491.902029 1925.789452 493.080037 1923.374908 C494.258044 1920.960363 498.959968 1921.593514 498.706015 1924.268068 C497.933116 1925.966348 497.160214 1927.664630 496.387312 1929.362911 z"/><path class="selected" fill="#FFFFFF" opacity="1.000000" stroke="none" d=" M1486.288519 1531.301009 C1484.955033 1530.460571 1484.946698 1528.178933 1486.274008 1527.328775 C1487.604460 1528.176254 1487.597763 1530.461840 1486.262367 1531.301509 z"/><path class="selected" fill="#FFFFFF" opacity="1.000000" stroke="none" d=" M682.591406 779.742813 C679.433358 775.732538 676.242592 771.668775 674.165634 767.005962 C670.558565 758.908022 670.599249 749.722373 670.702860 740.858014 C670.754099 736.474322 670.837709 731.940027 672.672378 727.958398 C674.507046 723.976769 678.597681 720.682852 682.949470 721.213240 C688.525376 721.892821 693.098485 717.232348 697.919761 714.350014 C707.589420 708.569136 721.076661 710.184145 729.108070 718.084609 C731.543311 720.480146 733.483957 723.349602 735.004641 726.408444 C738.581646 733.603564 739.833712 741.833840 739.240796 749.847152 C738.134453 764.799475 730.480939 779.151130 718.680825 788.400631 C716.831049 789.850575 714.644100 791.807995 715.264606 794.074928 C716.600431 798.955139 711.800148 803.159466 707.580191 805.951032 C706.865238 806.423984 706.088082 806.915500 705.231346 806.886435 C704.026175 806.845550 703.122185 805.814004 702.376137 804.866628 C695.781227 796.492023 689.186316 788.117418 682.591406 779.742813 z"/><path class="selected" fill="#FFFFFF" opacity="1.000000" stroke="none" d=" M769.992612 1077.131693 C765.951192 1076.933478 761.845536 1075.991436 758.512527 1073.697224 C755.613915 1071.702021 753.469458 1068.816082 751.380257 1065.984470 C743.530561 1055.345332 735.349478 1043.781264 735.043095 1030.563280 C734.785398 1019.445702 740.714103 1008.383309 750.114359 1002.441749 C754.690869 999.549103 759.954054 997.840209 765.309600 997.046505 C769.786555 996.383011 774.263510 995.719517 778.740465 995.056023 C783.229544 994.390731 788.086014 993.784484 792.076036 995.946466 C795.556712 997.832459 797.672844 1001.458266 799.614800 1004.908032 C803.883294 1012.490752 808.252076 1020.394363 808.878892 1029.073349 C809.056814 1031.536871 809.125288 1034.425615 811.141728 1035.851997 C813.312896 1037.387830 812.464163 1040.746430 811.391995 1043.180195 C809.441072 1047.608663 807.483972 1052.049256 805.022769 1056.215776 C801.308934 1062.502850 796.374741 1068.187658 790.143143 1071.993845 C784.138698 1075.661289 777.020039 1077.476357 769.992612 1077.131691 M777.275985 1035.400027 C777.056366 1037.554055 773.976158 1037.620185 771.840479 1037.263892 C769.704799 1036.907600 766.532765 1037.905459 767.193060 1039.967517 C768.054523 1042.657815 772.888782 1039.939330 774.852866 1041.969649 C776.945779 1044.133138 772.854317 1047.477921 773.506999 1050.416455 C774.103191 1053.100656 777.962648 1053.268970 780.480115 1052.163196 C782.214913 1051.401202 783.817934 1050.340260 785.197278 1049.041195 C787.621446 1046.758114 789.365894 1043.617403 789.450347 1040.288451 C789.534799 1036.959500 787.739362 1033.516524 784.707993 1032.138173 C781.831017 1030.830023 777.596552 1032.255908 777.275985 1035.400026 z"/><path class="selected" fill="#FFFFFF" opacity="1.000000" stroke="none" d=" M959.900782 721.505175 C966.867102 712.677080 976.108316 704.214328 987.346496 703.804245 C998.462831 703.398604 1008.647594 711.450032 1013.426391 721.494959 C1018.205188 731.539885 1018.425629 743.171115 1017.068480 754.211748 C1016.465542 759.116761 1015.532420 764.093978 1013.094093 768.392493 C1010.758907 772.509183 1007.184809 775.758489 1003.637008 778.891113 C1000.295496 781.841589 996.801725 784.826061 992.568797 786.223677 C986.266459 788.304565 979.196406 786.486673 973.579475 782.951189 C970.038394 780.722314 966.945290 777.858666 963.944729 774.942544 C962.108497 773.157986 960.294139 771.342564 958.682986 769.352443 C949.237727 757.685519 948.052199 740.010960 955.854732 727.187133 C957.064054 725.199556 958.459548 723.331583 959.900782 721.505175 M975.823752 754.922469 C979.807629 753.543700 983.852684 752.114191 987.246015 749.612674 C990.639347 747.111158 993.344566 743.334645 993.536448 739.123296 C993.637358 736.908585 991.300459 734.083754 989.765556 735.683502 C988.821448 736.667495 989.474565 738.288219 989.267985 739.636143 C988.790520 742.751570 984.540372 743.031993 981.486346 743.810955 C977.480313 744.832736 974.170926 748.211311 973.232242 752.237627 C972.985646 753.295355 973.065101 754.697809 974.076074 755.094713 C974.633255 755.313459 975.258088 755.118238 975.823752 754.922469 M995.561043 770.200602 C995.205970 769.180341 994.850896 768.160081 994.495823 767.139820 C993.774025 767.879278 992.996387 768.776309 993.136119 769.800155 C993.275851 770.824000 995.005997 771.334749 995.290675 770.341399 z"/><path class="selected" fill="#FFFFFF" opacity="1.000000" stroke="none" d=" M694.332114 996.509165 C692.348111 994.427528 691.867114 991.197322 689.738199 989.264136 C685.827561 985.713042 683.168404 980.918577 681.673152 975.852259 C679.112102 967.174723 679.928804 957.547018 683.914944 949.424869 C685.227744 946.749915 686.861723 944.247497 688.491267 941.752820 C690.687108 938.391201 692.882947 935.029581 695.078787 931.667961 C700.083618 924.006047 705.390860 916.054533 713.366881 911.567178 C717.240319 909.387958 722.022778 908.144996 726.126481 909.851494 C727.809314 910.551287 729.264363 911.700085 730.628613 912.908577 C744.708638 925.381061 750.748560 946.211397 745.524529 964.281246 C744.563628 967.604990 743.259125 970.823946 741.736903 973.930945 C738.079141 981.396781 733.024864 988.355135 726.183100 993.078291 C719.008473 998.031235 710.017640 1000.287454 701.354533 999.308935 C698.797410 999.020102 696.107562 998.371983 694.332115 996.509165 M716.563011 947.919854 C712.167427 948.064855 709.623894 952.831213 707.995113 956.916461 C706.888322 959.692476 705.781531 962.468489 704.674739 965.244502 C703.705590 967.675288 702.747399 970.483858 703.952179 972.806889 C705.116313 975.051548 708.037634 975.953535 710.507497 975.411798 C712.977360 974.870061 715.040841 973.182841 716.756171 971.325062 C719.039969 968.851609 720.891149 965.979798 722.200883 962.878461 C723.438866 959.947027 724.192895 956.652869 723.360228 953.581620 C722.527561 950.510371 719.743405 947.814942 716.563012 947.919856 z"/><path class="selected" fill="#FFFFFF" opacity="1.000000" stroke="none" d=" M675.553307 820.806015 C680.096704 820.276971 684.021287 823.847740 686.913133 827.391690 C692.235007 833.913632 696.492418 841.302200 699.466247 849.177123 C703.349045 859.459058 704.998486 870.971173 701.727225 881.463701 C697.794632 894.077446 686.492948 904.089087 673.496967 906.471588 C667.013197 907.660230 660.039603 906.991798 654.327913 903.701097 C651.373826 901.999146 648.838032 899.658218 646.492012 897.184464 C641.582429 892.007566 637.207863 885.653197 637.073069 878.519747 C637.022203 875.827839 637.583697 873.162202 638.264162 870.557221 C643.037915 852.282151 654.000448 835.682838 668.933940 824.117472 C670.909839 822.587220 673.070910 821.095072 675.553307 820.806015 M671.041817 872.753482 C671.343202 875.268899 674.510145 877.479941 673.278569 879.693845 C672.252527 881.538274 674.636917 883.763180 676.723339 883.444554 C678.809761 883.125927 680.327322 881.360944 681.647751 879.714388 C683.416012 877.509390 685.226071 875.225287 685.999766 872.506804 C687.095308 868.657470 685.956944 864.566265 684.823243 860.727997 C684.195155 858.601541 680.895207 858.746918 679.319310 860.306679 C677.743414 861.866440 677.124684 864.156734 675.738496 865.887279 C673.940601 868.131808 670.699699 869.898086 671.041818 872.753482 M646.302270 867.459500 C645.441386 867.495441 645.413678 869.100444 646.272808 869.166079 C647.136199 869.104392 647.110254 867.489399 646.245326 867.455473 z"/><path class="selected" fill="#FFFFFF" opacity="1.000000" stroke="none" d=" M882.131852 961.261857 C886.863373 960.047902 891.952758 961.057493 896.369226 963.144545 C902.378922 965.984496 907.419777 970.829738 910.495235 976.722387 C913.499338 982.478317 914.606773 989.033889 915.113975 995.506764 C915.760639 1003.759439 915.421356 1012.397173 911.688315 1019.785625 C906.675920 1029.706180 896.486871 1035.743310 886.826421 1041.240329 C883.025326 1043.403241 879.030552 1045.623492 874.659898 1045.778065 C867.986583 1046.014076 862.185366 1041.445902 857.335894 1036.855537 C853.513784 1033.237644 849.672801 1029.100313 848.816775 1023.907543 C847.372692 1015.147537 846.849392 1006.236028 847.258276 997.367212 C847.523232 991.620252 848.973013 984.788978 854.343604 982.726334 C865.409458 978.476352 870.649822 964.207776 882.131853 961.261858 M886.747340 985.059032 C882.255357 985.203836 879.196881 989.804932 878.158779 994.177715 C877.120678 998.550497 877.257632 1003.256023 875.316173 1007.309369 C873.479749 1011.143426 873.423768 1016.583254 877.054817 1018.794118 C877.946162 1019.336835 878.979302 1019.622523 880.019115 1019.710975 C883.884350 1020.039773 887.584934 1017.647434 889.838296 1014.489822 C892.091657 1011.332210 893.152751 1007.497432 894.073675 1003.729136 C894.998637 999.944310 895.823807 995.966864 894.870307 992.189127 C893.916806 988.411389 890.641529 984.933499 886.747340 985.059032 z"/><path class="selected" fill="#FFFFFF" opacity="1.000000" stroke="none" d=" M916.359589 686.740858 C915.400726 689.498327 914.441862 692.255797 913.482999 695.013266 C912.168693 698.792905 910.846549 702.590609 908.957772 706.118441 C906.187117 711.293433 901.996362 715.961970 896.495549 718.010902 C894.045272 718.923577 891.931520 720.538428 889.656021 721.826424 C882.937363 725.629386 874.616211 726.483821 867.264906 724.125598 C859.913602 721.767376 853.642289 716.231830 850.389636 709.230177 C845.647634 699.022561 847.420368 687.121749 849.289508 676.022726 C849.676177 673.726670 850.074869 671.392602 851.108048 669.305996 C852.269953 666.959418 854.166891 665.064067 856.133039 663.334700 C861.978317 658.193359 868.752030 654.110779 876.028271 651.343657 C880.118568 649.788135 884.504679 648.634712 888.843175 649.207098 C894.700082 649.979811 899.732118 653.804336 903.682010 658.197376 C910.758660 666.067972 915.264765 676.213437 916.359589 686.740858 M873.287841 700.636616 C872.635683 694.149042 871.872772 687.672603 870.999554 681.211070 C870.923789 680.650429 870.822634 680.041286 870.403791 679.660984 C869.216516 678.582960 867.613545 680.435354 867.093829 681.952474 C865.811086 685.696992 864.510453 689.643052 865.208128 693.539216 C865.905803 697.435379 869.362122 701.142157 873.287841 700.636616 M890.438282 689.431075 C892.471843 686.661904 894.001469 683.523848 894.930078 680.216075 C893.991098 679.208635 893.052117 678.201197 892.113135 677.193758 C890.079575 679.962928 888.549948 683.100984 887.621339 686.408757 C888.560319 687.416196 889.499301 688.423635 890.438282 689.431074 z"/><path class="selected" fill="#FFFFFF" opacity="1.000000" stroke="none" d=" M794.407806 727.822195 C791.419929 729.259761 788.432052 730.697327 785.444175 732.134893 C781.555984 734.005630 777.183733 735.919340 773.071283 734.613415 C769.395212 733.446064 765.057731 730.006635 762.434591 732.834239 C755.063169 728.788097 749.937629 721.603146 746.011002 714.167372 C745.079037 712.402529 744.194302 710.596598 743.661711 708.673170 C742.495771 704.462425 743.090421 699.950319 744.268895 695.743065 C747.750739 683.312579 756.455061 672.435260 767.819752 666.312839 C768.523284 665.933830 769.291674 665.561605 770.084825 665.659160 C771.747480 665.863667 773.030352 668.042450 774.598734 667.453875 C779.992298 665.429806 785.549545 663.599845 791.302730 663.302737 C797.055915 663.005629 803.093520 664.395055 807.445886 668.169219 C809.687299 670.112866 811.400586 672.608970 812.719072 675.266655 C817.862526 685.634370 816.749762 698.819211 809.941425 708.178227 C809.014025 709.453070 807.975125 710.689473 807.450228 712.176005 C806.952960 713.584296 806.954210 715.116842 806.616887 716.571755 C805.321474 722.159017 799.576176 725.335522 794.407806 727.822195 M788.330026 693.773249 C786.106804 691.493722 781.794871 691.039300 779.967434 693.646872 C779.040894 694.968951 778.963621 696.686779 778.919150 698.300591 C778.864691 700.276873 778.825213 702.332065 779.639173 704.133764 C780.453134 705.935464 782.391074 707.393918 784.325015 706.983402 C789.809505 705.819211 792.244672 697.787038 788.330025 693.773250 M759.364572 708.356167 C758.954029 709.431010 759.400510 710.766149 760.375035 711.377814 C761.201410 709.941438 761.870494 708.176570 761.188497 706.666284 C760.506500 705.155998 757.871614 704.766135 757.335758 706.334236 C757.982424 706.993641 758.629089 707.653046 759.275754 708.312451 z"/><path class="selected" fill="#FFFFFF" opacity="1.000000" stroke="none" d=" M1057.784984 816.035072 C1064.486432 825.576669 1070.342843 837.658656 1066.093659 848.516645 C1063.231994 855.829091 1056.239407 861.050329 1053.897605 868.545458 C1052.691524 872.405622 1052.652914 876.946015 1049.757243 879.769237 C1048.536242 880.959689 1046.944120 881.678749 1045.387158 882.374368 C1040.883295 884.386601 1035.348985 886.322714 1031.326771 883.466904 C1029.846728 882.416060 1028.011863 884.042032 1026.349950 884.771994 C1023.801659 885.891281 1020.801849 884.737632 1018.577656 883.064445 C1010.906013 877.293325 1009.145267 866.697643 1007.974355 857.169322 C1006.862960 848.125322 1005.767717 838.814458 1008.123135 830.012120 C1011.233887 818.387058 1020.638206 808.654741 1032.149837 805.147433 C1036.522409 803.815216 1041.329307 803.356299 1045.620196 804.931884 C1050.857302 806.854917 1054.578466 811.469594 1057.784984 816.035070 M1042.207894 849.528389 C1043.674948 847.846709 1043.610071 845.363107 1043.463759 843.136251 C1043.254583 839.952628 1042.836314 836.360542 1040.294858 834.431759 C1038.035096 832.716761 1034.677233 833.004240 1032.323638 834.588009 C1029.970042 836.171778 1028.505482 838.805282 1027.671390 841.516743 C1027.093070 843.396742 1026.789650 845.483211 1027.557653 847.294018 C1028.924802 850.517502 1033.005347 851.543030 1036.506315 851.486679 C1038.577626 851.453340 1040.846070 851.089440 1042.207892 849.528388 z"/><path class="selected" fill="#FFFFFF" opacity="1.000000" stroke="none" d=" M1073.730943 126.267903 C1096.988134 98.534124 1120.245325 70.800344 1143.502515 43.066564 C1150.655629 34.536605 1161.810876 25.147344 1171.488069 30.649995 C1177.495178 34.065767 1179.383432 41.700158 1180.498495 48.519943 C1191.497406 115.789960 1182.824920 186.157184 1155.821710 248.743586 C1201.595185 175.895693 1256.370413 108.710171 1318.505153 49.201342 C1333.308799 35.023320 1360.108005 44.730154 1369.944056 62.713933 C1379.780106 80.697713 1377.524508 102.650454 1374.228425 122.881619 C1347.600988 286.319032 1269.396117 440.964555 1153.540525 559.278915 C1252.157673 497.760698 1356.614317 445.608217 1465.047891 403.751404 C1493.548431 392.749813 1538.055878 391.022294 1542.196064 421.290671 C1543.673434 432.091537 1538.276031 442.549127 1532.647477 451.885117 C1513.722025 483.276456 1490.132633 511.850570 1462.893699 536.378705 C1498.552397 530.787264 1534.795517 528.930248 1570.838961 530.847832 C1577.843395 531.220478 1585.307485 531.907508 1590.816594 536.249242 C1605.624458 547.919334 1594.002079 571.704706 1580.505273 584.869055 C1554.953658 609.791274 1524.414771 629.579480 1491.227711 642.718012 C1535.868912 637.638477 1581.975821 646.264702 1621.761132 667.139746 C1640.146874 676.786601 1658.902039 691.851048 1660.182924 712.574384 C1662.185125 744.967840 1623.341814 762.182421 1591.851111 770.036105 C1497.030051 793.684167 1402.208995 817.332235 1307.387939 840.980302 C1372.914549 855.917355 1438.441160 870.854409 1503.967771 885.791463 C1530.906351 891.932220 1559.205065 898.773407 1579.380376 917.650716 C1599.555686 936.528025 1607.323971 971.643436 1588.179010 991.564943 C1573.668769 1006.663738 1550.282547 1007.758740 1529.341907 1007.860126 C1488.677325 1008.057006 1448.012744 1008.253886 1407.348163 1008.450766 C1478.129538 1034.778454 1541.134358 1081.645926 1586.702951 1141.867629 C1591.508604 1148.218595 1596.315582 1155.260322 1596.460156 1163.223247 C1596.841975 1184.253331 1568.356754 1191.220148 1547.378765 1189.692327 C1474.673351 1184.397211 1403.530500 1159.042594 1343.863926 1117.161626 C1386.647706 1157.970690 1429.431486 1198.779754 1472.215266 1239.588819 C1500.564880 1266.629936 1531.441567 1301.247602 1523.113056 1339.530217 C1514.458298 1379.312452 1464.857756 1398.399038 1425.296360 1388.785142 C1385.734963 1379.171246 1354.521699 1349.698996 1325.294924 1321.355976 C1341.317840 1348.840003 1357.340756 1376.324029 1373.363672 1403.808056 C1384.196464 1422.389488 1395.259796 1441.632672 1397.906440 1462.977795 C1400.553084 1484.322918 1392.582690 1508.518278 1373.512585 1518.465645 C1350.340359 1530.552763 1322.326215 1517.730885 1300.321291 1503.630042 C1232.542533 1460.197142 1173.992805 1402.436871 1129.643850 1335.253934 C1150.531670 1398.801421 1171.419490 1462.348908 1192.307309 1525.896395 C1200.805469 1551.750538 1209.409260 1578.993518 1204.270589 1605.718965 C1199.131918 1632.444411 1175.027976 1657.621965 1148.085950 1653.777147 C1123.397359 1650.253909 1108.022838 1625.829592 1096.559531 1603.681629 C1047.031513 1507.989784 1006.325527 1407.734156 975.126042 1304.600528 C998.432788 1426.192697 1021.015318 1556.049129 973.723076 1670.466366 C966.277852 1688.479090 956.554978 1706.534881 940.466664 1717.537414 C924.378350 1728.539946 900.474763 1730.177141 886.497984 1716.592620 C876.771134 1707.138753 873.811115 1692.899698 871.379816 1679.555186 C852.753980 1577.324791 837.704691 1474.442809 826.268733 1371.160698 C813.257759 1484.582052 795.765810 1597.489303 773.847383 1709.530686 C772.111523 1718.403959 769.875933 1728.063486 762.714336 1733.582517 C745.731839 1746.669949 723.514436 1725.127742 714.652764 1705.604505 C662.461815 1590.622062 681.109289 1457.457156 700.781675 1332.726028 C677.886507 1438.282569 642.971019 1541.227046 596.926355 1638.932016 C585.494934 1663.189052 562.766281 1691.519193 538.049390 1681.119360 C517.288649 1672.384097 515.888859 1643.824293 518.870338 1621.498890 C534.514046 1504.358706 577.421053 1392.844473 619.995493 1282.599453 C556.133428 1402.919998 475.876501 1514.524899 382.139013 1613.361534 C364.147518 1632.331734 328.853530 1616.345039 320.880012 1591.445534 C312.906494 1566.546029 323.166435 1539.768761 334.299254 1516.112415 C376.863850 1425.666154 434.300705 1343.161827 491.450837 1261.148830 C438.691371 1310.163722 381.263180 1354.150920 320.197037 1392.320895 C296.919371 1406.870826 271.801256 1420.971377 244.361207 1421.742041 C216.921158 1422.512706 187.055419 1405.350671 182.898449 1378.216379 C179.651897 1357.024756 192.206290 1336.882825 205.018656 1319.693641 C236.948693 1276.856020 274.096708 1237.911575 315.379802 1203.995573 C252.570239 1229.033344 187.342934 1248.001800 120.901596 1260.550899 C99.965411 1264.505224 72.131830 1264.204122 64.662396 1244.249973 C61.105651 1234.748343 64.055143 1224.080376 68.129158 1214.788779 C89.583935 1165.856910 138.770980 1135.718643 186.449478 1111.606492 C298.265501 1055.058462 417.341003 1014.501357 535.962028 974.133611 C405.771834 1002.437804 275.581640 1030.741997 145.391446 1059.046190 C100.016759 1068.910942 46.846533 1076.924740 12.099938 1046.121337 C3.875702 1038.830423 -3.030100 1027.335077 1.368920 1017.263131 C4.068010 1011.083324 10.274638 1007.310997 16.143701 1003.989973 C122.233767 943.958641 238.244312 901.506887 358.023881 878.885713 C245.410917 867.175921 121.503816 849.848954 47.239144 764.388101 C123.047571 704.630708 230.221089 712.878988 326.096436 724.094215 C274.341927 697.053075 222.587418 670.011936 170.832908 642.970796 C160.925495 637.794286 150.678613 632.335536 143.968840 623.395064 C130.190540 605.036097 136.754957 576.774811 153.910452 561.524165 C171.065948 546.273519 195.653211 542.072004 218.537934 543.856005 C250.936009 546.381628 281.472762 559.368391 311.335562 572.183506 C373.161584 598.715093 434.987606 625.246681 496.813628 651.778269 C360.175035 579.827519 256.386112 448.120645 218.377655 298.446422 C216.113452 289.530175 214.263839 279.362453 219.372027 271.711800 C228.357945 258.253394 249.108661 263.816100 263.524776 271.168038 C358.592109 319.650589 445.740235 383.619068 520.487981 459.784215 C462.960364 373.358248 421.628799 276.190515 399.268612 174.805622 C395.745659 158.831954 393.594445 139.652915 405.469947 128.403838 C419.032900 115.556324 441.227337 121.867811 457.828888 130.435238 C521.407381 163.245671 572.686896 219.257244 599.772577 285.477446 C591.204888 224.011478 582.637199 162.545510 574.069509 101.079543 C570.808341 77.683403 602.530221 62.197918 624.337936 71.277461 C646.145651 80.357004 658.438419 103.195730 668.228359 124.693907 C694.958308 183.391447 715.937673 244.705994 730.768635 307.474884 C721.445868 213.525106 713.173013 113.563767 756.095575 29.473764 C761.406860 19.068373 768.020498 8.497579 778.500678 3.335434 C810.324519 -12.339799 838.568527 30.444326 847.236749 64.843915 C866.296107 140.480451 877.137580 218.184845 879.508997 296.149715 C912.909086 210.711222 946.309173 125.272729 979.709260 39.834235 C990.872037 11.279492 1036.560594 14.092525 1055.603882 38.120303 C1074.647170 62.148081 1074.632183 95.622043 1073.730943 126.267903 M1006.034776 295.340580 C1038.687673 215.253574 1081.823095 124.865744 1043.856807 47.156663 C1041.157600 41.631948 1037.716736 35.953577 1032.104299 33.441854 C1019.754782 27.915099 1007.253991 40.482234 999.818549 51.785764 C914.285140 181.815640 877.082850 342.868865 896.921617 497.239056 C901.226804 530.738746 906.929982 568.776525 885.456517 594.846703 C880.106982 426.212105 865.614441 257.867934 842.063782 90.800249 C839.396236 71.876756 836.045052 51.732071 823.098705 37.674815 C810.152357 23.617559 784.117797 20.164175 773.183579 35.837632 C739.714189 83.813724 740.558348 146.921117 742.693722 205.379184 C747.878524 347.318387 753.063324 489.257590 758.248125 631.196793 C736.647302 626.888669 733.214728 597.878713 734.146140 575.872169 C740.568643 424.127296 714.738216 271.094798 658.864372 129.864954 C652.687379 114.251640 645.019472 97.528933 629.995113 90.032303 C614.970754 82.535674 591.701372 91.884668 592.833606 108.637246 C603.265031 262.980831 637.739278 415.675970 694.632406 559.529814 C706.194448 588.764351 718.633509 622.146580 704.800959 650.377760 C684.291012 635.022496 663.781080 619.667231 643.271148 604.311967 C658.821666 623.265918 670.877445 645.077830 678.654083 668.328523 C567.975350 502.074190 414.008766 364.907520 236.126884 274.087250 C242.114117 362.736163 288.018486 444.909621 348.025076 510.435844 C408.031665 575.962067 481.806979 627.057727 554.903879 677.568320 C587.227285 699.904074 619.550690 722.239828 651.874096 744.575582 C622.579526 753.677046 592.763981 734.709597 567.268401 717.651349 C468.201785 651.369127 358.887407 600.435100 244.413447 567.220049 C222.638339 560.901921 198.331130 555.420890 178.076877 565.611047 C157.822625 575.801204 149.535460 608.886449 168.903296 620.674619 C320.166934 712.740730 490.546231 773.239153 665.998558 797.183619 C668.507512 814.265434 642.460353 817.705054 625.713362 813.507253 C568.194813 799.089617 510.676264 784.671988 453.157715 770.254359 C324.647119 738.041827 182.784333 707.106578 64.697477 767.174165 C164.638887 839.490415 292.161970 872.641475 414.669179 858.153248 C491.539980 849.062179 572.083884 822.521284 643.733869 851.813728 C427.382410 859.720900 212.901091 915.317659 19.952183 1013.507251 C35.199739 1052.772971 90.619559 1051.179177 131.839044 1042.505146 C297.910309 1007.557905 463.981573 972.610665 630.052838 937.663425 C643.538362 954.042337 617.195242 973.478976 596.619813 978.653903 C463.663657 1012.093691 333.943715 1058.387704 209.857016 1116.680496 C153.298545 1143.250235 91.917947 1179.753170 78.668288 1240.820823 C147.673638 1240.861945 216.658702 1227.001330 280.292916 1200.310004 C411.451211 1145.295752 514.915524 1039.083462 642.417931 976.058050 C652.950937 970.851505 672.005558 971.997138 669.327197 983.437362 C502.652685 1070.863008 350.397843 1185.703173 220.540288 1321.940646 C209.223596 1333.813326 197.364269 1347.589266 197.570311 1363.990046 C197.839298 1385.401011 219.950093 1401.429891 241.337851 1402.462139 C262.725609 1403.494387 282.983496 1393.522588 301.625945 1382.988794 C462.298764 1292.201615 581.509746 1144.448408 696.652785 1000.225853 C604.207555 1132.793400 511.762321 1265.360946 419.317088 1397.928492 C380.527824 1453.552749 340.235840 1513.581435 338.840639 1581.380538 C338.556341 1595.195833 355.979489 1603.724318 369.273368 1599.953910 C382.567246 1596.183501 392.027037 1584.737646 400.527971 1573.843734 C519.608088 1421.242957 623.858445 1257.075719 711.333857 1084.405160 C728.358553 1094.994708 720.447398 1121.022271 710.934644 1138.671244 C633.406024 1282.509710 575.053625 1436.668907 537.905091 1595.792058 C531.928588 1621.391988 531.988869 1657.034486 557.312781 1664.089587 C677.783431 1499.037505 664.431019 1269.738682 760.520046 1089.399375 C750.119396 1146.300455 739.718747 1203.201536 729.318098 1260.102616 C703.081438 1403.641188 677.199697 1554.071334 721.290510 1693.167287 C725.386055 1706.087748 738.879628 1721.625284 749.154165 1712.785278 C752.070103 1710.276463 753.378595 1706.423197 754.542108 1702.756715 C811.593003 1522.977053 818.361074 1327.528344 773.882880 1144.232895 C782.789012 1161.902134 791.695144 1179.571374 800.601277 1197.240614 C795.986230 1176.922468 798.936170 1154.976310 808.752681 1136.598013 C834.550233 1319.483349 860.347784 1502.368685 886.145335 1685.254021 C888.749424 1703.715065 914.136327 1711.187081 930.650696 1702.534507 C947.165065 1693.881933 955.976625 1675.564273 962.207469 1657.992478 C994.993001 1565.532983 986.354297 1463.620997 967.921260 1367.268144 C949.488223 1270.915291 921.625165 1175.743300 916.978935 1077.753190 C973.527761 1237.658434 1030.076588 1397.563678 1086.625414 1557.468922 C1095.917128 1583.743453 1107.203270 1612.396537 1131.933111 1625.246512 C1156.662953 1638.096488 1195.962661 1619.821178 1190.289700 1592.535569 C1153.883571 1417.430789 1084.262229 1249.291723 986.224132 1099.706898 C976.200023 1084.412285 969.769309 1057.633504 987.526854 1053.265721 C1074.642226 1223.310054 1168.535942 1401.065541 1328.642286 1505.325408 C1350.099418 1519.298107 1380.130184 1496.694815 1383.000476 1471.250637 C1385.870768 1445.806459 1371.387642 1421.953010 1357.061588 1400.730169 C1273.899127 1277.532010 1175.896963 1164.360962 1065.849659 1064.444139 C1052.161830 1052.016352 1040.418391 1025.553544 1057.922139 1019.601625 C1152.655915 1132.199597 1256.176104 1237.403279 1367.231349 1333.940964 C1388.710551 1352.612330 1411.992977 1371.684571 1440.099937 1376.153891 C1468.206896 1380.623211 1501.652246 1364.059154 1504.920144 1335.787316 C1507.077979 1317.119008 1496.087641 1299.661350 1484.822884 1284.619181 C1422.629588 1201.570611 1338.666806 1137.892963 1255.867628 1075.368031 C1202.243841 1034.874587 1148.620053 994.381145 1094.996265 953.887703 C1198.001120 1012.823671 1301.005974 1071.759639 1404.010828 1130.695608 C1456.426044 1160.685860 1518.560196 1191.526720 1574.446182 1168.646014 C1557.727791 1096.387167 1480.073573 1058.657610 1411.310727 1030.863431 C1304.493063 987.687383 1197.675404 944.511328 1090.857744 901.335273 C1099.753208 885.148211 1124.022344 890.477228 1140.905546 897.967739 C1265.200337 953.113168 1397.683591 1007.418707 1532.714797 991.394143 C1556.124444 988.616050 1585.738957 975.021770 1581.430486 951.844918 C1578.999301 938.766684 1566.192554 930.602112 1554.375081 924.494890 C1433.142541 861.842405 1287.432813 848.225692 1156.690917 887.330927 C1182.591158 873.994834 1209.679519 862.967269 1237.529953 854.421674 C1191.478116 852.823455 1145.617263 845.789493 1101.203308 833.512415 C1141.396501 826.445666 1182.405978 836.504116 1223.188421 837.995442 C1281.353891 840.122429 1338.581451 824.796171 1394.766166 809.596707 C1462.251316 791.340174 1529.736465 773.083641 1597.221615 754.827107 C1614.654441 750.111063 1634.520449 743.260154 1640.691515 726.287752 C1650.679335 698.818055 1616.810864 676.056237 1588.264374 669.776214 C1413.514153 631.332416 1245.053842 758.184577 1066.510858 769.930553 C1208.554218 720.690330 1350.597579 671.450106 1492.640939 622.209882 C1529.420459 609.460031 1571.743379 590.657666 1579.324317 552.476242 C1533.641441 533.458942 1481.544236 547.213033 1434.458050 562.427272 C1305.124550 604.216826 1179.183113 655.741431 1053.388465 707.212078 C1119.649662 645.408758 1211.408037 621.373919 1297.503854 593.130215 C1383.599672 564.886510 1473.701487 525.414708 1519.637639 447.311785 C1523.534289 440.686508 1527.178516 433.051841 1525.348854 425.586554 C1521.180232 408.577970 1496.645049 409.822688 1480.043840 415.396663 C1332.436264 464.956966 1194.275438 542.492874 1075.072281 642.666859 C1068.613026 631.876405 1071.306866 616.523623 1081.053822 608.576754 C1228.407406 488.436737 1330.000566 313.495058 1361.316612 125.969038 C1364.007927 109.852965 1365.987060 92.353908 1358.195579 77.992020 C1350.404098 63.630133 1328.802685 56.017510 1317.301580 67.623352 C1159.633019 226.727775 1071.185801 439.878659 986.488195 647.242849 C974.883153 637.310044 977.632608 618.919908 981.975722 604.274943 C1010.124120 509.358856 1062.192376 423.664563 1104.440688 334.129791 C1146.689001 244.595018 1179.863182 146.009233 1166.191517 47.955773 C1091.855515 106.146709 1060.442452 202.242549 1032.888296 292.535377 C999.309786 402.569541 965.731277 512.603706 932.152768 622.637870 C938.540398 510.465513 963.616237 399.379549 1006.034776 295.340580 M598.910345 321.661939 C580.498936 264.609584 545.737207 212.935395 499.831496 174.378723 C492.648493 168.345646 485.180153 162.613284 477.122353 157.810637 C462.468702 149.076701 446.156941 143.578949 429.986412 138.145245 C426.200657 136.873136 422.060216 135.599228 418.303182 136.953812 C413.208038 138.790844 410.870525 144.748074 410.453122 150.148163 C409.802099 158.570678 412.286916 166.884737 414.744289 174.967057 C421.358484 196.721154 427.972675 218.475251 434.586866 240.229349 C447.728399 283.451897 461.000545 326.993776 482.288235 366.840015 C490.634406 382.462354 500.162899 397.417653 509.680857 412.355006 C520.628664 429.536344 531.576472 446.717681 542.524279 463.899019 C550.570876 476.527237 558.628915 489.171955 567.681506 501.099662 C584.788073 523.639298 605.254566 543.373899 625.630716 563.007602 C638.572456 575.477783 651.514195 587.947963 664.455934 600.418144 C674.802265 610.387485 686.014873 620.816101 700.150213 623.390301 C683.861397 593.112927 669.678278 561.719045 657.309765 529.640006 C641.659576 489.049595 628.906876 447.342339 619.180790 404.940534 C612.790732 377.082463 607.688166 348.862211 598.910345 321.661939 M1323.006007 1105.428325 C1320.950303 1105.304736 1321.123438 1108.711144 1322.604811 1110.141782 C1324.101039 1111.586763 1326.039953 1112.490030 1328.013352 1113.147570 C1331.205579 1114.211229 1334.589719 1114.696003 1337.952177 1114.571296 C1333.419728 1111.711422 1328.887279 1108.851547 1324.354831 1105.991673 C1323.938093 1105.728720 1323.497881 1105.457898 1323.006007 1105.428326 M1278.255475 1077.114379 C1276.236438 1077.367743 1274.361225 1078.590674 1273.315282 1080.336155 C1274.298917 1081.193857 1275.282555 1082.051557 1276.266194 1082.909257 C1278.067491 1082.504460 1280.108433 1081.914964 1280.886085 1080.240514 C1281.663737 1078.566064 1279.523898 1076.138031 1278.159654 1077.381962 M374.027555 735.698710 C372.495945 735.168697 370.826375 734.635815 369.289414 735.150106 C367.752452 735.664397 366.692220 737.747508 367.761232 738.965686 C371.397206 737.357572 375.439611 736.678515 379.401461 737.010321 C378.430219 735.338174 376.098825 734.622766 374.356840 735.462338 M799.289993 1206.308626 C798.408151 1204.964272 796.072978 1205.013792 795.248920 1206.394322 C796.831354 1207.051201 797.620724 1208.787492 798.788004 1210.041703 C799.955284 1211.295913 802.334813 1211.912190 803.172220 1210.417420 C804.233079 1208.523789 801.346031 1206.880889 799.177764 1206.781485 M821.386875 1356.342363 C820.776145 1358.749890 821.102902 1361.382499 822.283672 1363.567666 C823.761980 1360.341635 823.848731 1356.505626 822.517773 1353.216064 C821.447876 1353.736193 820.915865 1355.148238 821.376558 1356.245041 M810.276538 1337.313227 C810.988545 1338.010981 811.700552 1338.708734 812.412560 1339.406488 C813.812078 1337.392644 812.554927 1334.132637 810.165647 1333.579861 C808.884383 1334.369023 808.996086 1336.620216 810.349179 1337.278667 M188.545469 641.190431 C188.912167 643.081511 191.726466 643.897104 193.047502 642.495135 C192.367260 641.178312 191.535299 639.733452 190.106239 639.340335 C188.677178 638.947217 186.901545 640.617265 187.783497 641.808447 M1321.148073 1334.263523 C1322.205379 1332.281159 1318.338193 1330.346370 1317.356926 1332.367453 C1316.375659 1334.388537 1320.192095 1336.285117 1321.239481 1334.297493 M1477.332246 790.230152 C1475.591294 788.850289 1472.880651 788.882837 1471.173333 790.304104 C1472.874863 791.737950 1475.592894 791.780732 1477.338707 790.401154 M587.662992 112.134501 C586.594600 110.998167 584.523565 112.933494 585.302514 114.284773 C586.081463 115.636052 588.274175 115.497953 589.312850 114.334393 C588.634268 113.660870 587.955682 112.987346 587.277097 112.313821 M1140.241503 567.449021 C1138.309584 566.436794 1136.336666 570.049340 1138.207479 571.170488 C1139.733293 570.524211 1140.820749 568.951710 1140.886872 567.295991 M485.139104 388.278210 C486.151331 386.346291 482.538785 384.373373 481.417636 386.244186 C482.063913 387.770000 483.636414 388.857456 485.292134 388.923580 M1143.550587 582.243939 C1143.240867 581.313994 1142.931146 580.384049 1142.621426 579.454105 C1140.656340 579.673405 1141.580594 583.526779 1143.431354 582.830828 M631.305432 1096.360425 C631.158857 1095.364740 629.415333 1095.661124 629.176241 1096.638726 C628.937150 1097.616329 629.608659 1098.561109 630.240439 1099.344515 C631.180568 1098.718068 631.593636 1097.405809 631.181848 1096.353806 M638.262898 601.301009 C639.596384 600.460571 639.604719 598.178933 638.277409 597.328775 C636.946957 598.176254 636.953654 600.461840 638.289050 601.301509 M1348.262898 1379.301009 C1349.596384 1378.460571 1349.604719 1376.178933 1348.277409 1375.328775 C1346.946957 1376.176254 1346.953654 1378.461840 1348.289050 1379.301509 M854.302270 113.459500 C853.441386 113.495441 853.413678 115.100444 854.272808 115.166079 C855.136199 115.104392 855.110254 113.489399 854.245326 113.455473 M1313.422793 310.285854 C1313.458734 311.146738 1315.063737 311.174447 1315.129372 310.315316 C1315.067684 309.451926 1313.452692 309.477871 1313.418766 310.342798 M1134.302270 1107.459500 C1133.441386 1107.495441 1133.413678 1109.100444 1134.272808 1109.166079 C1135.136199 1109.104392 1135.110254 1107.489399 1134.245326 1107.455473 M889.422793 328.285854 C889.458734 329.146738 891.063737 329.174447 891.129372 328.315316 C891.067684 327.451926 889.452692 327.477871 889.418766 328.342798 M1320.249147 1321.165332 C1321.110031 1321.129390 1321.137740 1319.524388 1320.278609 1319.458753 C1319.415218 1319.520440 1319.441164 1321.135433 1320.306091 1321.169359 M326.302270 1003.459500 C325.441386 1003.495441 325.413678 1005.100444 326.272808 1005.166079 C327.136199 1005.104392 327.110254 1003.489399 326.245326 1003.455473 M682.249147 1369.165332 C683.110031 1369.129390 683.137740 1367.524388 682.278609 1367.458753 C681.415218 1367.520440 681.441164 1369.135433 682.306091 1369.169359 M1481.422793 790.285854 C1481.458734 791.146738 1483.063737 791.174447 1483.129372 790.315316 C1483.067684 789.451926 1481.452692 789.477871 1481.418766 790.342798 z"/><path class="selected" fill="#FFFFFF" opacity="1.000000" stroke="none" d=" M1007.506343 927.326404 C1009.580578 927.511719 1011.692229 927.743573 1013.593106 928.594138 C1017.295202 930.250671 1019.595383 933.936873 1021.673562 937.419801 C1025.068015 943.108736 1028.490617 948.858979 1030.525264 955.163462 C1032.559910 961.467944 1033.113621 968.467912 1030.747676 974.655690 C1027.323196 983.611905 1018.631732 989.255579 1010.467067 994.283411 C1009.913854 994.624082 1009.360640 994.964753 1008.807427 995.305424 C1006.217254 996.900463 1003.599559 998.508636 1000.719759 999.488381 C988.819305 1003.537068 975.183308 995.065150 970.651512 983.340156 C965.468700 969.930803 962.451076 954.119836 969.676141 941.691212 C972.707677 936.476334 977.425533 932.259700 982.946759 929.830455 C990.561891 926.479926 999.219716 926.586060 1007.506342 927.326403 M1006.730370 977.543204 C1011.498587 973.793544 1014.118857 967.482088 1013.408365 961.457883 C1013.172978 959.462030 1012.557595 957.436121 1011.200705 955.953662 C1007.778985 952.215288 1001.180545 953.719944 997.813623 957.507746 C994.446701 961.295547 993.327210 966.500306 991.876514 971.356137 C991.536696 972.493577 991.168328 973.659485 991.268643 974.842354 C991.396906 976.354769 992.299854 977.727121 993.479527 978.682224 C997.202865 981.696762 1002.964594 980.504557 1006.730370 977.543203 z"/><path class="selected" fill="#FFFFFF" opacity="1.000000" stroke="none" d=" M728.053721 856.072725 C727.595621 851.772273 727.241917 847.361683 728.322827 843.174157 C729.698517 837.844625 733.259610 833.379952 736.877665 829.231927 C739.096665 826.687889 741.406348 824.165120 744.230945 822.316406 C749.911752 818.598285 757.522772 818.035150 763.688927 820.876721 C772.695201 825.027115 777.271868 834.910546 783.782258 842.390757 C787.642362 846.825883 787.779799 853.284480 787.715423 859.163817 C787.640759 865.982844 787.551827 872.902392 785.640742 879.448571 C783.729656 885.994750 779.730455 892.235365 773.642646 895.308359 C767.312995 898.503432 759.806619 897.869174 752.760489 897.078589 C743.641477 896.055424 736.738542 888.061617 733.215255 879.588739 C730.122862 872.152082 728.906836 864.081405 728.053721 856.072725 M747.301414 867.275892 C747.394592 873.015530 752.037393 878.346087 757.709910 879.226241 C759.060955 879.435871 760.752153 879.234585 761.309572 877.986166 C764.901173 869.942252 763.697862 859.964246 758.296912 853.004802 C757.653610 852.175870 756.800169 851.317520 755.752554 851.376414 C754.711413 851.434942 753.965421 852.367702 753.361609 853.217886 C750.353494 857.453392 747.217089 862.081554 747.301414 867.275892 z"/><path class="selected" fill="#FFFFFF" opacity="1.000000" stroke="none" d=" M872.887678 795.294003 C875.427284 790.499962 878.693792 785.863438 883.384173 783.137132 C888.074555 780.410825 894.445590 780.028694 898.701222 783.393516 C905.106076 778.420648 913.462694 773.197763 920.731630 776.791388 C924.135585 778.474239 926.405198 781.788742 928.271015 785.095950 C932.049159 791.792804 934.818289 799.057740 936.456275 806.570345 C933.462514 819.802101 923.812686 831.349069 911.322863 836.644945 C909.220896 837.536211 906.953592 838.323766 905.450023 840.041875 C902.909490 842.944911 897.916637 840.072231 894.344422 841.528667 C888.187953 844.038731 880.859121 840.767400 876.769151 835.525770 C872.679181 830.284139 871.146848 823.530732 870.040596 816.974913 C869.327174 812.747059 868.745014 808.407911 869.518510 804.190634 C870.092857 801.059166 871.397336 798.107337 872.887678 795.294003 M891.010919 824.364504 C887.678245 821.218970 890.353549 815.527590 889.045092 811.135660 C888.573199 809.551716 887.544228 808.139764 886.180918 807.205446 C881.560306 811.289262 882.689860 818.897741 885.692285 824.284118 C886.450464 825.644296 887.495073 827.083239 889.038637 827.288981 C890.582202 827.494723 892.143373 825.433370 891.010920 824.364506 M909.458852 812.315104 C908.917747 814.510413 909.583736 817.962792 911.773589 817.400011 C912.824553 817.129919 913.344332 815.938520 913.492955 814.863630 C913.891317 811.982568 912.580557 808.929493 910.217381 807.234026 C909.210712 808.686357 908.885271 810.590743 909.352519 812.294955 z"/><path class="selected" fill="#FFFFFF" opacity="1.000000" stroke="none" d=" M816.505903 831.270156 C812.351158 830.293389 808.213021 832.751858 803.968799 833.201926 C798.068217 833.827644 792.298035 830.398640 788.672422 825.701479 C785.046808 821.004318 783.214791 815.190998 781.739349 809.443697 C780.012396 802.716681 778.677793 795.888964 777.744580 789.006797 C777.591424 787.877318 778.193078 786.797707 778.773174 785.816551 C783.135487 778.438271 787.905139 770.670723 795.581306 766.856899 C797.926666 765.691632 800.454861 764.948946 802.967952 764.212101 C804.401429 763.791802 805.866749 763.367376 807.359188 763.431694 C809.055679 763.504806 810.656375 764.203214 812.190332 764.931504 C821.070289 769.147515 829.443013 774.918689 835.160035 782.915191 C840.877057 790.911694 843.655411 801.361187 840.997231 810.824931 C839.424342 816.424785 835.992992 821.485653 831.373049 825.019554 C829.577619 826.392920 827.618929 827.535384 825.666130 828.673925 C822.853091 830.314013 819.675719 832.015369 816.505903 831.270156 M814.920061 810.039346 C817.412616 808.219440 819.959843 806.343152 821.658515 803.766448 C823.357188 801.189745 824.055707 797.723220 822.605946 794.998687 C820.619555 791.265664 814.614714 790.646651 811.908547 793.895938 C810.465621 795.628453 810.027346 797.963817 809.031843 799.986838 C808.036341 802.009860 805.942702 803.905346 803.765645 803.318777 C802.296338 802.922895 801.408674 804.885788 801.170713 806.388770 C800.576326 810.142972 801.039215 815.410948 804.814497 815.852054 C806.564451 816.056520 808.173935 814.964941 809.596873 813.926002 C811.371269 812.630450 813.145665 811.334898 814.920061 810.039346 z"/><path class="selected" fill="#FFFFFF" opacity="1.000000" stroke="none" d=" M775.087875 949.228112 C772.691676 944.090510 771.447284 938.419600 771.472173 932.750728 C771.491826 928.274461 772.288860 923.842243 773.083309 919.436996 C773.809640 915.409467 774.583133 911.260022 776.822072 907.834281 C778.976668 904.537593 782.305052 902.202057 785.679339 900.171140 C789.321259 897.979141 793.279235 895.997319 797.527430 895.851421 C804.246184 895.620675 810.168586 899.935496 815.488816 904.045247 C820.937291 908.254065 826.628252 912.777704 829.142628 919.186912 C831.031083 924.000635 830.897371 929.335731 830.736463 934.504126 C830.722336 934.957898 830.708209 935.411670 830.694081 935.865442 C830.479716 942.750902 830.052071 950.217022 825.587454 955.463232 C821.373150 960.415308 814.592311 962.159254 808.260290 963.638758 C803.798890 964.681183 799.225799 965.730640 794.677448 965.179963 C785.945852 964.122814 778.805585 957.199122 775.087875 949.228114 M812.652454 937.991222 C811.100033 933.975303 808.855529 930.227962 806.047618 926.964030 C805.097284 925.859358 803.734685 924.710814 802.350809 925.167239 C801.473167 925.456702 800.924832 926.309185 800.471338 927.114409 C798.436222 930.727977 796.862302 934.600956 795.799795 938.609777 C797.501742 944.327697 804.935702 947.480307 810.229272 944.729062 C811.668954 943.980813 813.003720 942.743033 813.237340 941.137423 C813.392706 940.069616 813.041520 938.997689 812.652454 937.991222 z"/><path class="selected" fill="#FFFFFF" opacity="1.000000" stroke="none" d=" M894.329787 872.892827 C895.470727 871.157064 896.611667 869.421301 897.752606 867.685538 C898.827508 866.050240 899.912196 864.402759 901.290437 863.013492 C905.267226 859.004885 911.115971 857.639315 916.635478 856.448174 C921.031689 855.499448 926.080910 854.683924 929.643224 857.429222 C933.044459 860.050385 934.165443 865.344538 938.205769 866.798725 C941.601115 868.020771 943.187864 871.880406 943.973760 875.402357 C948.013669 893.507013 940.251902 913.682475 925.119392 924.411248 C921.035641 927.306579 916.217424 929.607646 911.222895 929.269047 C903.922612 928.774133 898.207880 922.904216 893.895723 916.992838 C891.088112 913.143990 888.494855 908.995042 887.477833 904.340799 C886.297193 898.937778 887.331755 893.320861 888.475148 887.909835 C889.285162 884.076509 890.167878 880.203938 891.984328 876.732480 C892.679961 875.403038 893.505629 874.146656 894.329788 872.892827 M918.084018 907.953372 C924.277418 903.162107 923.542217 892.013125 916.773279 888.076640 C915.703778 887.454667 915.598596 885.994927 915.197044 884.824698 C914.795492 883.654470 913.255572 882.572156 912.441096 883.503449 C908.274716 888.267399 906.239247 894.828903 906.977916 901.114468 C907.451064 905.140635 910.000783 909.726538 914.052724 909.601379 C915.528104 909.555807 916.916511 908.856563 918.084016 907.953371 z"/><path class="selected" fill="#FFFFFF" opacity="1.000000" stroke="none" d=" M1144.265138 895.236448 C1142.602711 895.662318 1140.771654 895.383204 1139.311613 894.481366 C1140.690979 892.530194 1144.225232 892.879140 1145.196398 895.062381 z"/><path class="selected" fill="#FFFFFF" opacity="1.000000" stroke="none" d=" M837.243316 839.695811 C843.804340 840.545523 850.567961 842.231470 855.529747 846.607509 C860.301119 850.815610 862.886690 857.254452 862.817941 863.616007 C862.770551 868.001146 861.521345 872.367358 859.242181 876.113970 C854.931308 883.200412 847.274889 887.672431 839.369079 890.182303 C836.285201 891.161351 833.011030 891.890970 829.827577 891.312642 C827.814576 890.946948 825.924682 890.070182 824.176883 889.006652 C813.491107 882.504382 808.314552 868.184839 812.372394 856.352713 C815.876996 846.133761 826.529587 838.308286 837.243316 839.695811 M832.343563 878.425148 C839.442269 877.649438 845.948072 872.787444 848.702936 866.199267 C849.172977 865.075182 849.541688 863.808167 849.150977 862.654108 C848.729708 861.409787 847.515063 860.597279 846.276182 860.160270 C840.715848 858.198895 834.941457 862.066537 830.310697 865.716244 C826.213434 868.945475 827.443437 876.635102 832.343562 878.425147 z"/></svg>