<?xml version="1.0" standalone="no"?>
<!DOCTYPE svg PUBLIC "-//W3C//DTD SVG 1.1//EN" "http://www.w3.org/Graphics/SVG/1.1/DTD/svg11.dtd">
<svg xmlns="http://www.w3.org/2000/svg" xmlns:xlink="http://www.w3.org/1999/xlink" version="1.1" id="Contours" x="0px" y="0px" width="1998.70361328125" height="2212.49365234375" viewBox="-0.000000 -0.000001 1998.703613 2212.493652" enable-background="new 0 0 1998.703613 1998.703613" xml:space="preserve" stroke="black" fill="none" stroke-linecap="round" stroke-linejoin="round"><path class="selected" fill="#7D9883" opacity="1.000000" stroke="none" d=" M679.273897 822.744203 C683.755966 818.258283 688.238036 813.772363 692.720105 809.286444 C698.120174 803.881736 703.601856 798.413450 710.211511 794.581470 C713.799778 792.501156 717.683725 790.931728 721.709923 789.935187 C723.068955 789.598808 724.801795 789.461923 725.576359 790.628186 C726.360080 791.808233 725.519254 793.391393 724.528814 794.404191 C720.250070 798.779522 713.352534 799.622120 708.860196 803.777847 C692.472574 818.937541 677.416804 835.536450 663.922969 853.320907 C662.769939 854.840564 660.059827 853.660220 659.585756 851.812493 C659.111685 849.964767 660.052461 848.079120 660.972256 846.407949 C662.844585 843.006128 664.758890 839.617317 667.012055 836.454842 C670.574141 831.455204 674.934976 827.086851 679.273897 822.744203 z"/><path class="selected" fill="#7D9883" opacity="1.000000" stroke="none" d=" M1750.900262 845.843544 C1747.244825 845.108520 1745.441241 840.584694 1746.268796 836.949088 C1747.096350 833.313481 1749.739577 830.410208 1752.249935 827.653292 C1758.098546 821.230260 1763.918309 814.331608 1766.233990 805.959081 C1768.216353 798.791684 1767.520532 790.877381 1770.835225 784.220494 C1772.735971 785.507424 1774.292142 787.298334 1775.301172 789.360101 C1777.373369 793.594255 1777.044778 798.591038 1776.205425 803.229739 C1773.200535 819.836302 1764.043204 835.257216 1750.900263 845.843544 z"/><path class="selected" fill="#7D9883" opacity="1.000000" stroke="none" d=" M1251.129796 1443.729159 C1248.550923 1448.878517 1245.972049 1454.027875 1243.393176 1459.177233 C1243.191618 1459.579693 1242.972162 1460.002320 1242.590111 1460.240306 C1240.927050 1461.276264 1239.957412 1458.127192 1240.536722 1456.255459 C1241.907713 1451.825839 1243.662617 1447.515118 1245.775315 1443.387453 C1246.393321 1442.180030 1247.113739 1440.916335 1248.327458 1440.310787 C1249.541177 1439.705240 1251.357251 1440.155872 1251.666375 1441.476570 C1251.846106 1442.244451 1251.482944 1443.024012 1251.129796 1443.729159 z"/><path class="selected" fill="#7D9883" opacity="1.000000" stroke="none" d=" M1011.740207 1159.952465 C955.421971 1108.444255 973.062259 1000.184187 1042.818995 969.219089 C999.481720 992.879606 981.193563 1049.401735 992.160448 1097.543888 C1003.127334 1145.686041 1038.123176 1185.423218 1078.699894 1213.556284 C1095.734911 1225.367176 1116.351128 1235.895720 1136.423885 1230.721416 C1161.504374 1265.814651 1206.735688 1285.347820 1249.477693 1279.543769 C1292.219699 1273.739717 1330.604242 1242.852126 1345.418280 1202.341505 C1353.033524 1181.516785 1355.527904 1157.394266 1371.389084 1141.899625 C1342.224702 1142.508525 1312.938620 1136.201605 1286.610146 1123.642010 C1319.213047 1121.428311 1352.327108 1127.159130 1382.289899 1140.200637 C1395.995470 1098.775432 1360.714925 1055.050864 1319.951143 1039.487949 C1279.187361 1023.925034 1234.040909 1027.115485 1190.710845 1021.977799 C1087.088953 1009.691313 990.914258 945.620442 939.658601 854.728687 C924.656446 828.125319 913.112740 797.433545 918.980825 767.460739 C924.848911 737.487934 953.773881 710.570437 983.748141 716.431094 C949.362379 720.214577 926.413244 757.859648 928.193845 792.407079 C929.974446 826.954509 950.240208 857.780353 972.960819 883.866160 C1031.228508 950.763998 1110.685512 998.923979 1196.950917 1019.629634 C1232.080730 1028.061587 1270.809435 1031.624764 1302.884314 1014.999372 C1334.959194 998.373979 1355.150396 955.283677 1336.426247 924.386949 C1360.526032 952.852286 1351.075611 1002.704682 1318.229981 1020.374987 C1354.410833 1044.225122 1387.136035 1073.308583 1415.069922 1106.438342 C1413.968442 1005.312304 1405.509852 904.267151 1389.783099 804.365409 C1377.561129 726.727246 1281.582385 699.355018 1203.716715 688.678019 C1248.182358 683.737826 1294.233406 694.475254 1331.928607 718.572365 C1351.841987 684.642763 1339.587943 638.751210 1312.175448 610.532142 C1284.762954 582.313074 1245.683776 568.677167 1207.177257 560.614374 C1135.772185 545.663028 1061.040513 546.827293 990.135844 563.995722 C979.099937 566.667886 967.441103 570.165574 960.178566 578.894106 C950.807432 590.156872 951.578532 606.576948 954.249163 620.983050 C969.041156 700.775033 1030.057170 770.262404 1107.267212 795.245858 C1184.477254 820.229312 1274.634207 799.658155 1333.365906 743.656806 C1318.934737 757.848590 1304.503565 772.040372 1290.072393 786.232154 C1345.445889 788.695979 1379.083559 867.199505 1342.673063 908.991495 C1365.970757 911.289607 1388.056275 923.933640 1401.833609 942.861104 C1346.471248 920.857397 1290.461201 900.483327 1233.900425 881.774163 C1264.501223 906.255977 1315.877106 907.868162 1338.804223 876.085850 C1361.731341 844.303539 1328.414736 787.917395 1291.708033 801.642773 C1155.219390 852.678636 984.345268 769.282630 940.603715 630.284482 C935.412569 613.788510 932.016934 595.067963 940.161466 579.812418 C949.359312 562.583910 970.065873 555.451218 989.118179 551.158029 C1035.814779 540.635558 1084.310201 538.144486 1131.839197 543.826855 C1041.922950 526.606316 955.918005 489.266400 881.941737 435.331345 C866.294743 423.923344 850.210381 410.307739 845.912919 391.426459 C836.635412 350.664911 885.357502 321.654906 926.360235 313.509241 C988.510639 301.162347 1053.493530 303.310018 1114.693076 319.733602 C1073.127659 249.438008 1060.919005 162.379749 1081.545490 83.362646 C1091.606385 44.820799 1116.351092 2.974103 1156.084055 0.147943 C1184.683446 -1.886300 1210.058784 17.401044 1231.113933 36.862391 C1296.432292 97.236377 1350.381041 169.869664 1389.308390 249.845707 C1438.809513 226.595121 1492.582190 202.748638 1546.266518 213.186254 C1599.950845 223.623870 1645.918813 285.787949 1618.998250 333.392929 C1667.612412 336.615520 1713.379860 367.832444 1734.123068 411.916921 C1754.866276 456.001398 1749.743249 511.163978 1721.236452 550.674537 C1729.215192 514.735200 1737.148427 477.848655 1732.044582 441.389814 C1726.940738 404.930974 1706.021211 368.405177 1671.685131 355.126251 C1637.349051 341.847325 1591.136858 361.110909 1584.836817 397.382189 C1580.700678 421.195219 1567.075333 443.224660 1547.616250 457.560356 C1567.594957 459.863789 1587.573664 462.167221 1607.552371 464.470654 C1525.549917 486.443334 1443.547463 508.416013 1361.545009 530.388693 C1371.827097 561.464117 1417.539585 551.151111 1447.990787 539.145795 C1519.559317 510.930062 1601.235760 509.215724 1673.925199 534.403571 C1718.135033 549.722860 1761.148129 577.117962 1780.437531 619.745524 C1799.726932 662.373086 1786.310222 721.383850 1743.614945 740.522901 C1753.817381 751.403228 1764.019817 762.283555 1774.222253 773.163882 C1740.733655 745.900155 1691.654210 762.780345 1650.258409 775.076061 C1596.745593 790.970873 1538.339753 796.741646 1485.503681 778.724540 C1432.667610 760.707434 1386.985568 715.263631 1380.142695 659.861089 C1378.126965 712.086212 1385.687490 764.665944 1402.336380 814.207251 C1419.736935 805.905995 1431.257339 786.610052 1430.309475 767.354099 C1420.354961 799.769469 1456.574501 830.060293 1490.436573 831.851747 C1524.298644 833.643201 1556.488004 818.273764 1589.885590 812.404313 C1688.587106 795.057983 1782.294123 861.567393 1850.483158 935.005391 C1864.433521 950.029606 1878.509398 966.794808 1881.167209 987.123987 C1884.473745 1012.415165 1869.166568 1036.465513 1851.369924 1054.737240 C1818.347135 1088.641569 1774.171062 1111.498989 1727.419999 1118.870947 C1686.273340 1125.359169 1644.288264 1120.123049 1602.636570 1120.652782 C1560.984875 1121.182514 1516.960163 1128.610969 1485.426445 1155.828039 C1453.892728 1183.045109 1441.045840 1234.967275 1467.355240 1267.262162 C1524.358119 1235.851735 1594.185442 1228.610391 1656.420726 1247.655398 C1621.115338 1242.071329 1584.713028 1236.520248 1549.957130 1244.867692 C1515.201232 1253.215136 1482.108910 1279.037330 1476.507228 1314.339928 C1470.612634 1351.488481 1497.281739 1387.947509 1531.127638 1404.355323 C1564.973537 1420.763137 1604.239636 1421.124778 1641.749798 1418.341077 C1694.779441 1414.405647 1747.388955 1404.833083 1798.406001 1389.836701 C1879.474306 1366.006799 1964.967563 1318.595200 1985.771537 1236.698138 C2006.004566 1157.048668 1944.839874 1066.728776 1863.370360 1055.952335 C1933.057393 1048.421178 1995.765872 1115.809023 1998.578694 1185.845364 C2001.391517 1255.881705 1956.356388 1321.195559 1898.087274 1360.153373 C1839.818160 1399.111187 1769.831538 1416.010893 1700.927337 1428.864380 C1707.197250 1502.787666 1660.343405 1574.254721 1596.967571 1612.822423 C1533.591737 1651.390125 1456.579286 1661.469671 1382.442725 1658.688611 C1372.454886 1737.100584 1345.701512 1813.335407 1304.498788 1880.793021 C1325.134022 1809.511460 1345.769256 1738.229898 1366.404490 1666.948336 C1320.227571 1680.879372 1266.159236 1607.602034 1232.857143 1642.492609 C1218.023063 1658.034261 1223.866832 1683.222005 1230.655905 1703.605855 C1251.209452 1765.316843 1271.762999 1827.027831 1292.316545 1888.738819 C1229.913564 1734.863785 1165.659897 1577.915303 1056.870401 1452.470081 C1047.991959 1463.349355 1034.445084 1470.282273 1020.427847 1471.120380 C1020.801142 1539.459310 1006.255506 1607.841097 978.099998 1670.111604 C1055.091178 1676.161650 1131.633983 1687.909773 1206.895649 1705.228157 C1192.432312 1709.471384 1177.968975 1713.714611 1163.505638 1717.957837 C1194.643392 1746.746748 1199.561060 1795.955457 1185.928208 1836.111488 C1172.295356 1876.267519 1143.478218 1909.240001 1114.190563 1939.909117 C1033.781693 2024.110760 944.479618 2099.814522 848.250221 2165.353867 C810.507867 2191.059217 767.945774 2216.179322 722.468790 2212.044825 C661.845461 2206.533312 616.688472 2148.489544 605.441928 2088.664136 C594.195384 2028.838727 609.087592 1967.538729 623.889195 1908.492333 C553.353347 1904.773909 488.191126 1851.682834 470.297489 1783.353105 C452.403853 1715.023376 483.180745 1636.808541 542.840685 1598.995505 C507.869783 1641.265388 480.710384 1692.682801 479.405918 1747.528088 C478.101451 1802.373374 507.587094 1860.066887 558.584245 1880.290578 C620.668002 1904.910842 689.330629 1869.912179 745.069961 1833.119819 C808.410187 1791.310271 869.234676 1745.689940 927.105074 1696.587608 C987.719940 1643.189356 1017.774334 1557.234468 1003.639852 1477.699874 C965.333767 1503.760231 927.027681 1529.820588 888.721596 1555.880945 C919.924015 1521.260257 956.335228 1491.342390 996.349820 1467.446461 C966.372012 1450.153643 935.582226 1432.560242 901.467186 1426.740057 C867.352145 1420.919873 828.660714 1429.222672 806.979550 1456.197432 C718.485950 1566.297310 566.499535 1621.290023 428.043690 1593.306468 C412.510047 1590.166937 396.736540 1585.871105 384.043100 1576.382834 C358.358759 1557.183942 351.266415 1520.390626 358.512469 1489.153188 C365.758524 1457.915751 384.617698 1430.833988 403.080890 1404.615801 C359.093163 1422.106881 309.118823 1383.233283 296.817111 1337.521950 C284.515399 1291.810616 298.563791 1243.610435 312.518466 1198.376319 C329.516948 1143.275705 347.080109 1087.029399 381.168642 1040.521357 C415.257175 994.013315 469.543756 958.222239 527.097708 961.767477 C551.199089 963.252087 585.001939 965.183389 589.470715 941.453437 C541.321794 903.813160 482.880864 879.474727 422.247688 871.811382 C442.404855 932.643158 376.052073 994.483451 311.971664 993.763977 C247.891256 993.044503 192.182665 951.167669 144.905586 907.904588 C82.540046 850.834112 23.414650 783.788590 4.806184 701.325115 C-4.342849 660.781150 -1.844529 614.618730 24.731902 582.662335 C52.047179 549.817524 97.808742 539.476163 140.399726 536.172523 C232.013942 529.066316 325.365517 545.644161 408.931265 583.859714 C457.999756 606.299285 507.243462 640.684091 521.566031 692.704424 C539.304661 757.132078 495.526451 824.538928 439.670733 861.222987 C501.362558 877.174239 559.956398 905.018074 611.286245 942.774804 C615.916093 933.417047 620.545940 924.059291 625.175788 914.701535 C582.147270 923.721495 540.899542 883.671387 533.458084 840.341977 C526.016626 797.012566 543.240606 753.415116 563.192447 714.239395 C596.145412 649.535784 637.587353 589.161815 686.120985 535.153096 C708.561866 510.180655 733.533164 485.889458 764.968387 474.097821 C796.403610 462.306183 835.801910 465.976133 858.226480 490.963221 C872.365300 506.717723 877.877785 528.209230 882.368893 548.895953 C892.921532 597.503010 900.429023 646.770963 904.832726 696.315000 C910.999866 765.698642 909.165797 841.630103 866.323818 896.554490 C823.481838 951.478876 725.902907 965.547209 687.940903 907.143359 C741.240498 927.883736 806.984836 945.633344 851.131795 909.273252 C886.263300 880.338423 891.542989 829.236697 892.074490 783.726650 C892.896135 713.372902 888.748635 642.961585 879.673113 573.190820 C875.571698 541.659976 868.329888 506.706711 842.127976 488.693507 C801.354770 460.662877 746.392016 492.022364 710.836463 526.431275 C646.113723 589.066752 594.726118 665.415931 561.063427 748.956695 C545.138266 788.478194 533.910457 836.032998 557.327879 871.630525 C580.745301 907.228052 651.019439 902.853841 653.624878 860.324189 C639.593310 888.926473 625.382575 922.365531 638.494269 951.401014 C644.656177 965.046391 656.088485 975.472799 667.215756 985.490246 C732.301755 1044.084627 797.387753 1102.679008 862.473752 1161.273389 C827.121751 1117.137925 815.660869 1054.956148 832.954982 1001.117345 C850.249095 947.278542 895.777749 903.402957 950.219064 888.110924 C911.725524 917.787240 872.118893 949.095860 850.322307 992.539446 C828.525720 1035.983033 830.103388 1095.206627 867.106698 1126.721567 C881.746242 1091.194861 907.634005 1060.401418 940.117207 1039.875710 C897.329219 1062.148362 872.416482 1119.820590 896.132946 1161.825497 C919.849410 1203.830405 994.728648 1205.091028 1011.740207 1159.952466 M952.919997 1915.068961 C947.757572 1914.215527 949.206698 1906.364622 952.030106 1901.959244 C976.886815 1863.175194 1004.433422 1826.115434 1034.406486 1791.134383 C1061.374460 1759.660521 1091.484711 1729.045293 1129.804766 1713.251337 C1118.190207 1706.877251 1105.763575 1701.984782 1092.920969 1698.729877 C1082.071558 1695.980139 1070.965049 1694.401711 1059.883768 1692.828190 C1034.977676 1689.291572 1010.071583 1685.754954 985.165491 1682.218336 C980.774743 1681.594858 976.266262 1680.975240 971.942259 1681.960323 C966.361264 1683.231769 961.741252 1687.012007 957.329550 1690.659056 C862.576446 1768.989311 760.456254 1838.403900 652.756629 1897.687706 C637.953206 1905.836325 628.309245 1921.177968 622.800412 1937.152763 C613.423340 1964.344881 614.409142 1993.878178 615.828091 2022.606688 C617.372880 2053.883001 619.381254 2085.563596 629.275003 2115.273995 C639.168752 2144.984395 657.960390 2172.959144 685.703476 2187.482066 C715.716735 2203.193374 752.565738 2201.207938 784.380266 2189.568493 C816.194794 2177.929048 843.966850 2157.562796 870.843651 2136.940516 C948.389281 2077.440587 1022.572383 2013.558745 1092.921081 1945.701343 C1120.218256 1919.370858 1147.415787 1891.788549 1164.210242 1857.783012 C1181.004696 1823.777476 1185.972440 1781.806719 1168.199831 1748.302024 C1164.278025 1740.908684 1158.968871 1733.753594 1151.320585 1730.355688 C1143.672300 1726.957782 1133.324383 1728.586185 1128.990412 1735.745706 C1126.219318 1740.323429 1120.731343 1747.443003 1118.089891 1742.789271 C1121.518755 1738.699518 1121.954939 1732.370073 1119.119501 1727.848633 C1085.976571 1745.245839 1060.592331 1774.193464 1036.951291 1803.214454 C1007.490448 1839.379648 979.451191 1876.702853 952.919997 1915.068961 M396.575489 856.849319 C354.841375 839.600832 309.250348 831.759768 264.151676 834.074143 C264.132080 828.084347 271.984357 825.902827 277.972026 825.741998 C315.037799 824.746413 352.286953 831.121608 386.911946 844.387074 C401.088365 849.818318 416.503808 856.486786 430.870267 851.580248 C436.838600 849.541897 441.976455 845.651557 446.854703 841.654237 C472.106484 820.962490 493.864344 795.054840 505.272146 764.466234 C516.679949 733.877628 516.822858 698.276468 501.304931 669.553747 C482.777443 635.260516 445.799895 615.576579 409.961821 600.249285 C357.182860 577.676681 302.220168 560.213415 246.091671 548.182912 C226.689392 544.024254 206.700219 540.502417 187.089116 543.526903 C173.509389 545.621211 160.572901 550.794994 147.051052 553.235221 C129.875113 556.334886 112.162372 554.956853 94.909150 557.592596 C59.808828 562.954807 26.787803 587.489277 17.021141 621.627206 C12.471601 637.529426 12.985041 654.448973 14.966853 670.870034 C20.680014 718.208604 38.494229 764.036790 66.252654 802.805980 C80.339362 822.480375 96.862237 840.274464 113.636999 857.713627 C169.030734 915.301349 232.189401 972.070068 310.608662 987.407315 C317.957559 988.844613 325.644928 989.886519 332.858387 987.877014 C339.525809 986.019618 345.200705 981.721348 350.696657 977.514337 C360.811740 969.771492 370.926825 962.028650 381.041910 954.285808 C387.873359 949.056509 394.802953 943.728360 399.889796 936.790184 C409.793593 923.281946 411.443423 905.620303 412.750335 888.921510 C413.444647 880.050090 413.764255 870.035577 407.690184 863.532515 C404.715464 860.347705 400.603042 858.513885 396.575489 856.849319 M378.264701 1556.309640 C393.639531 1578.099431 423.874330 1582.124569 450.524147 1583.108255 C518.923063 1585.632965 588.646693 1580.640433 652.851218 1556.921984 C717.055744 1533.203534 775.602861 1489.126412 806.585289 1428.094658 C800.821605 1430.462075 794.721623 1432.009005 788.526299 1432.674343 C823.853348 1415.607834 849.345399 1381.620488 861.159410 1344.207986 C872.973422 1306.795485 872.086548 1266.252313 864.219738 1227.815619 C884.690395 1254.246293 889.227887 1290.500035 882.718078 1323.291051 C876.208270 1356.082066 859.775114 1386.035945 841.587002 1414.086273 C867.619027 1418.283373 894.268715 1415.760269 920.528040 1418.153974 C946.787366 1420.547679 974.353441 1429.058894 990.566054 1449.853921 C999.592619 1461.431799 1017.417296 1459.097269 1031.683314 1455.632176 C1039.380981 1453.762480 1049.075711 1448.967233 1047.430706 1441.218439 C1046.976872 1439.080657 1045.648418 1437.249135 1044.352917 1435.489091 C993.113331 1365.875918 941.873745 1296.262744 890.634159 1226.649569 C884.744928 1218.648567 875.742541 1209.643443 866.499851 1213.286488 C862.558957 1214.839809 858.255468 1215.121460 854.056209 1215.677952 C812.842353 1221.139627 777.942066 1257.840905 774.559280 1299.277225 C765.553392 1288.275757 770.620670 1271.713299 777.714185 1259.391758 C791.584769 1235.298348 811.887032 1214.947345 835.947113 1201.019030 C829.929607 1191.017574 817.046796 1187.341783 805.375843 1187.510102 C785.039437 1187.803395 766.009158 1196.936315 747.741768 1205.878232 C716.779691 1221.034219 685.817613 1236.190205 654.855536 1251.346192 C651.844010 1249.513672 650.386498 1245.476616 651.532863 1242.142960 C618.531299 1270.943821 591.607815 1306.006977 560.176966 1336.514265 C528.746116 1367.021553 490.843611 1393.710422 447.423110 1399.476971 C427.955280 1402.062436 410.886075 1414.752054 399.278896 1430.593595 C387.671717 1446.435137 380.889695 1465.261836 375.399232 1484.117495 C368.424183 1508.071604 363.880925 1535.924410 378.264701 1556.309640 M548.781251 1033.881704 C543.043849 1066.740743 541.947739 1100.406695 545.535580 1133.569348 C534.594735 1123.271669 532.375206 1106.643961 533.759327 1091.683062 C535.143448 1076.722163 539.439597 1061.981133 538.886116 1046.966542 C538.026039 1023.634638 544.353009 1000.086971 556.791050 980.328109 C512.155161 971.511767 464.299959 980.192944 425.604963 1004.125933 C401.729302 1018.893111 383.747683 1042.917657 376.309463 1069.987745 C372.672353 1083.224370 371.453266 1097.134393 366.534057 1109.949937 C351.934696 1147.984255 337.335336 1186.018572 322.735976 1224.052890 C314.817460 1244.682241 306.816081 1265.665945 305.066865 1287.693502 C304.750647 1291.675605 303.087348 1295.403712 301.861153 1299.205499 C293.394224 1325.456892 307.057666 1355.318400 329.299871 1371.631242 C351.542075 1387.944084 380.450099 1392.636856 408.007695 1391.452219 C454.522021 1389.452679 500.217315 1371.678474 535.857274 1341.722275 C567.466650 1315.153871 590.730138 1279.959517 621.153951 1252.041344 C635.521777 1238.856820 651.425660 1227.353830 665.063359 1213.415419 C697.203799 1180.566280 715.147619 1129.528127 696.613814 1087.473736 C687.796450 1067.466570 671.918995 1051.572401 656.392466 1036.178911 C640.483431 1020.406194 624.300696 1004.425794 604.682706 993.608656 C598.514928 990.207814 591.789510 987.288246 584.746714 987.367202 C574.075424 987.486838 564.440821 994.658128 558.731957 1003.674758 C553.023094 1012.691387 550.616874 1023.368797 548.781251 1033.881704 M1513.097219 1087.216711 C1467.902521 1066.994026 1437.462621 1017.641905 1439.675680 968.178585 C1439.938616 962.301788 1443.937112 954.354577 1449.249656 956.880985 C1444.069985 1005.285301 1471.476004 1055.536428 1514.974437 1077.392622 C1523.844370 1081.849403 1533.223818 1085.190939 1542.575375 1088.520653 C1553.572262 1092.436204 1564.569150 1096.351755 1575.566037 1100.267305 C1604.988286 1110.743388 1635.273299 1121.361877 1666.488205 1120.338803 C1684.534164 1119.747345 1702.216020 1115.260923 1719.546679 1110.195873 C1772.464154 1094.730236 1826.471915 1071.535716 1858.960562 1026.994354 C1870.689687 1010.913933 1878.882912 987.900259 1867.041831 971.902099 C1839.035549 934.063581 1804.712303 900.912264 1765.924049 874.236872 C1715.355803 839.460165 1654.710042 815.400781 1593.573385 820.774414 C1568.997508 822.934521 1545.064633 829.755373 1521.719932 837.734390 C1501.320695 844.706673 1480.721772 852.898532 1464.798408 867.430842 C1448.875043 881.963152 1438.364564 904.173445 1443.106435 925.203334 C1443.729304 927.965716 1445.671408 931.326067 1448.410379 930.607208 C1485.185690 920.955304 1523.340423 916.575569 1561.346244 917.643436 C1563.286517 917.697952 1565.421972 917.846285 1566.806765 919.206425 C1568.954943 921.316361 1567.882211 925.246516 1565.457795 927.032210 C1563.033379 928.817903 1559.834096 929.046287 1556.825704 929.173071 C1534.725738 930.104440 1512.472316 929.101604 1490.583357 932.287413 C1468.694398 935.473222 1446.646298 943.360902 1431.282490 959.274082 C1428.167402 962.500558 1425.316202 966.098123 1423.718612 970.288782 C1421.467884 976.192704 1421.881649 982.730956 1422.327758 989.033579 C1424.497235 1019.683820 1426.666710 1050.334060 1428.836185 1080.984301 C1429.174233 1085.760219 1429.569033 1090.727331 1431.982258 1094.862547 C1434.395483 1098.997764 1439.473812 1101.999906 1444.002960 1100.447331 C1445.745959 1107.035009 1428.464222 1103.678590 1429.188207 1110.454391 C1435.523536 1169.746783 1435.648736 1229.700822 1429.561099 1289.019150 C1436.718594 1286.340141 1444.136798 1283.492826 1449.406763 1277.958001 C1454.676727 1272.423175 1457.084370 1263.362725 1452.804676 1257.030977 C1436.125064 1232.353721 1436.984002 1197.127957 1454.846528 1173.292970 C1464.609457 1160.265737 1478.731319 1150.576029 1486.466655 1136.251638 C1475.168579 1130.291129 1463.870504 1124.330620 1452.572429 1118.370112 C1449.365342 1116.678154 1445.863835 1114.640564 1444.835209 1111.163488 C1443.806583 1107.686412 1447.544438 1103.198025 1450.664343 1105.045814 C1463.471960 1112.631230 1476.279577 1120.216646 1489.087195 1127.802062 C1493.167368 1130.218579 1498.328766 1132.655334 1502.373233 1130.179520 C1519.991642 1119.394415 1539.709990 1112.054269 1560.092167 1108.693671 C1546.369181 1098.188312 1528.872429 1094.275440 1513.097219 1087.216711 M1395.972738 1403.321238 C1398.812681 1403.917671 1398.565970 1408.092032 1397.353843 1410.728651 C1394.282598 1417.409206 1389.509929 1423.449223 1388.138639 1430.672928 C1386.767349 1437.896632 1390.839733 1447.015153 1398.188213 1447.264512 C1397.945516 1451.468094 1394.618142 1455.300271 1390.490202 1456.130406 C1386.595586 1450.665081 1382.700970 1445.199756 1378.806353 1439.734431 C1357.444488 1456.522044 1334.611242 1471.854995 1309.303987 1481.739127 C1283.996731 1491.623258 1255.945495 1495.825698 1229.395942 1490.057294 C1214.718621 1486.868366 1200.865725 1480.754078 1187.129628 1474.678498 C1173.758719 1468.764443 1160.387809 1462.850388 1147.016900 1456.936333 C1125.310130 1447.335262 1102.215689 1436.531655 1090.230983 1416.044312 C1088.067167 1412.345360 1082.484375 1415.704687 1079.878379 1419.106617 C1074.235891 1426.472461 1068.593402 1433.838304 1062.950913 1441.204147 C1114.479243 1509.376116 1162.785551 1579.983335 1207.654639 1652.711260 C1213.334891 1645.410022 1219.125817 1637.901964 1221.899487 1629.076994 C1224.673157 1620.252024 1223.839997 1609.690111 1217.430766 1603.019646 C1208.245546 1593.460046 1207.263871 1578.842289 1207.642923 1565.590476 C1208.103372 1549.493006 1209.792174 1533.430815 1212.689805 1517.589594 C1214.208499 1509.286964 1217.799895 1499.334669 1226.165776 1498.215690 C1214.591932 1531.381430 1215.284713 1568.675166 1228.082345 1601.388172 C1228.906477 1594.901707 1229.730608 1588.415241 1230.554739 1581.928776 C1234.832157 1583.535152 1238.474275 1586.771741 1240.572118 1590.830780 C1250.643198 1571.080107 1265.909750 1554.007724 1284.416377 1541.800328 C1287.239191 1541.816425 1289.069437 1545.175123 1288.591802 1547.957281 C1288.114167 1550.739440 1286.108015 1552.974677 1284.187168 1555.043224 C1271.283158 1568.939422 1258.379155 1582.835623 1245.475152 1596.731824 C1250.421325 1609.271577 1262.318210 1617.550844 1274.021775 1624.239385 C1303.102365 1640.858827 1335.061421 1652.425908 1368.042451 1658.268698 C1371.959032 1604.704909 1387.302834 1552.720669 1396.878653 1499.874451 C1405.669893 1451.358102 1409.595993 1402.109860 1413.509658 1352.959019 C1416.860026 1310.882498 1420.210394 1268.805978 1423.560762 1226.729458 C1424.624087 1213.375399 1425.358047 1198.757891 1417.541148 1187.878661 C1410.048848 1177.451194 1396.736171 1173.326613 1384.376574 1169.847104 C1379.057088 1168.349547 1373.425095 1166.845650 1368.083593 1168.262674 C1362.742091 1169.679698 1358.070661 1175.192450 1359.649399 1180.488410 C1366.047494 1201.951156 1354.180845 1224.176637 1342.741765 1243.431053 C1337.536548 1252.192546 1331.993726 1261.302798 1323.280251 1266.588003 C1317.927391 1269.834810 1311.748455 1271.393124 1305.674098 1272.908730 C1291.461384 1276.454930 1277.248669 1280.001130 1263.035954 1283.547329 C1254.866681 1285.585637 1246.661565 1287.630262 1238.281799 1288.449565 C1198.272743 1292.361311 1161.611361 1268.546599 1123.904394 1254.610638 C1122.186212 1253.975620 1120.299759 1253.355697 1118.561889 1253.934665 C1116.941144 1254.474614 1115.830302 1255.934533 1114.843934 1257.329324 C1089.334210 1293.401792 1077.829629 1339.117764 1083.226534 1382.967991 C1107.750683 1361.248493 1133.606002 1338.809830 1165.404053 1330.932363 C1164.954734 1335.126173 1164.505415 1339.319983 1164.056096 1343.513793 C1138.620786 1349.598764 1115.361909 1364.422155 1099.104957 1384.908575 C1105.946726 1384.863913 1112.794437 1386.294683 1119.045936 1389.075071 C1111.759695 1394.772178 1104.473454 1400.469285 1097.187213 1406.166393 C1105.632057 1422.526412 1123.712333 1431.091702 1140.554340 1438.528935 C1161.846205 1447.931174 1183.138069 1457.333412 1204.429934 1466.735651 C1210.123637 1469.249924 1216.045060 1471.812596 1222.268222 1471.702685 C1228.491383 1471.592774 1235.116143 1468.011316 1236.671974 1461.984774 C1240.027314 1464.404891 1239.752701 1470.346316 1236.188428 1472.446609 C1238.372057 1478.500526 1246.497251 1479.335449 1252.911888 1478.815287 C1308.150120 1474.336024 1361.100433 1446.393834 1395.972738 1403.321238 M1734.403571 574.094755 C1717.874278 559.914417 1696.673794 552.654673 1676.033456 545.706581 C1652.918028 537.925306 1629.802600 530.144032 1606.687173 522.362757 C1605.786307 523.886164 1605.504537 525.763951 1605.918609 527.484669 C1609.755464 527.487388 1613.509559 529.731689 1615.328352 533.110070 C1615.232158 536.669511 1611.928926 539.828329 1608.368741 539.765413 C1600.293786 532.300797 1588.503489 530.785510 1577.527899 530.105940 C1531.871916 527.279085 1485.715710 532.734871 1441.977022 546.128415 C1434.166840 548.520027 1426.385451 551.182905 1419.234949 555.131205 C1393.566882 569.304364 1378.812427 600.890840 1384.416209 629.671488 C1385.619318 635.850579 1388.978728 642.974186 1395.256415 643.442477 C1398.142254 643.657748 1400.891488 642.332386 1403.503740 641.087180 C1446.234530 620.718265 1495.072845 613.382662 1541.902004 620.299506 C1540.127388 627.024409 1531.348696 628.383380 1524.397200 628.607601 C1484.351350 629.899281 1444.527229 637.825389 1407.038523 651.965243 C1401.307806 654.126734 1397.931604 660.358112 1397.349404 666.455177 C1396.767205 672.552242 1398.455604 678.612259 1400.127260 684.504519 C1404.832051 701.087988 1409.762005 718.126479 1420.343210 731.734736 C1439.488103 756.356565 1472.660297 764.578559 1503.482319 769.349758 C1525.289363 772.725453 1547.241412 775.164279 1569.257622 776.657255 C1585.494437 777.758315 1601.862945 778.340945 1617.993032 776.180668 C1638.620397 773.418078 1658.362562 766.244412 1677.916014 759.118223 C1696.400789 752.381509 1715.009243 745.586834 1731.925400 735.541245 C1748.841556 725.495656 1764.151864 711.888717 1773.162310 694.399232 C1784.721026 671.963494 1784.651071 643.915801 1772.980583 621.538000 C1767.710238 611.432277 1760.336920 602.602098 1752.998457 593.881483 C1747.164015 586.948162 1741.281067 579.994899 1734.403571 574.094755 M1262.741029 81.608085 C1249.416199 68.021084 1236.091369 54.434083 1222.766539 40.847082 C1211.833166 29.698590 1200.417047 18.227346 1185.819044 12.684257 C1172.517257 7.633361 1157.212388 8.107387 1144.248671 13.971785 C1117.108274 26.249288 1105.074296 57.558165 1096.123623 85.969847 C1088.684303 109.584110 1081.513298 133.568201 1080.053078 158.283472 C1077.352501 203.992694 1094.248524 248.325227 1110.864852 290.992822 C1114.623345 300.643924 1118.432739 310.392517 1124.297419 318.929235 C1130.685066 328.227191 1139.312688 335.781520 1148.462274 342.379935 C1155.199842 347.238872 1162.362159 351.679432 1170.268771 354.226897 C1196.020881 362.524082 1227.003311 346.187793 1234.704835 320.251313 C1226.709008 295.826595 1216.313506 272.188112 1203.716638 249.786796 C1192.505203 229.849231 1179.040862 207.569205 1185.668030 185.676663 C1189.981321 190.562321 1191.394245 197.268563 1192.991473 203.587027 C1200.419733 232.972596 1214.913151 260.005988 1229.272006 286.698944 C1234.750108 296.882676 1240.238659 307.083910 1246.647439 316.709165 C1251.301327 323.698772 1254.301300 331.633807 1257.262226 339.491683 C1280.320314 400.684594 1303.378404 461.877504 1326.436494 523.070414 C1334.734704 528.271067 1347.517062 522.403294 1348.982947 512.720409 C1347.215907 516.593492 1340.594495 514.726882 1339.305030 510.669731 C1338.015565 506.612580 1340.095329 502.329617 1342.114667 498.581888 C1348.305535 487.092134 1354.496403 475.602381 1360.687271 464.112627 C1363.716625 458.490391 1358.324264 451.755333 1352.443172 449.265497 C1346.562079 446.775662 1339.715534 446.282719 1334.693599 442.337253 C1327.405288 450.160357 1321.296169 459.080104 1316.635726 468.703031 C1311.232854 468.637382 1308.696784 461.340430 1310.588260 456.279041 C1312.479736 451.217652 1316.907909 447.605997 1320.027341 443.194140 C1323.146773 438.782283 1324.711791 432.150689 1320.891790 428.329310 C1302.081381 409.512112 1293.258832 381.232071 1298.033016 355.057167 C1299.202782 348.643819 1289.225119 346.653114 1283.273545 349.313593 C1277.321971 351.974072 1270.197123 356.223009 1265.006880 352.278297 C1278.779611 343.601396 1293.826819 336.951146 1309.514736 332.607647 C1330.006322 326.934161 1349.031432 314.959146 1361.442157 297.694516 C1373.852883 280.429886 1379.138617 257.756605 1373.768721 237.183375 C1370.353179 224.097695 1362.986247 212.448793 1355.725628 201.038958 C1338.384443 173.787830 1320.975552 146.443888 1300.164258 121.741041 C1288.376226 107.748737 1275.551589 94.670698 1262.741029 81.608085 M1209.359553 435.680671 C1212.538905 436.390950 1215.827948 437.103859 1219.026147 436.483938 C1226.666466 435.002981 1231.024335 426.125515 1230.118614 418.395872 C1229.212892 410.666230 1224.462146 403.983237 1219.600538 397.906028 C1211.878933 388.253705 1203.473008 379.148925 1194.466747 370.682652 C1220.915670 375.442795 1241.118420 402.255693 1239.401139 429.074630 C1239.148362 433.022276 1238.507203 437.125249 1239.890366 440.831281 C1243.323482 450.029937 1255.898466 450.777285 1265.642530 449.571144 C1275.386594 448.365003 1287.658413 448.022142 1292.317287 456.664852 C1282.608144 430.532645 1272.899000 404.400438 1263.189857 378.268231 C1257.442344 362.798772 1251.072466 346.469989 1237.892401 336.539030 C1231.863337 345.912222 1225.014805 355.217657 1215.383948 360.825949 C1197.135576 371.452439 1173.657459 366.188842 1154.819562 356.646359 C1135.981664 347.103875 1119.004417 333.579809 1098.876937 327.191545 C1092.550506 325.183599 1086.014292 323.918950 1079.473803 322.788645 C1040.276006 316.014616 1000.270920 313.924373 960.580610 316.576544 C930.711081 318.572475 898.981777 324.200610 877.283538 344.824840 C868.547979 353.128010 861.877688 363.587891 858.033998 375.010617 C855.462779 382.651794 854.204869 391.254755 857.459811 398.630670 C860.121146 404.661429 865.418153 409.055407 870.594917 413.136323 C933.442983 462.680329 1005.635872 500.328378 1082.234459 523.504754 C1094.601470 527.246631 1107.234667 530.638703 1120.151904 530.938031 C1126.667681 531.089019 1132.324903 538.154625 1138.542193 536.199257 C1151.891973 532.000686 1166.197377 532.528962 1180.188247 532.845522 C1194.179116 533.162082 1208.583515 533.153888 1221.595318 528.002418 C1234.607120 522.850949 1246.053810 511.344207 1246.994911 497.381436 C1247.997659 482.504038 1237.461280 469.619958 1227.556483 458.473771 C1224.646315 455.198868 1221.736149 451.923964 1218.825982 448.649060 C1217.165613 446.780594 1214.569900 446.117549 1212.136113 445.547751 C1199.601419 442.613133 1187.066726 439.678514 1174.532034 436.743896 C1132.138791 426.818801 1088.320849 416.841104 1045.450047 424.443005 C1046.364187 420.792197 1050.293687 418.863666 1053.859504 417.659924 C1082.815719 407.884976 1114.444803 414.476373 1144.271169 421.139691 C1165.967297 425.986685 1187.663425 430.833678 1209.359553 435.680671 M1443.530321 340.941439 C1445.168323 340.524174 1447.066497 340.156838 1448.418383 341.171511 C1451.706180 343.639209 1447.119775 348.306240 1443.260203 349.721460 C1429.613310 354.725445 1416.189837 360.821501 1404.751610 369.790584 C1397.183457 375.725016 1390.613419 382.814519 1384.078908 389.871046 C1371.975683 402.941149 1359.872459 416.011253 1347.769234 429.081357 C1346.155584 430.823914 1344.428477 432.886438 1344.680496 435.247975 C1345.294543 441.001861 1354.140607 439.344605 1359.536167 441.435587 C1365.679426 443.816331 1367.106937 451.616356 1368.628054 458.026799 C1375.070382 485.176691 1400.848011 506.504543 1428.724018 507.748900 C1452.828333 508.824894 1475.356014 496.547797 1495.730299 483.622463 C1512.327416 473.093343 1528.595557 461.787783 1542.406322 447.802455 C1573.714429 416.098622 1590.231735 373.073506 1605.921301 331.370171 C1610.350151 319.598156 1614.847214 307.422141 1614.286631 294.857079 C1613.808602 284.142394 1609.674744 273.959164 1605.287988 264.171960 C1602.624191 258.228814 1599.812084 252.282389 1595.822886 247.134274 C1588.669311 237.902489 1578.110481 231.789921 1567.061355 228.006232 C1531.918619 215.971870 1493.473671 225.980465 1457.711510 236.025646 C1445.534604 239.446001 1433.357697 242.866355 1421.180791 246.286708 C1405.187414 250.779065 1386.758291 257.580274 1382.191801 273.552642 C1372.303615 308.138899 1342.410815 336.213362 1307.272814 343.914416 C1310.332170 344.753249 1311.441739 348.709639 1310.703704 351.794863 C1309.965668 354.880087 1307.996851 357.522302 1306.910276 360.502681 C1305.856809 363.392234 1305.660810 366.520052 1305.658290 369.595650 C1305.643645 387.468826 1312.040884 405.280774 1323.423795 419.060467 C1325.639927 421.743227 1328.654361 424.507877 1332.089995 423.955734 C1334.031640 423.643690 1335.631546 422.311827 1337.111885 421.017241 C1353.171302 406.972946 1367.755117 391.242359 1380.545976 374.167787 C1395.069146 354.780745 1420.056448 346.921168 1443.530321 340.941439 M1693.387478 1431.799917 C1686.644328 1429.816138 1679.440016 1430.516439 1672.452089 1431.274287 C1638.351937 1434.972488 1602.239840 1439.328732 1571.095354 1424.957997 C1565.102156 1422.192609 1559.222363 1418.713721 1552.657100 1418.033202 C1518.821066 1414.525965 1487.286232 1393.480219 1471.064475 1363.579843 C1461.554617 1380.412732 1449.487901 1395.798054 1435.406037 1409.045116 C1433.892025 1403.551251 1425.099423 1403.834608 1421.657759 1408.376606 C1418.216096 1412.918604 1418.495283 1419.152734 1418.648213 1424.849347 C1419.302225 1449.210910 1414.793949 1473.382394 1410.304115 1497.335574 C1401.526506 1544.163950 1392.748898 1590.992326 1383.971289 1637.820702 C1383.046673 1642.753513 1389.401713 1645.547195 1394.367794 1646.272159 C1420.376526 1650.068979 1447.132861 1648.671878 1472.604723 1642.186960 C1479.793954 1640.356643 1486.874695 1638.128111 1493.951020 1635.900842 C1515.758244 1629.037029 1537.565468 1622.173217 1559.372693 1615.309405 C1566.368404 1613.107508 1573.390120 1610.895507 1580.016590 1607.752543 C1589.421610 1603.291699 1597.850618 1597.042673 1606.100624 1590.695159 C1635.987466 1567.700364 1665.662820 1541.106488 1677.883502 1505.432425 C1681.195873 1495.763110 1683.119523 1485.683141 1685.032790 1475.642879 C1687.817686 1461.028558 1690.602582 1446.414238 1693.387479 1431.799917 M948.121242 1208.856920 C937.835783 1209.014567 926.814513 1207.832083 918.884524 1201.279923 C914.871471 1197.964134 911.913695 1193.463897 907.681909 1190.432223 C899.062503 1184.257232 884.945036 1183.508722 882.101455 1173.294089 C881.012232 1169.381412 875.197375 1168.401740 872.120694 1171.053055 C869.044012 1173.704370 868.589897 1178.472350 869.922763 1182.308873 C871.255629 1186.145397 874.018238 1189.284858 876.670545 1192.360685 C889.140646 1206.822006 900.533539 1222.171761 911.913698 1237.505552 C958.079562 1299.710106 1004.245427 1361.914659 1050.411291 1424.119212 C1052.898373 1427.470342 1058.070295 1424.179734 1060.706092 1420.944269 C1069.018454 1410.740754 1077.788735 1397.209750 1071.883619 1385.448090 C1069.884047 1381.465395 1069.991360 1376.794453 1070.157969 1372.341096 C1070.670559 1358.640006 1071.324912 1344.907634 1073.526093 1331.374808 C1078.595571 1300.207749 1092.006951 1270.437230 1111.991570 1245.989323 C1076.374047 1225.868401 1043.035282 1201.717250 1012.815798 1174.144758 C1011.834111 1183.647886 1005.523773 1192.025174 997.574199 1197.323988 C989.624625 1202.622802 980.169134 1205.198238 970.748509 1206.787258 C963.272925 1208.048198 955.701534 1208.740736 948.121242 1208.856920 M673.856263 1224.454057 C693.815650 1220.811122 712.149004 1211.289400 730.039546 1201.719834 C747.930089 1192.150268 766.023601 1182.296299 785.828357 1177.889515 C805.633113 1173.482731 827.775768 1175.204684 844.096060 1187.258570 C846.084315 1188.727061 848.394717 1190.433233 850.780087 1189.785444 C855.546538 1188.491035 853.570587 1181.266996 850.587181 1177.330774 C800.350937 1111.050460 735.773775 1057.279043 671.802189 1004.133993 C667.987302 1000.964737 664.172415 997.795480 660.357529 994.626224 C655.962999 990.975424 651.568470 987.324623 647.173940 983.673823 C637.508451 975.644119 627.164955 967.301278 614.732900 965.473204 C602.300846 963.645131 587.574894 971.323481 586.631611 983.853766 C597.100873 980.816837 608.551401 983.283472 618.246661 988.266473 C627.941921 993.249474 636.199734 1000.574535 644.343684 1007.820531 C661.175910 1022.796833 678.126723 1037.900411 691.709631 1055.875896 C705.292539 1073.851381 715.444765 1095.110772 716.736277 1117.604003 C717.207654 1125.813591 716.499576 1134.040052 715.792100 1142.232672 C715.050938 1150.815374 714.296824 1159.468067 711.837534 1167.724216 C707.029207 1183.866381 696.092219 1197.353464 685.408494 1210.374506 C681.557750 1215.067689 677.707007 1219.760873 673.856264 1224.454057 M1184.837593 547.968189 C1219.230599 549.197045 1253.266735 559.352897 1282.709570 577.171661 C1307.405346 592.117512 1329.220561 612.911201 1341.559277 639.007482 C1353.897993 665.103763 1355.847001 696.817815 1343.032617 722.683842 C1349.196162 725.879799 1355.359708 729.075755 1361.523253 732.271712 C1365.381074 734.272090 1371.227931 735.699864 1373.136015 731.795571 C1373.920407 730.190560 1373.580672 728.288816 1373.218958 726.539390 C1368.785923 705.099091 1363.577769 683.826124 1358.103719 662.627703 C1346.847938 619.039354 1334.462437 575.742736 1320.963841 532.795969 C1315.393457 515.073385 1309.616075 497.364983 1301.909548 480.461474 C1299.770809 475.770360 1297.425822 471.059787 1293.825865 467.369116 C1281.508693 454.741569 1260.945379 458.629403 1243.306669 458.838132 C1252.265528 475.270423 1260.173266 494.665320 1253.696711 512.224807 C1248.276537 526.920209 1233.624439 536.640210 1218.404792 540.340950 C1203.185146 544.041691 1187.250455 542.691040 1171.647646 541.317920 C1172.596489 546.585085 1179.489058 547.777089 1184.837591 547.968197 M1431.782698 816.641138 C1419.888074 820.326424 1409.675484 829.130570 1404.278107 840.352501 C1406.640731 859.014159 1409.003355 877.675816 1411.365979 896.337474 C1411.838692 900.071294 1412.311405 903.805114 1412.784118 907.538934 C1414.414974 920.420576 1416.045830 933.302218 1417.676686 946.183860 C1417.818240 947.301953 1418.022541 948.536660 1418.904160 949.238742 C1419.626474 949.813962 1420.629810 949.875910 1421.548540 949.783440 C1427.224570 949.212150 1431.370446 943.777911 1432.607705 938.208989 C1433.844964 932.640068 1432.894254 926.856396 1432.459606 921.168270 C1430.306024 892.985022 1443.064067 862.705431 1467.929929 849.265853 C1469.646598 848.338024 1469.806533 845.771161 1468.779261 844.112087 C1467.751989 842.453013 1465.939722 841.478593 1464.226630 840.544179 C1452.397787 834.092100 1441.450372 826.026599 1431.782698 816.641138 M1466.055278 1333.170219 C1464.799437 1325.195024 1465.721396 1316.887775 1468.695352 1309.382012 C1468.023224 1302.302251 1468.938011 1295.076302 1471.353219 1288.387390 C1471.730323 1287.343003 1472.130746 1286.127677 1471.550745 1285.180814 C1470.733817 1283.847168 1468.742668 1284.125665 1467.258488 1284.618809 C1449.928761 1290.376910 1434.874780 1302.714697 1425.825416 1318.576103 C1428.324270 1321.338803 1427.713701 1325.604489 1427.034965 1329.267288 C1424.252592 1344.282260 1422.940823 1359.569367 1423.124516 1374.838854 C1421.436182 1380.916320 1421.198151 1387.391485 1422.435711 1393.576509 C1429.519095 1391.597716 1435.826400 1386.962113 1439.829783 1380.792601 C1445.876917 1371.473512 1453.847741 1363.408761 1463.095352 1357.252873 C1466.678999 1354.867335 1468.117937 1350.215744 1468.059862 1345.911101 C1468.001787 1341.606458 1466.724933 1337.422852 1466.055278 1333.170219 M1381.364280 575.402845 C1382.621260 572.666639 1384.055920 569.742923 1383.494199 566.784664 C1382.805848 563.159539 1379.414783 560.801610 1376.413565 558.654973 C1365.828124 551.083692 1356.810654 541.330412 1350.091225 530.184780 C1343.533229 531.282119 1337.289402 534.199607 1332.240150 538.525865 C1337.897585 558.566847 1343.690573 578.569563 1349.618584 598.532183 C1350.577641 601.761813 1351.540232 604.990394 1352.502822 608.218973 C1357.074873 623.553875 1361.646924 638.888777 1366.218975 654.223679 C1366.398298 654.825138 1366.619349 655.481937 1367.160031 655.800641 C1367.937884 656.259143 1368.913556 655.785340 1369.686103 655.317952 C1372.116894 653.847326 1374.637770 652.289646 1376.136847 649.876297 C1378.982988 645.294321 1377.273215 639.398515 1375.954259 634.168279 C1371.050870 614.724202 1372.993301 593.624867 1381.364279 575.402845 M1419.376863 1118.443184 C1419.250480 1117.410789 1419.088743 1116.300912 1418.368386 1115.550648 C1417.384185 1114.525585 1415.745574 1114.556576 1414.350817 1114.828713 C1410.202734 1115.638067 1406.371252 1117.978199 1403.757069 1121.298997 C1399.852449 1126.259039 1398.869222 1132.820746 1397.410540 1138.962434 C1395.951859 1145.104121 1393.470304 1151.638857 1387.974041 1154.743559 C1386.732549 1155.444847 1385.318034 1155.990342 1384.483201 1157.146267 C1383.648367 1158.302192 1383.870157 1160.341799 1385.252763 1160.690381 C1395.900966 1163.375000 1406.745354 1166.141479 1416.058332 1171.960400 C1417.345780 1172.764822 1418.676269 1173.651883 1420.191100 1173.751406 C1421.705930 1173.850928 1423.416701 1172.790027 1423.394779 1171.272089 C1421.179245 1167.089098 1421.653195 1162.067253 1421.890182 1157.339694 C1422.541520 1144.346390 1420.957657 1131.356405 1419.376863 1118.443184 M1387.504189 501.174435 C1386.817973 499.596769 1385.262845 498.611614 1383.828201 497.662025 C1376.923875 493.092059 1370.914998 487.174759 1366.239543 480.341427 C1364.685742 478.070492 1360.804438 478.629866 1359.242464 480.895187 C1357.680490 483.160508 1358.013623 486.280216 1359.153965 488.784425 C1361.054947 492.959009 1358.541024 497.661735 1356.861457 501.930217 C1355.181889 506.198699 1355.057635 512.318144 1359.303740 514.053507 C1363.249344 515.666057 1367.196242 512.027980 1371.234460 510.663832 C1374.687897 509.497228 1378.508291 510.027771 1382.028828 509.082780 C1385.549365 508.137788 1388.958098 504.517090 1387.504188 501.174436 M586.932277 966.031919 C592.034454 962.851248 597.248773 959.850472 602.562292 957.037040 C603.977355 956.287784 605.458059 955.535466 607.057776 955.466947 C607.531110 951.614404 601.985945 949.649250 598.477166 951.308948 C594.968387 952.968645 592.748752 956.486886 589.656647 958.833163 C588.397031 959.788956 586.946142 960.595873 586.119636 961.943857 C585.293131 963.291841 585.469501 965.431529 586.932273 966.031919 M1234.789491 1632.082756 C1237.887717 1629.032485 1241.985751 1627.014751 1246.292524 1626.419051 C1248.490865 1626.114983 1247.487994 1622.696776 1245.959395 1621.087881 C1244.255546 1619.294530 1242.181754 1617.353701 1239.719372 1617.590092 C1237.268141 1617.825410 1235.563195 1620.164394 1234.702698 1622.471655 C1233.842201 1624.778916 1233.456495 1627.316401 1232.039811 1629.330579 C1232.956370 1630.247973 1233.872930 1631.165364 1234.789491 1632.082756 M837.956227 1019.280384 C839.054052 1017.950803 840.212889 1016.449869 840.142166 1014.727080 C840.071444 1013.004291 837.962399 1011.417640 836.604451 1012.480175 C836.042931 1012.919540 835.799167 1013.651734 835.686294 1014.355724 C835.375920 1016.291533 835.866254 1018.343390 837.018315 1019.929720 M1160.800275 546.093224 C1162.179008 544.731123 1161.452960 541.954183 1159.583979 541.441216 C1157.714998 540.928249 1155.673122 542.945495 1156.163370 544.820564 C1156.653618 546.695632 1159.421542 547.455326 1160.800275 546.093224 z"/></svg>