<?xml version="1.0" standalone="no"?>
<!DOCTYPE svg PUBLIC "-//W3C//DTD SVG 1.1//EN" "http://www.w3.org/Graphics/SVG/1.1/DTD/svg11.dtd">
<svg xmlns="http://www.w3.org/2000/svg" xmlns:xlink="http://www.w3.org/1999/xlink" version="1.1" id="Contours" x="0px" y="0px" width="1734.1910400390625" height="1027.172119140625" viewBox="0.000002 0.000000 1734.191040 1027.172119" enable-background="new 0 0 1734.191040 1734.191040" xml:space="preserve" stroke="black" fill="none" stroke-linecap="round" stroke-linejoin="round"><path class="selected" fill="#000000" opacity="1.000000" stroke="none" d=" M1384.033357 793.804820 C1375.207114 811.836952 1364.017259 828.710442 1350.840391 843.857404 C1349.475506 845.426355 1348.738733 847.427966 1347.972566 849.361229 C1342.510181 863.144442 1334.146231 875.769883 1323.584614 886.175018 C1326.837067 890.118935 1333.022436 886.073585 1336.294199 882.145671 C1357.991477 856.096983 1379.688756 830.048297 1401.386036 803.999612 C1402.780741 802.325197 1405.441938 803.083525 1407.596330 802.755714 C1410.863153 802.258636 1412.985723 799.152578 1414.702638 796.329209 C1420.862745 786.199250 1427.022854 776.069293 1433.182962 765.939335 C1439.089848 756.225789 1445.091146 746.392982 1453.287765 738.515183 C1457.015399 734.932542 1462.456451 731.627004 1467.060057 733.980168 C1473.741080 737.395217 1470.864999 747.472430 1467.086853 753.955041 C1460.656866 764.987726 1454.172013 776.097372 1445.750427 785.696423 C1437.060604 795.601215 1425.829975 804.877573 1424.032230 817.930774 C1423.346168 822.912185 1415.668565 823.254286 1413.043410 827.543075 C1410.590774 831.550012 1413.146452 838.059301 1409.238959 840.667454 C1406.903968 842.226002 1402.766002 841.901237 1402.288258 844.667645 C1399.812645 859.002867 1394.326873 872.811059 1386.289950 884.936862 C1382.065107 891.311144 1377.027958 899.586779 1381.398995 905.861714 C1390.070576 896.063482 1398.742156 886.265250 1407.413736 876.467018 C1410.831106 872.605649 1415.744914 868.359042 1420.489271 870.378860 C1423.875261 871.820381 1426.561034 867.343325 1427.754707 863.862225 C1435.086341 842.480987 1451.235916 825.485144 1466.929414 809.217867 C1470.681806 805.328281 1474.722377 801.267103 1479.966749 799.961004 C1485.211120 798.654906 1491.857066 801.455720 1492.595597 806.809588 C1492.954649 809.412485 1491.892481 811.978234 1490.853026 814.391431 C1485.183809 827.553070 1479.514592 840.714709 1473.845375 853.876348 C1478.581362 854.730186 1483.107315 851.985705 1487.516042 850.056525 C1491.924769 848.127344 1497.782723 847.249534 1500.957568 850.866021 C1504.931786 855.393079 1501.244457 862.429330 1497.123421 866.823158 C1485.367997 879.356736 1469.837570 888.303011 1453.097844 892.184012 C1446.763813 893.652517 1441.128798 886.511866 1441.491337 880.019946 C1441.853876 873.528026 1446.093830 867.990442 1450.151453 862.909876 C1447.816680 858.902715 1441.839705 862.802193 1439.146432 866.577744 C1423.710671 888.216292 1404.585204 907.215729 1382.845076 922.508092 C1378.928613 925.262997 1374.498350 928.014413 1369.732448 927.551419 C1362.836914 926.881537 1358.241663 919.420805 1358.245320 912.492811 C1358.248977 905.564817 1361.606696 899.136977 1364.879540 893.030782 C1371.278610 881.091942 1377.677679 869.153102 1384.076749 857.214263 C1385.741550 854.108218 1387.457468 850.587650 1386.470977 847.204469 C1385.484487 843.821289 1380.216286 841.973346 1378.432785 845.012786 C1381.200180 845.036177 1383.848686 846.970088 1384.713586 849.598962 C1368.440451 867.748413 1352.167317 885.897863 1335.894184 904.047313 C1330.248298 910.344177 1323.758137 917.080668 1315.330755 917.791836 C1306.903373 918.503004 1298.059460 908.712821 1302.918303 901.790526 C1316.574954 882.334171 1329.689982 862.497650 1342.243080 842.311675 C1343.544991 840.218141 1344.894551 837.843003 1344.382851 835.431361 C1343.871151 833.019719 1340.363106 831.401423 1338.875474 833.367333 C1328.994806 846.424662 1319.114138 859.481991 1309.233470 872.539320 C1302.784114 881.062161 1293.208044 890.620898 1283.146824 887.014670 C1279.273536 885.626373 1276.012714 881.135481 1277.885895 877.472024 C1287.779325 858.123044 1297.672755 838.774064 1307.566185 819.425084 C1308.794072 817.023657 1308.141417 812.459600 1305.722011 813.651670 C1291.335848 839.415771 1271.996848 862.402599 1249.074107 880.984809 C1243.034845 885.880509 1233.194815 890.113606 1228.500144 883.916781 C1242.343610 868.605453 1256.187076 853.294125 1270.030542 837.982797 C1275.657558 831.759131 1281.284575 825.535466 1286.911592 819.311800 C1293.957467 811.518832 1301.003341 803.725863 1308.049216 795.932894 C1316.744590 786.315524 1325.439965 776.698155 1334.135339 767.080785 C1336.534852 764.426845 1339.109163 761.188494 1338.403446 757.680928 C1337.920884 755.282497 1338.895640 752.856919 1339.850326 750.604385 C1342.620044 744.069365 1346.063228 736.870765 1352.738615 734.458909 C1357.305139 732.808998 1358.703634 727.217333 1360.163657 722.586600 C1361.623680 717.955867 1365.365378 712.718780 1370.069433 713.921785 C1374.514551 715.058570 1378.174854 710.514671 1380.548420 706.588154 C1392.941904 686.085989 1406.345012 666.194182 1420.692935 647.008919 C1424.383884 642.073582 1428.490298 636.925355 1434.340341 634.986887 C1440.190383 633.048419 1448.057850 636.102452 1448.767012 642.224359 C1449.235649 646.269913 1446.584899 649.943457 1444.074853 653.150606 C1431.102784 669.725347 1418.130715 686.300087 1405.158646 702.874828 C1399.725603 709.816765 1394.266142 716.787911 1387.859721 722.843174 C1384.009390 726.482455 1381.006076 730.907781 1378.035218 735.294513 C1371.459631 745.003945 1364.884043 754.713376 1358.308455 764.422808 C1341.405164 789.382001 1324.483347 814.370806 1309.527140 840.543205 C1307.483554 844.119348 1306.128781 849.835121 1309.954961 851.360047 C1320.315819 836.448309 1331.614179 822.188051 1343.761162 808.691455 C1345.949057 806.260469 1350.265028 803.987103 1351.897675 806.821012 C1354.582364 795.893039 1361.719439 786.684662 1368.675126 777.838952 C1369.912244 776.265680 1371.149362 774.692409 1372.386479 773.119137 C1373.536355 774.761417 1374.686231 776.403697 1375.836107 778.045976 C1379.336514 777.418591 1381.119724 773.605192 1382.551267 770.349866 C1388.251210 757.388202 1396.966321 746.021846 1405.596801 734.796478 C1413.910452 723.983199 1422.224104 713.169920 1430.537755 702.356641 C1431.942721 700.529249 1433.417682 698.642610 1435.474666 697.602365 C1440.672731 694.973632 1446.696709 698.730857 1451.292198 702.310186 C1452.173197 702.996378 1453.093728 703.734493 1453.493875 704.777039 C1454.264478 706.784770 1452.832626 708.908280 1451.482998 710.582591 C1431.852045 734.936205 1412.221092 759.289818 1392.590139 783.643432 C1390.536391 786.191255 1388.419021 788.794968 1385.598893 790.455140 C1381.621803 792.796400 1375.328535 795.669225 1377.491944 799.745793 C1378.783371 797.013272 1381.189496 794.828007 1384.033357 793.804820 M1351.195345 828.662573 C1351.712529 826.680980 1352.229712 824.699386 1352.746895 822.717793 C1353.079491 821.443451 1353.335102 819.879664 1352.365754 818.988075 C1350.806009 817.553454 1348.438885 819.585772 1347.594054 821.529273 C1346.853893 823.231994 1346.358060 825.040699 1346.126445 826.882830 C1345.844451 829.125648 1347.084424 832.308008 1349.235109 831.612089 C1350.409916 831.231945 1350.883521 829.857332 1351.195346 828.662574 M1363.033057 810.044415 C1363.675192 807.418203 1362.125890 804.435710 1359.608014 803.451014 C1358.484920 806.082594 1357.361826 808.714174 1356.238732 811.345754 C1355.427239 813.247204 1355.062764 816.176900 1357.058418 816.716714 C1360.125743 817.546412 1360.138494 811.247411 1363.179482 810.325849 M1321.654875 791.452726 C1321.678188 792.217778 1321.880833 793.092817 1322.563494 793.438971 C1323.743687 794.037405 1324.884715 792.585843 1325.421608 791.376412 C1326.721655 788.447866 1328.021701 785.519321 1329.321747 782.590776 C1325.058774 783.078396 1321.524181 787.163946 1321.654876 791.452726 M1287.720155 823.630043 C1286.556956 825.437540 1285.393758 827.245037 1284.230559 829.052533 C1285.960962 831.247463 1289.992291 830.821829 1291.226163 828.313928 C1292.460035 825.806027 1290.337191 822.352579 1287.542372 822.321124 M1412.604415 882.080910 C1415.382671 882.109140 1417.997650 879.831768 1418.351308 877.075968 C1415.664222 875.447209 1411.676709 878.587967 1412.630635 881.581848 M1392.126424 838.126621 C1393.378378 838.819330 1394.985958 838.820658 1396.239055 838.130017 C1396.285958 836.305079 1395.213656 834.496777 1393.589888 833.662528 C1392.278073 834.639012 1391.713637 836.507869 1392.265603 838.047258 M1398.177566 829.133351 C1399.720063 827.700599 1399.466095 824.816329 1397.696958 823.675175 C1395.563624 824.792458 1395.774903 828.542684 1398.020230 829.413286 M1408.542592 887.537870 C1408.005724 888.616556 1408.577273 890.097615 1409.699592 890.536012 C1410.994618 889.501529 1411.571793 887.651042 1411.094505 886.063765 C1410.233018 885.287385 1408.589400 886.406897 1408.996392 887.492843 M1312.987398 810.039172 C1313.380799 808.625602 1313.113213 806.390641 1311.663182 806.615042 C1311.229428 807.460193 1310.783115 808.405474 1311.027025 809.323584 C1311.270935 810.241695 1312.599791 810.839224 1313.197420 810.100807 M1402.129982 902.057530 C1403.162537 901.734562 1402.674466 899.778629 1401.611227 899.978633 C1400.798195 899.914466 1400.069530 900.814324 1400.301357 901.596240 C1400.533185 902.378157 1401.634571 902.735430 1402.281242 902.238486 M1319.664802 798.485799 C1318.281441 798.370871 1317.745609 800.231674 1317.700809 801.619078 C1319.200849 801.555961 1320.620932 799.701611 1319.632154 798.571826 z"/><path class="selected" fill="#000000" opacity="1.000000" stroke="none" d=" M1265.886586 824.309957 C1271.992102 812.135923 1278.097617 799.961889 1284.203132 787.787855 C1284.630620 784.904504 1279.890717 783.949141 1277.826129 786.006794 C1275.761541 788.064447 1275.478117 791.247192 1274.433216 793.968339 C1270.972073 802.981898 1258.466125 809.056770 1260.871251 818.407659 C1262.011373 822.840339 1265.575292 829.180592 1261.207216 830.547501 C1258.790392 828.628390 1257.235547 825.662404 1257.032033 822.583021 C1250.104167 833.234022 1241.644884 842.887246 1231.995436 851.153278 C1227.119034 855.330563 1219.734364 859.186382 1214.784200 855.096776 C1209.127691 850.423620 1213.269344 841.237443 1218.215598 835.818121 C1216.187218 832.995801 1212.244740 836.910759 1210.968491 840.143562 C1203.487777 859.092601 1187.597339 874.540033 1168.444412 881.482121 C1166.207723 878.247481 1163.971033 875.012840 1161.734343 871.778200 C1169.500249 866.242074 1176.820862 860.081487 1183.602262 853.375475 C1186.938130 850.076692 1190.395557 845.853053 1189.497074 841.248412 C1187.559419 831.318117 1191.451871 820.466727 1199.259683 814.032184 C1196.699585 817.093159 1199.917910 822.206718 1203.885130 822.636645 C1207.852350 823.066573 1211.497213 820.411368 1214.170164 817.448430 C1217.027585 814.281007 1219.306791 810.593572 1220.862324 806.621452 C1223.291730 800.417858 1225.384376 792.203548 1231.987206 791.315161 C1239.105012 790.357486 1232.488130 776.444429 1238.587995 772.653393 C1239.467202 774.341336 1240.346410 776.029279 1241.225617 777.717222 C1243.912343 775.424826 1245.729209 772.136623 1246.240064 768.641970 C1245.874758 770.444700 1243.060274 771.066326 1241.969665 769.585158 C1244.649155 768.244746 1247.521409 766.710888 1248.764568 763.984915 C1250.007728 761.258942 1248.367431 757.174998 1245.373601 757.290566 C1243.416192 757.366126 1241.094688 759.013622 1239.803774 757.540294 C1239.044408 756.673626 1239.371934 755.340653 1239.741292 754.249174 C1241.876489 747.939505 1244.011687 741.629836 1246.146884 735.320167 C1243.725177 732.622241 1241.303469 729.924314 1238.881762 727.226388 C1246.956416 729.029322 1255.955867 723.483294 1257.974957 715.459961 C1261.701989 700.649717 1270.101964 687.051992 1281.677756 677.090309 C1285.102976 674.142695 1288.958593 671.291726 1290.588784 667.077104 C1291.431040 664.899572 1291.601488 662.520975 1292.285094 660.288549 C1293.374390 656.731270 1295.706374 653.708963 1297.992163 650.773666 C1319.347937 623.349635 1340.703711 595.925603 1362.059485 568.501572 C1365.125683 564.564112 1368.193128 560.625118 1371.431427 556.827937 C1375.097653 552.528976 1379.221861 548.256072 1384.592509 546.501533 C1389.963158 544.746993 1396.850195 546.408599 1399.263506 551.517240 C1402.770025 558.940048 1395.405483 566.601117 1389.243743 572.025758 C1358.574839 599.025890 1340.394017 638.025814 1309.598285 664.881200 C1295.180945 677.453827 1284.799195 694.584857 1280.325937 713.183798 C1277.391077 712.758170 1274.683167 710.967216 1273.142846 708.433054 C1270.565322 714.892873 1269.464686 721.936946 1269.948772 728.875142 C1271.316960 726.605529 1272.805713 724.221226 1275.173586 723.031160 C1277.541460 721.841094 1281.028862 722.481866 1281.934500 724.972429 C1283.449996 729.140137 1289.708286 729.574791 1293.173682 726.807563 C1296.639078 724.040334 1297.988523 719.464468 1299.149978 715.184568 C1300.181141 711.384783 1301.212304 707.584998 1302.243467 703.785213 C1306.584386 696.643127 1310.925305 689.501042 1315.266223 682.358956 C1334.005689 651.527033 1352.920323 620.460848 1377.449747 594.001777 C1381.864546 589.239681 1386.828044 584.423017 1393.173082 583.041528 C1399.518119 581.660039 1407.365700 585.341296 1408.037690 591.800123 C1389.895894 612.910422 1371.754098 634.020720 1353.612302 655.131019 C1351.934693 657.083131 1350.224373 659.089492 1349.321090 661.499718 C1348.076510 664.820624 1348.368461 668.851672 1345.990226 671.482525 C1343.611992 674.113379 1337.523221 671.418127 1339.695153 668.614540 C1334.866640 671.793820 1339.855807 680.117375 1336.694915 684.957947 C1334.922146 687.672755 1331.289220 688.242562 1328.244085 689.356135 C1325.198949 690.469708 1322.045377 693.533260 1323.368634 696.493309 C1319.217194 694.806457 1314.677594 698.454682 1312.839277 702.541309 C1311.000960 706.627936 1310.671265 711.314573 1308.503296 715.236286 C1303.740652 723.851593 1290.434832 729.557729 1293.358814 738.957549 C1295.570800 746.068490 1289.591189 752.811568 1284.605473 758.343386 C1279.619758 763.875203 1275.110984 772.436395 1279.812716 778.211521 C1283.899118 771.882654 1290.118842 766.958269 1297.216279 764.432479 C1292.096919 768.078922 1288.800013 774.164553 1288.541727 780.444497 C1301.802016 768.921744 1309.193402 752.275092 1317.058935 736.567053 C1334.077780 702.579186 1355.102060 670.599116 1379.557579 641.500254 C1385.281182 634.689917 1391.190507 628.038295 1397.098954 621.387688 C1401.231455 616.736104 1405.490725 611.983608 1411.001125 609.093922 C1416.511525 606.204235 1423.629463 605.533338 1428.760073 609.053514 C1429.385354 609.482529 1429.993438 609.993085 1430.302238 610.685667 C1430.923396 612.078812 1430.161060 613.668787 1429.401608 614.991632 C1416.972612 636.640983 1400.652504 655.757700 1384.432574 674.733690 C1373.838624 687.127743 1363.244675 699.521797 1352.650725 711.915851 C1348.618185 716.633592 1344.427218 721.477087 1338.863341 724.226946 C1339.541605 731.585813 1334.605095 739.088044 1327.578474 741.377053 C1323.018581 742.862495 1322.593064 748.956992 1321.965534 753.711502 C1321.338004 758.466012 1316.961699 764.187682 1312.907673 761.625645 C1313.665093 767.574239 1309.764974 773.787472 1304.078561 775.691197 C1307.863434 777.026699 1305.620772 782.759045 1302.846868 785.659784 C1290.526771 798.543173 1278.206679 811.426565 1265.886586 824.309957 M1255.347019 756.597579 C1256.784134 753.058028 1258.221249 749.518478 1259.658363 745.978927 C1260.904428 742.909924 1261.941190 738.863291 1259.414138 736.721921 C1257.709480 736.774221 1256.474140 738.936844 1257.294986 740.431768 C1258.323114 742.304193 1257.414437 744.659454 1256.161206 746.389319 C1254.907975 748.119185 1253.279570 749.672639 1252.687643 751.725113 C1252.095716 753.777586 1253.211864 756.533271 1255.347019 756.597579 M1272.660962 753.057147 C1273.637048 753.052106 1274.139737 751.925216 1274.489569 751.013959 C1275.612483 748.088943 1277.612374 745.507044 1280.163744 743.688484 C1278.671116 741.638869 1275.290923 741.818119 1273.437612 743.548467 C1271.584302 745.278816 1271.011928 748.003993 1271.073977 750.538754 C1271.101008 751.642979 1271.556420 753.062851 1272.660960 753.057148 M1254.914041 798.156307 C1254.085463 795.343812 1249.190748 795.308298 1248.321447 798.108475 C1249.900675 800.464217 1252.816399 801.853014 1255.640715 801.594741 C1256.501563 800.577861 1256.258413 798.829366 1255.152774 798.085947 M1275.628465 759.494094 C1273.315222 760.046260 1271.491275 762.225544 1271.355191 764.599878 C1272.953426 764.636042 1274.705774 764.621338 1275.934118 763.598181 C1277.162462 762.575025 1277.191235 760.155095 1275.661952 759.689290 M1243.737171 809.910156 C1245.173050 808.894953 1244.234660 806.300607 1242.520865 805.906538 C1240.807069 805.512470 1239.081257 806.694547 1238.104283 808.156706 C1239.508274 809.551790 1241.720670 810.067082 1243.596598 809.435926 M1222.589395 825.743594 C1220.972722 825.162985 1219.030922 826.806541 1219.336437 828.496925 C1219.641951 830.187310 1222.036212 831.047180 1223.347371 829.937404 C1224.658529 828.827629 1224.206068 826.324203 1222.589395 825.743594 M1265.547678 778.470392 C1266.674927 777.754607 1266.029309 775.598832 1264.694180 775.620488 C1263.648418 776.859715 1263.067206 778.482005 1263.088108 780.103383 C1263.974929 780.894678 1265.664040 779.818682 1265.321754 778.680508 M1248.708255 778.702329 C1247.299747 779.296966 1246.713216 781.286359 1247.573849 782.550004 C1249.703108 782.946001 1250.779464 779.113488 1248.755371 778.343019 M1292.120133 787.056531 C1291.995980 788.023777 1292.689048 789.028100 1293.637414 789.255217 C1294.795202 789.201652 1295.554567 787.635573 1294.879620 786.693349 C1294.204673 785.751126 1292.477544 785.966208 1292.054301 787.045191 M1355.637699 702.623348 C1356.693947 702.095911 1356.965450 700.465834 1356.137179 699.624515 C1355.308908 698.783196 1353.674787 699.029188 1353.130906 700.077063 C1353.969488 700.912687 1354.808071 701.748314 1355.646655 702.583941 z"/><path class="selected" fill="#000000" opacity="1.000000" stroke="none" d=" M1187.845888 730.710415 C1194.785731 728.418190 1197.583600 720.298524 1199.440202 713.229666 C1199.948980 711.292537 1200.411658 709.063007 1199.262459 707.422683 C1197.579631 705.020678 1193.500842 705.841903 1191.787326 708.222113 C1190.073810 710.602323 1190.040393 713.759567 1190.074254 716.692209 C1186.694741 715.346290 1184.894631 710.985643 1186.340617 707.647721 C1187.786602 704.309798 1192.198933 702.640375 1195.492303 704.185143 C1201.739805 707.115558 1208.080370 700.250343 1210.964333 693.981263 C1213.848295 687.712182 1217.429804 679.972680 1224.322783 679.647949 C1223.534687 675.847699 1220.703505 672.535502 1217.072228 671.165533 C1219.225444 668.432776 1220.503412 665.020952 1220.675387 661.546082 C1217.635970 664.526085 1215.149154 668.067896 1213.378417 671.938680 C1212.773815 665.156727 1216.924205 658.944704 1221.106920 653.572059 C1227.778458 645.002557 1235.020284 636.895921 1242.255733 628.796905 C1244.846342 625.897100 1247.436951 622.997295 1250.027561 620.097490 C1259.376064 609.633220 1268.724567 599.168950 1278.073070 588.704680 C1285.304674 580.609967 1292.536374 572.515145 1299.701536 564.361560 C1323.949914 536.768156 1347.434388 508.503460 1370.118996 479.610755 C1373.606681 475.168594 1377.185400 470.612140 1382.013581 467.682053 C1386.841762 464.751965 1393.273613 463.761031 1398.086208 466.716649 C1402.898803 469.672266 1404.650857 477.289577 1400.549989 481.172827 C1386.142975 494.815310 1371.204962 509.275615 1365.050646 528.138377 C1357.308644 551.867343 1340.508871 572.516471 1318.851041 584.923761 C1317.378816 599.771801 1300.816963 607.621464 1292.245288 619.834497 C1259.172242 666.957398 1226.099196 714.080299 1193.026151 761.203201 C1190.843504 764.313064 1188.650908 767.439689 1186.992320 770.857917 C1183.590400 777.869020 1182.582142 786.015188 1184.172050 793.644135 C1186.765715 791.936217 1187.831028 788.249512 1186.548099 785.421413 C1192.990622 782.959124 1199.433146 780.496834 1205.875671 778.034545 C1202.298043 787.377994 1193.453225 794.494789 1183.560596 795.989897 C1176.028580 797.128236 1175.518022 809.503099 1168.317527 811.989053 C1169.462765 809.805770 1167.742529 806.710571 1165.283706 806.530337 C1168.190160 814.783034 1162.144018 823.262307 1156.479626 829.930826 C1147.260029 840.784770 1138.040436 851.638716 1128.820842 862.492662 C1125.837080 866.005354 1122.713988 869.625737 1118.521759 871.540695 C1114.329530 873.455653 1108.742123 873.146012 1105.826842 869.576281 C1101.237938 863.957216 1106.010435 855.705947 1110.950746 850.393203 C1119.296903 841.417861 1129.095695 831.838654 1129.333876 819.584743 C1129.405605 815.894250 1131.763671 812.693218 1134.018818 809.771031 C1149.922583 789.163173 1165.826346 768.555314 1181.730109 747.947456 C1183.434664 745.738718 1185.204405 743.372907 1185.491357 740.597716 C1185.866468 736.969874 1184.382729 731.854295 1187.845889 730.710416 M1173.897947 795.711747 C1175.749866 793.139101 1177.601786 790.566455 1179.453705 787.993808 C1175.560584 786.522472 1171.356972 792.091853 1173.839213 795.432461 M1263.539628 610.429708 C1261.862583 611.451818 1264.036541 614.611104 1265.590400 613.409975 C1266.442469 612.217648 1265.045609 610.262962 1263.641570 610.682894 z"/><path class="selected" fill="#000000" opacity="1.000000" stroke="none" d=" M1154.703693 670.845861 C1158.008285 677.559843 1154.212763 686.764630 1147.136304 689.198066 C1145.368466 689.805987 1143.313327 690.002742 1141.707961 689.044818 C1140.430466 688.282536 1139.639401 686.908662 1139.123663 685.513284 C1135.406665 675.456590 1143.535765 665.113022 1151.605421 658.053715 C1159.675078 650.994408 1169.141154 642.985910 1168.924074 632.266486 C1177.449603 626.186965 1184.486958 618.036078 1189.258052 608.715032 C1208.677561 570.776108 1234.644612 536.642151 1260.467263 502.735367 C1268.635402 492.010080 1276.803542 481.284792 1284.971681 470.559505 C1288.336894 466.140766 1291.802861 461.627814 1296.488034 458.644683 C1301.173206 455.661551 1307.406602 454.474505 1312.302458 457.097577 C1317.198314 459.720649 1319.549487 466.892554 1316.032068 471.191121 C1294.793725 497.146070 1273.555382 523.101020 1252.317039 549.055969 C1244.993214 558.006267 1237.658387 566.971239 1231.159575 576.537414 C1224.174897 586.818775 1218.008958 597.962171 1208.533843 606.006692 C1204.167448 609.713826 1199.172448 612.689190 1195.179783 616.796119 C1186.134099 626.100677 1182.798590 640.584813 1171.891709 647.616112 C1174.580027 651.755013 1174.404653 657.556336 1171.471234 661.525289 C1171.728874 659.601828 1168.623993 658.933180 1167.193411 660.244484 C1165.762829 661.555788 1165.452847 663.652380 1164.651282 665.419744 C1162.977289 669.110727 1158.713257 671.436631 1154.703693 670.845862 z"/><path class="selected" fill="#000000" opacity="1.000000" stroke="none" d=" M1170.571562 690.549185 C1171.463144 684.867614 1173.518123 679.371181 1176.572601 674.498264 C1179.147968 676.142137 1182.743636 675.992757 1185.173776 674.140932 C1185.528137 671.254186 1184.746487 668.243213 1183.032701 665.893359 C1192.637361 656.556137 1202.794819 646.154854 1204.486413 632.866825 C1204.961961 629.131236 1204.947576 624.833595 1207.787613 622.360751 C1228.453413 604.366874 1244.463253 581.744418 1260.263487 559.356755 C1276.370738 536.534074 1292.477990 513.711394 1308.585241 490.888713 C1313.086622 484.510617 1318.399897 477.602865 1326.104407 476.344667 C1333.808917 475.086469 1342.410193 484.216174 1337.683618 490.429227 C1311.836371 524.405277 1285.989124 558.381327 1260.141876 592.357377 C1256.138891 597.619277 1251.999309 603.006374 1246.347177 606.436372 C1222.486899 620.915988 1218.212536 658.214940 1192.301943 668.588625 C1193.482512 668.917565 1194.663082 669.246506 1195.843651 669.575446 C1192.486189 679.376487 1186.039968 691.237485 1175.767957 689.888880 C1173.946835 689.649788 1171.716835 689.113213 1170.571560 690.549177 z"/><path class="selected" fill="#000000" opacity="1.000000" stroke="none" d=" M1289.645081 708.008407 C1291.035894 707.235460 1292.124349 709.435075 1292.219013 711.023423 C1292.511776 715.935770 1292.804541 720.848116 1293.097307 725.760462 C1287.144001 722.753655 1285.052499 714.035349 1288.993714 708.654869 C1289.175952 708.406081 1289.375519 708.158216 1289.645080 708.008407 z"/><path class="selected" fill="#000000" opacity="1.000000" stroke="none" d=" M1103.294504 581.804712 C1102.629883 577.453814 1105.094102 573.303961 1107.458270 569.591449 C1108.817590 567.456887 1110.176905 565.322323 1111.536221 563.187759 C1113.082222 570.280574 1109.584712 578.180985 1103.294504 581.804712 z"/><path class="selected" fill="#000000" opacity="1.000000" stroke="none" d=" M1194.646682 634.583933 C1195.095815 635.740012 1195.544948 636.896091 1195.994082 638.052170 C1195.548510 640.376327 1191.966154 640.822035 1190.333694 639.108759 C1188.701235 637.395483 1188.734983 634.658763 1189.466158 632.408069 C1190.251045 629.992044 1191.722604 627.803277 1193.663761 626.164640 C1193.943542 628.975286 1194.223323 631.785934 1194.503104 634.596581 z"/><path class="selected" fill="#000000" opacity="1.000000" stroke="none" d=" M1206.500528 801.467629 C1208.734462 799.568026 1211.797011 799.055660 1214.696140 798.615200 C1214.312746 800.507805 1213.902469 802.463762 1212.775811 804.032071 C1211.649154 805.600379 1209.595876 806.677155 1207.763734 806.067069 C1205.931591 805.456984 1205.029433 802.718561 1206.500529 801.467630 z"/><path class="selected" fill="#000000" opacity="1.000000" stroke="none" d=" M1165.702058 735.669888 C1163.484736 736.329588 1161.509791 733.154286 1162.744663 731.198063 C1163.979534 729.241840 1167.094832 729.171373 1168.827363 730.704362 C1170.090018 731.821589 1170.705093 733.795499 1169.868489 735.259256 C1169.031885 736.723014 1166.561075 737.024732 1165.684956 735.584278 z"/><path class="selected" fill="#000000" opacity="1.000000" stroke="none" d=" M1206.047306 677.079241 C1206.568267 674.878622 1208.565047 673.108892 1210.812312 672.856054 C1210.805254 675.951937 1209.576488 680.198137 1206.511292 679.763248 C1206.347947 678.880965 1206.184601 677.998681 1206.021255 677.116398 z"/><path class="selected" fill="#000000" opacity="1.000000" stroke="none" d=" M1212.462941 770.750836 C1214.379909 772.824196 1212.452060 776.896902 1209.633327 776.728579 C1208.280987 774.419212 1209.989149 770.975966 1212.646096 770.655564 z"/><path class="selected" fill="#000000" opacity="1.000000" stroke="none" d=" M1237.645669 738.582948 C1236.644503 739.252735 1235.643337 739.922523 1234.642171 740.592310 C1233.335711 739.873138 1232.829882 738.003083 1233.595671 736.723390 C1234.361461 735.443697 1236.248531 735.005593 1237.499793 735.817005 C1238.379676 736.440849 1238.444146 737.923280 1237.621743 738.621151 z"/><path class="selected" fill="#000000" opacity="1.000000" stroke="none" d=" M1130.724660 616.389619 C1133.144416 617.285605 1134.572487 620.247480 1133.766595 622.698714 C1132.387284 622.149072 1130.931041 621.540675 1130.070454 620.330720 C1129.209868 619.120764 1129.297720 617.118871 1130.622194 616.447776 z"/><path class="selected" fill="#000000" opacity="1.000000" stroke="none" d=" M1091.146829 590.083885 C1091.988382 589.237177 1092.829935 588.390469 1093.671489 587.543761 C1095.480161 588.655046 1094.713272 592.051327 1092.602574 592.277609 C1091.756795 591.902942 1091.180000 590.990218 1091.204629 590.065497 z"/><path class="selected" fill="#000000" opacity="1.000000" stroke="none" d=" M1256.859984 836.849011 C1257.456974 836.027648 1258.053964 835.206285 1258.650954 834.384922 C1260.683551 835.822102 1259.117512 839.792374 1256.651122 839.454966 C1255.981403 838.795377 1256.306156 837.454386 1257.203444 837.174284 z"/><path class="selected" fill="#000000" opacity="1.000000" stroke="none" d=" M1315.748681 702.809515 C1317.572965 701.977180 1319.892234 702.389692 1321.317631 703.800024 C1319.564134 705.318269 1316.480168 704.831550 1315.279478 702.847068 z"/><path class="selected" fill="#000000" opacity="1.000000" stroke="none" d=" M1181.299577 722.134353 C1180.834372 723.562472 1179.844177 724.813061 1178.560794 725.593360 C1177.993546 723.947521 1179.409064 721.953446 1181.149898 721.946025 z"/><path class="selected" fill="#000000" opacity="1.000000" stroke="none" d=" M1600.755088 62.461846 C1609.190517 61.964193 1618.164121 61.584706 1625.520662 65.742281 C1632.912453 69.919776 1637.232130 77.877267 1640.819478 85.572784 C1700.467288 213.528233 1659.658843 363.016494 1661.895739 504.174046 C1663.324523 594.336399 1682.846940 683.116215 1702.280932 771.170807 C1712.917646 819.365307 1723.554360 867.559807 1734.191074 915.754306 C1675.583444 917.506257 1616.975815 919.258207 1558.368186 921.010158 C1552.834041 921.175589 1545.506881 919.905819 1544.847966 914.408551 C1538.155210 858.571457 1531.462454 802.734364 1524.769697 746.897270 C1516.468310 677.639508 1507.956084 607.518561 1482.610359 542.532833 C1457.264634 477.547105 1412.818089 417.185130 1349.743665 387.399769 C1286.669241 357.614409 1203.757430 364.968637 1156.257850 416.050341 C1175.390827 406.453672 1196.826801 401.488444 1218.230632 401.695547 C1183.720514 469.798295 1149.210397 537.901044 1114.700279 606.003792 C1153.227147 545.006455 1191.754015 484.009118 1230.280883 423.011781 C1237.222642 412.021300 1249.325388 399.424870 1260.880706 405.379136 C1220.680729 502.873225 1133.268162 576.883020 1101.878616 677.559889 C1155.253298 599.774324 1208.627980 521.988759 1262.002662 444.203193 C1271.334666 430.603203 1290.752251 416.003165 1301.501891 428.512813 C1219.955651 538.712510 1138.409410 648.912208 1056.863170 759.111905 C1077.943250 758.202020 1091.438743 736.992498 1101.204031 718.288573 C1112.296564 713.099878 1123.389097 707.911183 1134.481631 702.722488 C1125.507646 717.976785 1116.533662 733.231083 1107.559678 748.485380 C1128.960160 730.034790 1150.360641 711.584199 1171.761123 693.133609 C1156.860299 768.226088 1112.048114 836.952512 1049.345717 880.876586 C1079.896705 835.401332 1110.447693 789.926077 1140.998681 744.450823 C1117.738050 772.044861 1094.477419 799.638898 1071.216787 827.232936 C1073.003417 810.861589 1074.790046 794.490242 1076.576675 778.118894 C1065.294670 790.740870 1049.842244 799.571163 1033.240246 802.883507 C1037.452894 781.323023 1046.260667 760.671921 1058.905426 742.707765 C1051.345672 734.507865 1043.785917 726.307965 1036.226163 718.108065 C1060.642451 681.710308 1087.679996 647.071315 1117.060130 614.548099 C1087.475034 584.235336 1165.655994 531.413693 1137.585205 499.693472 C1119.909814 532.107891 1097.808964 562.105338 1072.088287 588.592330 C1068.300935 603.510880 1062.663416 617.958751 1055.345896 631.499840 C1067.879196 621.206824 1080.412497 610.913808 1092.945797 600.620792 C1058.084724 648.059601 1031.390782 701.483819 1014.387045 757.845224 C1023.400750 665.627631 1033.183286 570.753658 1076.337641 488.759555 C1119.491996 406.765452 1204.697510 339.784805 1297.095514 346.708687 C1378.758066 352.828104 1447.647703 415.123951 1484.719871 488.143633 C1521.792039 561.163315 1532.770217 644.218452 1543.200908 725.442958 C1550.392430 781.443833 1557.583952 837.444708 1564.775475 893.445583 C1610.400143 891.799553 1656.024811 890.153523 1701.649479 888.507492 C1707.757860 873.293055 1705.907265 855.129059 1696.856068 841.459119 C1696.856068 841.459114 1696.856068 841.459114 1696.856068 841.459114 C1684.015542 634.639925 1671.175016 427.820736 1658.334490 221.001546 C1656.629331 193.536978 1620.686712 185.000750 1593.176017 184.391165 C1334.910700 178.668476 1076.032619 201.026934 822.572869 250.945646 C840.292514 277.249466 843.267441 310.459794 845.711058 342.081084 C850.806729 408.020922 855.902400 473.960759 860.998071 539.900596 C871.559996 676.575750 882.142124 813.425430 903.600477 948.818159 C923.770183 952.952242 944.785961 957.074267 964.722944 951.933803 C984.659928 946.793339 1003.056760 929.412127 1002.129391 908.844005 C999.688137 854.699400 1006.381297 800.154180 1021.841012 748.206175 C1021.532491 815.653837 1021.223971 883.101500 1020.915450 950.549162 C1020.894400 955.151070 1020.671818 960.264404 1017.424224 963.524945 C1014.674900 966.285229 1010.508107 966.926008 1006.644114 967.423505 C970.446324 972.084040 934.248534 976.744574 898.050743 981.405109 C893.012192 982.053832 887.442161 982.581989 883.276618 979.674052 C878.346788 976.232570 877.381251 969.457274 876.849596 963.468587 C868.234633 866.427507 859.619669 769.386427 851.004706 672.345348 C810.416660 712.643027 776.906761 760.050272 752.460668 811.757921 C763.448182 813.486252 766.126441 827.889603 766.175603 839.012111 C766.350874 878.665773 766.526145 918.319435 766.701416 957.973097 C761.629755 962.150414 756.558094 966.327731 751.486433 970.505047 C778.286450 970.215871 805.086467 969.926695 831.886485 969.637518 C847.783918 969.465983 870.529334 982.577617 859.755231 994.268489 C662.041098 1005.221147 464.326965 1016.173804 266.612832 1027.126462 C254.373296 1027.804488 236.494096 1020.868471 241.860371 1009.847171 C244.403763 1004.623531 251.070670 1003.234917 256.829898 1002.469050 C277.230843 999.756115 297.631787 997.043180 318.032732 994.330245 C303.790166 949.864190 304.762016 900.676302 320.749893 856.807537 C292.111629 851.936980 262.547939 852.567335 234.143307 858.654158 C240.047800 893.776756 245.952293 928.899354 251.856786 964.021953 C253.394356 973.168117 254.191507 984.324710 246.786457 989.908765 C238.264547 996.335031 225.172618 989.261638 221.195567 979.356947 C217.218516 969.452256 219.253514 958.318011 220.320426 947.698146 C223.711138 913.947547 216.336548 879.197060 199.530604 849.732503 C147.715752 854.604543 95.900900 859.476583 44.086048 864.348622 C38.001515 864.920738 31.276593 865.323015 26.402846 861.635815 C21.336934 857.803234 20.003342 850.879403 19.038615 844.600754 C12.870898 804.459918 6.703180 764.319082 0.535463 724.178246 C-3.116337 700.411547 12.434725 677.587001 31.216068 662.571917 C49.997411 647.556832 72.429525 637.587196 91.025739 622.343429 C153.132446 571.433060 156.489318 479.293700 154.704973 399.007183 C152.038933 279.048807 148.998438 156.881207 110.326495 43.295994 C105.134628 28.046712 102.508522 5.763718 117.860875 0.885057 C120.977874 -0.105461 124.318552 -0.037442 127.588229 0.040154 C355.722313 5.454231 583.856397 10.868309 811.990481 16.282386 C815.107071 48.107951 818.223662 79.933516 821.340252 111.759081 C1081.074006 94.225795 1340.882062 77.793186 1600.755088 62.461846 M396.927141 905.081278 C393.639936 906.556796 390.453756 908.928895 389.405798 912.376308 C388.371826 915.777713 389.623350 919.476361 389.066960 922.987640 C388.059166 929.347643 381.299933 935.057400 383.786235 940.997398 C385.387440 944.822820 390.348706 946.622019 391.415323 950.629517 C392.377604 954.244998 389.739805 957.692199 387.927654 960.965393 C386.115502 964.238586 385.577764 969.303158 388.971023 970.879064 C391.869737 972.225292 391.453890 976.481222 390.211973 979.426135 C388.970057 982.371048 387.420025 985.952643 389.350310 988.499969 C390.978778 990.648999 394.140026 990.677830 396.830802 990.504742 C412.920814 989.469733 429.010825 988.434723 445.100836 987.399713 C445.779621 987.356049 446.481524 987.306125 447.083341 986.989151 C448.980448 985.989957 448.686044 983.021630 447.273634 981.408404 C445.861223 979.795177 443.767056 978.948001 442.182022 977.504024 C440.596987 976.060047 439.636899 973.406048 441.094659 971.833680 C429.991956 972.636558 422.104709 985.997990 411.032396 984.849721 C406.168018 984.345257 402.111294 981.056626 398.369918 977.907219 C395.716412 975.673556 393.062907 973.439894 390.409402 971.206231 C389.340533 970.303518 390.281996 968.425119 391.600500 967.957231 C392.919004 967.489343 394.380692 967.809384 395.766046 967.614023 C400.393177 966.961512 402.263989 961.179741 401.987656 956.515005 C401.711323 951.850270 400.372785 946.873814 402.488085 942.707087 C405.715796 936.349124 404.489631 928.778880 404.259397 921.652254 C404.029163 914.525628 405.596587 906.243163 411.872382 902.858461 C406.812963 902.214418 401.580135 902.992701 396.927141 905.081278 M802.328933 229.146964 C804.422427 174.752712 801.916670 120.182182 794.847170 66.208675 C793.538781 56.219520 789.415992 43.681373 779.349591 43.278057 C701.794758 40.170787 624.205150 37.931453 546.600201 36.560617 C524.507322 36.170362 502.413268 35.850493 480.319259 35.530624 C413.523584 34.563582 346.727909 33.596539 279.932234 32.629497 C235.368095 31.984314 190.803957 31.339132 146.239818 30.693949 C151.629222 83.365031 157.018626 136.036112 162.408030 188.707194 C164.134426 205.579396 165.863156 222.526504 165.071171 239.468298 C177.883263 330.070334 181.345644 421.991769 175.385552 513.300891 C174.804542 522.202012 179.067582 535.199040 187.436945 532.113380 C195.575771 529.112697 201.357052 542.411279 196.356500 549.499218 C191.355947 556.587156 181.958401 558.565879 173.787519 561.478109 C159.855267 566.443768 147.467295 575.652518 138.697392 587.562774 C132.449395 596.048078 125.437832 607.200302 114.981972 605.891559 C94.416240 636.634633 70.265574 664.977396 43.176065 690.161605 C252.400714 672.493760 462.842364 669.252715 672.511864 680.469106 C695.219464 681.683862 712.823746 661.826308 726.682689 643.797430 C751.177798 611.932133 775.672908 580.066836 800.168017 548.201538 C797.191689 537.578841 814.344604 528.892055 821.319211 537.439282 C785.536893 591.588437 749.754576 645.737591 713.972259 699.886746 C710.677857 704.872144 706.211255 710.466429 700.254758 709.989549 C479.212573 692.292687 256.487077 695.681705 36.085655 720.095621 C31.184798 720.638490 29.990319 727.158004 30.136489 732.086670 C31.179495 767.253402 34.653092 802.347829 40.524302 837.036668 C151.340256 825.286917 263.138296 822.813256 374.365498 829.650045 C406.906485 831.650238 440.314546 834.351677 471.480425 824.780646 C481.144748 821.812735 491.479323 824.751650 501.454795 826.394086 C520.930549 829.600729 540.841892 827.761414 560.493280 825.914657 C604.648261 821.765153 648.803242 817.615649 692.958222 813.466145 C696.681017 813.116292 700.700998 812.637700 703.422919 810.073964 C706.859059 806.837516 707.002780 801.516484 706.907857 796.797094 C706.588302 780.909497 706.268747 765.021901 705.949193 749.134304 C708.948647 753.207304 715.749785 753.644202 719.245725 749.988459 C719.325519 742.344512 719.405313 734.700565 719.485107 727.056617 C724.709730 737.486046 723.885052 750.691812 717.403478 760.390207 C714.661449 763.083612 711.919420 765.777017 709.177390 768.470422 C736.123477 776.677809 760.630221 751.347702 777.485230 728.778665 C795.882933 704.143933 814.280638 679.509204 832.678343 654.874475 C837.211455 648.804588 841.837911 642.548448 843.858612 635.247119 C845.892132 627.899467 845.117780 620.104929 844.327692 612.522122 C833.413985 507.778684 822.500279 403.035245 811.586573 298.291806 C809.875868 281.873450 808.146620 265.356922 803.618929 249.482763 C801.747542 242.921651 802.066536 235.964693 802.328931 229.146964 M927.845435 137.956865 C926.680706 138.038709 925.420384 138.159695 924.557402 138.946178 C923.668565 139.756224 923.445646 141.049703 923.310380 142.244653 C922.302966 151.144262 923.323088 160.267382 926.271306 168.724684 C922.262445 176.541059 931.229680 185.047583 931.379232 193.830766 C931.496135 200.696470 925.131598 206.981669 918.267901 206.778656 C911.404204 206.575644 905.422272 199.925264 905.944759 193.078472 C907.158453 177.173940 904.422942 160.982876 898.051558 146.359857 C897.300798 144.636782 896.462322 142.882962 895.050184 141.642601 C892.706408 139.583931 889.318396 139.358574 886.199740 139.285152 C865.574447 138.799579 844.898502 140.494244 824.627547 144.331801 C822.197126 144.791911 821.838967 148.088970 822.064281 150.552277 C824.065839 172.434359 826.067390 194.316439 828.068941 216.198519 C828.197778 217.607035 828.425765 219.196368 829.578869 220.015433 C830.566376 220.716873 831.895586 220.600979 833.098069 220.455295 C844.305537 219.097475 855.513005 217.739656 866.720473 216.381836 C870.280873 215.950483 873.841273 215.519129 877.401673 215.087776 C913.874879 210.668934 950.348085 206.250092 986.821291 201.831250 C988.890724 201.580532 991.092871 201.273416 992.671954 199.912567 C995.419783 197.544497 995.046505 193.249645 994.340158 189.691641 C991.061006 173.173944 985.661787 157.078344 978.316823 141.924511 C977.341780 139.912842 976.257129 137.829416 974.405628 136.576633 C971.980157 134.935486 968.810453 135.078275 965.889130 135.283554 C953.207898 136.174658 940.526667 137.065761 927.845435 137.956865 M1266.138569 116.772094 C1270.911990 112.435678 1278.543867 116.853097 1282.506338 121.941209 C1287.197301 127.964761 1290.478958 135.078757 1292.016337 142.557043 C1293.406371 149.318594 1293.417768 156.447300 1296.127794 162.796041 C1298.837820 169.144783 1305.556943 174.638253 1312.219708 172.833170 C1331.923780 167.494919 1352.557884 165.608227 1372.903336 167.284522 C1376.139201 167.551130 1380.239337 167.431638 1381.537749 164.455729 C1382.331672 162.636089 1381.624840 160.545847 1380.916869 158.691074 C1374.983748 143.147238 1369.050629 127.603401 1363.117509 112.059564 C1361.966025 109.042857 1357.947657 108.608927 1354.719315 108.674147 C1306.053970 109.657322 1257.388626 110.640495 1208.723282 111.623668 C1204.196746 111.715117 1199.390550 111.890540 1195.629580 114.411054 C1191.868609 116.931568 1189.936736 122.712122 1192.957034 126.084909 C1202.221095 136.430148 1197.421790 152.547055 1199.041133 166.339246 C1200.065425 175.063297 1207.380143 185.035965 1215.641319 182.050800 C1228.699954 177.332079 1242.810055 175.548965 1256.632037 176.870743 C1261.113391 177.299290 1265.759536 178.031906 1270.022107 176.583918 C1274.284678 175.135929 1277.913282 170.580529 1276.532428 166.295739 C1272.753789 154.570644 1268.975153 142.845551 1265.196517 131.120458 C1263.637331 126.282311 1262.376120 120.190092 1266.138569 116.772094 M1007.236012 131.388490 C1005.455395 133.486091 1005.316900 136.484026 1005.356372 139.235201 C1005.530238 151.353465 1007.481501 163.444779 1011.128412 175.002572 C1011.696597 176.803262 1012.313609 178.656374 1012.131460 180.535773 C1012.014858 181.738857 1011.574534 182.886092 1011.358708 184.075389 C1010.994817 186.080592 1011.292140 188.200186 1012.193685 190.027882 C1014.995206 195.707384 1022.239057 197.138838 1028.415483 198.537771 C1041.839054 195.004456 1055.714238 193.190705 1069.594989 193.154825 C1078.278689 193.132379 1087.170724 193.775413 1095.457384 191.179570 C1101.942134 189.148185 1102.272889 180.159205 1100.999728 173.484060 C1100.199899 169.290580 1099.276423 165.111549 1097.937551 161.057856 C1094.573352 150.872090 1088.684437 141.740730 1082.856611 132.734948 C1080.457193 129.027110 1078.057774 125.319271 1075.658356 121.611432 C1071.974390 125.373083 1065.792818 123.766440 1060.576587 123.050507 C1046.342896 121.096910 1032.362952 127.999528 1018.002663 128.442916 C1014.160923 128.561534 1009.723394 128.458307 1007.236011 131.388489 M1562.971428 92.823913 C1560.865200 91.129439 1557.977040 90.866005 1555.274978 90.786623 C1548.704202 90.593586 1542.113783 91.075693 1535.641049 92.222900 C1527.308885 93.699666 1518.678962 96.265712 1510.573689 93.834591 C1503.850468 91.818007 1496.978149 95.960491 1491.178106 99.913695 C1489.741408 100.892922 1488.111883 102.541567 1488.917664 104.082251 C1497.151117 119.824913 1502.388122 137.128092 1504.266236 154.794270 C1504.751591 159.359684 1510.615952 160.808909 1515.202255 161.019600 C1538.208647 162.076490 1561.323299 160.761889 1584.061510 157.103361 C1584.957063 156.959268 1585.977552 156.724996 1586.397470 155.920978 C1586.623513 155.488164 1586.620437 154.976018 1586.604382 154.487997 C1586.208904 142.467715 1581.207740 131.140648 1576.291124 120.164744 C1572.991003 112.797519 1569.690882 105.430294 1566.390761 98.063070 C1565.529730 96.140896 1564.612488 94.144158 1562.971428 92.823913 M1403.369895 167.809881 C1423.180790 167.344346 1442.870041 164.718729 1462.512199 162.096921 C1467.457369 161.436846 1472.402539 160.776772 1477.347709 160.116697 C1479.557817 159.821695 1482.275110 159.069247 1482.663160 156.873564 C1482.816788 156.004294 1482.530970 155.124104 1482.248965 154.287620 C1478.507902 143.190846 1474.766838 132.094072 1471.025775 120.997298 C1470.356811 119.013011 1469.651614 116.965977 1468.236504 115.422484 C1466.141980 113.137939 1462.760062 112.256287 1460.930434 109.754560 C1459.462886 107.747922 1459.290507 105.108643 1458.514610 102.746805 C1457.738713 100.384966 1455.751222 97.962782 1453.289133 98.306899 C1432.042027 101.276527 1410.500709 102.137180 1389.084411 100.872109 C1387.797156 100.796070 1386.455387 100.721171 1385.268922 101.226255 C1382.448811 102.426792 1381.869074 106.400069 1383.143491 109.187573 C1384.417907 111.975078 1386.931662 113.949660 1389.079002 116.136724 C1401.882616 129.177181 1401.761777 149.605485 1403.369895 167.809880 M1121.857770 182.709608 C1123.417205 188.227340 1130.897941 188.880595 1136.595751 188.238592 C1142.161500 187.611470 1147.707805 186.824221 1153.253188 186.037090 C1162.342463 184.746926 1171.431739 183.456763 1180.521014 182.166599 C1181.725646 181.995609 1182.980412 181.805447 1183.976295 181.106454 C1186.519274 179.321584 1186.023494 175.354651 1184.530704 172.629933 C1183.037914 169.905216 1180.786995 167.397649 1180.567797 164.298543 C1179.586845 150.429441 1177.408140 136.645262 1174.063877 123.149702 C1173.549852 121.075384 1172.892805 118.834286 1171.147096 117.601598 C1169.782111 116.637750 1168.020943 116.492821 1166.353779 116.379899 C1158.564994 115.852342 1150.776209 115.324784 1142.987425 114.797226 C1139.917321 114.589279 1136.847093 114.381324 1133.774340 114.217096 C1124.803649 113.737644 1115.813030 113.631186 1106.833502 113.898089 C1104.771464 113.959381 1101.894627 115.728671 1103.296757 117.241876 C1109.096584 123.501157 1111.784051 131.949844 1114.304694 140.102326 C1118.163568 152.583033 1122.063260 165.351890 1121.614471 178.407830 C1121.564913 179.849544 1121.465440 181.321418 1121.857772 182.709608 M1596.449175 90.676626 C1594.214132 89.780803 1591.651215 91.672768 1590.924594 93.968403 C1590.197973 96.264038 1590.772104 98.745535 1591.348998 101.083293 C1593.333168 109.123777 1595.353287 117.259712 1599.252954 124.565800 C1602.689378 131.003994 1607.730102 137.804610 1605.750306 144.828836 C1605.234348 146.659436 1604.246126 148.376302 1604.099547 150.272568 C1603.952969 152.168834 1605.110202 154.399230 1607.011293 154.455476 C1618.064344 154.782488 1628.996597 158.454754 1638.005613 164.866813 C1638.605829 162.353906 1637.922890 159.732647 1637.243521 157.239975 C1635.031132 149.122558 1632.818747 141.005141 1630.606362 132.887724 C1628.120156 123.765635 1625.633950 114.643546 1623.147744 105.521458 C1621.518171 99.542423 1619.039603 92.651515 1613.099050 90.886810 C1607.721010 89.289205 1601.656772 92.763872 1596.449175 90.676626 M549.795052 889.320986 C550.517760 888.346544 551.622806 887.663770 552.817629 887.453429 C553.668339 892.205491 550.183553 897.311079 545.448213 898.250418 C544.974981 898.344292 544.465114 898.397403 544.025964 898.197633 C543.209178 897.826074 542.989644 896.789244 542.873451 895.899471 C542.053667 889.621805 541.233202 883.261730 542.025521 876.980538 C542.660695 871.945127 544.317832 866.794161 542.932024 861.911708 C542.565641 860.620877 541.946601 859.335041 540.857340 858.551467 C538.923854 857.160591 536.063538 857.842197 534.339016 859.485038 C532.614494 861.127879 531.781117 863.479649 531.127286 865.769934 C528.661401 874.407611 527.928380 883.536189 528.984350 892.456669 C529.301537 895.136164 526.683278 897.137762 525.452363 899.538834 C523.891386 902.583737 524.624949 906.232636 525.118154 909.618612 C526.597939 919.777683 525.514260 930.299929 521.994949 939.944147 C521.150263 942.258895 524.910648 943.971193 526.893842 942.508834 C528.877035 941.046475 529.247271 938.280979 529.452537 935.825492 C530.047993 928.702379 530.643450 921.579266 531.238907 914.456153 C531.398504 912.546976 532.269409 910.019548 534.167812 910.277408 C536.621515 910.610697 538.867991 908.983980 540.790463 907.423266 C542.712936 905.862551 544.894198 904.184871 547.361588 904.393953 C549.828979 904.603035 551.816206 908.012037 549.933890 909.620954 C548.656486 910.712820 549.255871 913.201475 550.890312 913.592032 C552.524752 913.982589 554.184493 912.033762 553.538713 910.482343 C552.769549 908.634505 555.139633 907.046576 557.108062 906.684078 C559.076491 906.321581 561.565781 905.906747 562.069443 903.969625 C560.494949 903.344576 560.000826 901.299640 560.285852 899.629767 C560.570878 897.959894 561.395615 896.408293 561.587115 894.725129 C562.098255 890.232535 558.272374 884.935867 561.389419 881.660400 C565.708301 877.122013 561.307145 869.437162 563.183864 863.459904 C563.693082 861.838061 564.671541 860.360616 564.922419 858.679325 C565.173296 856.998034 564.288128 854.926498 562.595432 854.770110 C557.441017 856.171503 554.221858 862.430586 556.079815 867.438566 C554.722994 865.944592 552.258437 868.339695 552.663365 870.316803 C553.068293 872.293910 554.765630 873.748998 555.501996 875.628009 C556.238362 877.507021 554.955971 880.411713 553.039658 879.778733 C550.548013 878.955714 547.532458 880.457300 546.687712 882.941662 C545.842967 885.426025 547.318161 888.454578 549.795052 889.320986 M580.808548 913.018278 C584.036757 912.911527 585.055318 908.702538 585.476362 905.500125 C585.897407 902.297712 588.208789 898.222706 591.205993 899.426657 C593.448938 900.327629 594.504716 896.635915 593.983317 894.275684 C593.461918 891.915452 593.889850 888.256622 596.279538 888.619858 C598.558486 888.966262 600.345851 886.475469 600.555603 884.179907 C600.765354 881.884346 600.020077 879.588978 600.162751 877.288273 C600.374444 873.874622 602.476250 870.918304 603.788163 867.759711 C605.100076 864.601118 605.383231 860.403628 602.703024 858.278935 C601.025547 856.949142 603.787462 854.655155 604.136941 852.543249 C604.619286 849.628432 600.526038 848.447683 597.571809 848.484449 C593.842262 848.530865 590.112715 848.577280 586.383167 848.623695 C585.477480 848.634967 584.488274 848.676535 583.805662 849.271882 C582.691667 850.243465 583.029010 851.999579 583.095511 853.476243 C583.382490 859.848676 576.876564 865.450035 578.285008 871.671493 C581.055539 883.909644 572.013505 896.808193 575.678568 908.808839 C577.373040 914.357106 575.414993 920.263352 574.614667 926.009131 C573.814342 931.754911 574.870500 938.754465 580.067970 941.331441 C580.816471 939.868733 580.223729 938.117225 579.756946 936.541826 C577.919467 930.340373 578.284111 923.510336 580.771428 917.539776 C582.605791 918.856003 582.767720 921.524781 582.374749 923.748048 C581.981779 925.971315 581.215657 928.257710 581.829197 930.430475 C582.442738 932.603241 585.306934 934.268464 586.992230 932.766093 C585.811808 926.542928 585.136882 920.223955 584.976284 913.891863 C583.665586 914.781985 581.651475 914.359814 580.808548 913.018278 M664.134564 931.446804 C662.857775 929.267836 660.828397 927.539515 658.473943 926.625932 C657.681232 928.401823 656.323885 929.920559 654.647827 930.906973 C653.320080 928.793035 653.593666 926.089174 653.889538 923.610443 C656.659754 900.402407 657.296824 876.940191 655.790099 853.616023 C655.607893 850.795480 655.256114 847.681050 653.153633 845.792074 C651.051153 843.903097 646.714017 844.764702 646.645888 847.590302 C646.045936 872.472612 646.801071 897.387537 648.906830 922.187840 C649.438869 928.453858 650.240007 935.156884 654.369675 939.899445 C654.706443 937.809517 655.127987 935.555235 656.682095 934.117891 C658.236204 932.680547 661.307382 932.812315 661.979798 934.819569 C662.338971 935.891751 664.130495 935.675490 664.629640 934.660880 C665.128786 933.646271 664.706225 932.422399 664.134566 931.446804 M368.536877 901.503612 C371.798985 895.594611 375.172147 889.065112 373.943451 882.428249 C373.344091 879.190773 371.679057 876.248089 369.792186 873.549905 C368.209082 871.286101 364.898070 871.434051 362.136738 871.511967 C359.375405 871.589882 355.874227 870.732400 355.441133 868.004131 C357.170295 862.380837 358.899458 856.757543 360.628620 851.134250 C359.743889 850.935104 358.859158 850.735958 357.974427 850.536812 C357.060649 852.921367 354.978898 854.625299 353.424447 856.651323 C351.869996 858.677347 350.855316 861.620438 352.316315 863.714853 C353.470360 865.369234 349.971551 866.772812 348.658877 865.241249 C347.346204 863.709686 347.576526 861.427203 346.973164 859.502429 C346.369803 857.577656 343.636597 855.992969 342.488716 857.651634 C342.121497 858.182258 342.084706 858.868247 342.088107 859.513538 C342.120092 865.583520 344.707852 871.599462 349.092506 875.797142 C351.091494 877.710887 353.449191 879.269332 355.162690 881.442416 C358.514130 885.692759 358.858177 891.511923 358.934385 896.924110 C358.961780 898.869625 358.988168 900.885733 359.815325 902.646867 C360.642482 904.408000 362.517037 905.840672 364.432420 905.498492 C366.379498 905.150648 367.580956 903.235175 368.536878 901.503614 M587.311273 976.706946 C588.372690 980.028079 592.656023 980.817542 596.142441 980.855266 C605.937577 980.961249 615.746713 979.678733 625.185338 977.057991 C623.774563 970.778069 617.335496 965.945006 617.755301 959.522275 C617.867859 957.800212 618.465844 955.947113 617.634550 954.434790 C616.803257 952.922467 613.697380 953.297145 614.132074 954.967238 C614.880619 957.843148 611.288059 959.812578 608.380865 960.428531 C601.722157 961.839323 594.835206 962.166957 588.072642 961.394657 C586.917048 961.262686 586.210492 962.769557 586.470318 963.903270 C586.730145 965.036982 587.536442 965.970673 587.904446 967.074026 C588.936900 970.169513 586.317894 973.598699 587.311274 976.706946 M510.077935 885.088378 C511.166194 886.208535 513.133867 884.682851 513.192528 883.122205 C513.251190 881.561558 512.335305 880.134604 512.083527 878.593284 C511.673703 876.084459 513.035701 873.677989 513.826836 871.262153 C515.116842 867.322946 514.876138 862.903903 513.165899 859.128120 C512.792766 858.304335 512.304443 857.462638 511.493743 857.061871 C510.672258 856.655775 509.697450 856.787452 508.796141 856.952954 C503.809927 857.868539 498.963207 859.539973 494.472559 861.892567 C497.265283 862.375205 499.391561 864.824627 500.317819 867.503113 C501.244078 870.181600 501.190375 873.085664 501.126232 875.919059 C501.057143 878.970678 500.988058 882.022296 500.918973 885.073915 C500.803949 890.154712 500.674295 895.323849 499.076692 900.148306 C498.211327 902.761545 497.335640 905.442207 497.425800 908.193523 C497.515959 910.944840 498.772294 913.826957 501.213472 915.099168 C503.654651 916.371379 507.246877 915.335444 508.030144 912.696436 C506.020139 913.330464 503.614416 912.069356 502.992411 910.055598 C504.980404 907.807390 508.282911 906.817460 511.179798 907.601421 C509.937295 901.369968 508.694793 895.138516 507.452290 888.907063 C507.247385 887.879418 507.051758 886.766839 507.502872 885.821039 C507.953986 884.875239 509.347754 884.336795 510.077934 885.088378 M402.779544 883.674790 C405.767008 877.471262 408.754471 871.267734 411.741935 865.064207 C412.110769 864.298315 412.485383 863.512486 412.569259 862.666558 C412.865118 859.682649 409.688061 857.668500 406.968961 856.404483 C403.497160 854.790569 399.893438 853.145165 396.065186 853.094145 C392.236934 853.043126 388.101531 855.040354 386.902048 858.676197 C385.748316 862.173362 387.569754 865.951347 389.805716 868.877389 C392.041679 871.803431 394.804889 874.477295 395.963801 877.972746 C396.575774 879.818547 396.737937 881.883719 397.920151 883.427695 C399.102364 884.971671 401.935811 885.426819 402.779544 883.674790 M731.264137 898.518587 C731.973613 903.691606 732.683089 908.864624 733.392565 914.037643 C734.062914 918.925374 734.732489 923.904132 733.908540 928.768327 C733.530930 930.997554 732.840033 933.242306 733.186497 935.476585 C733.532961 937.710865 735.389519 939.944786 737.637948 939.706859 C739.416760 923.179247 739.187488 906.436462 736.956777 889.963756 C735.134445 888.772879 732.527124 890.117289 731.609379 892.091327 C730.691634 894.065365 730.968338 896.361833 731.264134 898.518587 M669.433847 962.511323 C666.642724 966.411407 670.097902 972.187359 668.109358 976.551614 C667.536116 977.809707 669.690417 978.601170 670.925752 977.980403 C672.161087 977.359635 673.339582 976.161662 674.677990 976.508172 C679.329840 977.712525 684.391970 973.414891 684.331181 968.610053 C684.270392 963.805214 679.557818 959.717980 674.757420 959.933265 C672.718499 960.024703 670.621644 960.851594 669.433847 962.511322 M1103.446496 768.464510 C1102.259995 769.766252 1099.874044 768.507778 1099.509399 766.784598 C1099.144754 765.061417 1100.030938 763.351106 1100.824266 761.778545 C1101.617593 760.205984 1102.356666 758.373661 1101.711222 756.734844 C1099.220350 759.973598 1096.729478 763.212353 1094.238606 766.451107 C1096.404909 767.104107 1096.122643 770.626541 1094.229495 771.865600 C1092.336347 773.104660 1089.871159 772.793683 1087.620926 772.557601 C1085.370694 772.321520 1082.800320 772.318546 1081.218509 773.936308 C1083.067506 776.494552 1086.540658 777.756037 1089.600441 776.980715 C1092.844874 776.158604 1093.791365 783.453322 1097.006550 782.523378 C1096.964595 780.043342 1096.940107 777.472224 1097.943579 775.203880 C1098.947051 772.935536 1101.287208 771.056849 1103.741228 771.417576 C1104.408724 770.554926 1104.271320 769.178219 1103.446495 768.464512 M345.769137 958.783246 C342.792507 958.349885 339.640562 960.240850 338.621905 963.071127 C342.227624 962.517405 344.278539 967.425899 343.428781 970.973536 C342.579022 974.521174 340.222403 977.743043 340.297701 981.390254 C340.335285 983.210708 341.678602 985.396042 343.438801 984.930033 C347.450327 977.809425 349.041100 969.353103 347.891231 961.261553 C347.788422 960.538088 347.630200 959.754751 347.072398 959.282703 C346.712504 958.978140 346.235687 958.851169 345.769138 958.783245 M1070.373427 771.922338 C1069.459606 768.939605 1066.006599 767.741343 1063.143183 766.503353 C1060.279768 765.265363 1057.190782 762.589861 1058.150260 759.621500 C1058.685405 757.965906 1056.647888 756.649647 1054.932260 756.359829 C1053.584621 760.244179 1053.110172 764.428727 1053.553954 768.516189 C1057.888078 772.728368 1064.741968 774.116365 1070.373427 771.922338 M342.416857 941.133582 C342.424510 942.490416 342.469630 943.903803 343.101268 945.104673 C344.639052 948.028311 349.729291 947.843711 351.051260 944.816363 C346.071544 943.127740 345.526274 936.313212 346.490449 931.144130 C347.454624 925.975048 348.721763 919.814428 344.974112 916.126047 C343.228505 924.338057 342.369509 932.738226 342.416859 941.133582 M497.375279 976.892743 C492.552352 977.544200 487.729425 978.195657 482.906497 978.847113 C481.218964 979.075057 479.136115 979.667692 478.876583 981.350656 C485.189332 985.112293 493.473971 985.312054 499.960679 981.859043 C501.130173 981.236498 502.385869 980.232936 502.267861 978.913333 C502.091017 976.935825 499.342810 976.626978 497.375279 976.892743 M538.830492 984.563414 C538.776872 985.986587 541.247726 985.279019 541.703151 983.929618 C542.158575 982.580217 542.493954 980.658451 543.918078 980.645553 C546.489761 980.622263 549.061444 980.598972 551.633126 980.575681 C552.718265 979.650369 552.473044 977.787960 551.481551 976.762939 C550.490057 975.737917 549.018537 975.358228 547.613802 975.112363 C544.478283 974.563573 540.934652 974.564617 538.492603 976.606441 C536.050555 978.648265 535.899158 983.322474 538.830491 984.563413 M1036.425415 112.312729 C1041.099383 112.758870 1045.826847 112.641855 1050.473019 111.965019 C1052.403630 111.683775 1054.653051 111.031042 1055.265488 109.178671 C1053.988180 106.323965 1049.857422 106.619656 1046.893969 107.619054 C1043.264678 108.843003 1039.753607 110.417224 1036.425415 112.312729 M345.890240 906.356525 C346.355675 906.624442 346.961273 906.510408 347.419710 906.230685 C348.465145 905.592795 348.869965 904.300304 349.193982 903.119267 C350.145750 899.650053 351.097521 896.180841 352.049292 892.711629 C349.506173 892.474606 347.173781 894.446141 346.152873 896.787376 C345.131965 899.128610 345.131131 901.769712 345.147256 904.323801 C345.152037 905.081135 345.233866 905.978700 345.890240 906.356525 M158.147339 225.083317 C158.855208 224.301985 159.563078 223.520653 160.270947 222.739320 C157.646387 221.780815 154.534962 222.301865 152.365864 224.063133 C152.698283 226.589164 153.496115 229.053196 154.707371 231.294668 C155.465012 232.696710 157.201621 234.167731 158.427582 233.149516 C159.583615 232.189386 158.685856 230.357185 157.872524 229.093556 C157.059192 227.829927 156.712329 225.639427 158.167895 225.265804 M1005.830729 177.875796 C1007.591926 176.906572 1007.226711 173.919486 1005.475448 172.932424 C1003.724186 171.945362 1001.411208 172.647193 999.956732 174.034892 C998.502256 175.422592 997.709444 177.346821 996.956633 179.210818 C999.874410 178.852976 1002.792189 178.495137 1005.709968 178.137298 M1142.724862 728.105503 C1143.126348 729.778837 1141.329529 731.038134 1140.127576 732.269616 C1138.925623 733.501097 1138.842354 736.322335 1140.560956 736.234915 C1142.867041 734.843874 1145.105719 732.976881 1145.864074 730.392714 C1146.622429 727.808547 1145.228704 724.484346 1142.569380 724.058886 C1141.769723 723.649760 1141.071808 724.939396 1141.399234 725.775834 C1141.726659 726.612271 1142.515293 727.232050 1142.724862 728.105501 M18.119230 768.418915 C19.095604 768.430755 20.071977 768.442595 21.048351 768.454435 C19.992553 765.919943 22.165205 763.281818 24.156796 761.391868 C21.965540 759.983222 18.859444 759.483877 16.867573 761.162662 C14.875702 762.841447 15.601152 766.961314 18.202860 767.091637 M161.581596 300.516527 C163.750779 298.277097 165.573859 295.703057 166.966428 292.913585 C165.231401 291.378068 162.918599 290.511717 160.601745 290.529443 C159.779566 293.685994 159.844384 297.068591 160.786889 300.191330 M573.841602 878.302549 C570.968716 876.367055 566.415367 879.638498 567.332979 882.978797 C569.273729 884.033259 571.717867 884.730155 573.635485 883.634190 C575.553104 882.538225 575.737316 879.014969 573.601132 878.453614 M1095.774366 742.586105 C1095.719546 745.459426 1096.704836 748.341545 1098.507174 750.579972 C1100.622183 749.976554 1101.406997 747.170100 1100.635951 745.110279 C1099.864905 743.050458 1098.050810 741.592509 1096.316355 740.240088 C1094.706744 739.403723 1092.437253 740.769011 1092.421978 742.582880 C1093.539441 742.583956 1094.656903 742.585031 1095.774366 742.586106 M511.246734 963.391248 C512.454681 962.318710 513.702395 961.191153 514.309179 959.694060 C514.915963 958.196968 514.665090 956.219331 513.311208 955.338151 C511.957326 954.456972 509.671630 955.543509 509.913647 957.140663 C510.391465 960.293936 508.990995 963.660319 506.417622 965.544247 C507.648178 966.860836 510.346842 965.500298 510.020145 963.728024 M869.788236 776.136647 C869.544094 774.641458 867.365574 774.078426 866.196591 775.042103 C865.027608 776.005781 864.935054 777.872099 865.671723 779.195925 C867.186125 781.917371 871.838795 781.915493 873.351003 779.192827 C872.282956 778.156598 871.214906 777.120370 870.146856 776.084142 M144.357691 91.111164 C144.414290 89.385080 142.819365 87.961209 141.131083 87.597512 C139.442801 87.233815 137.696313 87.666062 136.023683 88.096035 C137.466927 91.282589 140.292774 93.813515 143.618508 94.898221 C144.205870 93.735613 144.382770 92.370658 144.111187 91.096729 M123.046711 842.227518 C120.246153 840.405141 115.886616 842.019104 114.947898 845.225815 C117.400737 846.984014 120.960339 847.017092 123.445427 845.304780 C124.529321 844.594991 124.304904 842.629132 123.088928 842.181888 M1091.325263 675.615494 C1089.736234 677.196086 1088.038576 679.021995 1088.019796 681.263185 C1088.001015 683.504375 1090.891885 685.584297 1092.516645 684.040457 C1094.638497 682.024285 1091.290840 678.522135 1091.999939 675.682349 M1706.490719 822.211191 C1707.259549 819.940597 1707.447290 817.475868 1707.031241 815.115020 C1706.201396 814.101135 1704.430706 814.515285 1703.657893 815.573287 C1702.885079 816.631288 1702.825974 818.032545 1702.796370 819.342404 C1702.770317 820.495272 1702.795925 821.785337 1703.607987 822.604077 C1704.420048 823.422817 1706.248452 823.048971 1706.189197 821.897334 M118.545749 851.274052 C115.989599 851.793795 113.433450 852.313538 110.877301 852.833281 C112.914186 856.689760 119.740916 856.201626 121.208382 852.094578 C120.464166 851.613749 119.529682 851.436860 118.661217 851.612423 M1654.972542 423.031856 C1654.897883 425.597772 1658.839247 425.568224 1661.203978 424.569453 C1661.823863 424.307641 1662.474701 424.021937 1662.871198 423.478257 C1664.001889 421.927846 1661.956900 419.691959 1660.050324 419.909227 C1658.143748 420.126496 1656.732923 421.722800 1655.517585 423.207788 M1530.638096 728.540662 C1532.676787 728.594986 1534.377255 726.248822 1533.691181 724.328272 C1532.871082 722.634488 1530.444507 721.978344 1528.882574 723.028027 C1527.320642 724.077709 1527.011524 726.572352 1528.270014 727.971520 C1528.861330 728.586465 1529.823563 728.812525 1530.626848 728.525219 M723.566351 775.551072 C723.156696 776.724598 721.133037 776.739833 720.705759 775.572609 C719.881359 776.104220 719.326245 777.032807 719.248291 778.010647 C720.629072 779.891930 723.679961 780.230726 725.439842 778.698211 C727.199723 777.165695 727.283518 774.097196 725.609897 772.470918 C724.910022 773.475277 724.210147 774.479636 723.510272 775.483995 M157.216246 263.617827 C157.866990 267.459524 163.118286 269.604020 166.272226 267.316059 C164.420835 264.583060 160.911255 263.079228 157.655435 263.623821 M361.115127 916.069423 C360.997544 917.335887 362.288660 918.527366 363.541628 918.308670 C365.138992 917.770638 366.414742 916.192374 366.318743 914.509571 C366.222744 912.826769 364.522183 911.329183 362.876397 911.693091 C361.230611 912.056998 360.391736 914.456553 361.608794 915.622662 M873.553455 832.522617 C874.984533 830.911426 873.829607 827.860531 871.690329 827.600909 C870.422163 828.515525 869.263686 829.780033 869.076536 831.332366 C868.889385 832.884700 870.083656 834.638720 871.644298 834.543006 C872.312230 833.889522 872.980163 833.236039 873.648097 832.582557 M170.862014 841.892282 C171.627798 841.323459 172.393583 840.754636 173.159367 840.185813 C171.311684 837.165362 166.486116 836.602654 163.993028 839.116929 C165.964178 840.475729 168.259344 841.361077 170.632382 841.678026 M1665.042689 352.419692 C1665.589483 350.503596 1663.661125 348.350910 1661.696641 348.684397 C1659.732157 349.017883 1658.622225 351.686341 1659.770710 353.314651 C1661.420931 353.697847 1663.071155 354.081043 1664.721379 354.464240 C1664.554393 353.665211 1664.387407 352.866181 1664.220421 352.067152 M814.452956 122.256555 C815.727814 119.744575 814.924503 116.365068 812.655671 114.695426 C810.009993 116.753066 810.779900 121.702446 813.925597 122.859205 M1193.201426 165.121019 C1194.626854 163.958028 1194.231071 161.282872 1192.529955 160.582445 C1190.558793 162.580633 1189.327298 165.292663 1189.120048 168.091824 C1189.865194 168.553412 1190.782095 168.730122 1191.645418 168.578526 C1192.145855 167.413674 1192.646290 166.248821 1193.146726 165.083968 M1051.077130 635.039969 C1049.884138 636.280465 1049.721731 638.381256 1050.709890 639.790371 C1053.004165 638.792427 1054.709207 636.548181 1055.055612 634.070363 C1054.513234 633.265550 1053.608975 632.714998 1052.644983 632.602668 C1051.849201 633.190653 1051.304235 634.107279 1051.167802 635.087269 M645.079847 974.162938 C643.435255 972.748418 640.386080 973.934056 640.129047 976.088003 C641.844028 978.137309 645.444692 978.144292 647.167608 976.101654 C646.494245 975.429370 645.820881 974.757087 645.147517 974.084804 M1156.647730 473.585026 C1157.335396 474.264705 1158.023062 474.944385 1158.710728 475.624064 C1159.898358 473.757755 1161.085988 471.891447 1162.273617 470.025139 C1159.943582 468.268741 1155.960774 470.742097 1156.502050 473.609328 M1267.647633 96.583934 C1268.774427 96.543001 1269.901220 96.502069 1271.028014 96.461136 C1270.472932 94.930130 1269.286227 93.501500 1267.684639 93.206508 C1266.083051 92.911516 1264.225095 94.216894 1264.396348 95.836393 C1264.567600 97.455892 1267.299159 98.085078 1267.873579 96.561219 M1111.058137 733.077301 C1111.500321 731.826046 1110.865876 730.276484 1109.651585 729.741074 C1108.437294 729.205663 1106.830606 729.819993 1106.328714 731.048517 C1107.018055 733.157553 1108.648115 734.939491 1110.687562 735.813493 C1110.894313 734.919328 1111.101064 734.025163 1111.307815 733.130998 M161.039045 248.051441 C161.512607 247.548541 160.869355 246.648371 160.179410 246.682230 C159.489466 246.716089 158.962162 247.305907 158.609342 247.899782 C157.398482 249.937942 157.300661 252.593793 158.358304 254.715505 C160.372959 253.209477 161.483619 250.577643 161.157040 248.083590 M168.411247 318.757860 C166.632198 319.338776 164.853149 319.919692 163.074100 320.500608 C164.280633 321.277051 165.546236 322.074947 166.973481 322.221781 C168.400726 322.368615 170.028590 321.639334 170.404961 320.254801 C170.781331 318.870267 169.181930 317.250754 167.929918 317.951507 M756.347752 761.168731 C755.648369 762.711815 754.534450 764.064665 753.154275 765.047194 C753.705395 766.917757 756.560480 765.682564 757.780702 764.161452 C758.542359 763.211976 759.327355 762.006105 758.904107 760.864842 C758.480858 759.723579 756.227075 759.901625 756.497225 761.088486 M1068.746415 529.281661 C1070.377822 529.819659 1072.275881 528.125652 1071.926096 526.443813 C1071.576312 524.761974 1069.160230 523.965211 1067.878607 525.109053 C1066.596984 526.252894 1067.115008 528.743664 1068.746415 529.281661 M1093.311163 833.152983 C1091.588561 832.983550 1089.876917 834.442546 1089.771417 836.170241 C1089.665917 837.897937 1091.187321 839.554355 1092.917739 839.595778 C1093.025301 837.760478 1093.132863 835.925173 1093.240425 834.089869 M826.095668 235.276750 C825.044223 235.246671 824.059525 236.173593 824.026051 237.224935 C826.460671 237.865625 829.171320 237.360892 831.212169 235.886857 C830.633705 234.048662 827.952027 234.368442 826.157348 235.070376 M150.519673 215.622583 C150.284128 214.642628 148.778679 214.299312 148.141563 215.080259 C149.642932 216.581197 151.144302 218.082132 152.645672 219.583066 C153.437090 218.992407 153.977753 218.076322 154.112330 217.098003 C153.409250 215.959245 151.959879 215.335844 150.649662 215.608645 M1028.436939 206.278762 C1027.658944 206.848941 1026.880949 207.419119 1026.102954 207.989297 C1027.328355 210.041900 1030.806187 210.105207 1032.105480 208.098560 C1031.408771 206.957225 1029.957595 206.332448 1028.649691 206.610733 M1525.664410 675.393080 C1527.987924 675.818245 1529.677076 672.164184 1527.847879 670.669688 C1525.863422 671.768863 1523.686209 674.476203 1525.496128 675.843851 M1082.115857 782.034647 C1080.573360 783.467400 1080.827328 786.351669 1082.596465 787.492823 C1084.729799 786.375541 1084.518520 782.625314 1082.273193 781.754712 M415.646826 686.583882 C416.493534 685.742329 417.340242 684.900775 418.186949 684.059222 C417.075664 682.250550 413.679383 683.017438 413.453102 685.128137 C413.827769 685.973915 414.740493 686.550711 415.665213 686.526082 M143.146712 62.084028 C143.147175 63.416224 143.147639 64.748420 143.148103 66.080617 C144.346450 66.966198 146.338756 65.468043 145.820614 64.070968 C145.844094 62.711969 144.414746 61.528497 143.083986 61.805091 M537.083229 954.098900 C536.899242 955.157393 538.582421 955.898807 539.239199 955.048571 C539.083445 953.193360 538.927693 951.338153 538.771940 949.482947 C536.950652 949.532490 536.850756 952.215055 537.368145 953.962011 M173.398579 346.179800 C172.541587 347.962494 172.931086 350.266243 174.326499 351.668119 C175.892113 349.866583 175.553886 346.751103 173.638143 345.327511 M160.440083 406.286889 C161.442055 404.685602 160.424903 402.230673 158.584036 401.807261 C157.780192 402.260023 157.237675 403.144997 157.198889 404.066765 C157.847284 405.122353 158.909641 405.915932 160.105805 406.238230 M1153.424919 710.283003 C1152.639759 710.861687 1151.854598 711.440371 1151.069437 712.019055 C1152.117184 713.386424 1154.036204 714.016234 1155.690441 713.535637 C1156.448576 712.248910 1155.104223 710.343279 1153.637749 710.625930 M286.138924 840.222280 C285.144334 840.261214 284.226270 841.040027 284.025711 842.014964 C285.581243 842.895812 287.588348 842.920139 289.164772 842.077252 C289.169374 840.563868 287.298392 839.119037 286.137862 840.090388 M25.154707 811.063191 C26.294655 810.308327 26.536728 808.501189 25.635638 807.472920 C24.215695 807.859164 22.959302 808.814838 22.208011 810.080140 C22.673826 811.168205 24.132835 811.694637 25.186071 811.154669 M868.040537 671.094541 C867.812328 669.870817 865.750644 670.056077 865.225313 671.184619 C864.699983 672.313161 865.191113 673.630084 865.681431 674.774273 C867.062723 674.124128 867.994691 672.618521 867.960597 671.092255 M1061.107673 588.948171 C1062.084670 588.722591 1062.433701 587.222779 1061.656687 586.589012 C1060.474650 586.382178 1059.236151 586.508459 1058.120185 586.949605 C1057.881593 588.480508 1059.781030 589.869160 1061.167410 589.177387 M1252.555924 94.796806 C1250.880859 94.309562 1248.402501 94.283470 1248.118781 96.004735 C1249.124326 96.490556 1250.211363 96.989462 1251.313720 96.810733 C1252.416078 96.632004 1253.412340 95.440477 1252.954578 94.421855 M1093.825113 106.208263 C1094.575665 108.208754 1098.359637 107.178626 1097.992563 105.073739 C1096.823905 104.113159 1094.759133 104.714149 1094.288538 106.151863 M221.641369 888.526734 C219.744366 888.526029 218.459781 891.139177 219.618938 892.640835 C221.514853 892.662027 222.833624 890.073744 221.702065 888.552392 M1663.551123 280.817994 C1662.436850 279.953399 1660.242761 279.802337 1660.138877 281.208870 C1661.296920 281.995088 1662.454963 282.781303 1663.613006 283.567518 C1664.787880 283.128156 1664.796409 281.105418 1663.625282 280.656164 M1495.196262 539.095290 C1494.958459 539.934331 1495.109664 540.875238 1495.598374 541.597528 C1497.173660 540.551406 1497.680511 538.187164 1496.672492 536.587225 C1495.601480 536.046190 1495.009278 537.885551 1495.211656 539.068273 M911.973823 171.578254 C912.018856 169.900774 910.975602 168.244473 909.443204 167.560568 C907.997693 168.873582 909.682983 171.810365 911.545944 171.224796 M1663.614416 337.427756 C1664.762884 337.074347 1665.310766 335.486707 1664.624689 334.500211 C1663.447009 335.019478 1662.269328 335.538749 1661.091647 336.058020 C1661.001796 337.217816 1662.586373 338.096306 1663.522419 337.405641 M1141.992461 767.190989 C1143.014346 768.867988 1146.173629 766.694735 1144.972931 765.140740 C1143.781552 764.287527 1141.825461 765.681419 1142.243005 767.086061 M321.865967 997.931173 C322.539404 997.379544 323.212841 996.827916 323.886277 996.276288 C323.936344 995.092057 322.399899 994.182888 321.385959 994.796763 C320.372019 995.410637 320.465412 997.193480 321.537941 997.698057 M556.149243 24.598779 C556.171759 22.688885 553.137644 21.722584 552.051520 23.293741 C552.539539 24.591325 554.368574 25.148593 555.497215 24.343572 M365.630949 841.674456 C364.538826 841.243155 362.910223 841.994556 363.168010 843.140112 C364.226862 843.667297 365.475112 843.803288 366.622645 843.516483 C367.476051 842.954407 366.624429 841.296984 365.670556 841.663528 M866.820045 125.262237 C867.665984 126.743582 869.925988 127.156671 871.241250 126.070356 C871.301508 124.370078 868.694282 124.360617 867.117585 124.999834 M1699.865967 797.931173 C1700.539404 797.379544 1701.212841 796.827916 1701.886277 796.276288 C1701.936344 795.092057 1700.399899 794.182888 1699.385959 794.796763 C1698.372019 795.410637 1698.465412 797.193480 1699.537941 797.698057 M159.988803 313.034448 C160.380449 311.622453 160.111479 309.390830 158.663564 309.615907 C158.229956 310.460354 157.783772 311.404709 158.026834 312.322327 C158.269897 313.239944 159.596340 313.838776 160.195238 313.102283 M143.444849 199.565737 C143.313285 200.442551 143.181721 201.319364 143.050157 202.196178 C143.921811 202.368247 144.793462 202.540314 145.665113 202.712381 C146.487455 201.410597 145.201845 199.400326 143.675181 199.600781 M1016.921299 836.581234 C1016.519248 835.123985 1014.369343 835.436105 1012.996943 836.069934 C1013.168450 837.682716 1015.927211 838.049239 1016.513880 836.537184 M287.752205 691.620712 C288.444096 690.254012 287.103239 688.365322 285.584825 688.567807 C284.833380 689.879413 286.160684 691.798975 287.653127 691.559014 M136.539650 99.919483 C136.024920 98.819192 135.510190 97.718900 134.995460 96.618608 C133.336429 97.506961 134.233557 100.649012 136.111532 100.527469 M28.669169 761.702123 C27.096286 762.280288 27.136492 765.016487 28.725683 765.548189 C29.883830 764.630211 29.747958 762.540335 28.480699 761.780038 M518.300595 931.036959 C517.842619 929.637793 516.889951 928.406077 515.650849 927.611071 C514.623540 929.239160 516.318468 931.743166 518.211716 931.394371 M556.677434 914.494203 C557.508541 915.124451 558.339149 913.386365 557.618238 912.632550 C556.775725 912.405486 555.839633 912.552252 555.107041 913.026267 C554.927669 913.831518 555.802531 914.666314 556.598494 914.449418 M860.974427 633.090515 C861.114460 634.480433 863.216193 635.141210 864.126386 634.081479 C864.685752 632.784826 862.354133 632.397873 861.069886 632.985161 M816.149480 191.098673 C815.808402 192.090519 817.556430 192.888770 818.082619 191.981457 C817.971618 191.047005 817.711328 189.922798 816.812472 189.644267 C815.913615 189.365737 815.260257 191.149150 816.201184 191.135852 M531.620242 954.600728 C531.297274 953.568173 529.341342 954.056245 529.541345 955.119484 C529.477178 955.932516 530.377036 956.661181 531.158953 956.429353 C531.940869 956.197526 532.298143 955.096139 531.801198 954.449469 M1649.749142 506.707202 C1648.619280 507.401549 1649.256049 509.556600 1650.581843 509.525356 C1651.680701 508.729197 1651.009711 506.598778 1649.652933 506.576034 M739.202284 643.357555 C739.996259 642.542469 739.734602 640.640286 738.621292 640.875453 C737.217009 640.806414 737.915316 643.696083 739.133106 642.993407 M22.722384 780.805802 C21.864432 780.991180 22.341856 782.518613 23.219590 782.524064 C24.097324 782.529516 24.727628 781.695509 25.124657 780.912684 C24.304743 780.762146 23.484829 780.611609 22.664915 780.461072 M748.604704 624.490778 C749.779736 624.122926 749.811888 622.093787 748.649100 621.688892 C747.482403 622.088099 747.511737 624.124373 748.689445 624.489807 z"/><path class="selected" fill="#000000" opacity="1.000000" stroke="none" d=" M640.998144 284.710614 C641.800335 307.672176 642.615955 330.753179 647.106316 353.285678 C649.713440 366.368151 653.541869 379.171243 657.364568 391.951508 C660.577627 402.693588 663.790686 413.435668 667.003745 424.177749 C668.416063 428.899491 669.833457 433.635177 671.813140 438.148529 C675.412667 446.354861 665.737102 455.733683 656.883960 454.347195 C648.030818 452.960706 641.812514 444.463717 639.584733 435.784001 C638.949665 433.309697 638.393892 430.520859 636.302715 429.053727 C635.219722 428.293920 633.878930 428.019458 632.577657 427.780983 C617.023762 424.930520 600.990006 424.716982 585.365715 427.152211 C555.215025 431.851551 525.064335 436.550891 494.913645 441.250230 C491.402871 441.797426 487.878983 442.347555 484.476392 443.370947 C476.544391 445.756643 468.259578 446.687444 460.027844 447.607627 C438.068229 450.062379 416.108615 452.517131 394.149001 454.971883 C387.678354 455.695203 381.044685 456.409128 374.725595 454.840192 C368.406505 453.271257 362.363914 448.918500 360.668865 442.632065 C358.973816 436.345630 363.248111 428.575507 369.747054 428.180302 C391.980393 426.828282 414.213731 425.476261 436.447069 424.124241 C441.272618 423.830797 446.233558 423.503947 450.605053 421.439470 C461.554180 416.268647 464.948209 402.612453 467.075842 390.692136 C468.506926 382.674320 469.937775 374.430536 468.347731 366.442724 C466.750640 358.419515 466.427279 350.144119 467.393441 342.020750 C469.453031 342.136662 471.445878 343.154678 472.746925 344.755497 C473.776842 341.862804 471.365563 338.663944 468.451027 337.697570 C465.536490 336.731196 462.362153 337.366255 459.359509 338.008538 C423.272726 345.727714 387.185944 353.446889 351.099162 361.166065 C347.318287 361.974816 343.268494 362.935086 340.704523 365.829070 C336.982127 370.030586 337.856339 376.430717 338.828064 381.959254 C343.973497 411.233650 345.537344 441.135802 343.473663 470.787226 C336.917803 465.807886 324.738483 472.993816 320.317405 466.049235 C319.228384 464.338613 319.067824 462.217412 318.944415 460.193316 C317.129966 430.433749 316.756921 400.586342 317.827024 370.790722 C318.043517 364.762773 313.716432 359.685076 310.949724 354.325192 C308.183015 348.965309 307.696196 340.952616 313.086459 338.245571 C318.005077 335.775390 318.493921 329.068407 318.310307 323.567417 C317.803444 308.382145 317.296582 293.196873 316.789720 278.011602 C316.642771 273.609102 316.342388 268.807597 313.390628 265.537931 C307.148751 258.623800 308.222811 247.911576 310.689734 238.929341 C313.156657 229.947107 316.651872 220.524601 314.018990 211.589603 C310.035183 198.070081 308.433250 183.852290 309.308854 169.785253 C309.885884 160.514947 313.950678 149.002261 323.231439 148.629419 C347.964564 147.635800 372.697690 146.642181 397.430815 145.648561 C430.566186 144.317394 464.153193 142.910847 495.803297 133.011567 C515.113218 126.971956 535.656872 126.483610 555.884513 126.044871 C571.410996 125.708101 586.937479 125.371331 602.463962 125.034560 C611.194172 124.845201 621.835742 125.755807 625.632514 133.619455 C631.436819 145.640987 637.365913 158.179860 637.395426 171.529253 C637.419167 182.267559 637.794152 193.001641 638.169088 203.733425 C638.374703 209.618734 638.580321 215.504042 638.785933 221.389351 C639.103654 230.483547 639.421371 239.577744 639.739088 248.671940 C640.158773 260.684832 640.578459 272.697723 640.998144 284.710614 M346.472084 228.011323 C349.201366 229.268516 352.335261 229.170357 355.337371 229.040554 C415.821964 226.425354 476.179867 220.882120 536.129021 212.436753 C550.168842 210.458887 564.185699 208.322050 578.210594 206.240976 C583.790041 205.413073 589.839280 204.671722 594.772365 207.406740 C600.157860 210.392582 602.797631 217.197232 601.724610 223.260848 C600.651589 229.324464 596.340622 234.509416 591.007565 237.587942 C588.453454 239.062313 585.464029 240.129209 582.578641 239.519475 C551.411454 232.933292 518.657838 247.067670 487.470450 240.577818 C485.494754 240.166691 482.931636 239.918714 481.951118 241.682511 C481.533557 242.433638 481.565564 243.343768 481.608899 244.202062 C482.402307 259.916309 483.195715 275.630555 483.989123 291.344801 C484.164760 294.823458 484.398932 298.488868 486.314766 301.397730 C490.150862 307.222177 498.501648 307.328440 505.455330 306.793538 C542.702752 303.928328 579.950173 301.063119 617.197595 298.197910 C618.382536 298.106760 619.915259 297.672863 619.939177 296.484662 C620.705114 258.435384 618.198035 220.320769 612.454699 182.699653 C610.766343 171.640250 606.589153 158.266420 595.572222 156.320102 C573.891394 152.489837 551.654077 154.577656 529.737748 156.676155 C513.706077 158.211195 497.674405 159.746236 481.642733 161.281276 C469.942746 162.401555 457.996507 163.585315 447.287765 168.429652 C440.485314 171.506891 432.640576 169.031194 425.247228 167.991410 C416.164215 166.713993 406.932933 167.709106 397.814790 168.705297 C378.413731 170.824934 359.012671 172.944572 339.611612 175.064210 C338.374498 175.199369 337.054666 175.369104 336.112358 176.181983 C334.590779 177.494569 334.693514 179.840333 334.923356 181.836644 C336.051884 191.638346 337.180405 201.440048 338.308926 211.241750 C339.054209 217.714867 340.553889 225.285216 346.472084 228.011323 M621.723860 327.318039 C620.752946 325.986152 618.839657 325.883071 617.191594 325.905140 C593.909221 326.216959 570.626848 326.528772 547.344476 326.840585 C541.859633 326.914042 536.356762 326.986638 530.907598 326.357743 C528.418749 326.070502 525.638304 325.709379 523.637526 327.217280 C514.386780 334.189175 498.961236 326.935671 490.557297 334.907963 C484.693488 340.470592 485.988005 349.915204 487.135988 357.915782 C489.347124 373.325750 489.313329 389.056007 487.035999 404.456332 C486.362976 409.007615 490.436668 413.149389 494.892431 414.295390 C499.348193 415.441392 504.035172 414.403806 508.544155 413.489364 C530.877495 408.960061 553.831647 407.502521 576.558508 409.170595 C581.035986 404.120447 588.617369 403.700203 595.358025 403.360556 C604.205778 402.914736 613.028846 401.979450 621.773432 400.560399 C628.264530 399.507039 636.526934 395.668339 635.162780 389.235377 C632.357294 376.005503 629.551807 362.775629 626.746321 349.545755 C625.318882 342.814358 623.891443 336.082962 622.464004 329.351565 C622.313181 328.640327 622.152147 327.905558 621.723860 327.318039 M355.625169 260.496306 C352.346299 261.631865 348.986648 262.812341 346.330379 265.044990 C340.916808 269.595210 339.644446 277.417613 339.902846 284.484754 C340.161246 291.551894 341.564564 298.718893 340.031830 305.622658 C339.111414 309.768419 337.154459 313.667332 336.624419 317.880830 C336.094379 322.094328 337.519221 327.046095 341.412217 328.742881 C343.198064 329.521252 345.217481 329.494942 347.164742 329.437649 C366.685244 328.863309 386.105050 326.515240 405.492626 324.169661 C419.691891 322.451782 433.891156 320.733903 448.090422 319.016024 C452.706714 318.457528 457.824745 317.627340 460.678829 313.956335 C463.262425 310.633239 463.155689 306.022906 462.929037 301.819745 C462.383375 291.700752 461.837715 281.581760 461.292054 271.462767 C460.828731 262.870662 458.667754 252.125107 450.284657 250.185360 C442.432069 248.368376 434.057577 248.870914 426.478630 251.613921 C412.522181 256.665104 397.033409 252.278883 382.252127 253.624474 C373.099487 254.457671 364.309589 257.488664 355.625170 260.496306 M411.878302 443.134960 C414.770582 443.682422 417.872045 444.209159 420.567919 443.027099 C423.171788 441.885380 424.975495 439.118861 424.969684 436.275691 C417.213199 437.166440 409.547925 438.849464 402.131740 441.290094 C405.380594 441.905050 408.629448 442.520005 411.878302 443.134960 M532.180647 313.893969 C524.976631 312.829551 517.300437 316.137911 513.127264 322.105780 C513.994449 323.293808 514.861635 324.481836 515.728820 325.669864 C517.280317 321.821459 520.863552 318.861690 524.935717 318.064923 C527.939734 317.477152 532.223378 316.954652 532.180650 313.893971 M376.083521 243.103090 C378.563453 243.588767 381.178618 244.067142 383.572530 243.257741 C385.966442 242.448340 387.957404 239.858079 387.177958 237.454247 C383.635050 238.592251 380.092143 239.730256 376.549236 240.868260 C376.393996 241.613202 376.238757 242.358145 376.083518 243.103088 M528.731088 426.193627 C531.355871 426.741126 534.206487 424.571757 534.378308 421.895991 C530.888447 421.185651 527.105626 422.073795 524.296536 424.263022 C523.935678 425.013464 524.077798 425.976972 524.639959 426.591266 C525.975511 426.588846 527.311066 426.586422 528.646621 426.583998 M384.681386 158.525416 C382.206324 156.447660 377.719642 158.011690 377.072561 161.177806 C379.230197 163.147652 382.956986 163.036831 384.993764 160.942260 C385.336945 160.163706 385.214788 159.200161 384.688181 158.531878 M365.646863 345.583994 C366.646786 345.584008 367.646710 345.584023 368.646633 345.584037 C369.108791 344.469519 369.570948 343.355001 370.033105 342.240483 C366.949773 340.831662 362.370699 339.919001 360.971739 343.006820 C362.530013 343.865851 364.088292 344.724884 365.646571 345.583916 M508.588192 320.607586 C509.923988 320.980754 510.589712 318.721862 509.635325 317.715506 C505.931675 316.966348 501.995702 317.413415 498.554415 318.974127 C501.550267 320.724833 505.236277 321.254945 508.604071 320.419443 M570.500950 416.096560 C568.735899 416.093567 566.857452 416.122514 565.379583 417.087561 C563.901713 418.052608 563.146276 420.325484 564.347095 421.619102 C567.384306 420.850793 570.099108 418.877612 571.767393 416.225865 M535.248417 314.250572 C535.792829 315.603316 536.385345 317.021394 537.538331 317.914100 C538.691317 318.806805 540.588313 318.913564 541.461046 317.745388 C542.443868 316.429862 541.455366 314.400857 539.958741 313.725093 C538.462117 313.049329 536.729302 313.317446 535.111412 313.598470 M622.309250 213.159267 C621.601468 214.639199 622.258359 216.622679 623.709589 217.387587 C625.160819 218.152495 627.168387 217.573388 627.989260 216.153063 C626.878997 213.927850 624.657380 212.292847 622.202686 211.894422 M400.108197 241.183278 C401.991692 242.045321 404.501987 241.007132 405.226388 239.066535 C404.083646 238.011772 402.522771 237.135886 401.028130 237.565331 C399.533488 237.994776 398.791487 240.340893 400.130978 241.130919 M628.901895 232.834659 C626.897015 234.935309 626.723440 238.531675 628.516702 240.815638 C630.658384 238.586497 630.910549 234.790570 629.082552 232.297722 M470.193077 276.018684 C471.276784 277.274776 473.432828 275.243067 472.789492 273.713914 C472.146157 272.184761 470.260437 271.663312 468.610562 271.489820 C467.664787 273.013434 468.504460 275.324009 470.207767 275.884935 M356.609767 246.290484 C358.220214 246.372279 358.154038 243.472953 356.630144 242.945716 C355.106251 242.418478 353.511575 243.402777 352.199172 244.339701 C352.531686 246.172076 354.913607 247.278376 356.528211 246.350351 M516.636908 425.682503 C515.788748 425.097695 514.874615 426.841331 515.725757 427.421789 C517.055016 427.475709 518.500705 427.495800 519.568978 426.702935 C520.637252 425.910071 520.876230 423.970613 519.687747 423.372825 C519.064567 424.515755 517.963957 425.388437 516.709052 425.734652 M441.142017 327.088362 C440.544434 326.294695 439.629345 325.747268 438.647436 325.596047 C437.854134 326.190345 437.307435 327.104049 437.158777 328.084058 C437.753247 328.876891 438.666873 329.423100 439.646655 329.571430 C440.442751 328.979651 440.988141 328.061162 441.126677 327.078932 M506.637871 427.631743 C504.939292 427.435891 502.754519 427.583653 502.161380 429.187310 C503.939004 429.660909 505.809648 429.782616 507.633654 429.543344 C508.478022 428.958905 507.635668 427.310321 506.667314 427.652103 M642.595631 380.810104 C640.682896 380.274824 638.990034 383.209270 640.410921 384.597133 C641.969372 383.951240 643.030846 382.263900 642.938374 380.579438 M468.628912 147.570897 C467.698238 148.824936 468.245843 150.887297 469.676024 151.514473 C470.464518 150.946436 471.003879 150.044431 471.131138 149.081002 C470.539909 148.286973 469.623330 147.742987 468.643118 147.604373 M422.662262 234.515898 C421.161660 234.617425 419.660747 236.390517 420.630254 237.540373 C421.608969 237.695236 422.748189 237.699474 423.425533 236.976241 C424.102877 236.253007 423.595742 234.683924 422.625368 234.884517 M638.503933 352.541885 C638.185377 353.565129 637.866821 354.588373 637.548265 355.611617 C638.469074 355.486453 639.501411 355.221402 639.940955 354.402649 C640.380499 353.583895 639.503633 352.284242 638.696880 352.745443 M583.826429 417.631855 C583.690161 416.148805 580.825136 416.643914 581.123085 418.103103 C581.864096 418.733524 583.179278 418.443153 583.585971 417.559340 M477.517924 333.719784 C476.871883 333.148817 475.931862 334.414760 476.448536 335.104992 C476.965210 335.795224 478.012544 335.765379 478.836978 335.513026 C478.940551 334.722536 478.370521 333.900707 477.593847 333.720763 z"/><path class="selected" fill="#000000" opacity="1.000000" stroke="none" d=" M709.614076 742.175100 C710.600517 740.014466 712.888811 737.446283 714.819781 738.829311 C716.174379 739.799519 715.751669 742.093049 714.439275 743.119628 C713.126881 744.146207 711.343244 744.263344 709.678729 744.338389 C709.427134 743.610235 709.175540 742.882078 708.923946 742.153921 z"/><path class="selected" fill="#000000" opacity="1.000000" stroke="none" d=" M191.112443 586.855452 C192.108951 582.967713 193.873270 579.278371 196.274015 576.062167 C202.256635 581.085662 206.424781 587.884982 210.486297 594.558162 C211.568172 596.335708 212.564571 598.868973 211.016667 600.259698 C210.269386 600.931098 209.184304 601.027483 208.181709 601.090776 C201.831043 601.491695 193.923875 601.019529 191.286578 595.228472 C190.106584 592.637405 190.405524 589.613401 191.112443 586.855452 z"/></svg>