<?xml version="1.0" standalone="no"?>
<!DOCTYPE svg PUBLIC "-//W3C//DTD SVG 1.1//EN" "http://www.w3.org/Graphics/SVG/1.1/DTD/svg11.dtd">
<svg xmlns="http://www.w3.org/2000/svg" xmlns:xlink="http://www.w3.org/1999/xlink" version="1.1" id="Contours" x="0px" y="0px" width="1296.6964111328125" height="2245.420166015625" viewBox="0.000002 0.000001 1296.696411 2245.420166" enable-background="new 0 0 1296.696411 1296.696411" xml:space="preserve" stroke="black" fill="none" stroke-linecap="round" stroke-linejoin="round"><path class="selected" fill="#000000" opacity="1.000000" stroke="none" d=" M799.719687 335.212852 C847.384614 352.938346 906.999030 322.265334 920.287214 273.178038 C921.157853 294.344261 914.717539 315.742771 902.308966 332.912346 C941.086117 351.039316 982.409977 311.035697 999.448816 271.768249 C1016.487654 232.500802 1028.225476 185.060986 1066.424689 165.745846 C1038.802305 224.642600 1011.179921 283.539354 983.557537 342.436108 C1024.933733 323.277074 1056.982166 285.017590 1068.590682 240.923367 C1073.060642 276.183723 1056.901618 313.309425 1028.049979 334.066500 C1104.787228 343.184078 1182.617384 343.067470 1259.326968 333.719990 C1249.587396 233.536914 1252.246754 132.154624 1267.225122 32.619923 C1220.548128 31.027604 1173.871134 29.435285 1127.194140 27.842966 C1122.589175 48.667517 1117.984210 69.492068 1113.379245 90.316619 C1105.636585 63.335345 1101.600066 35.293235 1101.418426 7.223590 C1156.318906 4.847889 1211.219386 2.472189 1266.119867 0.096488 C1272.315901 -0.171632 1279.264230 -0.171979 1283.734425 4.126867 C1288.623064 8.828123 1288.430131 16.569787 1287.888732 23.330517 C1282.056026 96.166025 1276.223328 169.001532 1270.390629 241.837040 C1273.210972 232.563579 1289.113253 237.470986 1290.997539 246.978924 C1292.881824 256.486862 1287.011837 265.543442 1283.171556 274.443085 C1272.486889 299.204222 1278.049560 330.114611 1296.696383 349.597218 C1283.304287 374.892508 1282.306992 404.686416 1281.604568 433.299464 C1268.808318 954.551158 1256.012068 1475.802851 1243.215818 1997.054545 C1236.955576 2007.279198 1224.363950 1990.566356 1224.647450 1978.580790 C1237.366558 1440.849940 1250.085693 903.119083 1262.804828 365.388226 C899.295036 354.618841 535.423124 356.076671 172.011295 369.758424 C158.037381 370.284514 142.490589 371.521671 133.042645 381.831055 C124.857826 390.762175 123.743499 403.896609 123.048539 415.990951 C90.762629 977.866811 58.476705 1539.742668 26.190781 2101.618525 C25.918298 2106.360579 25.754548 2111.509200 28.483452 2115.396925 C32.590425 2121.247897 41.015111 2121.490552 48.155143 2121.142648 C80.877538 2119.548197 113.599931 2117.953752 146.322325 2116.359308 C157.868541 2129.315626 133.880532 2144.076457 116.552055 2145.027875 C87.735698 2146.610026 58.919342 2148.192180 30.102986 2149.774333 C20.723559 2150.289308 9.790832 2150.144487 3.982310 2142.762080 C-0.394461 2137.199377 -0.205717 2129.432995 0.190252 2122.365958 C32.960385 1537.503037 65.730518 952.640116 98.500651 367.777195 C140.721930 301.028616 194.380473 242.398862 247.734657 184.163646 C258.248054 172.688446 270.453606 160.383827 286.001093 159.685708 C497.284132 150.198615 708.567170 140.711522 919.850208 131.224428 C980.298448 128.510164 1040.998645 125.801913 1101.208650 131.811259 C1106.807084 118.403998 1112.405518 104.996737 1118.003952 91.589476 C1114.673609 108.490816 1118.726471 126.714647 1128.906122 140.611452 C1116.210042 196.639827 1103.513961 252.668203 1090.817880 308.696578 C1092.693804 259.023673 1094.569728 209.350768 1096.445652 159.677862 C1023.343526 160.510659 950.241400 161.343455 877.139274 162.176251 C691.102427 164.295625 504.482524 166.456517 320.170580 191.820021 C301.589156 194.377044 281.492441 197.959004 268.849487 211.814091 C228.985444 255.500091 189.121400 299.186088 149.257355 342.872084 C216.388549 365.002419 295.601648 344.385009 343.425216 292.334502 C374.720979 258.272629 398.303461 209.262063 443.866062 201.281754 C406.208089 243.732882 368.550114 286.184008 330.892139 328.635134 C369.135164 356.427971 422.865801 323.663785 450.561832 285.350594 C478.257864 247.037403 500.278036 198.842640 544.720488 182.723110 C511.665423 230.853262 477.135046 277.970174 441.194168 323.985413 C480.657116 355.267005 538.108832 317.889358 566.808495 276.510721 C595.508158 235.132084 622.833506 182.842226 672.659182 175.543990 C621.393797 219.600134 578.501116 273.365117 546.934697 333.136722 C621.959959 334.668000 696.985220 336.199278 772.010482 337.730556 C790.861906 297.815925 817.893202 261.786283 850.942274 232.523460 C833.868078 266.753258 816.793882 300.983055 799.719687 335.212852 M41.244502 1680.537976 C38.102176 1680.644394 34.968291 1680.999081 31.881665 1681.597641 C30.767151 1681.813768 29.904063 1682.933876 29.979183 1684.066663 C33.713238 1686.627728 39.638793 1684.771639 41.244502 1680.537976 M1236.575384 1706.265170 C1238.291917 1706.936115 1240.008450 1707.607059 1241.724983 1708.278004 C1242.178108 1706.586491 1241.694956 1704.675127 1240.492464 1703.402118 C1239.173746 1703.390167 1237.855028 1703.378217 1236.536310 1703.366267 C1235.847384 1704.216116 1235.814783 1705.533791 1236.460839 1706.416669 M507.057127 346.852007 C506.651370 343.757547 502.233124 342.113161 499.902948 344.189359 C501.115236 346.258276 503.701665 347.421425 506.053897 346.955521 M1107.521453 195.418064 C1106.689157 195.166456 1105.743851 195.322227 1105.036289 195.827578 C1105.732419 198.035926 1106.267992 200.294872 1106.637382 202.580691 C1108.671197 200.729885 1109.327907 197.525223 1108.185999 195.023636 M1241.533527 1648.448044 C1243.195100 1648.380465 1244.502777 1646.476586 1243.969489 1644.901468 C1242.032607 1643.269441 1238.472715 1645.405094 1239.000976 1647.882182 C1239.746127 1648.340656 1240.666311 1648.506214 1241.524538 1648.336217 M634.610163 149.524887 C633.053147 149.913490 632.936335 152.597647 634.453704 153.120045 C635.666224 152.699321 636.878743 152.278593 638.091261 151.857865 C638.024408 150.209529 636.124733 148.917791 634.567257 149.461617 M562.504182 346.341914 C563.237361 345.543620 563.268122 344.195737 562.572125 343.364826 C560.896982 343.077654 558.791490 344.224380 559.003439 345.910693 C560.083193 346.441147 561.349136 346.582478 562.519287 346.303204 M845.660305 244.327679 C845.459406 244.935735 846.556639 245.240385 846.945508 244.731589 C847.334378 244.222793 847.172996 243.499673 846.993900 242.884842 C845.839078 242.377058 844.684253 241.869276 843.529427 241.361494 C843.057606 242.095807 842.880276 243.013713 843.044632 243.870929 C843.764926 244.349964 844.683691 244.519808 845.527640 244.329940 M363.467376 282.637887 C362.872966 281.508749 362.278555 280.379611 361.684145 279.250473 C360.747491 281.129999 360.698303 283.429000 361.553711 285.346867 C362.336965 284.747722 362.872851 283.834636 363.014027 282.858658 M524.805443 348.388053 C524.907809 347.212109 525.010174 346.036166 525.112539 344.860223 C524.309248 344.402480 523.352942 344.218932 522.437263 344.346744 C521.927716 345.962894 522.906551 347.896735 524.510650 348.443043 M569.984147 282.897060 C569.388675 282.053870 567.737798 282.874025 568.050026 283.857931 C568.875797 284.691538 569.701568 285.525146 570.527338 286.358754 C571.392001 285.348330 571.143917 283.596348 570.032715 282.865710 M837.560686 251.361940 C836.223563 250.846450 835.796740 253.200539 836.477717 254.461450 C837.383880 254.262044 838.401478 253.981179 838.832655 253.159613 C839.263831 252.338046 838.363502 251.043183 837.576671 251.534896 M1238.636770 1739.492251 C1237.502184 1740.178836 1238.137736 1742.340564 1239.463380 1742.303837 C1240.572111 1741.516219 1239.900810 1739.371644 1238.540881 1739.356771 M620.464303 152.241748 C621.578829 151.457134 620.844456 149.294210 619.482607 149.350393 C618.847161 150.355886 619.447440 151.900718 620.595076 152.213358 z"/><path class="selected" fill="#000000" opacity="1.000000" stroke="none" d=" M476.100825 1290.857058 C477.828172 1298.545731 483.382786 1305.410985 483.006774 1313.282328 C482.603570 1321.722895 475.171619 1328.475154 467.095507 1330.961549 C459.019396 1333.447945 450.352658 1332.624942 441.925165 1332.005995 C415.229725 1330.045382 388.365829 1330.383750 361.728240 1333.016127 C322.794005 1336.863683 283.711355 1345.603865 244.928221 1340.451490 C235.791396 1339.237654 225.509106 1336.322003 221.581425 1327.983640 C219.249410 1323.032833 219.761453 1317.272731 220.323183 1311.829089 C223.716946 1278.940647 227.110708 1246.052205 230.504470 1213.163764 C228.718622 1211.385706 225.537205 1211.279784 223.637046 1212.935121 C225.811113 1223.202387 224.292516 1234.211610 219.420018 1243.506881 C210.307986 1238.539087 210.568179 1225.584441 212.072669 1215.315818 C214.363521 1199.680027 216.654372 1184.044236 218.945224 1168.408444 C220.179586 1159.983531 221.458797 1151.408394 225.156714 1143.738438 C225.207413 1146.532859 220.130365 1145.664638 219.609564 1142.918709 C219.088764 1140.172780 220.920935 1137.594920 221.648482 1134.896396 C222.741028 1130.844059 221.309209 1126.605923 220.491243 1122.489368 C218.032536 1110.115505 221.468007 1096.702132 229.572253 1087.033682 C226.933950 1086.529328 224.404967 1085.460600 222.204517 1083.920134 C225.711279 1080.686387 229.218041 1077.452640 232.724803 1074.218893 C235.578549 1071.587322 238.057113 1066.141702 234.453770 1064.697766 C233.218006 1066.588868 231.982242 1068.479971 230.746477 1070.371073 C227.734843 1068.991774 227.058256 1064.259088 229.562782 1062.091195 C239.913171 1059.478822 250.588957 1067.340967 254.882920 1077.114244 C259.176883 1086.887520 258.678300 1098.005340 258.101589 1108.664723 C257.352097 1122.517646 256.602605 1136.370569 255.853113 1150.223491 C255.666536 1153.672014 258.722369 1156.614790 262.055884 1157.517453 C265.389398 1158.420115 268.922000 1157.780606 272.318145 1157.153456 C327.126380 1147.032258 382.721893 1141.177305 438.436126 1139.658999 C444.659947 1139.489390 449.375084 1146.536656 448.293294 1152.668086 C447.211503 1158.799516 441.847829 1163.462514 435.982594 1165.551468 C430.117359 1167.640421 423.745872 1167.631899 417.519886 1167.674298 C363.537368 1168.041918 309.594908 1174.044821 256.852255 1185.553945 C253.955032 1186.186156 252.612480 1189.473052 251.810376 1192.327910 C245.787828 1213.763498 244.053231 1236.134227 242.348014 1258.334400 C241.203091 1273.240110 240.058168 1288.145821 238.913246 1303.051532 C238.772076 1304.889411 238.635923 1306.777432 239.169560 1308.541790 C240.880272 1314.197888 248.058539 1315.711082 253.955815 1316.085395 C289.038227 1318.312154 324.210453 1315.022143 359.209473 1311.735400 C381.784160 1309.615421 404.358846 1307.495442 426.933532 1305.375463 C431.275559 1304.967706 435.828342 1304.486511 439.424914 1302.019906 C443.721444 1299.073254 445.821086 1293.860471 447.146105 1288.821894 C450.968696 1274.285942 450.255441 1259.008639 450.213057 1243.978525 C450.172531 1229.606841 450.770261 1215.241861 451.367874 1200.882550 C452.208327 1180.688374 453.048780 1160.494197 453.889232 1140.300020 C455.184506 1109.177528 453.240811 1077.921193 448.099685 1047.198952 C446.568945 1038.051589 443.544953 1027.455593 434.827764 1024.288884 C418.412055 1018.325521 401.437807 1013.900721 384.199922 1011.091357 C356.620138 1006.596510 328.509718 1006.249236 300.597197 1007.568075 C293.294226 1007.913133 285.996606 1008.371430 278.707844 1008.942744 C271.265831 1009.526071 261.501692 1008.710989 259.573468 1001.499486 C264.522228 997.214404 271.148735 995.505801 277.564092 994.203749 C317.346851 986.129497 358.422535 988.694462 398.933050 991.294386 C415.861926 992.380864 432.790802 993.467343 449.719678 994.553821 C459.361676 995.172634 471.932165 998.682045 471.975410 1008.343783 C472.097953 1035.721979 472.220496 1063.100175 472.343040 1090.478372 C481.478252 1101.183328 479.307111 1117.134854 476.940462 1131.007387 C475.902599 1137.091000 474.927417 1143.186006 474.101141 1149.301950 C469.884007 1180.516398 469.568619 1212.255958 473.164641 1243.548043 C473.577423 1247.140013 474.055003 1250.777936 475.456890 1254.110706 C480.253731 1265.514458 473.389011 1278.786378 476.100825 1290.857058 M286.913200 1001.166126 C294.810529 1003.326848 303.190656 1001.759829 311.225148 1000.183923 C313.223529 999.791956 315.792942 998.571225 315.290422 996.597741 C305.973500 996.550438 296.652645 997.304707 287.464560 998.849485 C287.280773 999.621698 287.096987 1000.393912 286.913200 1001.166126 M224.938185 1183.855720 C225.543942 1183.016935 223.820071 1182.114371 223.156106 1182.907877 C222.412730 1185.255337 223.452540 1188.044797 225.551115 1189.332885 C226.448289 1187.597546 226.288294 1185.365842 225.152747 1183.776232 M236.972127 1277.884303 C237.854924 1276.165801 235.387641 1274.723157 233.493295 1274.343640 C232.024263 1276.288422 235.130422 1279.385231 237.070768 1277.910344 M237.936512 1120.963635 C239.211753 1121.872315 240.845233 1119.287304 239.477101 1118.525625 C238.776081 1118.078707 237.718765 1118.138730 237.234586 1118.814552 C236.750407 1119.490374 237.243229 1120.673402 238.073685 1120.634575 M242.430075 1074.235690 C243.564661 1073.549106 242.929109 1071.387378 241.603464 1071.424105 C240.494734 1072.211723 241.166035 1074.356297 242.525963 1074.371171 M465.513904 1205.430207 C464.893318 1204.989426 464.023642 1205.834375 464.145285 1206.585786 C464.266928 1207.337197 464.932814 1207.861331 465.549067 1208.308149 C466.233585 1207.468240 466.250112 1206.153343 465.586924 1205.296493 z"/><path class="selected" fill="#000000" opacity="1.000000" stroke="none" d=" M263.287253 1651.864747 C331.782362 1650.160316 400.277471 1648.455884 468.772580 1646.751453 C493.414321 1646.138268 518.914806 1645.327033 541.124665 1634.635281 C570.780479 1620.359072 589.612967 1591.091974 610.921389 1566.007544 C615.862938 1560.190317 621.543038 1554.224194 629.030157 1552.740255 C636.517276 1551.256316 645.692693 1556.825217 644.860876 1564.412516 C631.197765 1576.326324 617.534653 1588.240132 603.871542 1600.153941 C586.711122 1615.117292 568.220106 1632.720935 567.285388 1655.469741 C566.767213 1668.080922 571.890434 1680.159552 576.914942 1691.738184 C586.333541 1713.442692 595.752140 1735.147201 605.170739 1756.851710 C631.721682 1723.529600 662.738328 1693.770318 697.130055 1668.620274 C676.417067 1697.201766 655.704079 1725.783259 634.991091 1754.364752 C630.423051 1760.668110 625.638202 1767.681811 626.165882 1775.448462 C630.015357 1832.106908 633.864832 1888.765354 637.714307 1945.423800 C654.442978 1918.634945 676.541330 1888.675148 708.123844 1888.485415 C710.590744 1824.908476 713.057645 1761.331537 715.524545 1697.754597 C716.203869 1680.247071 717.097828 1661.958941 725.816740 1646.761720 C718.131837 1652.229322 710.446934 1657.696924 702.762030 1663.164526 C702.892796 1650.441789 703.339026 1636.798729 710.842330 1626.523246 C718.345634 1616.247762 735.727618 1612.431589 743.500201 1622.504924 C740.536485 1629.358961 737.572769 1636.212998 734.609053 1643.067036 C731.187806 1735.505420 727.766559 1827.943804 724.345313 1920.382189 C723.015237 1956.319381 721.816963 1993.209457 733.447906 2027.238445 C770.645178 2024.606251 807.842450 2021.974057 845.039722 2019.341863 C860.987313 1913.518417 865.440634 1805.966730 858.296155 1699.187126 C858.035520 1695.291746 863.111811 1693.643662 866.999618 1693.287472 C922.663484 1688.187704 978.327350 1683.087936 1033.991217 1677.988168 C1037.523970 1677.664507 1041.137829 1677.346538 1044.577144 1678.216143 C1059.781644 1682.060486 1060.444118 1703.150233 1058.152922 1718.664942 C1044.239183 1812.881090 1047.060252 1909.544241 1066.444937 2002.788590 C1093.656238 2008.290689 1121.046687 1997.136693 1148.052374 1990.700789 C1175.058061 1984.264886 1207.885036 1984.377458 1225.457495 2005.870169 C1209.612082 2025.455646 1182.190756 2031.337554 1156.998183 2031.384913 C1131.805609 2031.432273 1106.389320 2026.975480 1081.570853 2031.301182 C972.053524 2050.389360 860.148972 2055.739239 749.310164 2047.185739 C718.150478 2044.781127 695.937860 2075.710701 680.435606 2102.847177 C662.246853 2134.686330 643.834416 2167.080973 635.368759 2202.758628 C632.797477 2213.595034 630.626003 2225.606442 622.032020 2232.690413 C614.560525 2238.849123 604.153701 2239.606100 594.481825 2240.061909 C450.824618 2246.832067 306.865225 2247.186850 163.176394 2241.124845 C152.888291 2240.690807 149.614854 2227.191173 149.292395 2216.898969 C148.242698 2183.394142 147.192993 2149.889318 146.143288 2116.384495 C144.476194 2063.173639 142.820204 2009.704289 149.437094 1956.880137 C154.628179 1915.438512 164.648644 1871.886327 149.153050 1833.101767 C147.446189 1828.829598 145.413523 1824.548339 145.207831 1819.952420 C144.959721 1814.408729 147.395112 1809.135904 149.828360 1804.148583 C175.801967 1750.911619 207.929601 1700.680202 245.366516 1654.775084 C242.469698 1644.284238 251.070832 1634.408179 259.051764 1627.008574 C284.099382 1603.785436 310.184331 1581.681178 337.202780 1560.783793 C348.837595 1568.093539 338.784800 1585.845946 328.441205 1594.890907 C306.723217 1613.882185 285.005235 1632.873466 263.287254 1651.864747 M513.078955 1998.534459 C521.037504 1998.405865 528.892613 1996.848424 536.775568 1995.746576 C556.858592 1992.939449 577.352518 1993.089814 597.392191 1996.191323 C612.404464 1983.094939 615.018834 1961.038055 615.666504 1941.126648 C616.927540 1902.358370 614.629808 1863.475059 608.811621 1825.125113 C608.019304 1819.902643 607.071059 1814.467572 603.922885 1810.225997 C597.078219 1801.004089 583.444411 1801.257937 572.019005 1802.421173 C527.893933 1806.913625 483.768863 1811.406069 439.643794 1815.898514 C423.337863 1817.558647 407.031932 1819.218780 390.726002 1820.878913 C323.143539 1827.759592 255.561077 1834.640271 187.978614 1841.520951 C180.043327 1842.328855 177.260489 1852.324978 176.460530 1860.261070 C171.779157 1906.703170 168.620298 1953.298725 166.990736 1999.947716 C166.706547 2008.083097 166.844722 2017.222812 172.612272 2022.967421 C173.982900 2021.657657 174.640102 2019.642533 174.305201 2017.776538 C197.329690 2024.522137 221.827002 2023.667016 245.765686 2022.064004 C274.394579 2020.146921 302.957376 2017.242948 331.386296 2013.358977 C371.045721 2007.940691 410.705146 2002.522404 450.364570 1997.104118 C458.726422 1995.961718 467.132634 1994.816721 475.569193 1995.040581 C488.132761 1995.373949 500.512606 1998.737505 513.078955 1998.534459 M542.138099 2216.227591 C550.539581 2216.607600 559.761593 2218.395291 566.746299 2213.710935 C575.811799 2207.631065 591.386805 2218.346831 597.764543 2209.488356 C610.043155 2192.433758 617.431448 2171.899331 618.833391 2150.931303 C619.624869 2139.093626 618.551313 2127.219444 617.478674 2115.403925 C614.520522 2082.818784 611.562369 2050.233643 608.604217 2017.648501 C597.140844 2019.134428 585.677471 2020.620356 574.214098 2022.106283 C559.293044 2024.040408 544.307556 2025.978349 529.263999 2025.713638 C519.159120 2025.535829 509.095415 2024.364441 498.994477 2024.030926 C481.305223 2023.446856 463.643220 2025.434113 446.055882 2027.418149 C419.442978 2030.420363 392.830074 2033.422576 366.217171 2036.424790 C349.547189 2038.305338 332.877207 2040.185887 316.207225 2042.066435 C307.888136 2043.004915 299.569047 2043.943395 291.249958 2044.881875 C251.110789 2049.409993 210.971619 2053.938111 170.832450 2058.466229 C168.754529 2084.357005 170.484513 2110.550246 175.949542 2135.942834 C177.847225 2144.760178 177.517921 2153.884829 177.179512 2162.897722 C176.691276 2175.900962 176.203041 2188.904203 175.714806 2201.907443 C175.415367 2209.882438 185.897503 2212.932053 193.863854 2213.408962 C217.628419 2214.831630 241.392983 2216.254300 265.157547 2217.676970 C275.226690 2218.279761 285.295832 2218.882553 295.364975 2219.485344 C302.567986 2219.916553 309.771075 2220.347767 316.977057 2220.726118 C385.881456 2224.343946 455.039642 2223.119719 523.772828 2217.065451 C529.882182 2216.527316 536.011355 2215.950470 542.138099 2216.227589 M1060.863299 2008.517656 C1060.347077 2006.101512 1057.254786 2005.200452 1054.824124 2005.643307 C1052.393462 2006.086161 1050.132532 2007.375802 1047.663999 2007.478671 C1043.316761 2007.659828 1039.574711 2003.993090 1038.148526 1999.882460 C1036.722341 1995.771830 1037.066823 1991.290322 1037.312373 1986.946247 C1038.420492 1967.342552 1037.145556 1947.605274 1033.524560 1928.307059 C1030.834304 1913.969256 1026.841982 1899.764253 1026.424251 1885.182224 C1026.219706 1878.042044 1026.877807 1870.909033 1027.476871 1863.791089 C1031.850576 1811.823667 1033.108733 1759.594213 1031.242336 1707.476473 C983.356619 1705.576196 935.264340 1708.926915 888.104794 1717.449252 C883.851090 1718.217951 882.740109 1723.715294 882.584054 1728.035079 C881.018899 1771.361303 879.453739 1814.687524 877.888578 1858.013746 C877.518794 1868.249994 877.149009 1878.486242 876.779224 1888.722489 C876.421633 1898.621206 876.064042 1908.519923 875.706450 1918.418639 C874.579081 1949.626086 873.451582 1980.836336 871.663024 2012.012878 C871.432046 2016.039081 871.598576 2020.893423 875.050229 2022.979028 C876.737354 2023.998445 878.815140 2024.051192 880.786198 2024.074102 C925.556755 2024.594496 970.542305 2024.654107 1014.815429 2017.978479 C1030.317436 2015.641042 1045.695454 2012.481532 1060.863299 2008.517656 M416.536265 1789.839179 C450.514528 1787.088307 484.509633 1784.545456 518.519031 1782.210820 C538.273256 1780.854755 558.099034 1779.568666 577.859158 1780.835868 C581.505813 1781.069725 582.160167 1775.695499 581.327947 1772.137382 C575.607924 1747.681726 566.245536 1724.081274 553.645061 1702.355121 C547.545950 1691.838832 540.160192 1681.287098 529.166058 1676.098602 C526.886027 1675.022580 524.476734 1674.197050 521.987481 1673.797069 C518.793376 1673.283829 515.533229 1673.477355 512.303515 1673.663544 C464.711401 1676.407188 417.010077 1677.255880 369.350486 1676.206936 C331.032659 1675.363596 292.648941 1677.531605 254.669790 1682.684392 C245.269956 1693.901426 236.986652 1705.999981 228.720010 1718.076460 C216.027806 1736.618104 203.335603 1755.159748 190.643399 1773.701392 C183.101542 1784.719055 175.193482 1797.388462 177.876014 1810.467931 C178.190854 1812.003006 178.701667 1813.591216 179.873439 1814.631658 C181.655660 1816.214129 184.337572 1816.050779 186.706754 1815.790982 C230.667308 1810.970422 274.492635 1804.916750 318.113838 1797.639481 C320.835082 1797.185500 323.603766 1796.725523 326.339541 1797.081613 C330.222218 1797.586991 334.159025 1797.191458 338.055189 1796.803534 C364.189507 1794.201455 390.358379 1791.958535 416.536265 1789.839179 M652.256068 2110.508992 C661.147965 2078.809466 696.200088 2058.570579 701.596136 2026.092764 C702.535732 2020.437526 702.500840 2014.671413 702.463433 2008.938772 C702.244368 1975.367247 702.025304 1941.795722 701.806240 1908.224196 C678.920097 1928.068364 659.013869 1951.343208 642.958936 1977.029890 C640.175388 1981.483355 637.445721 1986.182187 636.824333 1991.397105 C630.959416 2040.617750 630.267672 2090.453211 634.764175 2139.817678 C643.043097 2131.819952 649.147148 2121.592258 652.256068 2110.508992 M651.530047 2131.346151 C653.084010 2130.268143 653.561860 2127.909029 652.549884 2126.311278 C650.103117 2126.408952 649.232312 2130.494777 651.426629 2131.581597 M626.984123 2088.897534 C626.388693 2088.054540 624.738157 2088.874142 625.049888 2089.858012 C625.875753 2090.691638 626.701617 2091.525265 627.527481 2092.358892 C628.391874 2091.348374 628.143525 2089.596605 627.032317 2088.866169 M659.082641 1702.898774 C658.487457 1703.350076 659.495911 1704.312861 660.135940 1703.927791 C660.775970 1703.542721 660.860450 1702.665180 660.873658 1701.918358 C660.382036 1701.041219 658.701664 1701.931573 659.151335 1702.830937 z"/><path class="selected" fill="#000000" opacity="1.000000" stroke="none" d=" M487.841297 691.927692 C488.167320 697.048444 488.493344 702.169195 488.819367 707.289946 C489.351040 715.640759 489.882712 723.991572 490.414384 732.342385 C491.907891 755.800434 493.399510 779.385832 491.027798 802.771419 C490.593242 807.056228 486.513444 809.917134 482.734741 811.983492 C470.288888 818.789424 456.713587 823.524169 442.734677 825.934573 C422.225009 829.471085 401.222387 828.003556 380.462613 826.525316 C363.922870 825.347572 347.383127 824.169828 330.843384 822.992084 C312.978104 821.719952 294.767014 820.474594 277.371853 824.740143 C270.742693 826.365711 264.232414 828.790676 257.416015 829.144156 C250.599617 829.497636 243.126814 827.298668 239.376527 821.595723 C236.413062 817.089271 236.302592 811.342040 236.422705 805.949842 C237.214092 770.422454 243.696601 734.827712 239.534571 699.536084 C237.548880 682.698573 241.416365 665.806790 243.947965 649.042671 C250.705687 604.293408 247.972714 558.719431 245.223884 513.546350 C245.093014 511.395684 244.934294 509.151148 243.828657 507.301808 C241.984496 504.217175 237.950233 502.956301 236.145631 499.848359 C233.807532 495.821615 236.445697 490.384154 240.477835 488.055369 C244.509973 485.726585 249.411136 485.662540 254.067439 485.647843 C322.291887 485.432510 390.507346 482.387094 458.479565 476.522054 C466.673800 475.815008 474.988644 475.038943 482.661700 472.077590 C489.765181 481.374319 481.389239 495.372829 485.529241 506.315818 C486.727841 509.484001 488.946984 512.250185 489.710688 515.550303 C490.531495 519.097169 489.570661 522.781578 488.711199 526.319276 C482.500978 551.881617 481.426295 578.680539 485.569675 604.658077 C486.661845 611.505598 488.040756 618.881234 484.954267 625.090498 C482.228750 619.893807 476.777900 616.228317 470.937005 615.664420 C477.708419 618.089883 480.374804 626.103719 481.845011 633.144557 C484.866699 647.615458 486.588990 662.357429 486.984392 677.135156 C483.675867 676.869434 480.367341 676.603711 477.058815 676.337989 C484.132182 675.201446 487.386102 684.778072 487.841299 691.927692 M259.264880 772.447111 C259.394792 780.553159 259.524704 788.659206 259.654617 796.765254 C259.709870 800.212885 261.819028 805.073172 264.927077 803.580107 C284.141874 794.349582 306.679041 797.474518 327.862877 799.852774 C351.586154 802.516128 375.443794 803.982302 399.314674 804.243852 C416.344236 804.430444 433.571233 803.978631 450.037718 799.631719 C457.629052 797.627718 463.167239 790.762612 465.713115 783.335441 C468.258991 775.908270 468.307016 767.891065 468.328502 760.039702 C468.426375 724.275273 468.524248 688.510843 468.622121 652.746414 C472.588779 653.255823 476.555437 653.765231 480.522095 654.274639 C476.352108 643.409199 472.182121 632.543759 468.012133 621.678320 C466.608460 618.020867 465.180225 614.189845 465.602179 610.295078 C467.330046 594.346361 469.057912 578.397645 470.785778 562.448929 C471.523572 555.638884 472.255212 548.689605 470.817572 541.992274 C469.287932 534.866361 465.322669 527.998283 466.297880 520.775583 C466.736471 517.527243 468.172453 514.426689 468.194503 511.148947 C468.216553 507.871206 466.005243 504.144673 462.729800 504.269348 C434.669169 505.337438 406.608538 506.405529 378.547906 507.473620 C350.601940 508.537346 322.655973 509.601073 294.710006 510.664799 C285.970630 510.997452 277.016541 511.302087 268.699413 508.597877 C266.572207 542.182628 267.520332 575.961542 271.528055 609.374095 C271.695019 610.766089 271.910625 612.255155 272.858770 613.287892 C274.243978 614.796684 276.594414 614.752904 278.636570 614.595248 C308.900408 612.258791 339.164245 609.922341 369.428082 607.585892 C377.361077 606.973443 385.294071 606.360995 393.227066 605.748547 C408.349831 604.581028 423.488310 603.411752 438.487451 601.156341 C447.695759 599.771694 457.042666 608.330291 456.472620 617.624657 C455.902573 626.919023 445.579818 634.271231 436.609738 631.771659 C424.868555 628.499899 412.415486 629.515630 400.271591 630.557570 C384.101380 631.944967 367.931169 633.332363 351.760958 634.719759 C325.385749 636.982740 298.875250 639.267864 273.203693 645.728816 C270.249240 646.472385 267.133282 647.375077 265.104477 649.647881 C262.985409 652.021803 262.492715 655.391331 262.139420 658.553788 C259.699631 680.393227 259.503399 702.413708 259.309822 724.388152 C259.266533 729.301984 259.223246 734.215815 259.179959 739.129647 C259.118523 746.103630 259.057087 753.077953 259.104412 760.052047 C259.132451 764.184002 259.198666 768.315592 259.264880 772.447111 M261.535793 495.452417 C259.609802 494.874180 258.674366 498.516385 260.532865 499.284359 C262.391364 500.052332 264.465743 497.808017 264.027121 495.845515 C263.298791 495.380392 262.385139 495.215013 261.539978 495.395317 M376.173652 819.962158 C375.544301 820.916348 376.422273 822.429544 377.562999 822.356718 C378.303807 820.436403 378.292238 818.236981 377.531267 816.324566 C376.062657 816.105214 375.800115 818.366381 376.201639 819.795962 z"/><path class="selected" fill="#000000" opacity="1.000000" stroke="none" d=" M1019.600027 1154.204241 C1016.908103 1155.278764 1018.597406 1159.309152 1020.427161 1161.557051 C1029.904239 1173.199824 1033.211659 1189.593454 1028.990038 1203.999945 C1031.694871 1203.139808 1033.418495 1206.828936 1033.845497 1209.634935 C1038.532690 1240.436419 1043.219885 1271.237902 1047.907079 1302.039385 C1048.187139 1303.879774 1048.459380 1305.811226 1047.828024 1307.562470 C1046.472482 1311.322445 1041.829766 1312.495901 1037.882464 1313.123367 C1031.620405 1314.118787 1022.695497 1313.128383 1022.377758 1306.795667 C1019.250711 1244.471795 1013.420009 1182.283634 1004.907547 1120.464693 C972.263900 1120.799787 939.278791 1121.175925 907.568565 1128.933603 C901.924813 1130.314306 896.253861 1131.937022 890.443718 1131.914132 C866.213336 1131.818669 841.972493 1134.787995 818.481531 1140.728975 C807.217842 1143.577618 794.447496 1135.015649 792.805060 1123.514003 C798.593218 1116.631590 808.429111 1115.136516 817.362627 1114.105658 C862.362649 1108.913009 907.362671 1103.720360 952.362693 1098.527711 C966.300594 1096.919387 980.506404 1095.319764 994.272065 1098.032398 C1000.561365 1099.271755 1003.012230 1090.166506 1002.629478 1083.767694 C1000.781998 1052.881753 998.934519 1021.995812 997.087039 991.109872 C996.783718 986.038979 996.443266 980.819546 994.239619 976.242440 C992.035973 971.665335 987.483724 967.833819 982.408856 968.061117 C957.745945 969.165743 933.104027 970.739060 908.500892 972.779934 C873.685605 975.667923 838.870318 978.555912 804.055032 981.443901 C797.989012 981.947088 790.645297 981.852630 787.409320 976.697221 C784.522481 972.098046 786.910135 965.664779 791.204963 962.342023 C795.499790 959.019267 801.112233 958.045385 806.488983 957.285899 C868.245404 948.562570 931.610623 954.354178 992.860288 942.588526 C999.212425 941.368323 1006.705030 940.270863 1011.346697 944.775690 C1015.169803 948.486087 1015.344645 954.458017 1015.306076 959.785464 C1015.088647 989.817396 1016.146076 1019.858532 1018.474561 1049.800849 C1019.169499 1058.737152 1019.864437 1067.673454 1020.559374 1076.609757 C1020.892682 1080.895801 1022.700877 1086.537590 1026.985115 1086.181829 C1032.417777 1085.730700 1034.678203 1093.630775 1032.333239 1098.552001 C1029.988276 1103.473228 1025.261060 1107.032525 1023.313179 1112.123997 C1020.603712 1119.206136 1023.925036 1126.966135 1025.731755 1134.330487 C1027.538473 1141.694838 1026.642447 1151.393149 1019.600027 1154.204241 M1015.330344 1143.812811 C1015.977957 1147.098292 1019.856272 1149.323961 1023.019698 1148.225543 C1022.790138 1144.470266 1019.217837 1141.242393 1015.458582 1141.393443 C1015.261859 1142.203688 1015.065136 1143.013933 1014.868414 1143.824179 M1018.123094 1189.734433 C1020.350442 1189.119256 1021.616898 1186.249813 1020.570331 1184.189662 C1018.614125 1184.527132 1017.358715 1186.979407 1018.228704 1188.763711 M842.533420 963.363973 C841.199601 963.363362 839.865781 963.362752 838.531961 963.362141 C837.889355 964.361659 838.429137 965.902559 839.554998 966.282579 C840.743010 965.607227 841.931018 964.931879 843.119026 964.256530 M822.930875 973.998652 C824.261042 974.842830 825.849873 972.269838 824.499325 971.458666 C823.500547 970.822567 822.869331 972.688246 823.131773 973.842933 z"/><path class="selected" fill="#000000" opacity="1.000000" stroke="none" d=" M909.343206 487.858974 C907.087524 487.640252 904.899006 488.547465 902.729128 489.201353 C896.561555 491.059938 889.994476 490.925917 883.554701 490.775621 C857.425331 490.165796 831.295961 489.555972 805.166591 488.946147 C806.320691 515.268089 807.472772 541.687004 805.055207 567.923085 C804.227011 576.910908 803.754781 587.743079 811.108968 592.975936 C815.804703 596.317178 822.084846 596.006547 827.830460 595.557393 C883.242122 591.225672 938.653784 586.893951 994.065446 582.562231 C1003.178251 581.849851 1012.376077 572.589958 1020.022210 577.598685 C1022.381322 579.144060 1025.761869 577.478751 1027.033702 574.961603 C1028.305535 572.444455 1028.073819 569.463049 1027.811624 566.655052 C1025.977447 547.011889 1024.143272 527.368726 1022.309096 507.725563 C1025.263484 508.740670 1028.818207 509.284043 1031.277985 507.358338 C1033.737763 505.432633 1033.023986 500.346985 1029.900072 500.350028 C1030.294844 497.719850 1033.260516 495.796328 1035.823059 496.508404 C1039.060274 506.990359 1036.669137 519.034408 1029.673243 527.484757 C1037.479879 530.398239 1040.595136 539.567094 1042.741617 547.618465 C1047.318924 564.787777 1051.776657 583.649970 1044.292001 599.765705 C1043.214998 602.084675 1045.313576 604.515297 1046.842425 606.564730 C1048.371274 608.614164 1048.928292 612.344599 1046.470549 613.049621 C1044.811298 612.591137 1043.152046 612.132652 1041.492795 611.674167 C1040.313613 615.080958 1045.080305 618.666448 1048.026501 616.588798 C1045.499256 624.935145 1042.972011 633.281492 1040.444766 641.627839 C1043.888391 640.247486 1048.286283 642.250173 1049.505782 645.753992 C1042.692916 655.086115 1040.271636 667.489163 1043.074483 678.698432 C1038.441784 675.573152 1038.218075 668.972289 1038.338856 663.385278 C1038.697104 646.813587 1037.813671 630.215193 1035.698407 613.775153 C1035.483217 612.102674 1035.236092 610.376261 1034.351457 608.940673 C1032.182591 605.421029 1027.302237 605.042980 1023.168144 605.076974 C1008.007935 605.201642 992.850087 605.613340 977.705462 606.311774 C925.396245 608.724152 873.311811 614.552882 821.272005 620.378019 C818.390541 620.700559 815.381334 621.068636 812.982628 622.697462 C808.743181 625.576231 807.774406 631.305255 807.176201 636.394693 C806.024004 646.197400 804.871807 656.000108 803.719611 665.802815 C805.343439 699.377750 806.967267 732.952686 808.591095 766.527621 C808.783554 770.506989 809.257886 775.038013 812.473021 777.390739 C814.781556 779.080045 817.863553 779.125318 820.724074 779.102886 C883.916084 778.607337 947.108092 778.111790 1010.300101 777.616242 C1019.465552 777.544367 1030.393936 776.473223 1034.756923 768.412516 C1036.228699 765.693379 1036.672948 762.553168 1037.069123 759.486756 C1040.105227 735.987157 1041.744631 712.307186 1041.975805 688.613396 C1042.027445 683.320627 1043.584990 676.274189 1048.875194 676.101527 C1053.540532 675.949260 1055.947176 681.513671 1057.074164 686.043401 C1059.284631 694.927985 1061.495099 703.812569 1063.705566 712.697153 C1061.999526 719.951973 1061.798441 727.464285 1061.605070 734.914492 C1061.182817 751.183022 1060.760565 767.451552 1060.338313 783.720081 C1060.194359 789.266319 1055.906948 794.029161 1050.879995 796.376759 C1045.853042 798.724356 1040.165857 799.119654 1034.626385 799.429042 C1011.866376 800.700221 989.069190 801.143780 966.278022 801.587118 C940.125973 802.095833 913.973924 802.604547 887.821875 803.113261 C874.695722 803.368594 861.569568 803.623926 848.443414 803.879258 C832.321510 804.192864 816.199605 804.506471 800.077701 804.820077 C794.899196 804.920810 788.899975 804.645043 785.782352 800.508924 C783.627846 797.650558 783.561590 793.783466 783.585617 790.204141 C783.751729 765.458485 783.920235 740.667225 786.459229 716.051609 C787.145672 709.396528 788.005558 702.751707 788.274676 696.066732 C788.695300 685.618310 787.669773 675.173644 786.832188 664.750358 C784.881784 640.478665 783.945594 616.125493 784.026879 591.775697 C784.055663 583.153139 784.211956 574.531573 784.368244 565.910383 C784.828246 540.535794 785.288248 515.161204 785.748250 489.786614 C785.821692 485.735400 786.523114 480.746778 790.328462 479.354995 C794.870141 477.693902 801.054882 482.497619 804.227607 478.847977 C801.159622 477.291777 801.637333 472.336732 804.287637 470.143521 C806.937941 467.950310 810.656289 467.744692 814.094927 467.644440 C872.749943 465.934371 931.435790 465.627306 990.114926 465.320352 C1001.779169 465.259335 1013.443412 465.198319 1025.107655 465.137303 C1031.077831 465.106072 1038.186908 465.693902 1041.148673 470.877716 C1034.256585 472.834723 1037.617050 484.287705 1032.799046 489.590303 C1030.160345 492.494403 1025.759794 492.755172 1021.836113 492.790640 C984.286516 493.130069 946.719041 491.483119 909.343206 487.858974 M839.571944 794.249626 C841.046483 794.969619 842.883225 793.502957 842.996532 791.865942 C841.140253 790.552432 838.754373 790.011668 836.513170 790.396474 C835.215201 792.146252 837.466570 795.050408 839.484635 794.229520 M878.529830 478.381087 C880.025019 478.341269 881.453598 477.356672 882.022972 475.973563 C880.017778 474.401452 876.561193 475.509974 875.844305 477.955055 C876.727265 478.139070 877.610224 478.323085 878.493183 478.507099 M797.051780 676.859678 C796.936331 674.915260 794.879414 673.326490 792.968913 673.706057 C793.091622 675.684301 795.065038 677.348342 797.035587 677.135200 z"/><path class="selected" fill="#000000" opacity="1.000000" stroke="none" d=" M255.926717 313.954172 C251.399716 319.809136 244.749309 326.358382 237.774306 323.883776 C232.417037 321.983113 230.147514 314.920729 232.277200 309.650314 C234.406886 304.379899 239.837031 301.005486 245.412257 299.896569 C241.741355 294.172538 247.756858 285.294300 254.433905 286.581585 C274.967543 260.096299 296.191143 234.145935 318.075924 208.765685 C325.000983 200.734545 333.881869 192.003607 344.383890 193.474400 C348.858427 194.101053 353.428050 197.420065 353.502375 201.937658 C353.538950 204.160793 352.501120 206.245809 351.444533 208.202155 C346.244238 217.830873 339.958407 226.872786 332.744373 235.101577 C329.617793 238.667955 325.481020 242.384526 320.804802 241.592353 C315.591727 240.709229 311.254046 245.578441 308.826082 250.275358 C306.398118 254.972274 304.282478 260.460593 299.492543 262.699466 C293.461665 265.518375 289.158205 270.974464 285.086175 276.240995 C275.366355 288.812053 265.646535 301.383112 255.926715 313.954171 M326.544398 229.493710 C322.976874 229.790400 320.973459 234.908454 323.391558 237.548161 C325.722388 235.547647 327.066081 232.447708 326.932548 229.378994 z"/><path class="selected" fill="#000000" opacity="1.000000" stroke="none" d=" M664.892236 326.466434 C659.902102 327.152215 655.759696 321.801845 655.736632 316.764860 C655.713567 311.727876 658.494934 307.160118 661.183403 302.900555 C667.896482 292.264473 674.609561 281.628390 681.322640 270.992308 C683.781777 267.096097 686.706622 262.861465 691.211874 261.896832 C693.825693 261.337180 695.399181 258.741775 696.696265 256.404505 C709.330333 233.638586 724.995726 212.557352 743.148704 193.892516 C747.726144 189.186007 749.808932 182.501200 754.324348 177.735153 C758.839764 172.969106 768.105554 171.393582 771.130160 177.220755 C773.618507 182.014775 769.943489 187.581731 766.468000 191.716398 C748.251454 213.387986 730.034908 235.059574 711.818361 256.731162 C707.006150 262.456081 702.155595 268.237376 698.666469 274.852364 C690.735677 289.888248 682.271744 304.642915 673.295920 319.079323 C671.257809 322.357352 668.716265 325.940908 664.892236 326.466434 z"/><path class="selected" fill="#000000" opacity="1.000000" stroke="none" d=" M791.779415 1263.677736 C790.944171 1267.801579 789.231588 1271.807420 789.296360 1276.014500 C789.361132 1280.221579 792.044491 1284.874653 796.243315 1285.145928 C829.934118 1287.322588 863.852649 1285.957725 897.259634 1281.081086 C906.577285 1279.720927 915.852820 1278.088944 925.126769 1276.457217 C942.318735 1273.432335 959.567998 1270.393671 976.223027 1265.166468 C982.225835 1263.282478 988.403316 1261.087294 994.646344 1261.866867 C1000.889371 1262.646441 1007.157816 1267.554199 1006.995452 1273.843616 C1006.773493 1282.441440 996.258979 1286.246289 987.800014 1287.801187 C934.713869 1297.559297 881.487871 1307.335316 827.635181 1310.974966 C813.970084 1311.898525 800.182618 1312.439263 786.869203 1315.654976 C780.360434 1317.227100 773.265477 1313.317492 770.148417 1307.391314 C767.031357 1301.465135 767.523994 1294.071299 770.381427 1288.015662 C772.349178 1283.845486 775.451591 1279.425776 773.949551 1275.066155 C767.537365 1256.455033 766.368901 1236.068360 770.612680 1216.846490 C771.864093 1211.178316 772.243809 1205.358474 772.581324 1199.563622 C776.628412 1130.078516 775.134066 1060.271399 768.117140 991.023138 C767.558285 985.507936 773.617086 980.905430 779.113564 981.625505 C784.610041 982.345579 788.935099 987.015618 790.884300 992.205068 C792.833500 997.394518 792.851728 1003.079413 792.845600 1008.622854 C792.801777 1048.265710 792.757953 1087.908566 792.714130 1127.551422 C792.693738 1145.998466 792.673346 1164.445509 792.652953 1182.892552 C792.649146 1186.336806 792.645338 1189.781060 792.641531 1193.225313 C792.619927 1212.768000 792.598324 1232.310687 792.576720 1251.853373 C792.572346 1255.810717 792.564986 1259.799145 791.779417 1263.677736 M781.390563 1166.315229 C781.024995 1167.858579 782.066602 1169.597331 783.599850 1170.003187 C785.133099 1170.409043 786.898530 1169.413323 787.344395 1167.891227 C785.395530 1167.436951 783.446662 1166.982672 781.497794 1166.528392 z"/><path class="selected" fill="#000000" opacity="1.000000" stroke="none" d=" M941.111166 243.852551 C940.905190 241.560473 940.159471 239.293333 940.400983 237.004726 C940.642494 234.716120 942.374774 232.306988 944.671770 232.447910 C947.759327 232.637337 949.893178 229.312801 950.498357 226.279215 C951.103537 223.245629 950.966488 219.917258 952.678944 217.341141 C954.705702 214.292202 958.645941 213.276762 961.630338 211.156113 C966.697028 207.555832 968.643371 201.113265 971.222022 195.457831 C973.800674 189.802398 978.414590 183.937489 984.627931 184.104138 C986.273456 184.148272 987.932001 184.656982 989.210393 185.694003 C991.886285 187.864667 992.356607 191.921904 991.247752 195.184208 C990.138898 198.446511 987.774636 201.103359 985.468441 203.663368 C979.586789 210.192341 973.705137 216.721313 967.823485 223.250285 C961.285205 230.508151 954.701971 237.826428 949.705843 246.220737 C943.422065 256.778507 939.370143 269.339657 929.515915 276.677679 C929.518019 274.062631 925.629409 273.885408 923.522956 272.335785 C920.496499 270.109355 921.853739 265.034285 924.764673 262.658807 C927.675607 260.283330 931.546978 259.426487 934.669348 257.336694 C939.013513 254.429158 941.579036 249.058955 941.111166 243.852551 M928.083215 268.869626 C927.844057 269.698370 927.991641 270.630225 928.475180 271.344511 C929.647952 269.841544 930.820723 268.338577 931.993494 266.835609 C930.564185 265.686854 928.010777 267.040051 928.158882 268.867789 z"/><path class="selected" fill="#000000" opacity="1.000000" stroke="none" d=" M230.104039 1052.609744 C229.474188 1048.670790 228.844337 1044.731836 228.214486 1040.792882 C230.949541 1041.633796 234.162116 1039.301824 234.209986 1036.440815 C229.183633 1037.849991 224.764603 1032.308086 223.966295 1027.149336 C223.167987 1021.990586 224.297096 1016.531820 222.541125 1011.615870 C221.277939 1008.079502 227.286409 1003.873461 224.569206 1001.281483 C222.533206 999.339313 224.123282 995.568001 226.736801 994.525486 C229.350320 993.482971 232.296081 994.272511 234.994613 995.069535 C235.734833 995.288162 236.488345 995.512951 237.127264 995.945973 C238.454615 996.845574 239.057335 998.462084 239.632745 999.958763 C241.907984 1005.876840 244.951468 1011.499058 248.662703 1016.639785 C253.190674 1022.911835 253.692362 1031.839623 249.895583 1038.579474 C248.013215 1036.584648 245.531146 1035.163134 242.858046 1034.548984 C240.876556 1038.232946 242.015077 1042.716422 242.649556 1046.851070 C243.284034 1050.985718 242.935699 1056.035958 239.343851 1058.179905 C236.412548 1059.929577 232.079651 1058.499069 230.766320 1055.348030 C230.404144 1054.479071 230.252685 1053.539348 230.104039 1052.609744 z"/><path class="selected" fill="#000000" opacity="1.000000" stroke="none" d=" M1024.404424 1162.450854 C1023.641306 1161.278344 1022.878189 1160.105834 1022.115071 1158.933324 C1022.598708 1158.040033 1023.082346 1157.146742 1023.565984 1156.253451 C1025.163755 1156.297821 1026.738618 1157.448188 1027.032125 1159.019399 C1027.325633 1160.590609 1026.068362 1162.343735 1024.470029 1162.357289 z"/><path class="selected" fill="#000000" opacity="1.000000" stroke="none" d=" M245.660110 1054.354746 C245.744413 1052.978744 247.329305 1051.919132 248.633069 1052.367114 C249.679310 1054.413451 248.645997 1057.246539 246.527970 1058.138775 C245.752171 1057.729519 244.921344 1057.262667 244.573695 1056.457377 C244.226046 1055.652088 244.727848 1054.466764 245.603641 1054.515119 z"/><path class="selected" fill="#000000" opacity="1.000000" stroke="none" d=" M251.981315 1042.870849 C251.539181 1044.423968 248.557397 1043.345282 249.211263 1041.868759 C250.122185 1041.179359 251.679239 1041.820174 251.841021 1042.951050 z"/><path class="selected" fill="#000000" opacity="1.000000" stroke="none" d=" M869.652968 187.447623 C872.089345 183.184876 875.038690 178.523244 879.818092 177.398847 C884.212547 176.365011 889.163088 179.221617 890.467072 183.543616 C891.906518 188.314597 889.235846 193.287791 886.417227 197.397493 C880.079799 206.637816 872.459288 214.996830 863.842882 222.159517 C858.829178 226.327333 860.003147 234.818196 855.517856 239.550011 C852.968556 235.266264 850.419256 230.982516 847.869956 226.698769 C847.361380 225.844177 846.876288 224.675732 847.552742 223.946770 C851.271443 219.939417 849.290645 212.040917 854.066460 209.380239 C855.605585 208.522766 857.703718 208.354329 858.577993 206.824685 C862.269651 200.365665 865.961309 193.906644 869.652968 187.447623 z"/></svg>