<?xml version="1.0" standalone="no"?>
<!DOCTYPE svg PUBLIC "-//W3C//DTD SVG 1.1//EN" "http://www.w3.org/Graphics/SVG/1.1/DTD/svg11.dtd">
<svg xmlns="http://www.w3.org/2000/svg" xmlns:xlink="http://www.w3.org/1999/xlink" version="1.1" id="Contours" x="0px" y="0px" width="1612.1544189453125" height="1662.239501953125" viewBox="-0.000003 0.000001 1612.154419 1662.239502" enable-background="new 0 0 1612.154419 1612.154419" xml:space="preserve" stroke="black" fill="none" stroke-linecap="round" stroke-linejoin="round"><path class="selected" fill="#000000" opacity="1.000000" stroke="none" d=" M756.277169 769.688148 C751.623983 754.232792 753.692431 737.664567 755.578076 721.634454 C764.085393 649.312664 768.022656 576.453603 767.358582 503.636196 C767.308786 498.175934 767.231359 492.693723 766.385217 487.299190 C765.164500 479.516621 762.344543 471.808374 763.222078 463.979679 C764.099613 456.150985 770.638384 448.067038 778.415037 449.324895 C809.808619 454.402737 841.954028 454.086556 873.477106 449.886903 C883.292794 448.579211 893.694436 446.971001 902.769337 450.933823 C903.387727 451.203861 904.013580 451.511972 904.456313 452.021200 C905.261326 452.947121 905.281088 454.297201 905.258452 455.523930 C904.627924 489.693804 903.997398 523.863678 903.366872 558.033552 C903.263970 563.610065 903.160995 569.188487 902.827471 574.755968 C900.652612 611.060628 888.740811 647.672748 896.846449 683.127747 C899.247853 693.631763 897.839793 704.586242 896.421382 715.267497 C893.006467 740.983304 889.591553 766.699111 886.176638 792.414919 C885.042413 800.956133 882.520044 811.213970 874.257546 813.657316 C871.517126 814.467693 868.590587 814.205864 865.742622 813.969862 C835.453910 811.459929 804.854879 812.717756 774.874359 817.705160 C765.646855 819.240203 753.027809 819.135279 750.607518 810.099496 C749.849025 807.267764 750.464507 804.271046 751.081754 801.405211 C752.672199 794.020895 754.262643 786.636579 755.853088 779.252263 C756.532659 776.097072 757.207639 772.778662 756.277171 769.688148 M782.874986 579.943033 C782.628778 586.264460 782.382571 592.585886 782.136364 598.907313 C780.958455 629.150377 779.780547 659.393442 778.602638 689.636507 C778.010941 704.828477 777.419239 720.020560 776.920508 735.215866 C776.275706 754.861647 775.786331 774.512145 775.247879 794.161128 C776.440310 797.081788 780.361950 797.442596 783.514878 797.336789 C806.532579 796.564325 829.550279 795.791865 852.567979 795.019405 C856.669003 794.881777 861.800948 793.972875 862.848438 790.005495 C870.674524 760.364087 873.787192 729.483419 872.033943 698.876446 C871.397664 687.768754 873.593625 676.722197 875.446188 665.751615 C885.511159 606.148488 885.643462 545.371622 885.749120 484.924743 C885.761414 477.891489 883.422979 468.400213 876.394033 468.646611 C851.509611 469.518960 826.625194 470.391304 801.740776 471.263648 C795.369065 471.487014 787.019049 473.543297 786.770915 479.914092 C785.472274 513.257074 784.173630 546.600054 782.874986 579.943033 M839.716617 460.385389 C838.872439 461.715556 841.445431 463.304388 842.256604 461.953839 C842.892702 460.955061 841.027023 460.323845 839.872336 460.586288 z"/><path class="selected" fill="#000000" opacity="1.000000" stroke="none" d=" M374.974874 398.594356 C438.899152 357.047466 446.983187 252.077372 390.174253 201.232486 C428.018879 211.670561 465.863506 222.108637 503.708133 232.546713 C534.993596 241.175680 571.213399 249.045743 597.688077 230.275269 C616.590221 216.873704 624.960113 193.451883 633.280410 171.826304 C655.581692 113.862246 687.569327 55.870736 740.913095 24.064737 C799.467961 -10.848359 877.601606 -6.784455 935.096387 29.848136 C992.591167 66.480727 1028.731463 132.628996 1033.798014 200.613749 C1036.159151 232.296293 1073.752954 251.471336 1105.094714 246.270127 C1136.436473 241.068918 1162.085154 219.280655 1185.910398 198.263609 C1201.421194 184.581017 1226.936440 171.284710 1240.008023 187.313803 C1192.276488 231.674267 1186.823752 314.058033 1228.292353 364.322381 C1269.760955 414.586729 1351.679820 424.888031 1404.302044 386.455609 C1431.303983 366.734855 1471.724569 377.186513 1495.071396 401.122646 C1518.418224 425.058779 1528.504005 458.678117 1536.208981 491.214960 C1570.774191 637.178409 1573.423573 788.545810 1575.906480 938.525524 C1579.385663 1148.685044 1582.864844 1358.844564 1586.344026 1569.004084 C1596.130696 1569.622709 1605.256036 1560.075956 1604.196512 1550.327161 C1612.066798 1557.412799 1614.454911 1569.897660 1609.755232 1579.387689 C1527.681013 1588.859757 1445.606794 1598.331824 1363.532575 1607.803892 C1279.142670 1617.543209 1194.745414 1627.283301 1110.170742 1635.260478 C744.015733 1669.796625 374.740172 1671.179092 8.336843 1639.385442 C2.572700 1638.885274 1.004633 1631.270065 0.998782 1625.484266 C0.751237 1380.700677 0.503693 1135.917089 0.256148 891.133500 C0.171803 807.729085 0.087457 724.324670 0.003112 640.920255 C-0.040313 597.979453 0.144925 553.795992 16.203247 513.970816 C32.261569 474.145640 68.223631 439.220413 111.138688 437.733043 C69.391640 451.454353 40.066770 490.690664 26.761181 532.572064 C13.455591 574.453463 13.665757 619.258563 13.999621 663.201468 C14.926082 785.140663 15.852541 907.079856 16.778999 1029.019049 C223.152999 1028.028632 429.526998 1027.038214 635.900996 1026.047797 C638.980242 1017.561446 650.178398 1016.133981 659.206127 1016.134487 C959.151662 1016.151415 1259.097196 1016.168338 1559.042729 1016.185262 C1557.752728 843.524924 1556.317905 669.469970 1520.480297 500.564902 C1514.296404 471.419766 1506.402540 441.144564 1486.250410 419.199836 C1466.098279 397.255108 1429.943786 387.168475 1405.943254 404.822198 C1353.858664 443.133353 1274.861708 438.918863 1227.148974 395.283544 C1179.436241 351.648225 1168.200312 273.340914 1201.718632 218.050153 C1168.055144 240.001756 1132.151142 262.693084 1091.986005 264.058775 C1051.820867 265.424466 1007.747987 236.035725 1008.823957 195.861782 C1010.935794 117.011256 953.012296 40.559466 876.532557 21.253641 C800.052819 1.947815 712.783632 41.748530 677.218578 112.154441 C655.802706 154.550104 649.906434 207.858840 612.502121 237.132535 C562.275638 276.441228 489.578594 248.579281 432.752808 219.618912 C463.364584 278.722337 448.292212 357.873438 398.100926 401.589916 C347.909640 445.306395 267.438928 449.373068 213.096094 410.939332 C267.085335 424.758092 328.247386 428.964377 374.974872 398.594354 M1071.051919 1506.848649 C1074.743734 1531.811852 1040.816938 1544.882306 1015.898378 1540.900302 C990.979819 1536.918298 963.927027 1525.844719 942.006602 1538.346156 C960.007682 1591.047973 1017.137242 1627.399785 1072.502371 1621.381237 C1238.101543 1603.379535 1403.700716 1585.377832 1569.299889 1567.376130 C1567.561522 1389.146217 1565.823156 1210.916305 1564.084789 1032.686392 C1314.307103 1037.495122 1064.452875 1038.327822 814.648686 1035.184071 C763.584622 1034.541436 712.441588 1033.727989 661.650936 1028.411859 C665.892342 1025.644116 670.523488 1033.301233 667.536537 1037.391228 C664.549586 1041.481222 658.721108 1041.922793 653.656989 1041.990848 C448.767049 1044.744250 243.877109 1047.497652 38.987170 1050.251054 C23.824032 1050.454823 19.167552 1070.789990 19.567429 1085.949224 C20.630742 1126.259028 24.345304 1166.498695 30.679152 1206.321970 C13.304019 1209.156891 10.643656 1232.782045 12.125495 1250.324455 C22.554129 1373.780412 21.575050 1498.197616 9.204812 1621.474158 C20.746174 1625.545616 32.830500 1629.678970 44.958060 1628.035156 C57.085620 1626.391342 69.107109 1616.977544 69.284342 1604.740370 C71.478537 1453.241029 73.672732 1301.741688 75.866926 1150.242347 C76.162512 1129.833502 76.458097 1109.424656 76.753682 1089.015811 C83.087743 1096.592797 94.357288 1097.082994 104.232385 1096.966854 C548.586235 1091.741125 993.150963 1086.508008 1436.722833 1059.644646 C1459.569861 1058.260997 1480.030350 1076.182402 1489.031756 1097.227018 C1498.033162 1118.271634 1498.066024 1141.909180 1497.954919 1164.797798 C1497.349401 1289.540419 1496.743884 1414.283040 1496.138366 1539.025661 C1496.082038 1550.629807 1487.747123 1567.158634 1478.164242 1560.614341 C1483.580130 1421.520519 1483.705234 1282.220770 1478.539192 1143.117446 C1477.488375 1114.822618 1466.858431 1077.288536 1438.573943 1078.588228 C991.861026 1099.115056 544.841396 1112.966912 97.714613 1120.137616 C94.293671 1223.714742 90.872728 1327.291867 87.451786 1430.868992 C85.416412 1492.494739 83.399818 1554.495197 92.094050 1615.538508 C258.122272 1638.781618 425.981543 1648.932986 593.600798 1645.867364 C634.198485 1645.124865 655.236161 1598.167551 666.524131 1559.163638 C635.355892 1557.655456 604.187653 1556.147274 573.019414 1554.639092 C563.848195 1554.195311 553.574535 1553.233239 547.652944 1546.215907 C541.731353 1539.198575 546.415750 1524.889328 555.427424 1526.649419 C705.169185 1555.895825 859.564410 1509.176540 1011.804414 1519.222830 C1032.643498 1520.597997 1056.606920 1521.931775 1071.051923 1506.848660 M736.602716 1554.848729 C724.814634 1553.879725 712.441925 1550.985337 701.527277 1555.542563 C692.164696 1559.451753 685.793759 1568.107567 679.903949 1576.368913 C674.674664 1583.703780 669.445377 1591.038646 664.216089 1598.373512 C654.255599 1612.344609 644.048045 1626.871218 640.681557 1643.695892 C728.256658 1638.093966 816.038677 1635.727508 903.788396 1636.602970 C933.418486 1636.898583 962.338152 1625.138278 991.932645 1626.620027 C972.031267 1613.690600 954.832940 1596.621098 941.754247 1576.817494 C934.156547 1565.313146 923.232686 1556.480214 912.488164 1547.841332 C906.224488 1542.805169 898.879007 1537.463289 890.953270 1538.797179 C859.234174 1544.135488 827.231365 1547.582461 795.251091 1551.026360 C788.797850 1551.721298 782.344609 1552.416237 775.891369 1553.111175 C762.836929 1554.516984 749.688496 1555.924405 736.602716 1554.848728 M648.871688 1032.407182 C651.246240 1032.730037 654.677355 1032.117717 654.489191 1029.728715 C650.924494 1026.316362 645.145985 1027.574787 640.438407 1029.054619 C640.166262 1030.788152 641.756172 1032.369137 643.471339 1032.739827 C645.186505 1033.110517 646.955791 1032.601310 648.636429 1032.096668 M480.660812 232.759636 C482.459979 235.341003 487.093589 234.966620 488.454990 232.129888 C485.757934 229.733072 482.434932 228.046844 478.908034 227.285367 C477.705033 229.102006 478.440534 231.896278 480.382015 232.885235 M580.868296 1034.421932 C582.349574 1035.215148 583.652168 1032.540995 582.537070 1031.284042 C581.421972 1030.027089 579.481743 1030.068931 577.807411 1030.210307 C576.677267 1030.305736 575.364665 1030.513734 574.818684 1031.507837 C574.151454 1032.722703 575.233944 1034.300250 576.570250 1034.668189 C577.906556 1035.036129 579.315804 1034.578756 580.625803 1034.125991 M11.911675 836.774074 C14.880785 835.931008 14.791093 830.690997 11.794869 829.950038 C10.113903 829.784281 8.461469 831.284380 8.464376 832.973495 C8.467283 834.662610 10.124870 836.157012 11.805255 835.985474 M1129.833200 245.695844 C1126.410877 245.445872 1122.914442 247.191175 1121.057176 250.076543 C1123.780913 249.931861 1126.484836 249.418636 1129.072155 248.555237 C1129.917089 248.273283 1130.843424 247.863817 1131.149457 247.027303 C1131.455490 246.190789 1130.501585 245.059761 1129.764804 245.560327 M472.341412 234.600999 C474.018267 233.615266 474.544135 231.102932 473.403383 229.527432 C472.262630 227.951933 469.711670 227.667400 468.251811 228.952829 C469.402035 230.500838 470.552260 232.048849 471.702485 233.596860 M1422.851544 1587.487680 C1422.054911 1588.306553 1421.258278 1589.125425 1420.461645 1589.944298 C1420.939079 1591.121246 1421.416513 1592.298194 1421.893946 1593.475142 C1423.724357 1592.115185 1425.554766 1590.755230 1427.385174 1589.395274 C1425.984131 1588.536967 1424.436164 1587.919180 1422.829142 1587.576978 M563.325257 1034.784069 C564.165065 1034.663666 565.004873 1034.543262 565.844681 1034.422858 C566.584048 1033.753524 566.624325 1032.458209 565.927971 1031.744232 C563.423821 1031.956920 560.919668 1032.169611 558.415515 1032.382303 C558.905065 1034.477858 561.333983 1035.892686 563.398303 1035.284743 M1073.874742 1627.406827 C1072.385565 1627.574912 1070.814150 1629.331674 1071.871946 1630.393263 C1074.530466 1630.725277 1077.602995 1630.925096 1079.496406 1629.029588 C1078.106538 1627.551656 1075.827678 1626.984516 1073.907214 1627.638605 M347.374165 1036.666061 C344.796491 1036.459635 342.149530 1037.322877 340.189155 1039.009276 C342.249688 1041.255996 346.730101 1039.981783 347.299968 1036.986989 M1303.864926 1604.516488 C1302.814036 1603.969683 1302.209002 1605.779638 1302.396616 1606.949325 C1304.273732 1608.101050 1306.957894 1607.687813 1308.401678 1606.024826 C1307.400054 1604.668748 1305.490960 1604.063319 1303.890886 1604.594322 M309.715507 1037.995006 C308.225177 1038.415537 308.645373 1040.936928 310.086263 1041.504173 C311.527152 1042.071418 313.127318 1041.377650 314.517981 1040.696485 C313.215099 1039.551425 311.557456 1038.815852 309.834216 1038.618082 M12.205156 998.025428 C12.110789 996.908332 10.279925 996.825115 9.642302 997.747203 C9.004680 998.669292 9.215163 999.910154 9.451540 1001.006026 C10.146542 1001.527769 11.083167 1001.712531 11.924240 1001.493800 C12.431899 1000.411909 12.572862 999.161870 12.318891 997.994092 M12.851309 849.487922 C11.692504 850.651088 10.533699 851.814255 9.374894 852.977421 C10.079080 854.409581 12.160218 854.931855 13.457192 854.001898 C13.313551 852.491882 13.169910 850.981865 13.026268 849.471849 M516.848506 1033.574481 C515.751558 1033.171297 514.112429 1033.876488 514.377916 1035.014631 C516.289277 1035.761152 518.485342 1035.748854 520.388221 1034.980976 C520.602649 1033.520197 518.357887 1033.257187 516.935061 1033.651423 M1580.779288 1173.303794 C1578.534261 1173.773985 1577.497712 1177.025304 1579.056337 1178.708133 C1580.522833 1177.430045 1581.284129 1175.388738 1581.012677 1173.462486 M5.395184 928.996940 C5.040972 930.294063 5.679551 931.793919 6.860085 932.437609 C7.882109 931.657526 8.728968 930.349066 8.303911 929.135649 C7.878854 927.922231 5.670381 927.769096 5.500286 929.043507 M258.470636 1643.184796 C258.066125 1643.752720 257.661614 1644.320644 257.257103 1644.888568 C258.069550 1646.074315 259.581392 1646.739041 261.004386 1646.536172 C261.465631 1645.261737 260.226994 1643.715757 258.882641 1643.887962 M623.908648 1095.490117 C623.532570 1096.523589 624.753268 1097.725535 625.780795 1097.333505 C626.626186 1096.926920 626.831454 1095.611892 626.150191 1094.967003 C625.468929 1094.322114 624.167129 1094.599156 623.807493 1095.465563 M520.815736 245.484532 C522.121659 246.006193 522.610683 243.708410 521.937165 242.473931 C521.113323 242.381125 520.180311 242.709354 519.826606 243.459165 C519.472901 244.208975 520.033982 245.301451 520.860752 245.240011 M546.036214 1032.324860 C545.035917 1031.355323 543.021621 1032.688346 543.523048 1033.988025 C544.536572 1034.819786 546.361820 1033.656956 546.036306 1032.386874 M1583.747921 1134.511332 C1583.009012 1134.156737 1582.246760 1135.224383 1582.527452 1135.994406 C1582.808144 1136.764430 1583.621900 1137.180198 1584.366199 1137.523335 C1584.421134 1136.526130 1584.476070 1135.528922 1584.531006 1134.531713 M83.344396 1590.004033 C84.345753 1589.596590 83.930895 1587.724440 82.851154 1587.778156 C81.450031 1587.683324 82.084882 1590.581322 83.318040 1589.909412 z"/><path class="selected" fill="#000000" opacity="1.000000" stroke="none" d=" M1133.089460 440.823120 C1119.102159 441.184705 1105.114859 441.546290 1091.127559 441.907875 C1085.157661 442.062203 1079.004101 442.256665 1073.559503 444.710204 C1071.254161 445.749079 1069.124246 447.175377 1066.742791 448.025400 C1054.805900 452.286087 1043.134331 441.115299 1030.626569 439.066221 C1019.286715 437.208466 1004.604065 441.816869 998.261595 432.234769 C1001.682647 425.771928 1009.467710 422.702299 1016.776955 422.486006 C1024.086200 422.269713 1031.238933 424.345520 1038.439098 425.622025 C1076.844695 432.430886 1115.987286 416.482932 1154.872723 419.528139 C1157.951787 419.769267 1161.982584 421.272805 1161.536412 424.328898 C1154.380311 473.345228 1158.812955 523.226747 1163.257582 572.562897 C1164.315717 584.308371 1165.373851 596.053845 1166.431985 607.799318 C1167.640881 621.218274 1168.849776 634.637230 1170.058672 648.056185 C1171.033366 658.875456 1172.008635 669.699803 1173.506631 680.459109 C1175.801326 696.940682 1179.322549 713.251351 1184.031568 729.211708 C1185.714987 734.917349 1181.252457 740.944941 1175.772103 743.258801 C1170.291749 745.572661 1164.109282 745.189078 1158.162374 745.039026 C1113.784420 743.919278 1070.644280 757.948459 1027.164906 766.903939 C1021.637589 768.042405 1015.834655 769.090631 1010.424984 767.483523 C1005.015313 765.876415 1000.220028 760.734823 1000.981051 755.143026 C1006.286100 716.162966 1008.710217 676.791136 1008.227103 637.454700 C1008.035456 621.850255 1007.387214 606.255427 1006.739047 590.663272 C1004.787218 543.710593 1002.835389 496.757915 1000.883561 449.805237 C1000.635965 443.849139 1009.980889 441.848199 1014.294627 445.962572 C1018.608366 450.076946 1018.996163 456.715623 1019.101582 462.675933 C1019.915550 508.697034 1020.729518 554.718136 1021.543486 600.739238 C1021.766577 613.352624 1021.989668 625.966011 1022.212759 638.579397 C1022.432121 650.981939 1022.651483 663.384481 1022.870844 675.787023 C1023.285675 699.241184 1023.700505 722.695346 1024.115335 746.149507 C1024.151354 748.185983 1025.142196 751.007847 1027.107897 750.474409 C1070.120561 738.801905 1113.980702 730.253572 1158.228628 724.919005 C1159.988456 724.706838 1160.473129 722.403218 1160.460279 720.630694 C1160.352120 705.714277 1156.440992 690.840762 1149.197707 677.800595 C1147.378196 674.524910 1147.683210 670.533369 1147.987870 666.798679 C1152.812617 607.654580 1144.653444 548.336008 1138.374425 489.328581 C1136.844501 474.951033 1135.525099 459.846156 1141.172961 446.536153 C1142.718939 442.892831 1137.045895 440.720842 1133.089460 440.823118 M1013.835129 507.445753 C1014.663072 506.811293 1013.812417 505.174333 1012.817360 505.487205 C1011.175791 506.906710 1010.038383 508.897838 1009.649451 511.032896 C1009.719590 512.406235 1011.928279 512.636032 1012.801024 511.573347 C1013.673768 510.510663 1013.564082 508.976978 1013.408443 507.610685 M1156.794107 540.454463 C1157.296101 539.630093 1157.798094 538.805723 1158.300088 537.981352 C1157.470573 536.795713 1156.238055 535.897538 1154.855326 535.471045 C1154.294762 536.898938 1154.117904 538.475413 1154.348138 539.992023 C1155.073625 540.471236 1155.995653 540.642439 1156.844812 540.455611 M1154.972269 572.617869 C1153.701674 573.668311 1154.245243 576.117911 1155.840892 576.532330 C1156.337614 575.353674 1156.834336 574.175015 1157.331057 572.996355 C1156.949815 572.053723 1155.546559 571.734847 1154.795386 572.420149 M1098.491351 740.930601 C1098.959470 742.502055 1101.679558 742.547274 1102.199651 740.992248 C1101.684719 739.432591 1098.959078 739.469007 1098.485998 741.041860 M1040.976317 755.880607 C1040.812019 756.703248 1041.987506 757.253406 1042.736568 756.875731 C1043.485630 756.498057 1043.840308 755.643189 1044.134903 754.857729 C1043.128959 754.332270 1041.707700 755.009098 1041.481621 756.121264 z"/><path class="selected" fill="#000000" opacity="1.000000" stroke="none" d=" M735.045196 347.748775 C722.238934 340.591212 709.042587 333.098749 700.262443 321.345446 C687.130051 303.766124 685.494383 278.752372 669.660477 263.560936 C667.075980 261.081306 670.749502 257.044652 674.117265 255.825489 C677.485029 254.606326 681.909602 252.466402 681.039009 248.992174 C679.019368 240.932506 680.907014 231.986610 686.010785 225.430031 C687.362637 223.693369 689.004596 221.923499 689.087879 219.724280 C689.667727 204.412580 698.157170 190.125060 709.739622 180.093549 C734.269355 158.848454 770.300379 156.084701 802.028198 162.897000 C810.212622 164.654282 818.532774 167.101057 825.008368 172.405726 C831.483961 177.710394 835.722958 186.495726 833.516053 194.570526 C832.652363 197.730661 828.727160 200.948846 826.549222 198.501604 C819.446644 190.520787 810.536774 184.157789 800.683080 180.029259 C799.700209 179.617453 798.593764 179.224256 797.595820 179.598057 C796.190630 180.124401 795.727356 181.845309 795.471083 183.323794 C791.934398 203.727622 790.894527 224.563005 792.382032 245.217584 C792.549801 247.547117 792.777743 249.965961 793.971938 251.973140 C796.951348 256.980874 804.044215 257.063775 809.846968 256.532425 C827.249894 254.938861 844.652818 253.345298 862.055743 251.751735 C866.735245 251.323239 872.595627 249.857483 873.329891 245.216125 C873.664121 243.103412 872.718010 241.018896 871.762667 239.105109 C863.754032 223.061852 853.325408 208.229310 840.938601 195.264306 C855.111494 197.444958 867.872698 207.264650 873.611446 220.405917 C876.219750 226.378723 879.000383 234.202721 885.512124 234.476395 C880.962574 234.769266 880.337205 241.751434 883.166150 245.326522 C885.995095 248.901610 890.568763 250.870663 893.068851 254.682977 C897.562786 261.535636 893.550905 270.455265 891.584508 278.410620 C888.277296 291.790423 891.238299 306.249647 887.091888 319.393620 C881.047031 338.555611 861.496918 350.159956 842.314755 356.140492 C823.132592 362.121028 802.608470 364.400890 784.778852 373.665173 C783.199025 374.486052 781.305607 373.604235 779.751508 372.735632 C764.849404 364.406679 749.947300 356.077727 735.045196 347.748775 M716.423412 195.466553 C716.403316 199.217854 712.413375 201.431350 709.405749 203.673414 C697.766563 212.349952 697.000689 229.196703 697.309383 243.710754 C697.423960 249.097893 702.180425 253.485196 707.360181 254.969961 C712.539936 256.454726 718.064942 255.686957 723.395010 254.896533 C725.730981 254.550120 728.356905 254.270538 730.231922 255.706183 C733.190767 257.971684 732.993914 263.563315 736.607769 264.472879 C739.648229 258.629577 747.925988 258.783992 754.438712 259.770398 C758.744154 260.422494 763.049597 261.074590 767.355040 261.726685 C768.401653 261.885204 769.476301 262.043069 770.510648 261.818006 C774.429543 260.965292 775.202488 255.581717 774.052265 251.739602 C772.902042 247.897488 770.706529 243.963860 771.860533 240.122879 C777.329282 221.920723 779.207905 202.647480 777.357140 183.731868 C776.802878 178.067074 774.108048 170.854794 768.429217 171.239473 C760.282203 171.791349 751.885019 172.409116 744.591677 176.081383 C741.731102 177.521710 739.114323 179.399522 736.319411 180.963460 C731.909697 183.430987 727.057761 185.105479 722.064792 185.882991 C718.898291 186.376082 715.310534 186.699510 713.290876 189.187651 C711.271219 191.675793 713.474118 196.720161 716.423412 195.466553 M794.436691 350.028027 C806.739483 347.420082 819.042275 344.812137 831.345067 342.204192 C840.578208 340.246952 847.081660 330.478939 856.502761 329.909261 C861.395438 329.613409 863.825452 323.966170 865.164364 319.250968 C867.605344 310.654614 870.046328 302.058262 872.487312 293.461910 C873.914951 288.434226 875.290110 282.806955 872.840403 278.190171 C868.887788 270.740964 858.313669 270.962469 849.976184 272.227448 C841.059503 273.580304 832.142823 274.933159 823.226143 276.286015 C816.737732 277.270449 810.229581 278.256705 803.669424 278.438182 C797.540053 278.607742 792.160882 283.330938 789.916070 289.036965 C787.671258 294.742992 788.125407 301.200570 789.753790 307.112109 C793.591737 321.045057 795.179425 335.595244 794.436691 350.028027 M721.973644 315.000678 C727.701509 320.002104 735.675178 322.696187 739.583618 329.218976 C741.528637 332.465015 745.202959 334.181672 748.662866 335.714287 C753.838526 338.006918 759.014187 340.299550 764.189847 342.592181 C767.157387 343.906694 770.819604 345.163188 773.434381 343.240382 C776.373331 341.079190 775.797339 336.617052 775.006466 333.055775 C771.055209 315.263380 769.437599 296.954174 770.208099 278.744614 C770.284210 276.945852 769.747267 274.458035 767.949241 274.549913 C762.515775 274.827573 757.082310 275.105230 751.648845 275.382887 C747.447036 275.597605 743.120078 275.795483 739.149547 274.404013 C735.597307 273.159132 732.435861 276.954021 728.884342 278.200959 C725.256334 279.474753 721.322361 277.988678 717.523036 277.396968 C713.723712 276.805258 708.887918 277.811924 707.828609 281.508254 C707.364953 283.126127 707.780306 284.850399 708.195864 286.481288 C710.845357 296.879427 713.890901 307.943031 721.973645 315.000678 z"/><path class="selected" fill="#000000" opacity="1.000000" stroke="none" d=" M1430.095153 989.468707 C1435.770657 990.533651 1441.446161 991.598595 1447.121666 992.663539 C1448.065272 993.867240 1446.069441 995.189341 1444.556561 995.414021 C1423.363550 998.561418 1401.507406 997.166951 1380.886228 991.351722 C1377.025409 990.262961 1372.918020 990.749184 1368.937229 991.243790 C1358.689797 992.517028 1348.442365 993.790261 1338.194933 995.063494 C1335.323384 995.420282 1333.797519 991.928729 1332.092670 989.590657 C1330.387822 987.252584 1325.295411 987.130938 1325.917466 989.956914 C1326.697793 993.501908 1320.632743 995.327575 1318.504003 992.387446 C1316.375263 989.447317 1318.183957 985.007635 1321.262233 983.084067 C1324.340509 981.160499 1328.177207 981.058382 1331.806798 981.014102 C1349.873920 980.793689 1367.941042 980.573275 1386.008164 980.352861 C1403.412775 980.140530 1420.817386 979.928198 1438.221997 979.715867 C1444.777992 979.635886 1451.333988 979.555904 1457.889984 979.475923 C1462.693058 979.417327 1465.221729 985.235800 1465.491650 990.031641 C1465.614115 992.207525 1463.934930 995.305955 1462.179475 994.014505 C1453.115263 987.346148 1440.655011 985.580745 1430.095153 989.468707 z"/><path class="selected" fill="#000000" opacity="1.000000" stroke="none" d=" M219.940727 424.566148 C216.872807 426.870830 212.459204 426.149689 209.010550 424.467285 C205.561897 422.784880 202.518305 420.265817 198.883933 419.034947 C194.474104 417.541446 189.398185 418.166048 185.481982 420.684081 C179.171362 424.741673 170.686020 425.154754 164.011115 421.729319 C162.707366 421.060260 161.238886 422.122095 160.009343 422.919355 C158.779800 423.716615 156.737526 424.058879 156.182982 422.702456 C160.713758 416.022955 170.109903 415.319550 178.180983 415.283225 C185.125781 415.251969 192.070580 415.220713 199.015378 415.189457 C203.308226 415.170137 208.579079 415.759546 210.235511 419.719994 C211.017933 421.590735 213.608708 421.564015 215.636125 421.526135 C217.663541 421.488254 220.353321 422.580797 219.940728 424.566148 z"/><path class="selected" fill="#000000" opacity="1.000000" stroke="none" d=" M1313.003111 985.400498 C1312.512273 989.821601 1309.570560 993.890553 1305.526160 995.742551 C1302.346523 997.198561 1298.738726 997.307877 1295.242601 997.392555 C1291.717724 997.477929 1288.192847 997.563303 1284.667970 997.648677 C1283.609087 997.674323 1282.452072 997.668541 1281.626895 997.004483 C1280.090559 995.768123 1280.749714 993.331702 1281.542187 991.525906 C1282.293890 989.813014 1283.119031 988.009411 1284.666611 986.958672 C1286.214190 985.907932 1288.710445 986.029175 1289.582337 987.684126 C1289.969617 988.419228 1289.979212 989.320849 1290.430538 990.018464 C1290.881863 990.716079 1292.164964 990.939333 1292.415720 990.147195 C1295.484083 983.929414 1303.712120 982.802983 1310.638327 982.481536 C1311.638463 982.435120 1312.754739 982.428398 1313.492221 983.105559 C1314.229703 983.782720 1314.003835 985.369137 1313.003114 985.400497 z"/><path class="selected" fill="#000000" opacity="1.000000" stroke="none" d=" M1198.990082 1003.806823 C1197.248071 1003.734110 1195.477975 1003.529934 1193.886536 1002.817749 C1192.809489 1002.335759 1191.835124 1001.625774 1191.046332 1000.748192 C1197.893967 998.216124 1205.783050 998.653491 1212.308826 1001.926972 C1208.032339 1003.354368 1203.494574 1003.994842 1198.990082 1003.806822 z"/><path class="selected" fill="#000000" opacity="1.000000" stroke="none" d=" M1257.835753 999.427758 C1257.032140 999.709276 1256.086769 999.540790 1255.429891 998.998980 C1254.717504 997.398957 1256.303385 995.471632 1258.052588 995.382996 C1259.801790 995.294361 1261.380017 996.545796 1262.288478 998.043216 C1261.301920 999.351965 1259.434449 999.916005 1257.888357 999.372201 z"/><path class="selected" fill="#000000" opacity="1.000000" stroke="none" d=" M1237.465323 1001.802646 C1237.083292 1001.240987 1236.701260 1000.679328 1236.319229 1000.117669 C1238.214580 998.345637 1241.264206 997.949589 1243.549313 999.178715 C1242.027446 1000.623781 1239.950290 1001.468693 1237.851830 1001.496244 z"/><path class="selected" fill="#000000" opacity="1.000000" stroke="none" d=" M1324.291614 514.916137 C1325.307496 514.322968 1326.800383 514.859625 1327.206101 515.963826 C1326.383550 517.582784 1324.574279 518.646876 1322.759614 518.578952 C1322.203093 517.274761 1323.035583 515.571141 1324.406473 515.208798 z"/><path class="selected" fill="#000000" opacity="1.000000" stroke="none" d=" M161.732136 426.467638 C161.433434 427.448495 159.932903 427.766922 159.261589 426.991911 C159.360307 425.341160 161.242256 424.058239 162.814903 424.569625 C163.681278 425.114664 162.816476 426.790034 161.870353 426.399489 z"/><path class="selected" fill="#000000" opacity="1.000000" stroke="none" d=" M942.793962 72.627989 C944.365417 73.096108 944.410636 75.816196 942.855610 76.336290 C941.295953 75.821357 941.332369 73.095717 942.905222 72.622636 z"/><path class="selected" fill="#000000" opacity="1.000000" stroke="none" d=" M553.464077 1435.098189 C549.231633 1434.787437 549.349244 1428.510412 550.804880 1424.524026 C554.062826 1415.601908 557.320765 1406.679790 560.578705 1397.757672 C564.381297 1387.343979 568.188919 1376.917946 572.786675 1366.830064 C590.174323 1328.680028 618.363135 1296.443457 648.823395 1267.634983 C659.894405 1257.164327 671.336591 1247.049986 683.625630 1238.039913 C698.367576 1227.231419 714.259657 1218.063785 730.588855 1209.847595 C737.052000 1206.595603 743.610999 1203.480209 750.486598 1201.227692 C759.680769 1198.215587 769.306187 1196.788639 778.877245 1195.374283 C789.806696 1193.759190 800.736147 1192.144098 811.665598 1190.529006 C859.237765 1183.499061 910.126411 1176.921052 953.513883 1197.658902 C983.012346 1211.758242 1005.818383 1237.382274 1021.781729 1265.915102 C1037.745074 1294.447930 1047.468158 1325.987418 1056.412585 1357.434961 C1070.505284 1406.983215 1082.952065 1456.981977 1095.395942 1506.969811 C1095.806986 1508.620999 1096.221198 1510.317251 1096.015832 1512.006393 C1095.226263 1518.500620 1085.613897 1520.319818 1080.425567 1516.334892 C1075.237238 1512.349965 1073.514810 1505.414732 1072.123873 1499.022260 C1068.452697 1482.150265 1064.781521 1465.278269 1061.110346 1448.406274 C1046.741656 1382.370624 1031.615514 1314.523616 993.674922 1258.597971 C984.842217 1245.578279 974.705919 1233.208327 962.021346 1223.900768 C923.835928 1195.881450 871.603583 1200.669104 824.628124 1206.711830 C814.995289 1207.950958 805.362456 1209.190086 795.729622 1210.429213 C784.528510 1211.870077 773.295410 1213.316931 762.347501 1216.088985 C715.996669 1227.825200 679.010028 1261.902965 645.354610 1295.865464 C629.830572 1311.531148 614.479279 1327.522606 601.846764 1345.601018 C564.636595 1398.852547 553.818328 1465.593136 543.979894 1529.807832 C543.186202 1534.988196 534.770582 1535.104728 531.774451 1530.804807 C528.778320 1526.504886 529.618400 1520.715935 530.582939 1515.564645 C534.552703 1494.363419 538.522467 1473.162193 542.492232 1451.960967 C543.807346 1444.937366 546.454831 1436.487812 553.464070 1435.098184 M550.498300 1449.267907 C548.851552 1450.157495 548.728038 1452.901888 550.288217 1453.935806 C551.848396 1454.969725 554.327691 1453.786490 554.505214 1451.923258 C553.207841 1450.842118 551.910467 1449.760978 550.613093 1448.679839 z"/><path class="selected" fill="#000000" opacity="1.000000" stroke="none" d=" M620.429090 670.871785 C620.237587 678.730594 620.046084 686.589402 619.854581 694.448211 C619.087644 725.921457 618.320706 757.394703 617.553769 788.867949 C617.387666 795.684404 617.221325 802.505432 616.660706 809.300824 C615.993184 817.392007 614.680930 825.683425 610.473029 832.626507 C606.713577 838.829643 600.497981 843.722434 593.351885 844.965693 C585.909473 846.260504 578.428590 843.628808 570.986209 842.333819 C545.204773 837.847796 519.652044 849.414542 493.774420 853.307540 C488.923662 854.037282 483.829784 854.474000 479.229782 852.770366 C474.629781 851.066731 470.695915 846.652757 471.057480 841.760758 C473.176845 813.085545 475.296210 784.410332 477.415575 755.735119 C480.368590 715.780532 483.321606 675.825945 486.274621 635.871359 C490.100966 584.100544 493.928756 532.299754 494.967383 480.398122 C495.023542 477.591784 497.357390 473.633821 499.444608 475.510575 C505.050855 480.551517 513.787178 477.499803 520.873528 474.925943 C552.036186 463.607214 586.367494 467.088290 619.322643 470.719141 C621.256200 470.932172 623.450304 471.299238 624.500071 472.936923 C625.200347 474.029385 625.191977 475.414481 625.160366 476.711733 C624.201326 516.068396 623.242286 555.425059 622.283246 594.781723 C621.665194 620.145077 621.047142 645.508431 620.429090 670.871785 M607.690168 488.030414 C596.796368 485.553197 585.533082 485.336025 574.363081 485.129736 C559.911814 484.862847 545.460546 484.595959 531.009279 484.329071 C526.125354 484.238874 521.094338 484.173620 516.545609 485.954048 C511.996881 487.734476 507.998111 491.841286 507.885414 496.724744 C506.166510 571.209626 501.855657 645.634665 494.963281 719.819889 C491.493808 757.163127 487.376687 794.901515 492.681686 832.028482 C493.001139 834.264166 496.184548 834.348826 498.384755 833.839491 C525.895684 827.470861 554.186211 824.477301 582.420760 824.947224 C592.387629 825.113108 599.866704 814.982657 601.183340 805.101743 C602.499976 795.220829 599.539528 785.342887 598.192382 775.466086 C596.742681 764.837460 597.163927 754.053145 597.588052 743.334498 C600.955424 658.233136 604.322796 573.131775 607.690168 488.030414 M567.036118 474.142688 C564.798539 473.115073 561.874051 473.933400 560.494761 475.973085 C562.126506 478.570462 566.973994 477.598872 567.478719 474.573279 M497.532087 622.081129 C495.663582 623.537514 494.507523 625.868027 494.478498 628.236893 C497.232236 628.482977 499.386233 624.776330 497.809034 622.505630 M545.708450 475.389840 C544.876554 476.734305 547.473884 478.301332 548.275354 476.938510 C548.608027 475.640612 546.602410 474.416969 545.803592 475.492653 z"/><path class="selected" fill="#000000" opacity="1.000000" stroke="none" d=" M913.302697 1347.515239 C915.267850 1352.683175 917.234545 1358.477292 915.108551 1363.581167 C913.086869 1368.434632 907.210646 1371.311251 902.137352 1369.931032 C897.064057 1368.550812 893.455078 1363.093689 894.170873 1357.884950 C894.544982 1355.162592 891.260730 1353.338493 888.512794 1353.333449 C885.764858 1353.328405 882.937992 1354.266593 880.326487 1353.411480 C877.704142 1352.552819 875.959381 1350.094976 873.596183 1348.670448 C870.764278 1346.963382 867.281963 1346.861322 863.975571 1346.822254 C822.313600 1346.330000 780.623602 1348.219810 739.177032 1352.479382 C721.310021 1354.315622 703.491468 1356.591414 685.675077 1358.866956 C678.589315 1359.771963 672.398287 1352.866688 671.547299 1345.774236 C670.696311 1338.681783 673.720018 1331.735666 677.016737 1325.398576 C684.270529 1311.455037 693.211085 1298.389988 703.581343 1286.579082 C720.182100 1267.672127 741.677233 1251.486615 766.598983 1248.027647 C775.589693 1246.779798 784.719130 1247.226642 793.784893 1247.676017 C803.764976 1248.170713 813.745058 1248.665409 823.725140 1249.160105 C833.035386 1249.621598 842.488252 1250.109408 851.310823 1253.118710 C865.194720 1257.854387 876.418913 1268.547837 884.495442 1280.793608 C892.571972 1293.039379 897.849667 1306.877052 903.063575 1320.588521 C906.476615 1329.564094 909.889656 1338.539666 913.302697 1347.515239 M692.530835 1333.059425 C715.118807 1338.844771 739.045035 1327.004197 762.027097 1330.942669 C764.933370 1331.440720 767.809417 1332.190620 770.754072 1332.343873 C774.014014 1332.513533 777.261506 1331.947352 780.484247 1331.427793 C811.919593 1326.359884 844.040373 1325.561259 875.688731 1329.060703 C879.436393 1329.475092 882.525262 1325.571989 882.688196 1321.805008 C882.851129 1318.038028 880.973378 1314.518417 879.130889 1311.228748 C870.559808 1295.925521 860.490490 1279.890253 844.285855 1273.177432 C837.796347 1270.489129 830.735866 1269.508399 823.737765 1268.902358 C799.023056 1266.762043 773.932631 1269.034522 750.004651 1275.580481 C745.083289 1276.926814 740.946540 1280.187173 736.958778 1283.369966 C719.395957 1297.387557 701.140219 1312.303124 692.530835 1333.059425 z"/><path class="selected" fill="#000000" opacity="1.000000" stroke="none" d=" M667.098497 1437.249931 C660.747993 1430.534012 648.550277 1431.921939 642.600553 1438.995358 C636.650829 1446.068778 636.666078 1456.944434 641.138185 1465.033484 C645.610292 1473.122535 653.800181 1478.637633 662.508280 1481.736260 C667.899779 1483.654732 673.810364 1484.754796 679.343898 1483.295761 C684.877433 1481.836725 689.876188 1477.321423 690.520945 1471.635205 C690.936730 1467.968319 694.866406 1466.001889 697.950482 1463.975215 C705.452080 1459.045617 710.111192 1450.072178 709.827398 1441.100314 C709.543604 1432.128449 704.326686 1423.467404 696.528537 1419.021757 C689.600527 1415.072166 681.012910 1414.322317 674.708884 1409.438073 C683.303213 1402.338440 695.840462 1403.710714 706.848828 1405.466596 C712.465256 1406.362441 718.393842 1407.397773 722.712345 1411.098764 C727.988422 1415.620403 729.621859 1423.068498 730.031159 1430.004972 C730.797346 1442.989681 728.319052 1456.153454 722.883515 1467.970588 C717.766704 1479.094795 709.857116 1489.172092 699.337688 1495.438779 C687.988124 1502.200000 673.897224 1504.138193 661.106872 1500.831594 C648.316520 1497.524994 636.969412 1489.047144 630.048438 1477.794286 C623.553348 1467.233877 620.971979 1454.325898 622.906166 1442.079781 C624.519511 1431.865045 630.039867 1421.396766 639.695064 1417.692594 C647.986385 1414.511668 656.824196 1412.008730 665.653739 1412.959235 C674.483282 1413.909740 683.322367 1418.956801 686.637027 1427.195571 C684.632042 1431.017908 682.500775 1434.987345 678.968995 1437.468626 C675.437214 1439.949907 670.064051 1440.386126 667.098497 1437.249931 z"/><path class="selected" fill="#000000" opacity="1.000000" stroke="none" d=" M897.904358 1389.932954 C898.598209 1386.624385 901.213843 1383.792372 904.456958 1382.838292 C909.594115 1381.327010 914.865441 1384.328997 919.380486 1387.208010 C921.411070 1388.502809 923.575981 1389.961932 924.368992 1392.235895 C925.162003 1394.509858 923.612336 1397.654122 921.215262 1397.422152 C917.238895 1397.037350 917.074764 1389.120920 913.109576 1389.607588 C912.271277 1389.710477 911.553436 1390.228156 910.824115 1390.654089 C906.878768 1392.958229 901.568779 1392.661844 897.904358 1389.932954 z"/><path class="selected" fill="#000000" opacity="1.000000" stroke="none" d=" M892.287010 1385.925686 C890.220855 1388.129433 887.224865 1389.431894 884.204032 1389.439639 C883.880372 1385.569074 889.458737 1383.347188 892.687978 1385.505443 z"/><path class="selected" fill="#000000" opacity="1.000000" stroke="none" d=" M947.017213 1421.102432 C948.458655 1422.217090 949.961768 1423.410915 950.647672 1425.099037 C951.259678 1426.605285 951.133261 1428.297805 950.963410 1429.914742 C948.516051 1453.213033 937.433310 1477.317390 916.434474 1487.702415 C910.346662 1490.713156 903.717676 1492.439305 897.127663 1494.081783 C892.491251 1495.237351 887.800408 1496.367681 883.022859 1496.449356 C870.205109 1496.668485 857.635399 1488.537899 852.579494 1476.757384 C847.569012 1465.082704 842.455263 1452.820550 843.477805 1440.157316 C844.924731 1422.238502 858.133320 1407.791336 870.625144 1394.863388 C872.694413 1392.721876 875.073166 1390.434997 878.048789 1390.318312 C881.024412 1390.201627 883.957085 1393.839949 882.084388 1396.155323 C880.184269 1398.504600 878.284151 1400.853878 876.384032 1403.203155 C864.952965 1417.336346 852.835965 1433.767260 855.355572 1451.769148 C856.432849 1459.465980 860.371414 1466.814026 866.492383 1471.603124 C870.517513 1474.752416 875.422506 1476.764752 880.499655 1477.349783 C891.337225 1478.598577 901.850329 1473.472727 911.108630 1467.702435 C921.174236 1461.428986 931.818953 1451.323098 929.127172 1439.772043 C927.758956 1433.900719 923.150728 1429.383574 918.486389 1425.564099 C913.044319 1421.107767 907.228754 1417.107692 901.120709 1413.619597 C896.625751 1411.052685 891.706394 1408.505480 889.258298 1403.944722 C886.810202 1399.383964 888.642218 1392.229656 893.768292 1391.510593 C890.028270 1396.770436 895.822373 1405.415277 902.108951 1403.954905 C918.274516 1400.199644 933.888643 1410.950185 947.017213 1421.102432 z"/></svg>