<?xml version="1.0" standalone="no"?>
<!DOCTYPE svg PUBLIC "-//W3C//DTD SVG 1.1//EN" "http://www.w3.org/Graphics/SVG/1.1/DTD/svg11.dtd">
<svg xmlns="http://www.w3.org/2000/svg" xmlns:xlink="http://www.w3.org/1999/xlink" version="1.1" id="Contours" x="0px" y="0px" width="1822.27392578125" height="2194.1015625" viewBox="0.000000 -0.000001 1822.273926 2194.101562" enable-background="new 0 0 1822.273926 1822.273926" xml:space="preserve" stroke="black" fill="none" stroke-linecap="round" stroke-linejoin="round"><path class="selected" fill="#000000" opacity="1.000000" stroke="none" d=" M629.371516 1082.836090 C642.367374 1090.056679 655.461840 1097.345125 666.756934 1107.012083 C687.707805 1124.942980 710.100524 1141.188721 733.647761 1155.540852 C760.317617 1171.796231 788.611048 1185.675905 818.577323 1194.481637 C816.669861 1188.344388 814.198835 1182.399632 811.731592 1176.465245 C805.966701 1162.599119 800.201811 1148.732993 794.436920 1134.866867 C790.369821 1125.084391 786.111042 1115.013690 778.518263 1107.625331 C774.383372 1103.601767 769.319728 1100.494637 763.780875 1098.879863 C765.556635 1093.199980 774.035991 1095.029595 779.195736 1097.994629 C787.479010 1102.754590 797.072557 1110.514594 794.338644 1119.668586 C809.074382 1122.765934 816.872134 1138.550810 822.562084 1152.492116 C830.855071 1172.811294 839.148059 1193.130472 847.441046 1213.449650 C849.728927 1219.055334 851.449413 1226.753397 846.410269 1230.109751 C838.198603 1235.579185 826.488740 1220.250984 818.736775 1226.354524 C804.322191 1237.703904 783.619034 1234.057344 765.762786 1229.845096 C722.776570 1219.704747 679.790355 1209.564399 636.804139 1199.424050 C631.519309 1198.177371 625.688890 1196.990414 620.882468 1199.516665 C660.858548 1228.675025 700.834628 1257.833378 740.810708 1286.991731 C747.808886 1292.096167 754.863652 1297.234315 762.718583 1300.885320 C773.506369 1305.899527 786.454769 1308.645924 793.139615 1318.486221 C796.144561 1322.909591 797.111536 1329.645945 793.045779 1333.119491 C789.381401 1336.250121 783.822671 1335.075271 779.268184 1333.498833 C756.686467 1325.682657 736.481907 1312.339361 716.865554 1298.692923 C677.967060 1271.632548 640.284193 1242.824835 603.968647 1212.385750 C598.086719 1217.003198 599.092466 1226.030183 600.666642 1233.340441 C602.292334 1240.889939 603.918026 1248.439437 605.543718 1255.988934 C603.130168 1258.207919 599.736683 1254.623784 598.485895 1251.593166 C589.661866 1230.212785 582.289059 1208.233602 576.435013 1185.856955 C575.721873 1183.131031 575.060891 1180.101674 576.371666 1177.607461 C577.519952 1175.422442 579.893340 1174.220473 582.120118 1173.155423 C589.533382 1169.609718 597.214229 1165.995544 605.426683 1165.705525 C610.945318 1165.510636 616.391613 1166.836553 621.754399 1168.153304 C640.992903 1172.877032 660.231408 1177.600758 679.469912 1182.324485 C686.277390 1183.995959 693.084869 1185.667433 699.892347 1187.338908 C727.997747 1194.239768 756.103148 1201.140628 784.208549 1208.041488 C774.079816 1192.226262 752.250491 1190.269987 735.358280 1182.062317 C729.403814 1179.169132 723.934860 1175.383712 718.492765 1171.614125 C695.431646 1155.640335 672.370527 1139.666546 649.309408 1123.692756 C633.585991 1112.801587 614.273211 1106.893674 600.980480 1093.140613 C596.240105 1087.670721 601.817840 1078.430379 608.924555 1077.057254 C616.031271 1075.684129 623.044368 1079.320684 629.371516 1082.836090 z"/><path class="selected" fill="#000000" opacity="1.000000" stroke="none" d=" M482.305815 1126.634237 C482.101845 1131.816851 481.897874 1136.999466 481.693903 1142.182080 C480.319904 1142.570543 478.945904 1142.959006 477.571904 1143.347469 C475.601389 1144.104143 476.566843 1147.458460 478.595423 1148.041855 C480.624003 1148.625250 482.710055 1147.566439 484.668388 1146.778774 C483.554293 1162.600874 484.643202 1178.576546 487.893904 1194.101137 C485.347581 1194.719357 482.801259 1195.337577 480.254936 1195.955798 C485.544904 1200.817368 485.691868 1208.969079 485.454720 1216.149774 C484.794149 1236.151412 483.790385 1257.289392 472.828373 1274.032634 C468.342520 1269.657844 468.679495 1262.484539 469.264599 1256.246004 C474.784906 1197.387460 473.954082 1137.935358 466.791199 1079.254058 C466.360734 1075.727509 465.883190 1072.122578 464.267134 1068.958686 C460.367949 1061.324912 461.495659 1051.405886 467.008974 1044.842235 C473.326461 1047.099668 476.664170 1054.411383 476.443024 1061.116436 C476.221877 1067.821490 473.225688 1074.081384 470.288548 1080.112956 C473.065849 1080.038694 475.837791 1081.473778 477.380341 1083.784504 C477.790464 1090.858827 476.808164 1098.011191 474.506035 1104.713016 C481.910730 1108.317762 482.629687 1118.405093 482.305815 1126.634237 M477.258641 1124.953565 C478.252033 1123.956918 479.245426 1122.960270 480.238818 1121.963623 C479.592015 1120.786275 477.747366 1120.521844 476.795860 1121.470074 C475.844355 1122.418303 476.102423 1124.263854 477.277533 1124.914714 M479.232733 1250.805828 C480.093617 1250.769887 480.121325 1249.164884 479.262195 1249.099250 C478.398804 1249.160937 478.424749 1250.775929 479.289677 1250.809855 M475.285856 1113.099997 C474.424971 1113.135938 474.397263 1114.740941 475.256394 1114.806576 C476.119784 1114.744888 476.093839 1113.129896 475.228912 1113.095970 z"/><path class="selected" fill="#000000" opacity="1.000000" stroke="none" d=" M600.148204 1261.036440 C604.309712 1262.429005 609.416093 1265.403474 608.359808 1269.662774 C607.648389 1272.531457 608.873379 1275.486855 610.072121 1278.188423 C611.779406 1282.036080 613.486691 1285.883737 615.193976 1289.731394 C619.257052 1298.888227 623.320129 1308.045061 627.383206 1317.201894 C628.872049 1320.557253 630.343751 1324.539577 628.529177 1327.730566 C627.748847 1329.102801 626.460097 1330.098337 625.205131 1331.055939 C623.475831 1332.375483 621.679609 1333.727713 619.565242 1334.238719 C617.450875 1334.749726 614.916296 1334.190505 613.753593 1332.352082 C608.529268 1324.091572 605.310540 1314.572398 604.449705 1304.836455 C604.260874 1302.700807 604.180914 1300.539095 603.639366 1298.464637 C603.113250 1296.449295 602.166468 1294.574147 601.357692 1292.654698 C597.172183 1282.721337 596.733775 1271.260521 600.148204 1261.036440 z"/><path class="selected" fill="#000000" opacity="1.000000" stroke="none" d=" M1125.236912 1836.923523 C1123.804321 1839.154778 1120.344460 1839.723975 1118.272571 1838.069257 C1119.380688 1836.698985 1120.604559 1835.251225 1122.308087 1834.800045 C1124.011615 1834.348866 1126.217859 1835.509158 1126.101768 1837.267593 z"/><path class="selected" fill="#000000" opacity="1.000000" stroke="none" d=" M1473.393424 2097.870148 C1426.289943 2109.689975 1384.106283 2140.057752 1357.950965 2180.976520 C1345.119749 2201.050356 1312.772384 2196.064520 1295.467348 2179.689702 C1278.162312 2163.314883 1269.587801 2139.810805 1254.697598 2121.212934 C1239.807395 2102.615063 1212.323707 2089.155917 1192.506076 2102.379397 C1201.125623 2067.163072 1209.804992 2030.853804 1204.414348 1995.000950 C1199.023704 1959.148097 1176.027608 1923.435762 1140.932542 1914.335074 C1063.227615 1894.184997 989.135512 1860.185010 923.187513 1814.414465 C923.675112 1828.983730 914.769779 1843.438988 901.537992 1849.556263 C900.457755 1834.333096 899.377518 1819.109930 898.297281 1803.886763 C700.576055 1675.751256 489.074815 1568.894404 268.620286 1485.754814 C251.337494 1542.517270 295.182850 1616.275844 252.572565 1657.567913 C206.350080 1702.360432 143.629598 1750.755142 84.239543 1725.941654 C25.130020 1701.245375 15.215643 1623.145255 14.248920 1559.091314 C9.551291 1247.832093 4.853663 936.572871 0.156034 625.313650 C-1.005804 548.331612 2.870566 459.982937 62.844002 411.704878 C221.499137 283.988966 372.205942 146.400529 513.802874 0.000000 C619.147367 29.488848 724.491860 58.977695 829.836354 88.466543 C844.113956 92.463241 868.002119 83.627527 858.633270 72.136304 C859.810884 86.584236 875.285659 94.793068 888.688350 100.315513 C1030.435452 158.721000 1172.182553 217.126487 1313.929654 275.531974 C1320.566471 293.226934 1339.425809 302.631779 1356.665373 310.374930 C1481.796801 366.577717 1606.928229 422.780504 1732.059657 478.983291 C1747.762263 486.036117 1770.183474 491.198423 1778.875930 476.340584 C1781.770659 866.206622 1784.665388 1256.072661 1787.560116 1645.938700 C1766.686473 1532.265351 1766.355459 1415.952028 1766.089468 1300.378379 C1765.509820 1048.519945 1764.930172 796.661511 1764.350524 544.803077 C1718.296762 602.426094 1672.243334 660.049377 1626.189238 717.672126 C1581.838348 773.163827 1537.487304 828.655405 1493.136259 884.146983 C1444.871664 944.535155 1396.607069 1004.923327 1348.342474 1065.311500 C1332.467145 1426.466323 1330.794782 1788.245238 1343.330550 2149.531394 C1396.676648 2137.032438 1432.978800 2084.574401 1443.960802 2030.895488 C1454.942805 1977.216576 1445.755362 1921.751415 1438.018126 1867.509685 C1406.992567 1650.005665 1399.690268 1429.903268 1392.431916 1210.317521 C1495.091826 1131.264380 1590.531979 1042.839411 1677.177674 946.501568 C1699.518960 986.493369 1706.102223 1035.020032 1695.223137 1079.518601 C1696.182478 1119.284930 1697.141819 1159.051260 1698.101160 1198.817589 C1702.666059 1388.040475 1707.237221 1577.385569 1722.547689 1766.043271 C1749.708303 1719.170992 1783.372594 1676.073358 1822.273918 1638.371947 C1790.825120 1695.418683 1759.376322 1752.465419 1727.927524 1809.512155 C1689.254649 1825.716594 1640.834222 1783.088518 1652.007252 1742.673935 C1581.707701 1772.750800 1517.795227 1817.659697 1465.672175 1873.604599 C1455.617879 1884.396112 1456.273701 1901.021288 1457.551618 1915.715251 C1462.832220 1976.433550 1468.112822 2037.151849 1473.393424 2097.870148 M37.230512 1417.093734 C33.083194 1483.987282 11.531358 1552.036408 29.188362 1616.690698 C39.753279 1655.376033 64.503147 1690.017956 97.675780 1712.551242 C103.477771 1716.492375 110.000271 1720.201985 117.005317 1719.848524 C134.791608 1718.951065 140.425173 1695.666846 140.992446 1677.866964 C149.837912 1400.312008 147.400504 1122.397680 133.688252 845.040566 C132.834383 827.769372 128.890901 806.413510 112.278649 801.611810 C134.652438 790.994700 142.902128 758.534866 128.312589 738.523495 C123.757628 732.275800 117.419017 727.152767 114.570403 719.964809 C111.721788 712.776850 114.806651 702.346997 122.505343 701.631806 C202.331174 771.854092 299.131766 819.339835 394.666032 865.993176 C666.126014 998.558336 940.259389 1132.101944 1233.908329 1203.055050 C1237.607853 1464.142183 1241.291749 1725.718508 1219.734509 1985.940457 C1213.904406 2056.316851 1259.426508 2127.847238 1325.649810 2152.368679 C1314.575044 1826.460235 1315.627787 1500.139851 1328.805129 1174.309648 C1330.256333 1138.426414 1326.981098 1094.077094 1294.285407 1079.220976 C1101.780083 991.751330 910.353035 901.908598 720.062427 809.720083 C682.166904 791.361153 644.316517 772.909229 606.466176 754.457328 C585.312261 744.144872 564.158346 733.832417 543.004432 723.519962 C485.069754 695.277021 427.135075 667.034079 369.200397 638.791138 C373.108801 651.867211 370.056072 666.811526 361.332575 677.307236 C356.659056 664.511305 354.585473 650.771975 355.274442 637.166721 C248.435208 584.164615 136.875469 540.682342 22.348806 507.403389 C14.798116 671.514799 12.229923 835.855414 14.648956 1000.122624 C15.918508 1086.333034 18.567244 1172.614361 27.357285 1258.384879 C32.768146 1311.182403 40.514732 1364.121384 37.230511 1417.093734 M503.099271 937.038553 C496.310838 933.939670 489.040201 930.870853 481.640413 931.834720 C474.240625 932.798587 467.061483 939.454279 468.349925 946.804505 C472.169250 968.592540 471.000605 991.239698 464.958926 1012.518871 C473.763240 1019.167832 475.218780 1033.578411 467.921883 1041.853674 C465.917341 1038.183038 467.166523 1033.078334 470.639543 1030.748123 C456.259858 1016.027137 457.067109 992.809435 457.246099 972.231516 C457.425088 951.653597 453.863245 927.446246 435.724583 917.726589 C397.371759 897.175112 359.018934 876.623635 320.666110 856.072157 C295.027767 842.333774 268.998950 828.446549 240.636176 821.995123 C246.700479 926.683437 252.764782 1031.371749 258.829086 1136.060062 C260.545153 1165.684599 286.419622 1188.323933 313.222867 1201.057518 C340.026111 1213.791103 369.866586 1220.497458 394.343960 1237.272924 C550.369655 1344.204480 737.292086 1393.623766 914.112811 1460.801191 C919.177764 1462.725459 924.528877 1464.699584 929.880060 1463.850234 C935.231243 1463.000884 940.363498 1458.190864 939.497735 1452.842312 C924.617048 1360.911703 922.697364 1266.892759 933.813125 1174.431353 C935.484764 1160.526581 936.854457 1144.620852 927.372257 1134.314304 C923.509680 1130.115930 918.294977 1127.460077 913.180493 1124.932648 C865.284276 1101.263739 815.663746 1081.085035 764.842313 1064.609389 C672.400292 1034.640893 591.502186 977.394007 503.099271 937.038553 M1203.517502 1221.232315 C1165.790056 1203.586801 1125.491117 1192.222623 1085.399868 1180.934748 C1039.655123 1168.055106 993.910377 1155.175463 948.165632 1142.295821 C949.937291 1150.297358 947.780057 1162.681361 939.758865 1161.000933 C949.031228 1174.436527 947.312234 1192.287101 945.605583 1208.522222 C936.617842 1294.021291 938.530660 1380.660293 951.283106 1465.679380 C952.102208 1471.140233 953.026400 1476.762198 955.949617 1481.446922 C961.091581 1489.687394 971.110949 1493.202660 980.367480 1496.145753 C998.698505 1501.974061 1017.029529 1507.802369 1035.360553 1513.630677 C1044.679379 1516.593576 1053.998343 1519.556521 1063.291279 1522.599650 C1116.845975 1540.137045 1169.528533 1560.337434 1221.079238 1583.101233 C1220.960930 1589.347734 1214.816572 1594.133310 1208.624534 1594.964832 C1202.432496 1595.796354 1196.265156 1593.685342 1190.373724 1591.605970 C1112.290828 1564.046604 1034.207933 1536.487251 956.125037 1508.927899 C952.963171 1507.811918 949.401918 1506.708346 946.366273 1508.132307 C940.418195 1510.922432 936.387975 1522.192453 931.501176 1517.801141 C929.214789 1515.746577 924.810874 1518.081815 925.228786 1521.127162 C925.646698 1524.172510 930.516891 1525.235064 932.165284 1522.640532 C928.155993 1533.483105 927.854314 1545.290404 927.598202 1556.847661 C925.966417 1630.483176 924.334632 1704.118690 922.702847 1777.754204 C922.467464 1788.376058 932.575916 1795.945139 941.656824 1801.460236 C1023.403204 1851.107161 1111.513363 1890.262787 1203.145500 1917.664235 C1209.461798 1866.687171 1214.286296 1815.525276 1217.610738 1764.266084 C1222.196352 1693.561035 1223.923739 1622.531011 1218.476907 1551.887088 C1216.841722 1530.679186 1214.566216 1509.273013 1217.636624 1488.224936 C1229.740565 1405.250703 1223.485987 1320.739822 1214.284391 1237.393801 C1213.837751 1233.348240 1213.275407 1229.041370 1210.639944 1225.939695 C1208.782183 1223.753297 1206.116373 1222.447834 1203.517502 1221.232315 M745.561778 1428.104999 C652.144865 1392.628184 560.180380 1353.327074 469.975923 1310.333123 C469.394829 1327.947934 468.813734 1345.562746 468.232639 1363.177557 C467.853992 1374.655525 467.472402 1386.166152 465.728022 1397.517110 C469.696676 1400.101254 469.638735 1405.816920 469.233570 1410.535379 C466.114790 1446.855248 469.141219 1483.695139 478.145591 1519.019081 C472.712444 1529.059781 467.279296 1539.100482 461.846148 1549.141183 C505.169664 1561.938465 547.436272 1578.311819 588.074874 1598.040011 C608.320710 1607.868443 628.153164 1618.522589 647.968975 1629.191497 C725.820355 1671.106972 804.135700 1713.720180 871.661577 1770.799075 C876.868594 1775.200509 882.352390 1779.854685 889.061137 1781.070565 C895.769883 1782.286446 903.906294 1778.470230 904.720529 1771.700986 C908.904708 1736.915222 909.857465 1701.828702 910.538381 1666.798816 C911.542779 1615.127345 911.965162 1563.444561 911.805423 1511.763576 C911.779626 1503.417435 911.576348 1494.518263 906.900241 1487.605033 C902.380089 1480.922368 894.562676 1477.410389 887.150561 1474.224430 C847.884015 1457.346448 808.060172 1440.307129 765.769723 1434.122810 C758.800745 1433.103706 752.146056 1430.605501 745.561777 1428.104999 M1414.776238 1366.815488 C1415.709756 1399.393950 1416.643275 1431.972496 1417.460016 1464.554095 C1420.772458 1466.706708 1422.279844 1470.722723 1423.399020 1474.511319 C1437.481678 1522.183443 1422.677051 1574.954793 1437.666135 1622.349730 C1475.218501 1602.379912 1512.770868 1582.410095 1550.323235 1562.440278 C1571.490546 1551.183801 1592.756043 1539.883776 1615.365531 1531.910421 C1628.685384 1527.213105 1643.968052 1522.411782 1649.986541 1509.634418 C1652.828190 1503.601544 1653.044286 1496.711519 1653.209800 1490.044950 C1653.595570 1474.506961 1653.583874 1457.653907 1644.254785 1445.222254 C1639.877734 1439.389534 1640.478247 1431.357735 1641.164805 1424.097718 C1644.624564 1387.512428 1645.152643 1350.650300 1642.742312 1313.980917 C1638.714884 1311.252698 1633.304026 1313.408399 1628.970151 1315.617672 C1572.520761 1344.393796 1517.232465 1375.447510 1463.284905 1408.677916 C1453.029257 1414.995149 1441.196652 1421.653959 1429.608404 1418.367887 C1426.279549 1416.263027 1425.981232 1411.229620 1427.918552 1407.800553 C1429.855871 1404.371486 1433.357887 1402.173038 1436.721186 1400.123666 C1499.487238 1361.878196 1563.433496 1325.569642 1628.438319 1291.267073 C1631.017662 1289.905973 1633.632224 1288.524530 1635.766368 1286.536810 C1643.862947 1278.995741 1642.443572 1266.055102 1640.672452 1255.133314 C1633.440762 1210.538498 1630.925997 1165.180270 1633.183632 1120.059344 C1634.368184 1096.384989 1636.771467 1071.984715 1629.201918 1049.521853 C1628.544215 1047.570100 1627.746670 1045.547116 1626.146672 1044.250228 C1621.813907 1040.738281 1615.565364 1044.672098 1611.482216 1048.471378 C1590.290678 1068.189641 1569.386430 1088.216660 1548.778347 1108.543935 C1508.569092 1148.205295 1464.324454 1183.773260 1416.949198 1214.520500 C1413.932931 1216.478101 1410.542462 1219.062514 1410.645456 1222.656879 C1411.811636 1263.354945 1412.977816 1304.053012 1414.143995 1344.751079 C1414.354743 1352.105882 1414.565491 1359.460685 1414.776238 1366.815488 M254.737142 1189.076811 C256.242662 1232.318395 257.748182 1275.559980 259.253702 1318.801564 C260.373663 1350.969126 261.493624 1383.136687 262.613586 1415.304249 C262.833409 1421.618008 263.078171 1428.061971 265.298688 1433.976460 C269.430257 1444.981140 279.607755 1452.359247 289.254946 1459.075239 C334.274718 1490.416185 380.857562 1522.454580 434.479899 1534.016572 C438.871198 1534.963418 442.145278 1538.628112 446.277817 1540.389402 C450.410357 1542.150691 456.853802 1540.260191 456.471117 1535.784303 C457.955485 1472.601010 457.243237 1409.366137 454.336091 1346.232308 C454.131141 1341.781457 453.919764 1337.271820 454.851588 1332.914782 C450.831322 1336.056138 444.181871 1334.877410 441.486355 1330.545568 C438.790839 1326.213726 440.670752 1319.727547 445.264936 1317.508506 C450.869832 1314.801281 451.903495 1306.719333 449.001192 1301.212922 C446.098889 1295.706511 440.536366 1292.204611 435.200964 1288.998770 C393.519956 1263.954231 350.463147 1241.199632 306.289457 1220.871807 C288.372339 1211.528393 271.128887 1200.893459 254.737142 1189.076811 M1468.210067 1635.151455 C1456.226181 1638.586459 1442.889948 1643.116116 1437.482448 1654.348735 C1434.544245 1660.452059 1434.549024 1667.504590 1434.665755 1674.277327 C1435.149451 1702.341404 1436.547533 1730.389713 1438.857036 1758.362781 C1441.155816 1786.205969 1443.454597 1814.049158 1445.753377 1841.892346 C1446.034300 1845.294926 1446.506141 1849.080559 1449.138767 1851.254438 C1453.871326 1855.162330 1460.776869 1850.854969 1465.290096 1846.695701 C1481.671833 1831.598718 1498.053571 1816.501741 1514.435309 1801.404764 C1509.197193 1787.512220 1505.353021 1773.094520 1502.979209 1758.438271 C1497.825834 1726.620602 1499.403913 1693.048833 1486.339966 1663.582673 C1481.920766 1653.615023 1475.752821 1643.686634 1476.404155 1632.802740 C1473.672793 1633.585645 1470.941430 1634.368550 1468.210067 1635.151455 M1554.563129 1590.357470 C1549.258796 1593.123298 1546.680616 1599.607220 1547.086299 1605.575567 C1547.491981 1611.543915 1550.368461 1617.063767 1553.681845 1622.044453 C1552.726087 1624.421170 1553.541489 1627.101805 1554.359851 1629.529257 C1566.106517 1664.372644 1577.853181 1699.216028 1589.599846 1734.059413 C1590.956196 1738.082669 1593.074314 1742.771231 1597.280299 1743.350856 C1599.567550 1743.666059 1601.794708 1742.598801 1603.851115 1741.549011 C1616.752744 1734.962761 1629.404558 1727.887172 1641.770221 1720.342565 C1645.630450 1717.987340 1649.806655 1715.112976 1650.717333 1710.683628 C1651.294684 1707.875516 1650.411042 1704.995504 1649.531624 1702.266868 C1635.420289 1658.482613 1619.849466 1615.168755 1602.853710 1572.421415 C1585.669803 1574.234959 1569.884684 1582.368382 1554.563129 1590.357471 M1573.631885 1759.944111 C1575.398109 1758.790037 1577.288144 1757.476692 1577.904187 1755.458791 C1578.399247 1753.837179 1577.959156 1752.094737 1577.518706 1750.457448 C1573.943058 1737.165660 1570.367410 1723.873872 1566.791761 1710.582084 C1558.510496 1679.798067 1550.204167 1648.937477 1538.521316 1619.276963 C1536.650799 1614.528078 1533.917531 1609.156960 1528.887511 1608.291136 C1526.224130 1607.832694 1523.543023 1608.809244 1521.035036 1609.816097 C1514.060844 1612.615950 1507.234435 1615.783874 1500.593703 1619.302284 C1498.915019 1620.191690 1497.128128 1621.233091 1496.410562 1622.992103 C1495.861160 1624.338887 1496.048772 1625.858552 1496.245323 1627.299745 C1498.946636 1647.106906 1501.647949 1666.914066 1504.349262 1686.721227 C1505.239741 1693.250590 1506.130259 1699.780227 1507.115400 1706.295979 C1511.454748 1734.996556 1517.631286 1763.419230 1525.594658 1791.332270 C1541.607068 1780.869550 1557.619476 1770.406831 1573.631885 1759.944111 M1632.983734 1615.910272 C1634.417278 1621.962098 1639.596438 1626.407828 1641.991851 1632.147309 C1644.809348 1638.898115 1643.572582 1646.925157 1646.920562 1653.429209 C1649.148821 1657.758003 1653.431885 1662.010351 1651.910102 1666.635042 C1650.720742 1670.249498 1657.041868 1672.376305 1659.531094 1669.498350 C1662.020320 1666.620396 1661.192093 1662.183607 1659.676482 1658.693365 C1658.160872 1655.203122 1656.050148 1651.694377 1656.396610 1647.905072 C1657.530716 1635.501190 1657.602970 1623.000398 1656.612324 1610.584234 C1654.865132 1588.685982 1653.117939 1566.787730 1651.370747 1544.889479 C1651.168988 1542.360760 1650.201645 1539.077325 1647.664955 1539.095391 C1646.881144 1539.100974 1646.149955 1539.464272 1645.451146 1539.819314 C1637.744403 1543.734869 1630.037660 1547.650422 1622.330916 1551.565974 C1619.716168 1552.894445 1616.691814 1555.984414 1618.654490 1558.163782 C1624.549531 1564.709671 1621.043563 1575.065667 1622.739929 1583.709884 C1624.357386 1591.952019 1630.850002 1598.677300 1632.096690 1606.983607 C1632.541020 1609.944046 1632.293711 1612.997284 1632.983734 1615.910272 M1543.464973 816.763828 C1543.558903 813.349089 1546.465714 810.706478 1549.392692 808.945211 C1552.319670 807.183944 1555.629632 805.740120 1557.587813 802.941051 C1559.813277 799.759925 1559.777277 795.587053 1560.663618 791.807284 C1561.549958 788.027514 1564.348492 783.951636 1568.216803 784.280912 C1566.599734 782.528095 1564.982663 780.775278 1563.365593 779.022461 C1557.579183 787.692295 1551.295241 796.030031 1544.554988 803.980978 C1540.745534 808.474689 1537.392479 813.332544 1534.046441 818.181194 C1531.040702 822.536724 1528.034963 826.892254 1525.029225 831.247784 C1524.496542 832.019680 1523.938444 832.949355 1524.241769 833.836806 C1524.645734 835.018705 1526.336833 835.216583 1527.435102 834.621707 C1528.533371 834.026831 1529.262116 832.939965 1530.186461 832.099930 C1532.314624 830.165879 1535.321287 829.647188 1538.052263 828.746409 C1540.783238 827.845631 1543.664646 826.106532 1544.163747 823.274478 C1544.544551 821.113683 1543.404643 818.957092 1543.464974 816.763828 M1675.719635 1787.091605 C1682.424037 1789.106398 1689.178594 1790.954294 1695.974942 1792.633003 C1694.014114 1785.783989 1682.284188 1784.404705 1682.261860 1777.280567 C1682.236290 1769.122062 1681.416097 1760.966241 1679.816659 1752.966013 C1679.620934 1751.987016 1679.169302 1750.787812 1678.172135 1750.738822 C1677.392854 1750.700536 1676.808739 1751.429450 1676.440111 1752.117096 C1674.718152 1755.329275 1674.623151 1759.133456 1674.567688 1762.777651 C1674.556074 1763.540839 1674.544459 1764.304028 1674.532844 1765.067216 C1674.438287 1771.280221 1674.343731 1777.493226 1674.249174 1783.706231 C1674.228989 1785.032505 1674.449330 1786.709855 1675.719635 1787.091605 M204.888700 1212.266352 C204.472490 1213.813715 204.053207 1215.426506 204.356635 1216.999877 C204.667892 1218.613827 205.775377 1220.054202 207.255181 1220.769670 C210.751003 1218.172889 212.391002 1213.618648 212.359482 1209.263990 C212.327962 1204.909332 210.834533 1200.698878 209.071140 1196.717109 C207.676993 1201.900190 206.282847 1207.083271 204.888700 1212.266352 M238.600019 975.482181 C236.347693 973.761478 236.437517 970.432830 236.364373 967.599380 C236.291228 964.765929 235.194447 961.263727 232.380675 960.922429 C232.056038 971.132054 233.830234 981.403840 237.560809 990.913028 C238.179709 987.160022 238.798610 983.407016 239.417510 979.654009 C239.660486 978.180612 239.786654 976.388732 238.600019 975.482181 M166.183416 992.889609 C166.198346 995.413811 166.213277 997.938012 166.228207 1000.462214 C166.240256 1002.499116 166.381016 1004.819473 167.962372 1006.103384 C169.791859 1007.588754 173.037415 1006.442490 173.528267 1004.137624 C172.705746 1000.101729 171.883224 996.065835 171.060703 992.029940 C170.760602 990.557415 170.079975 988.741651 168.578034 988.690993 C166.767628 988.629935 166.172703 991.078205 166.183418 992.889608 M192.208995 1258.032801 C192.204460 1258.791158 192.217438 1259.607061 192.662392 1260.221179 C194.040792 1262.123622 196.993403 1259.887712 197.715937 1257.652266 C198.966466 1253.783262 198.536311 1249.490843 197.015448 1245.719904 C196.580785 1244.642168 195.980542 1243.519227 194.919315 1243.045684 C193.858087 1242.572141 192.297694 1243.198388 192.290746 1244.360455 C192.263496 1248.917904 192.236245 1253.475353 192.208995 1258.032801 M217.341554 1114.049108 C217.896001 1117.088412 218.450449 1120.127716 219.004896 1123.167020 C219.781701 1121.363934 220.560879 1119.554198 221.089590 1117.663428 C222.664018 1112.032987 221.867136 1105.779426 218.930995 1100.723759 C218.401181 1105.165542 217.871367 1109.607325 217.341554 1114.049108 M1569.639612 1690.120971 C1568.808319 1687.586965 1567.977026 1685.052960 1567.145732 1682.518955 C1565.160682 1687.511731 1567.019845 1693.751002 1571.413953 1696.842933 C1573.021849 1694.781311 1572.435028 1691.381040 1570.229131 1689.977605 M1678.350803 989.701430 C1680.754961 988.803932 1680.889704 984.793422 1678.620486 983.595035 C1676.351269 982.396649 1673.199366 984.492604 1673.255802 987.058202 C1673.312237 989.623800 1676.290094 991.588157 1678.733906 990.805045 M1562.083072 1670.058249 C1562.543899 1670.854296 1563.897202 1670.567318 1564.326236 1669.753695 C1564.755269 1668.940071 1564.524490 1667.941270 1564.189837 1667.084496 C1563.201361 1664.553817 1561.363126 1662.363649 1559.042188 1660.951323 C1557.342311 1664.040670 1559.045683 1668.470784 1562.377393 1669.625494 M23.720622 479.244556 C24.170189 477.713738 23.031809 476.078792 21.582593 475.411494 C20.133376 474.744196 18.469032 474.800513 16.875072 474.869834 C16.041547 474.906081 15.114495 474.984032 14.553363 475.601452 C13.239469 477.047145 15.486199 479.223042 17.439570 479.196771 C19.392941 479.170500 21.436051 478.241046 23.222372 479.031872 M578.299722 733.811628 C577.036185 733.192818 575.664988 732.556901 574.278369 732.795107 C572.891751 733.033313 571.667679 734.589636 572.312307 735.840198 C573.558626 738.258028 579.119025 736.339177 579.037348 739.058097 C580.800865 737.963062 580.239314 734.703112 578.211052 734.261237 M204.638746 1510.401461 C203.278882 1511.533955 205.881803 1513.645096 207.280927 1512.561478 C208.680050 1511.477860 208.595137 1509.377407 208.376981 1507.621223 C208.249393 1506.594120 208.011597 1505.403760 207.083939 1504.944770 C206.026574 1504.421604 204.707145 1505.288724 204.312071 1506.400317 C203.916998 1507.511910 204.172645 1508.736900 204.431747 1509.887808 M208.596354 1543.868938 C208.222210 1542.940852 207.848066 1542.012766 207.473922 1541.084680 C205.947744 1542.238866 204.311872 1543.562175 203.945689 1545.440278 C203.579506 1547.318382 205.446529 1549.573567 207.186706 1548.777861 C208.827400 1548.027649 208.667562 1545.638881 208.014727 1543.957065 M1685.221466 1384.589524 C1686.696225 1384.352963 1686.624942 1381.855334 1685.266927 1381.233507 C1683.908912 1380.611680 1682.289858 1381.413049 1681.282813 1382.516106 C1680.680389 1383.175966 1680.183534 1384.007602 1680.214722 1384.900550 C1680.295502 1387.213324 1684.642985 1387.233106 1684.744806 1384.921166 M194.347244 1231.980489 C193.833503 1233.704688 194.200791 1235.667067 195.303331 1237.088755 C196.118159 1234.599289 196.932986 1232.109822 197.747813 1229.620356 C197.954233 1228.989702 198.159155 1228.292693 197.903528 1227.680329 C197.374780 1226.413690 195.286783 1226.710409 194.583748 1227.889260 C193.880713 1229.068112 194.128997 1230.558778 194.399508 1231.904427 M219.885342 1089.608471 C221.470773 1088.480099 220.735115 1085.504623 218.826745 1085.123913 C216.918375 1084.743204 215.094459 1086.978735 215.725351 1088.819602 C216.356244 1090.660468 218.972192 1091.379809 220.545753 1090.234942 M1638.347622 1637.868336 C1636.232555 1636.690654 1633.405529 1639.721873 1634.727617 1641.749809 C1636.049706 1643.777746 1639.963894 1642.414111 1639.739732 1640.003677 C1639.245072 1639.318451 1638.750410 1638.633229 1638.255749 1637.948006 M1683.318529 1065.013760 C1681.771357 1066.232474 1681.616429 1068.842545 1683.008563 1070.235730 C1684.400697 1071.628915 1687.010884 1071.475956 1688.230765 1069.929705 C1686.573583 1068.270752 1684.916401 1066.611794 1683.259218 1064.952837 M1029.274627 1162.882276 C1030.929848 1163.305484 1032.752393 1163.027950 1034.206620 1162.131241 C1033.284591 1160.580846 1031.920338 1158.925553 1030.118970 1159.020042 C1028.317602 1159.114530 1027.529764 1162.337644 1029.319478 1162.562985 M1577.408366 1721.028570 C1579.289616 1718.343329 1577.830008 1714.009728 1574.707548 1713.009795 C1574.370859 1715.840236 1575.385159 1718.801608 1577.386480 1720.831258 M1412.513098 1457.583568 C1411.810246 1455.929968 1408.919876 1456.172238 1408.356461 1457.878392 C1407.793045 1459.584545 1409.672042 1461.480445 1411.427475 1461.097235 C1413.182909 1460.714026 1414.155951 1458.463792 1413.402445 1456.832650 M1235.209767 1664.853840 C1237.194211 1663.861798 1235.299550 1660.071789 1233.315106 1661.063831 C1231.330662 1662.055873 1233.225323 1665.845883 1235.209767 1664.853840 M1506.008247 1726.665958 C1505.153418 1724.767006 1504.298589 1722.868054 1503.443760 1720.969102 C1501.112772 1722.617186 1502.359367 1727.093699 1505.206685 1727.299756 M23.225089 1511.089518 C21.293170 1510.077291 19.320252 1513.689837 21.191065 1514.810985 C22.716878 1514.164708 23.804334 1512.592207 23.870458 1510.936488 M1563.900505 1679.009898 C1563.853671 1677.334225 1562.740531 1675.735936 1561.185063 1675.110963 C1559.317621 1676.217299 1561.267190 1679.803756 1563.211178 1678.838233 M935.775481 1353.150972 C936.141305 1352.220604 935.531709 1351.036978 934.561851 1350.794518 C933.591993 1350.552058 932.497120 1351.309576 932.382095 1352.302642 C933.317115 1352.610843 934.252138 1352.919044 935.187160 1353.227245 M192.270701 1219.940102 C193.111138 1221.273588 195.392777 1221.281923 196.242935 1219.954613 C195.395456 1218.624161 193.109870 1218.630858 192.270201 1219.966254 M1232.544628 1443.841098 C1232.189555 1442.820838 1231.834482 1441.800577 1231.479409 1440.780317 C1230.757611 1441.519775 1229.979972 1442.416805 1230.119704 1443.440651 C1230.259437 1444.464497 1231.989583 1444.975246 1232.274261 1443.981896 M930.288480 1497.999701 C930.140287 1497.004793 928.398551 1497.302633 928.159830 1498.279780 C927.921109 1499.256926 928.592039 1500.201190 929.223303 1500.984331 C930.164343 1500.358938 930.577891 1499.045826 930.165054 1497.994042 M241.272105 1024.964320 C239.938618 1025.804757 239.930283 1028.086396 241.257594 1028.936553 C242.588046 1028.089075 242.581349 1025.803488 241.245953 1024.963819 M1459.285856 1395.099997 C1458.424971 1395.135938 1458.397263 1396.740941 1459.256394 1396.806576 C1460.119784 1396.744888 1460.093839 1395.129896 1459.228912 1395.095970 M465.285856 995.099997 C464.424971 995.135938 464.397263 996.740941 465.256394 996.806576 C466.119784 996.744888 466.093839 995.129896 465.228912 995.095970 M568.138130 961.868225 C567.868993 960.933158 566.083451 961.444410 566.350000 962.380219 C566.986327 962.418153 567.622656 962.456085 568.258984 962.494017 M1178.260451 1206.505668 C1178.897568 1206.459054 1179.534685 1206.412439 1180.171802 1206.365825 C1180.414486 1205.438036 1178.669097 1204.940304 1178.385917 1205.856547 M255.285856 1559.099997 C254.424971 1559.135938 254.397263 1560.740941 255.256394 1560.806576 C256.119784 1560.744888 256.093839 1559.129896 255.228912 1559.095970 M1677.285856 1177.099997 C1676.424971 1177.135938 1676.397263 1178.740941 1677.256394 1178.806576 C1678.119784 1178.744888 1678.093839 1177.129896 1677.228912 1177.095970 M150.406378 1605.926351 C150.442320 1606.787235 152.047322 1606.814944 152.112957 1605.955813 C152.051270 1605.092423 150.436277 1605.118368 150.402351 1605.983295 M767.285856 821.099997 C766.424971 821.135938 766.397263 822.740941 767.256394 822.806576 C768.119784 822.744888 768.093839 821.129896 767.228912 821.095970 M1329.285856 1801.099997 C1328.424971 1801.135938 1328.397263 1802.740941 1329.256394 1802.806576 C1330.119784 1802.744888 1330.093839 1801.129896 1329.228912 1801.095970 z"/></svg>